<svg id="visual" viewBox="0 0 1366 300" width="1366" height="300" xmlns="http://www.w3.org/2000/svg"
    xmlns:xlink="http://www.w3.org/1999/xlink" version="1.1">
    <!-- <rect x="0" y="0" width="1366" height="300" fill="#FFFFFF"></rect> -->
    <path
        d="M0 98L20.7 106.8C41.3 115.7 82.7 133.3 124 137.3C165.3 141.3 206.7 131.7 248.2 124.2C289.7 116.7 331.3 111.3 372.8 110.2C414.3 109 455.7 112 497 117.5C538.3 123 579.7 131 621 129.7C662.3 128.3 703.7 117.7 745 106.3C786.3 95 827.7 83 869 78.5C910.3 74 951.7 77 993.2 87.7C1034.7 98.3 1076.3 116.7 1117.8 124.3C1159.3 132 1200.7 129 1242 134.2C1283.3 139.3 1324.7 152.7 1345.3 159.3L1366 166L1366 301L1345.3 301C1324.7 301 1283.3 301 1242 301C1200.7 301 1159.3 301 1117.8 301C1076.3 301 1034.7 301 993.2 301C951.7 301 910.3 301 869 301C827.7 301 786.3 301 745 301C703.7 301 662.3 301 621 301C579.7 301 538.3 301 497 301C455.7 301 414.3 301 372.8 301C331.3 301 289.7 301 248.2 301C206.7 301 165.3 301 124 301C82.7 301 41.3 301 20.7 301L0 301Z"
        fill="#f7770f"></path>
    <path
        d="M0 172L20.7 173.2C41.3 174.3 82.7 176.7 124 182.7C165.3 188.7 206.7 198.3 248.2 202.2C289.7 206 331.3 204 372.8 200.3C414.3 196.7 455.7 191.3 497 182.2C538.3 173 579.7 160 621 153.7C662.3 147.3 703.7 147.7 745 157C786.3 166.3 827.7 184.7 869 188.3C910.3 192 951.7 181 993.2 183.8C1034.7 186.7 1076.3 203.3 1117.8 205.8C1159.3 208.3 1200.7 196.7 1242 193.8C1283.3 191 1324.7 197 1345.3 200L1366 203L1366 301L1345.3 301C1324.7 301 1283.3 301 1242 301C1200.7 301 1159.3 301 1117.8 301C1076.3 301 1034.7 301 993.2 301C951.7 301 910.3 301 869 301C827.7 301 786.3 301 745 301C703.7 301 662.3 301 621 301C579.7 301 538.3 301 497 301C455.7 301 414.3 301 372.8 301C331.3 301 289.7 301 248.2 301C206.7 301 165.3 301 124 301C82.7 301 41.3 301 20.7 301L0 301Z"
        fill="#f69b05"></path>
    <path
        d="M0 244L20.7 241.3C41.3 238.7 82.7 233.3 124 227.5C165.3 221.7 206.7 215.3 248.2 222.3C289.7 229.3 331.3 249.7 372.8 257.2C414.3 264.7 455.7 259.3 497 256C538.3 252.7 579.7 251.3 621 251C662.3 250.7 703.7 251.3 745 248.2C786.3 245 827.7 238 869 232.3C910.3 226.7 951.7 222.3 993.2 216C1034.7 209.7 1076.3 201.3 1117.8 200.5C1159.3 199.7 1200.7 206.3 1242 214.3C1283.3 222.3 1324.7 231.7 1345.3 236.3L1366 241L1366 301L1345.3 301C1324.7 301 1283.3 301 1242 301C1200.7 301 1159.3 301 1117.8 301C1076.3 301 1034.7 301 993.2 301C951.7 301 910.3 301 869 301C827.7 301 786.3 301 745 301C703.7 301 662.3 301 621 301C579.7 301 538.3 301 497 301C455.7 301 414.3 301 372.8 301C331.3 301 289.7 301 248.2 301C206.7 301 165.3 301 124 301C82.7 301 41.3 301 20.7 301L0 301Z"
        fill="#f2bd1d"></path>
</svg>