<svg id="visual" viewBox="0 0 1366 300" width="1366" height="300" xmlns="http://www.w3.org/2000/svg"
    xmlns:xlink="http://www.w3.org/1999/xlink" version="1.1">
    <!-- <rect x="0" y="0" width="1366" height="300" fill="#FFFFFF"></rect> -->
    <path
        d="M0 139L20.7 142.2C41.3 145.3 82.7 151.7 124 151.3C165.3 151 206.7 144 248.2 129C289.7 114 331.3 91 372.8 79.3C414.3 67.7 455.7 67.3 497 83C538.3 98.7 579.7 130.3 621 139.8C662.3 149.3 703.7 136.7 745 135.8C786.3 135 827.7 146 869 150.2C910.3 154.3 951.7 151.7 993.2 148.5C1034.7 145.3 1076.3 141.7 1117.8 136.2C1159.3 130.7 1200.7 123.3 1242 118.3C1283.3 113.3 1324.7 110.7 1345.3 109.3L1366 108L1366 301L1345.3 301C1324.7 301 1283.3 301 1242 301C1200.7 301 1159.3 301 1117.8 301C1076.3 301 1034.7 301 993.2 301C951.7 301 910.3 301 869 301C827.7 301 786.3 301 745 301C703.7 301 662.3 301 621 301C579.7 301 538.3 301 497 301C455.7 301 414.3 301 372.8 301C331.3 301 289.7 301 248.2 301C206.7 301 165.3 301 124 301C82.7 301 41.3 301 20.7 301L0 301Z"
        fill="#f7770f"></path>
    <path
        d="M0 214L20.7 199.8C41.3 185.7 82.7 157.3 124 151.5C165.3 145.7 206.7 162.3 248.2 162.3C289.7 162.3 331.3 145.7 372.8 146.3C414.3 147 455.7 165 497 173.5C538.3 182 579.7 181 621 184.2C662.3 187.3 703.7 194.7 745 198.2C786.3 201.7 827.7 201.3 869 201.8C910.3 202.3 951.7 203.7 993.2 193.7C1034.7 183.7 1076.3 162.3 1117.8 163.3C1159.3 164.3 1200.7 187.7 1242 197C1283.3 206.3 1324.7 201.7 1345.3 199.3L1366 197L1366 301L1345.3 301C1324.7 301 1283.3 301 1242 301C1200.7 301 1159.3 301 1117.8 301C1076.3 301 1034.7 301 993.2 301C951.7 301 910.3 301 869 301C827.7 301 786.3 301 745 301C703.7 301 662.3 301 621 301C579.7 301 538.3 301 497 301C455.7 301 414.3 301 372.8 301C331.3 301 289.7 301 248.2 301C206.7 301 165.3 301 124 301C82.7 301 41.3 301 20.7 301L0 301Z"
        fill="#f69b05"></path>
    <path
        d="M0 238L20.7 242.3C41.3 246.7 82.7 255.3 124 251C165.3 246.7 206.7 229.3 248.2 218.5C289.7 207.7 331.3 203.3 372.8 203.5C414.3 203.7 455.7 208.3 497 210.8C538.3 213.3 579.7 213.7 621 223C662.3 232.3 703.7 250.7 745 249C786.3 247.3 827.7 225.7 869 216.7C910.3 207.7 951.7 211.3 993.2 209.3C1034.7 207.3 1076.3 199.7 1117.8 206C1159.3 212.3 1200.7 232.7 1242 241.5C1283.3 250.3 1324.7 247.7 1345.3 246.3L1366 245L1366 301L1345.3 301C1324.7 301 1283.3 301 1242 301C1200.7 301 1159.3 301 1117.8 301C1076.3 301 1034.7 301 993.2 301C951.7 301 910.3 301 869 301C827.7 301 786.3 301 745 301C703.7 301 662.3 301 621 301C579.7 301 538.3 301 497 301C455.7 301 414.3 301 372.8 301C331.3 301 289.7 301 248.2 301C206.7 301 165.3 301 124 301C82.7 301 41.3 301 20.7 301L0 301Z"
        fill="#f2bd1d"></path>
</svg>