<svg id="visual" viewBox="0 0 1366 300" width="1366" height="300" xmlns="http://www.w3.org/2000/svg"
    xmlns:xlink="http://www.w3.org/1999/xlink" version="1.1">
    <!-- <rect x="0" y="0" width="1366" height="300" fill="#FFFFFF"></rect> -->
    <path
        d="M0 89L20.7 95C41.3 101 82.7 113 124 120.5C165.3 128 206.7 131 248.2 126.5C289.7 122 331.3 110 372.8 100.8C414.3 91.7 455.7 85.3 497 83.5C538.3 81.7 579.7 84.3 621 95.3C662.3 106.3 703.7 125.7 745 137.5C786.3 149.3 827.7 153.7 869 153.8C910.3 154 951.7 150 993.2 148.5C1034.7 147 1076.3 148 1117.8 138.2C1159.3 128.3 1200.7 107.7 1242 100C1283.3 92.3 1324.7 97.7 1345.3 100.3L1366 103L1366 301L1345.3 301C1324.7 301 1283.3 301 1242 301C1200.7 301 1159.3 301 1117.8 301C1076.3 301 1034.7 301 993.2 301C951.7 301 910.3 301 869 301C827.7 301 786.3 301 745 301C703.7 301 662.3 301 621 301C579.7 301 538.3 301 497 301C455.7 301 414.3 301 372.8 301C331.3 301 289.7 301 248.2 301C206.7 301 165.3 301 124 301C82.7 301 41.3 301 20.7 301L0 301Z"
        fill="#f7770f"></path>
    <path
        d="M0 178L20.7 178.5C41.3 179 82.7 180 124 186.3C165.3 192.7 206.7 204.3 248.2 210.2C289.7 216 331.3 216 372.8 207.5C414.3 199 455.7 182 497 172.3C538.3 162.7 579.7 160.3 621 167.7C662.3 175 703.7 192 745 190.5C786.3 189 827.7 169 869 170.5C910.3 172 951.7 195 993.2 204.7C1034.7 214.3 1076.3 210.7 1117.8 200.5C1159.3 190.3 1200.7 173.7 1242 160.8C1283.3 148 1324.7 139 1345.3 134.5L1366 130L1366 301L1345.3 301C1324.7 301 1283.3 301 1242 301C1200.7 301 1159.3 301 1117.8 301C1076.3 301 1034.7 301 993.2 301C951.7 301 910.3 301 869 301C827.7 301 786.3 301 745 301C703.7 301 662.3 301 621 301C579.7 301 538.3 301 497 301C455.7 301 414.3 301 372.8 301C331.3 301 289.7 301 248.2 301C206.7 301 165.3 301 124 301C82.7 301 41.3 301 20.7 301L0 301Z"
        fill="#f69b05"></path>
    <path
        d="M0 195L20.7 202.8C41.3 210.7 82.7 226.3 124 230.8C165.3 235.3 206.7 228.7 248.2 227.2C289.7 225.7 331.3 229.3 372.8 229.3C414.3 229.3 455.7 225.7 497 225.5C538.3 225.3 579.7 228.7 621 225C662.3 221.3 703.7 210.7 745 207.3C786.3 204 827.7 208 869 216C910.3 224 951.7 236 993.2 243.7C1034.7 251.3 1076.3 254.7 1117.8 251.2C1159.3 247.7 1200.7 237.3 1242 229.7C1283.3 222 1324.7 217 1345.3 214.5L1366 212L1366 301L1345.3 301C1324.7 301 1283.3 301 1242 301C1200.7 301 1159.3 301 1117.8 301C1076.3 301 1034.7 301 993.2 301C951.7 301 910.3 301 869 301C827.7 301 786.3 301 745 301C703.7 301 662.3 301 621 301C579.7 301 538.3 301 497 301C455.7 301 414.3 301 372.8 301C331.3 301 289.7 301 248.2 301C206.7 301 165.3 301 124 301C82.7 301 41.3 301 20.7 301L0 301Z"
        fill="#f2bd1d"></path>
</svg>