<svg id="visual" viewBox="0 0 1366 300" width="1366" height="300" xmlns="http://www.w3.org/2000/svg"
    xmlns:xlink="http://www.w3.org/1999/xlink" version="1.1">
    <!-- <rect x="0" y="0" width="1366" height="300" fill="#FFFFFF"></rect> -->
    <path
        d="M0 115L20.7 107.8C41.3 100.7 82.7 86.3 124 88.2C165.3 90 206.7 108 248.2 120.7C289.7 133.3 331.3 140.7 372.8 132.2C414.3 123.7 455.7 99.3 497 89.2C538.3 79 579.7 83 621 89.8C662.3 96.7 703.7 106.3 745 116.2C786.3 126 827.7 136 869 142.2C910.3 148.3 951.7 150.7 993.2 142.3C1034.7 134 1076.3 115 1117.8 114.7C1159.3 114.3 1200.7 132.7 1242 141.5C1283.3 150.3 1324.7 149.7 1345.3 149.3L1366 149L1366 301L1345.3 301C1324.7 301 1283.3 301 1242 301C1200.7 301 1159.3 301 1117.8 301C1076.3 301 1034.7 301 993.2 301C951.7 301 910.3 301 869 301C827.7 301 786.3 301 745 301C703.7 301 662.3 301 621 301C579.7 301 538.3 301 497 301C455.7 301 414.3 301 372.8 301C331.3 301 289.7 301 248.2 301C206.7 301 165.3 301 124 301C82.7 301 41.3 301 20.7 301L0 301Z"
        fill="#f7770f"></path>
    <path
        d="M0 175L20.7 169C41.3 163 82.7 151 124 154.2C165.3 157.3 206.7 175.7 248.2 176.7C289.7 177.7 331.3 161.3 372.8 151.3C414.3 141.3 455.7 137.7 497 143.8C538.3 150 579.7 166 621 166.2C662.3 166.3 703.7 150.7 745 156C786.3 161.3 827.7 187.7 869 190.2C910.3 192.7 951.7 171.3 993.2 158.2C1034.7 145 1076.3 140 1117.8 137.2C1159.3 134.3 1200.7 133.7 1242 133.5C1283.3 133.3 1324.7 133.7 1345.3 133.8L1366 134L1366 301L1345.3 301C1324.7 301 1283.3 301 1242 301C1200.7 301 1159.3 301 1117.8 301C1076.3 301 1034.7 301 993.2 301C951.7 301 910.3 301 869 301C827.7 301 786.3 301 745 301C703.7 301 662.3 301 621 301C579.7 301 538.3 301 497 301C455.7 301 414.3 301 372.8 301C331.3 301 289.7 301 248.2 301C206.7 301 165.3 301 124 301C82.7 301 41.3 301 20.7 301L0 301Z"
        fill="#f69b05"></path>
    <path
        d="M0 224L20.7 220.3C41.3 216.7 82.7 209.3 124 214C165.3 218.7 206.7 235.3 248.2 240C289.7 244.7 331.3 237.3 372.8 237.8C414.3 238.3 455.7 246.7 497 248.2C538.3 249.7 579.7 244.3 621 235C662.3 225.7 703.7 212.3 745 213.5C786.3 214.7 827.7 230.3 869 235C910.3 239.7 951.7 233.3 993.2 226.2C1034.7 219 1076.3 211 1117.8 216.3C1159.3 221.7 1200.7 240.3 1242 250.7C1283.3 261 1324.7 263 1345.3 264L1366 265L1366 301L1345.3 301C1324.7 301 1283.3 301 1242 301C1200.7 301 1159.3 301 1117.8 301C1076.3 301 1034.7 301 993.2 301C951.7 301 910.3 301 869 301C827.7 301 786.3 301 745 301C703.7 301 662.3 301 621 301C579.7 301 538.3 301 497 301C455.7 301 414.3 301 372.8 301C331.3 301 289.7 301 248.2 301C206.7 301 165.3 301 124 301C82.7 301 41.3 301 20.7 301L0 301Z"
        fill="#f2bd1d"></path>
</svg>