<svg xmlns="http://www.w3.org/2000/svg" width="1366" height="675" viewBox="0 0 1366 675">
  <path id="Intersection_1" data-name="Intersection 1" d="M-641.01,695.936A91.5,91.5,0,0,1-706.5,723a91.222,91.222,0,0,1-69.121-31h-20.4c-.556,15-13.543,27-29.482,27s-28.926-12-29.481-27h-191.038c-.555,15-13.542,27-29.481,27s-28.926-12-29.481-27h-66.98a61.6,61.6,0,0,1-30.539,8,61.961,61.961,0,0,1-24.512-5,60.971,60.971,0,0,1-41.488,16,61.266,61.266,0,0,1-36.872-12.153C-1308.695,727.062-1333.9,749-1364.5,749c-32.861,0-59.5-25.3-59.5-56.5,0-.167,0-.332,0-.5h-204.946c-13.048,37.744-50.451,65-94.557,65s-81.509-27.256-94.556-65H-1823V385.771q-.505-.6-1-1.2V268.427c18.208-22.172,46.6-36.426,78.5-36.426a102.707,102.707,0,0,1,56.944,17c14.889-21.667,40.7-36,70.056-36,28.135,0,53.022,13.169,68.151,33.343C-1519.9,212.473-1474.6,191-1424,191c62.224,0,116.454,32.487,144.876,80.555C-1266.278,243.57-1236.805,224-1202.5,224a85.4,85.4,0,0,1,62.694,26.818C-1135.585,167.4-1062.966,101-974,101c69.655,0,129.292,40.711,153.924,98.417A88.15,88.15,0,0,1-799.5,197a87.22,87.22,0,0,1,34.7,7.125C-733.141,132.385-658.518,82-571.5,82A216.566,216.566,0,0,1-458,113.706V692h-2.694c-11.374,37.544-47.723,65-90.806,65C-593.061,757-628.357,731.444-641.01,695.936Z" transform="translate(1824 -82)" fill="#f2bd1c"/>
</svg>
