<svg xmlns="http://www.w3.org/2000/svg" width="100.098" height="159.869" viewBox="0 0 100.098 159.869">
  <g id="Group_59" data-name="Group 59" transform="translate(-292.996 281.593)">
    <path id="Path_17122" data-name="Path 17122" d="M370.434-277.6l.279-.091.044-.278c.167-.664.993-.916,1.106-1.612l0,0c.727-.826.675-2.837,2.739-1.631a2.449,2.449,0,0,1,.455,1,4.781,4.781,0,0,1-.064,1.1c-.033.179-.076.358-.109.538a7.628,7.628,0,0,1-.3,1.052c-.072.167-.153.332-.229.5-.415.817-1.4,1.2-1.732,2.086l.006-.012c-.424,1.593-1.838,2.682-2.36,4.227a56.739,56.739,0,0,1-15.694,9.232c-2.674,1.124-3.9,2.024-2.031,4.637a12.106,12.106,0,0,1,1.757,5.636l.008-.106c3.352,10.914-3.651,16.136-11.669,19.26-1.637.637-2.932-.111-4.251-.841l.03.01c-5.539-1.6-9.684-6.752-9.462-11.752l-.016.057c-.015-1.067-.606-2.184.3-3.17l-.02.08c-.268-1.289.665-2.055,1.392-2.91l-.037.108c.125-1.872,2.012-2.541,2.916-3.881l-.032.092c1.148-2.982,3.755-4.782,6.079-6.81,3.3-2.876,3.354-4.3-.358-6.7-3.728-2.4-7.477-4.994-12.4-4.677a3.139,3.139,0,0,1-2.856-1.039c-.431-1.019-.012-1.7.945-2.159,1.751-1.08,3.565-.7,5.384-.2l-.143-.033a1.591,1.591,0,0,1,1.4.242l-.1-.024a2.177,2.177,0,0,1,1.361.294l-.089-.021a2.111,2.111,0,0,1,1.345.356l-.106-.026a1.553,1.553,0,0,1,1.354.4l-.136-.03a7.7,7.7,0,0,1,3.109,1.258l-.059-.025a21.183,21.183,0,0,1,7.109,4.483l.077.282.3.07c1.084.282,1.171,1.574,2.168,1.944l-.07-.023c.84,0,1.164.787,1.813,1.077l-.043-.01a31.085,31.085,0,0,0,4.155-.437l.306.054.187-.237a52.914,52.914,0,0,0,11.662-6.69l.3-.025.094-.272c.361-1.37,2.3-1.25,2.692-2.585l-.018.02C369.191-276.592,369.892-277.036,370.434-277.6Z" fill="#468335"/>
    <path id="Path_17123" data-name="Path 17123" d="M325.4-275.4c-.669.457-1.218.978-1.087,1.861-1.9,3.117-5.338,4.432-8.293,6.283-.982.615-2.2.887-2.922,1.882-.282-.034-.425.085-.43.355-.978,2.092-3.289,2.951-4.714,4.63l.026-.088c-2.7,3.309-4.27,7.351-7.4,10.378l.035-.042c-1.21,6.246-3.174,12.331-4.3,18.6a2.907,2.907,0,0,1-2.4,1.054c-1.2-.793-1-1.832-.567-2.911l-.022.061a11.375,11.375,0,0,1,.3-6.378l-.029.121a2.087,2.087,0,0,1,.182-1.3l-.005.037c.041-.409.184-.8.206-1.214l.007-.048a12.906,12.906,0,0,1,1.263-4.755l.007-.02a3.838,3.838,0,0,1,.794-2.373l-.032.075a1.388,1.388,0,0,1,.472-1.28l-.032.145a5.236,5.236,0,0,1,1.379-2.964l-.045.1c-.1-.816.8-1.114,1-1.776l-.015.034c.024-1.511,1.586-2.126,2.132-3.332l0,0c.271-1.536,1.6-2.344,2.575-3.392q.407-.008.377-.4c.229-.683.947-1,1.306-1.583l-.057.1c.141-1.535,2.226-1.349,2.605-2.673l-.033.042c.505-1.409,2.314-1.5,3.019-2.7l.3-.019.1-.268c4.167-3.07,8.215-6.359,13.821-6.768l-.118.012C325.319-276.07,325.5-275.884,325.4-275.4Z" fill="#4b8638"/>
    <path id="Path_17124" data-name="Path 17124" d="M325.173-166.025c.241,2.239,2.212,2.274,3.843,2.742a2.126,2.126,0,0,0,2.394-1.156.621.621,0,0,1,.476-.558c4.429.109,1.581,2.375,1.288,3.887a3.746,3.746,0,0,1-1.02.837,55.406,55.406,0,0,1-8.9-.161c1.362,1.592,3.107,3.125,1.2,5.393a1.711,1.711,0,0,1-1.075.006c-.421-.267-.506-.823-.979-1.056a8.792,8.792,0,0,1-.836-.5c-.265-.195-.533-.383-.816-.556-.3-.165-.6-.324-.909-.473a7.061,7.061,0,0,0-2.643-.521c-1.9-.048-2.408-1.806-3.642-2.669a.972.972,0,0,0-.618-.976c.138-1.041-1.358-1.8-.572-2.951l-.072.23c-.057-1.384,1.367-1.369,2.092-2.012,1-.282,1.885-.813,2.865-1.136a4.552,4.552,0,0,1,2.377.008,3.086,3.086,0,0,1,1.169.014l.046-.048C322.52-167.684,324.8-169.124,325.173-166.025Z" fill="#4b823b"/>
    <path id="Path_17125" data-name="Path 17125" d="M293.888-230.85,296.016-232c2.4,3.433.11,7.5,1.71,11.119a8.955,8.955,0,0,1,.451,5.906l.017-.069c-.163.991,1.269,1.7.556,2.787l.012-.1c.117.672.585,1.278.42,2l-.087.263.224.176c.9,2.29,1.627,4.629,2.308,6.984a23.758,23.758,0,0,0,.91,4.13c.4,1.167,1.233,2.645-.35,3.385-1.832.856-2.536-.768-3.281-1.972a4.68,4.68,0,0,1-.374-1.229c-.021-1.29-1-2.277-1.256-3.493a4.979,4.979,0,0,1-.509-1.738.491.491,0,0,0-.192-.652c-.018-.716-.546-1.351-.378-2.1l.081-.277-.224-.193a5.634,5.634,0,0,1-.468-2.23v.006c.395-.992-1.124-1.707-.443-2.741l-.005.108c-.055-.682-.572-1.31-.263-2.034v.063c.072-.681-.445-1.293-.259-1.987v0c.137-.661-.513-1.236-.236-1.913a.3.3,0,0,0-.092-.51c-.14-.748-.727-1.45-.257-2.26l-.005.113c-.053-.684-.646-1.333-.147-2.051l-.01.106c-.055-.683-.668-1.338-.12-2.052l-.013.109c-.1-.683-.711-1.337-.127-2.056l-.016.112c-.123-.681-.731-1.333-.142-2.057l-.028.147c-.252-.436-.05-.869.007-1.3l0-.034C293.587-229.971,293.353-230.534,293.888-230.85Z" fill="#446738"/>
    <path id="Path_17126" data-name="Path 17126" d="M360.866-184.342a5.662,5.662,0,0,0,6.7,1.909,9.811,9.811,0,0,1,4.84-.654,3.341,3.341,0,0,1,2.57,1.545l.092-.038a1.8,1.8,0,0,1-.578,1.37.428.428,0,0,0-.467.279,19.154,19.154,0,0,1-7.98,1.205,42.759,42.759,0,0,0-9,.555c-1.382-1.362-4.056-1.847-3.433-4.577,1.152-.754,2.4-1.355,3.554-2.114,1.539-.274,2.056.45,1.934,1.77-.185.288-.107.463.24.495a.728.728,0,0,1,0-.763C359.628-184.017,359.93-184.632,360.866-184.342Z" fill="#84ba73"/>
    <path id="Path_17127" data-name="Path 17127" d="M331.71-160.662q.387-.227.773-.454c4.511-1.788,4.97,1.849,6.321,4.291-2.93,2.077-5.487,4.278-2.914,8.16a2.358,2.358,0,0,1-.155,1.261,2.882,2.882,0,0,1-3.221.435,9.382,9.382,0,0,1-3.217-4.187q-.243-.348-.484-.7c-1.887-1.174-3.108.582-4.645.949-.224-2.173,1.643-5.849,3.446-5.638C331.451-156.092,331.309-158.445,331.71-160.662Z" fill="#568e45"/>
    <path id="Path_17128" data-name="Path 17128" d="M392.828-175.613q-2.553.467-5.107.937a1.408,1.408,0,0,0-1.279.95c-1.082,1.868-3.033,2.571-4.934,3.343a2.4,2.4,0,0,1-2.183-.608c-.275-.779-1.1-1.355-.979-2.292,1.961-.84,3.492-1.966,4.073-4.144a16.758,16.758,0,0,1,1.906-3.827,1.018,1.018,0,0,1,1.522-.269,1.2,1.2,0,0,0,.213.816,7.2,7.2,0,0,0,.521,3.336c2.02.47,3.79-.857,5.75-.646C393.44-177.391,393.085-176.493,392.828-175.613Z" fill="#82b672"/>
    <path id="Path_17129" data-name="Path 17129" d="M374.428-155.76q-.87-1.374-1.742-2.748c-.094-1.742-1.577-2.972-1.655-4.862-.1-2.485-2.541.563-3.392-.894-.17-2.148,2.114-1.954,3.119-2.978a1.944,1.944,0,0,1,1.886-.283c1.259.7,1.593,1.951,1.934,3.138.663,2.31,2.225,2.168,4.049,1.489a2.453,2.453,0,0,1,1.257.174,1.773,1.773,0,0,1,.492,1.119c-.155,2.892-.921,5.431-4.145,6.556A3.466,3.466,0,0,1,374.428-155.76Z" fill="#aed29c"/>
    <path id="Path_17130" data-name="Path 17130" d="M385.141-165.892l-1.415-2.213c.519-1.2.447-2.759,2.159-3.236q1.567,2.631,3.136,5.262a3.076,3.076,0,0,0-.594.489.681.681,0,0,1-.789.424l-.045-.01a5.074,5.074,0,0,0-1.2-.258l-.085-.025q-.6-.213-1.207-.4Z" fill="#c3deb8"/>
    <path id="Path_17131" data-name="Path 17131" d="M377.775-165.778l1.206.434,1.245,2.113q.171.441-.1.563-.318.143-.382.041l-.372-.069a3.119,3.119,0,0,1-1.127-.686A2.152,2.152,0,0,1,377.775-165.778Z" fill="#aed29c"/>
    <path id="Path_17132" data-name="Path 17132" d="M332.764-145.815l.063-1.215a6.593,6.593,0,0,1,2.852-.619,3.846,3.846,0,0,1,.756-1.817,2,2,0,0,1,.877-.482c.233-.235.481.541.711-.009a1.9,1.9,0,0,1,.324-.883,18.928,18.928,0,0,0,1.2-1.468,8.732,8.732,0,0,0,.365-.874,14.52,14.52,0,0,0,.137-2.011,1.893,1.893,0,0,1,.577-.97c3.483-.9,6.526.361,9.723,1.848.212-2.247-2.673-3.138-2.4-5.252a1.3,1.3,0,0,1,.683-.92c.881-.228,1.718.848,2.6.069.349-.593.437-1.272.748-1.874A1.377,1.377,0,0,1,353-162.66a2.491,2.491,0,0,1,1.386,2.3q.468.762.934,1.525c1.1,1.009,2.673.146,3.836.9.835,2.187-1.357,3.5-1.678,5.347-.3.671-.527,1.373-.775,2.065a1.387,1.387,0,0,1-.811.68,7.745,7.745,0,0,1-2.645-.516c-.344-.05-.688-.1-1.034-.133a7.589,7.589,0,0,0-2.56.582c-1.62.536-2.578,2.288-4.516,2.233-1.464-.171-2.006-2.287-3.842-1.652-.255.21-.509.42-.74.649a2.807,2.807,0,0,0-.592,1.786c-.021,1.059.112,2.157-.87,2.952a2.5,2.5,0,0,1-1.087.325c-1.348-.121-2.455-1.013-3.816-1.1C333.449-144.766,333.252-145.461,332.764-145.815Z" fill="#599348"/>
    <path id="Path_17133" data-name="Path 17133" d="M360.866-184.342l-1.423,1.668q-.12.392-.428.425c-.2.022-.316,0-.354-.056-.27-.85.289-2.179-1.406-2.207a3.652,3.652,0,0,1-3.071,1.813c-.391.519-.371,1.273.21,1.319,1.723.138,2,1.246,2.258,2.488a2.856,2.856,0,0,0,.394.721l-.01-.01c-.277.613-1,.9-1.239,1.542a.853.853,0,0,1-.426.554c-1.495.865-2.82,3.3-4.721.457-.187-3.366.24-6.859-2.518-9.651a1.2,1.2,0,0,1,.579-2.083c3.428-.506,5.212-3.877,8.63-4.294,1.868,2.026,6.171,2.017,5.608,6.078Z" fill="#67a757"/>
    <path id="Path_17134" data-name="Path 17134" d="M350.976-175.8c.362.468.864,1.072,1.415.544.884-.848,1.95-.687,2.979-.83l-1.743,4.073a2.059,2.059,0,0,1-1.427.1,4.6,4.6,0,0,1-.849-.389c-.266-.134-.532-.277-.8-.4,0,.014-.422-.146-.425-.131a6.8,6.8,0,0,0-1.369-.041,5.5,5.5,0,0,1-.977-.042c-.342-.035-.675-.1-1.012-.16-.176-.028-.344-.066-.521-.094-.367-.051-.722-.126-1.084-.2-.189-.039-.368-.087-.557-.127a8.735,8.735,0,0,1-1.124-.354c-3.234-1.6-6.264-1.112-9.166.763l-1.256-.377c-1.837-1.712-1.16-3.06.725-4.132a9.938,9.938,0,0,1,6.544-1.208c1.561.454,3.1,1.013,4.69,1.337,2.134.435,2.75-.182,3.139-2.8,1.093-.869,1.734-.162,1.882.722C350.252-178.273,350.932-177.108,350.976-175.8Z" fill="#7cb66b"/>
    <path id="Path_17135" data-name="Path 17135" d="M379.165-171.409a1.119,1.119,0,0,1-.687.2,1.157,1.157,0,0,0-1.517.951l.017-.024c-.319.9-1.643,1.109-1.657,2.215-.335,1.46-1.162,1.952-2.618,1.208l-1.274-.382c-.522.024-.683-.212-.534-.672l0,.02a3.471,3.471,0,0,1,.51-.954c.341-2.081.318-4.227,1.166-6.214.148-.346.5-.821.808-.858.851-.1.724.7.918,1.18a3.833,3.833,0,0,1,.143.83c.771,3.135,2.62.417,3.923.664l-.015-.04C378.738-172.705,379.869-172.42,379.165-171.409Z" fill="#74a761"/>
    <path id="Path_17136" data-name="Path 17136" d="M354.389-160.356c-.647-.732-.988-1.81-2.269-1.828a2.375,2.375,0,0,1-1.79-1.526,8.6,8.6,0,0,0-1.913-3.5,1.839,1.839,0,0,1-.228-1.125c1-1.446,2.509-1.1,3.945-1.031.2.046.4.1.605.149.178.1.356.207.533.312Q353.83-164.632,354.389-160.356Z" fill="#6ea35d"/>
    <path id="Path_17137" data-name="Path 17137" d="M370.895-167.91c.184.22.362.445.534.673-1.125,1.036-3.05,1.266-3.411,3.071q-.8,1.153-1.6,2.309l-1.241-1.635A12.419,12.419,0,0,1,370.895-167.91Z" fill="#84b47b"/>
    <path id="Path_17138" data-name="Path 17138" d="M378.361-173.242a13.2,13.2,0,0,1-1.523.941c-1.645.743-2.109.417-2.4-1.605a1.661,1.661,0,0,0,2.21.824A6.09,6.09,0,0,1,378.361-173.242Z" fill="#82b672"/>
    <path id="Path_17139" data-name="Path 17139" d="M352.074-172.549l1.553.537-.286,1.207a1.153,1.153,0,0,1-1.024-.258A1.3,1.3,0,0,1,352.074-172.549Z" fill="#4d873e"/>
    <path id="Path_17140" data-name="Path 17140" d="M355.8-176.639a1.567,1.567,0,0,1,1.239-1.543A2.048,2.048,0,0,1,355.8-176.639Z" fill="#84ba73"/>
    <path id="Path_17141" data-name="Path 17141" d="M371.4-168.844c-.17.318-.339.636-.51.954A.868.868,0,0,1,371.4-168.844Z" fill="#84b47b"/>
    <path id="Path_17142" data-name="Path 17142" d="M353.341-170.8a.673.673,0,0,1,0,.735.536.536,0,0,1-.8.272c-.279-.51-.29-.923.426-1.073Z" fill="#4d873e"/>
    <path id="Path_17143" data-name="Path 17143" d="M352.687-169.77a3.068,3.068,0,0,1,.65-.3q-.033.582-.065,1.165l-.428-.091-.272-.351C352.61-169.488,352.649-169.629,352.687-169.77Z" fill="#6ea35d"/>
    <path id="Path_17144" data-name="Path 17144" d="M350.976-175.8c-1.363-.645-2.039-1.559-1.622-3.1.211-.783-.219-1.374-1.2-1.376l-2.215-1.5c-3.128-2.8-.85-5.356.363-7.964l-2.566-2.228c1.2-1.573,2.721-.875,4.185-.541.434.069.182.78.4.669.392-.195-.1-.616-.038-.962.447-2.613,2.317-3.485,4.806-3.514,1.978-.023,3.223-.214,2.018-2.658-.664-1.347-.645-3.142,1.731-3.485a10.487,10.487,0,0,1,.251,1.689c-.01.98.592,1.279,1.426,1.175.889-.111,1.746-.434,2.633-.585a16.068,16.068,0,0,1,7.186.022c.716.2,1.475.5,1.694,1.289a2.054,2.054,0,0,1-.932,2.27,8.135,8.135,0,0,1-2.386,1.172,18.951,18.951,0,0,1-6.267.831,1.773,1.773,0,0,0-1.315.38,1.7,1.7,0,0,0-.572,1.233,2.878,2.878,0,0,1-.257.938c-.1.136-.2.268-.3.4a.882.882,0,0,1-.943.118c-.607.627-1.167,1.3-1.83,1.872-1.545,1.326-3.026,2.783-5.4,2.626a1.4,1.4,0,0,0-1.13.533c-.4.98.7.571,1.065.871.484.4.948.85.831,1.426-.28,1.383.155,2.124,1.662,2.441.524.111.873,1.047.225,1.34-1.3.591-1.383,1.34-.8,2.409C352.192-177.066,351.772-176.374,350.976-175.8Z" fill="#62a352"/>
    <path id="Path_17145" data-name="Path 17145" d="M352.124-228.285a12.664,12.664,0,0,1,1.084-.782c.82-.476,1.175-2.016,2.484-1.3.868.475.008,1.658.52,2.417-.583,2.751.848,5.253,1.093,7.9-.882,5.759-2.059,7.107-11.954,8.1a.86.86,0,0,1-1.037,0l-3.477-1.578a1.322,1.322,0,0,0-1.372-.437l-.01.008c-.972-2.163.347-2.954,2.238-3.4l.05.008c.72.066,1.035.907,1.813.862,1.484.277,2.958.648,4.457.806,1.868.2,2.544-.685,1.925-2.329-.154-.407-.395-.784-.577-1.183a5.722,5.722,0,0,1,.4-5.433C350.472-225.883,351.331-227.067,352.124-228.285Z" fill="#4b893c"/>
    <path id="Path_17146" data-name="Path 17146" d="M348.416-191.673a12.951,12.951,0,0,0-4.678-.3,5.219,5.219,0,0,1-5.081-.91c-1.43-1.042-2.777-2.189-4.152-3.3-.461-.373-.9-.814-.473-1.424a1.68,1.68,0,0,1,1.529-.761,15.858,15.858,0,0,1,2.629.509c.864.241,1.694.6,2.534.914,2.859,1.08,5.571,1.09,8.011-.957.93.952.144,1.323-.583,1.736,1.508-.83,2.5-2.253,3.881-3.232.209-.3.418-.6.6-.914a9.757,9.757,0,0,0,.444-2.146c3.379-2.393,4.807-5.887,5.929-9.554l2.277,1.789c3.367,2.818,1.185,4.784-1.123,6.731l-1.627.732c-.424.04-.875-.113-1.267.159l-.42.138a4.132,4.132,0,0,0-.8,1c-.694,1.913-.667,1.932,1.275,3.385a1.336,1.336,0,0,1-.261,2.357,6.3,6.3,0,0,1-3.519.407c-2.551-.382-4.008.627-4.691,2.9A3.577,3.577,0,0,1,348.416-191.673Z" fill="#579747"/>
    <path id="Path_17147" data-name="Path 17147" d="M353.117-199.455c-.091.977-.822,1.462-1.6,1.923a18.137,18.137,0,0,0-4.555,3.177c-.367-2.017,2.022-2.117,1.774-3.551.061-.132.13-.262.183-.4.407-1.028,1.823-2.1.735-3.121-1.2-1.122-2.533-2.228-4.77-1.386-2.686,1.011-6.4-1.3-6.986-3.921a1.586,1.586,0,0,1-.008-.853,4.806,4.806,0,0,1,3.722-3.441,2.031,2.031,0,0,1,1.619.647c0,.189,0,.379.013.566-.158,2.879,2.053,4.146,4.274,3.888,4.592-.535,5.406,1.746,5.387,5.189A6.2,6.2,0,0,0,353.117-199.455Z" fill="#4f8a3f"/>
    <path id="Path_17148" data-name="Path 17148" d="M346.3-189.748c-.363,2.644-1.471,5.255-.362,7.963a14.864,14.864,0,0,1-5.024-1.424,3.949,3.949,0,0,0-1.307-.325l.038.009a4.273,4.273,0,0,0-1.285-.323l.025.006a6.822,6.822,0,0,0-1.268-.325l0,0c-.7-.149-1-1-1.823-.937l.061.023c-.625-.319-.942-1.076-1.758-1.121l.046.021c-.663-.246-.972-1.055-1.8-1.032l.021.022c-1.3-4.136,1.608-2.215,3.284-2.065l-.054-.021c1.482,1.156,3.347.853,5.038,1.214l-.019.025a2.929,2.929,0,0,0,1.248.378C342.961-188.464,344.991-188.339,346.3-189.748Z" fill="#79b267"/>
    <path id="Path_17149" data-name="Path 17149" d="M340.327-178.815a21.422,21.422,0,0,0-5.858,2.126c-1.854.983-1.9.9-1.411,3.213a1.974,1.974,0,0,1-1.863-2.347,15.584,15.584,0,0,1,.361-2.035A7.968,7.968,0,0,1,340.327-178.815Z" fill="#9cc78a"/>
    <path id="Path_17150" data-name="Path 17150" d="M335.153-189.254a10.141,10.141,0,0,1-1.327.124c-1.72-.062-1.717-.057-1.957,1.94a2.437,2.437,0,0,1-1.772-1.229c-.361-.513-.6-1.138-.171-1.591a2.316,2.316,0,0,1,1.562-.728A4.833,4.833,0,0,1,335.153-189.254Z" fill="#85ba72"/>
    <path id="Path_17151" data-name="Path 17151" d="M340.137-188.061c-2.628.88-3.183.746-5.038-1.213C336.9-189.336,338.739-189.534,340.137-188.061Z" fill="#85ba72"/>
    <path id="Path_17152" data-name="Path 17152" d="M341.693-217.354a5.044,5.044,0,0,0-2.238,3.4c-1.4.053-1.534-1.019-1.872-1.911C338.763-216.836,339.79-218.187,341.693-217.354Z" fill="#67924f"/>
    <path id="Path_17153" data-name="Path 17153" d="M335.3-185.1a1.641,1.641,0,0,1,1.823.937A1.758,1.758,0,0,1,335.3-185.1Z" fill="#85ba72"/>
    <path id="Path_17154" data-name="Path 17154" d="M333.605-186.2a1.57,1.57,0,0,1,1.758,1.12A2.076,2.076,0,0,1,333.605-186.2Z" fill="#85ba72"/>
    <path id="Path_17155" data-name="Path 17155" d="M331.848-187.211a1.578,1.578,0,0,1,1.8,1.031A1.918,1.918,0,0,1,331.848-187.211Z" fill="#85ba72"/>
    <path id="Path_17156" data-name="Path 17156" d="M343.23-210.379l1.559-.5a.753.753,0,0,1,.378.991c-.709.618-1.4.953-2.013-.111Z" fill="#4f8a3f"/>
    <path id="Path_17157" data-name="Path 17157" d="M345.193-210.208a1.461,1.461,0,0,1-.4-.674q-.237-.531-.475-1.064a4.578,4.578,0,0,1,.73-.265C345.977-211.6,346.586-210.97,345.193-210.208Z" fill="#c3cfa8"/>
    <path id="Path_17158" data-name="Path 17158" d="M339.465-213.961a1.168,1.168,0,0,1,1.372.436A1.3,1.3,0,0,1,339.465-213.961Z" fill="#67924f"/>
    <path id="Path_17159" data-name="Path 17159" d="M341.366-187.658a1.258,1.258,0,0,1-1.248-.377A1.127,1.127,0,0,1,341.366-187.658Z" fill="#85ba72"/>
    <path id="Path_17160" data-name="Path 17160" d="M339.611-183.534a1.379,1.379,0,0,1,1.307.325A1.323,1.323,0,0,1,339.611-183.534Z" fill="#85ba72"/>
    <path id="Path_17161" data-name="Path 17161" d="M338.364-183.848l1.285.322A1.221,1.221,0,0,1,338.364-183.848Z" fill="#85ba72"/>
    <path id="Path_17162" data-name="Path 17162" d="M337.121-184.167l1.268.325A1.209,1.209,0,0,1,337.121-184.167Z" fill="#85ba72"/>
    <path id="Path_17163" data-name="Path 17163" d="M348.209-159.924c.979,1.4,1.485,3.232,3.7,3.5.394.048.515.67.269,1.085-.514.87-1.048,1.732-1.63,2.561a1.017,1.017,0,0,1-.751.339.627.627,0,0,1-.661-.841c.109-.454.152-.933-.42-1.05q-3.723-.767-7.468-1.433c-.252-.045-.558.189-.839.293-.894.17-1.6.027-1.779-.981-.716-.733-1.891-1.381-2.061-2.213-.486-2.392-2.194-2.457-4.088-2.453.283-.784.626-1.555.833-2.357.284-1.1-.343-1.535-1.43-1.524.309-1.383.534-2.79.951-4.142a2.011,2.011,0,0,1,3.269-.7,25.806,25.806,0,0,1,2.978,4.246,4.84,4.84,0,0,0,3.9,2.457C347.98-164.285,348.627-163.887,348.209-159.924Z" fill="#4d873e"/>
    <path id="Path_17164" data-name="Path 17164" d="M299-195.776c.162-.155.328-.306.5-.451,1.907.778,2.724,3.179,5.167,3.16,1.381,1.673,1.653,3.8,2.548,5.665a117.965,117.965,0,0,0,11.879,18.672l.3.237.17.335a.748.748,0,0,1,.5.936L318-167.1c-1.44-.319-1.226-2.213-2.66-2.538a.561.561,0,0,1-.442-.464c-2.234-2.2-3.257-5.26-5.692-7.321l.02.038c-1.107-4.482-4.976-7.6-6.478-11.888Q300.874-192.525,299-195.776Z" fill="#6da259"/>
    <path id="Path_17165" data-name="Path 17165" d="M334.314-173.1a2.393,2.393,0,0,1,2.108-2.408c2.5-.424,5.183-1.378,7.39.873a4.164,4.164,0,0,0,.73.483,1.874,1.874,0,0,1-.389.963,7.951,7.951,0,0,1-1.7,1.279,13.184,13.184,0,0,1-1.413.69l-5.135-1.331a.915.915,0,0,1-.845-.216A.956.956,0,0,1,334.314-173.1Z" fill="#6fae5e"/>
    <path id="Path_17166" data-name="Path 17166" d="M348.209-159.924a6.5,6.5,0,0,0-.113-.851c-.579-2.181-.91-2.485-2.944-2.325-.736.059-1.446.376-2.166-.036,4.057-2.323,4.221-3.775.735-6.6-.452-.366-.927-.705-1.391-1.057.136-.166.271-.333.407-.5,2.488.051,4.835.333,5.625,3.147l.658.83c1.106.6.977,1.638,1.039,2.611-.094,1.464,1.237,3.188-.848,4.291Z" fill="#4d873e"/>
    <path id="Path_17167" data-name="Path 17167" d="M304.662-193.067c-1.524,1.7-1.795,1.744-2.795.332-.814-1.15-1.583-2.328-2.372-3.493l-1.347-2.287a2,2,0,0,1,.5-.527q.66.857,1.321,1.711c.422.546.791,1.536,1.547,1.243,1.291-.5.292-1.381.02-2.082-.61-1.576-1.4-3.117-.794-4.868,1.458,2.249,1.643,5.021,3.266,7.2C303.736-194.808,304.546-194.011,304.662-193.067Z" fill="#527a42"/>
    <path id="Path_17168" data-name="Path 17168" d="M325.173-166.025c-.946-1.736-2.861-1.163-4.329-1.656a5.158,5.158,0,0,0,1.69-2.941,3.439,3.439,0,0,1,1.971-2.208,1.674,1.674,0,0,1,1.236-.058,1.237,1.237,0,0,1,.545,1.061C325.655-169.933,326.171-167.843,325.173-166.025Z" fill="#8ab276"/>
    <path id="Path_17169" data-name="Path 17169" d="M319.089-168.73a2.438,2.438,0,0,1-1.776-1.181q-4.9-7.721-9.787-15.446a2.309,2.309,0,0,1-.316-2.045Q313.149-178.066,319.089-168.73Z" fill="#74aa63"/>
    <path id="Path_17170" data-name="Path 17170" d="M331.41-164.439c-.7,1.56-.705,1.565-2.394,1.156Z" fill="#4d873e"/>
    <path id="Path_17171" data-name="Path 17171" d="M341.044-171.218q.222-.5.445-1a1.012,1.012,0,0,1,.9,1.293l-.062.137Z" fill="#4d873e"/>
    <path id="Path_17172" data-name="Path 17172" d="M335.064-172.765a1.083,1.083,0,0,1,.846.216A.58.58,0,0,1,335.064-172.765Z" fill="#7cb66b"/>
    <path id="Path_17173" data-name="Path 17173" d="M320.056-167.222l-.5-.935,1.239.524A2.025,2.025,0,0,1,320.056-167.222Z" fill="#74aa63"/>
    <path id="Path_17174" data-name="Path 17174" d="M357.064-191.531l.818-.44c2.44-.271,4.615,1.351,7.078.916l-.046,0a2.832,2.832,0,0,0,1.3.363,5.745,5.745,0,0,1,3.384,1.151c.633.4.427,1.027.019,1.493a2.419,2.419,0,0,1-1.07.78c-1.885.508-3.527,1.746-5.6,1.686-.539-.83-1.041-1.684-1.633-2.478-.237-.319-.764-.784-1-.712C357.52-187.907,357.761-190.21,357.064-191.531Z" fill="#7cb66d"/>
    <path id="Path_17175" data-name="Path 17175" d="M360.159-203.5a3.44,3.44,0,0,1,1.079-2.337c1.247-1.494,1.055-2.919.044-4.4,3.836,1.443,3.975,1.786,2.252,5.566C362.463-204.131,361.58-203.109,360.159-203.5Z" fill="#8bba7a"/>
    <path id="Path_17176" data-name="Path 17176" d="M364.96-191.055a2.681,2.681,0,0,1-2.059.521,15.607,15.607,0,0,1-5.019-1.437l-.012-.013a2.98,2.98,0,0,0,.155-1.213c-.031-.848.537-1.285,1.232-1.635l.4.146-.03.4c-.3.5-.525,1.093.1,1.439a10.457,10.457,0,0,0,2.384.924C363.074-191.665,364.154-191.788,364.96-191.055Z" fill="#8bbd7a"/>
    <path id="Path_17177" data-name="Path 17177" d="M357.265-202.6a1.073,1.073,0,0,1,1.267-.159A1.011,1.011,0,0,1,357.265-202.6Z" fill="#8bba7a"/>
    <path id="Path_17178" data-name="Path 17178" d="M366.213-190.688a1.29,1.29,0,0,1-1.3-.363A1.209,1.209,0,0,1,366.213-190.688Z" fill="#8bbd7a"/>
    <path id="Path_17179" data-name="Path 17179" d="M359.624-194.281c-.119-.186-.241-.369-.367-.551l1.193.228Z" fill="#7cb66d"/>
    <path id="Path_17180" data-name="Path 17180" d="M323.878-151.07a1.084,1.084,0,0,1-1.816-.389c-.652-1.517-.741-3.053.7-4.306,1.584.02,1.926-.193,1.62-1.045-.531-1.473-1.015-3-3.1-3.065-.09,0-.275-.277-.244-.328.146-.237.306-.542.544-.64,1.594-.652,3.368,0,4.891-.38a9.228,9.228,0,0,1,5.242.561c.118,1.14.08,2.324,1.234,3.109a1.114,1.114,0,0,1,.39,1.524c-.4.77-1.152.816-1.942.667a2.478,2.478,0,0,1-.444-.09c-2.256-.877-3.9-.641-4.859,1.867C325.729-152.646,323.936-152.487,323.878-151.07Z" fill="#4d873e"/>
    <path id="Path_17181" data-name="Path 17181" d="M315.343-169.638c1.641.128,1.918,1.555,2.66,2.539-.838.506-1.643,1.131-2.745.689C316.552-167.6,316.552-167.6,315.343-169.638Z" fill="#74aa63"/>
    <path id="Path_17182" data-name="Path 17182" d="M320.136-157.295a1.1,1.1,0,0,0-1.2-.414l-1.206-.974a2.563,2.563,0,0,1,3.131,1.131A5.639,5.639,0,0,0,320.136-157.295Z" fill="#4d873e"/>
    <path id="Path_17183" data-name="Path 17183" d="M322.76-155.728a.76.76,0,0,1-.216-.709l.661.194Z" fill="#4d873e"/>
    <path id="Path_17184" data-name="Path 17184" d="M322.2-156.881a1.449,1.449,0,0,1-1.309-.654A1.484,1.484,0,0,1,322.2-156.881Z" fill="#4d873e"/>
    <path id="Path_17185" data-name="Path 17185" d="M297.158-201.933a5.562,5.562,0,0,0,.452-.567c.7,1.094,2.047,2.011,1.07,3.559Q297.918-200.437,297.158-201.933Z" fill="#527a42"/>
    <path id="Path_17186" data-name="Path 17186" d="M358.661-182.3q.389-.189.782-.369c.38.35,1.114.55.922,1.175a.988.988,0,0,1-1.393.554C358.324-181.219,358.407-181.775,358.661-182.3Z" fill="#a2ca8d"/>
    <path id="Path_17187" data-name="Path 17187" d="M354.184-182.7l3.071-1.813C356.531-182.683,356.3-182.546,354.184-182.7Z" fill="#cce1bc"/>
    <path id="Path_17188" data-name="Path 17188" d="M335.181-148.671l1.626-.541a1.833,1.833,0,0,1-1.128,1.563Z" fill="#6a9d55"/>
    <path id="Path_17189" data-name="Path 17189" d="M385.885-171.341c-.473,1.229-.466,2.749-2.159,3.237l-2.655-2.588c.576-.778,1.067-1.612,2.277-1.664s2.1-.835,3.094-1.37C386.89-172.795,385.856-172.182,385.885-171.341Z" fill="#a3cd94"/>
    <path id="Path_17190" data-name="Path 17190" d="M343.556-216.484a1.584,1.584,0,0,1-1.813-.862C342.629-217.6,343.131-217.114,343.556-216.484Z" fill="#67924f"/>
    <path id="Path_17191" data-name="Path 17191" d="M302.751-189.273q3.073,4.741,6.147,9.483a2.177,2.177,0,0,1,.331,2.4c-1.856-2.9-3.723-5.794-5.56-8.705A4,4,0,0,1,302.751-189.273Z" fill="#74aa63"/>
    <path id="Path_17192" data-name="Path 17192" d="M309.209-177.423a6.43,6.43,0,0,1,2.844,2.561c.915,1.6,1.9,3.174,2.848,4.759q-.4.04-.8.094c-1.632-2.2-3.274-4.388-4.879-6.6C309.088-176.8,309.207-177.149,309.209-177.423Z" fill="#74aa63"/>
    <path id="Path_17193" data-name="Path 17193" d="M381.438-159.663a1.934,1.934,0,0,0,.237,1.952c-.175.391-.371.775-.52,1.174-1.2,3.2-2.487,3.485-5.4,1.191a6.733,6.733,0,0,0,3.263-3.808c.37-.909.713-1.827,1.068-2.74Z" fill="#bcdaab"/>
    <path id="Path_17194" data-name="Path 17194" d="M372.7-166.856a2.3,2.3,0,0,0,2.321-1.336c.071-.325.226-.5.465-.527s.376,0,.423.073a2.772,2.772,0,0,0,1.152,2.421c-.658,1.69-.286,2.776,1.837,2.835l.263.331.21.363c-4.183,2.7-4.519,2.607-5.979-1.722C373.125-165.219,372.932-166.043,372.7-166.856Z" fill="#8bbc7a"/>
    <path id="Path_17195" data-name="Path 17195" d="M345.193-210.208c.808-.723.233-1.357-.149-2-.368-.742-.478-1.385.663-1.525a2,2,0,0,1,1.7.389c.654.606,1.246.7,1.888-.031a2.832,2.832,0,0,1,2.485-.836c2.307.21,3.1-1.189,3.882-2.884a11.855,11.855,0,0,0,.832-2.859c.014-.074.526-.061.807-.089l.726,1.15c2.295,1.322-.7,3.541.942,4.974q.017.954.032,1.906c-.045.136-.159.291-.124.405a6.128,6.128,0,0,1-.565,5.132c-.95,1.67-1.909,3.131-4.014,3.59-.265.058-.395.678-.587,1.037-.234.664.374,1.266.159,1.928l-.757.469a2.918,2.918,0,0,1-1.507-3.49c.352-1.949.192-2.058-2.076-1.771-3.694.469-6.183-1.1-7.952-4.018-.6-.986-.585-.994,1.124-1.237.148-.021.3-.021.448-.03A2.111,2.111,0,0,0,345.193-210.208Z" fill="#438437"/>
    <path id="Path_17196" data-name="Path 17196" d="M358.973-213.922c-.834-1.019-2.171-1.908-.666-3.411.229-.229-.168-1.027-.276-1.562a5.623,5.623,0,0,0,6-.024c.773-.449,1.621-.783,2.435-1.169a12.408,12.408,0,0,1,1.434,1.672c.938,1.582.4,2.717-1.414,3.352a10.171,10.171,0,0,1-3.588.384A6.547,6.547,0,0,0,358.973-213.922Z" fill="#4b893c"/>
    <path id="Path_17197" data-name="Path 17197" d="M338.058-143.889l.833-.471c3.655,1.629,4.734,5.467,7.49,7.927a54.725,54.725,0,0,1,8.733,10.475,6.713,6.713,0,0,1,1.012,2.472c.291,2.888-2.586-.093-3.022,1.463l-.146.3a4.013,4.013,0,0,1-1.922-1.551c-.549-.616-.978-1.357-1.869-1.611q-2.539-3.864-5.08-7.727a8.649,8.649,0,0,0-3.42-3.346c-2.073-1.029-2.876-3.244-4-5.106C337.665-141.768,337.4-143.034,338.058-143.889Z" fill="#6d9e59"/>
    <path id="Path_17198" data-name="Path 17198" d="M338.058-143.889a2.822,2.822,0,0,0,.749,1.9c.334.287.607.685.295,1.091-.29.378-.745.259-1.172.128-.41-.126-.839-.2-1.26-.292a11.52,11.52,0,0,1-2.477-3.648A2.633,2.633,0,0,1,338.058-143.889Z" fill="#568e45"/>
    <path id="Path_17199" data-name="Path 17199" d="M378.9-163.39a5.326,5.326,0,0,1-.727.515c-1.554.762-2.369.79-2.776.079a1.952,1.952,0,0,1,.542-2.7,10.53,10.53,0,0,1,1.124-.726,1.265,1.265,0,0,1,.711.447Q378.337-164.584,378.9-163.39Z" fill="#6fa95f"/>
    <path id="Path_17200" data-name="Path 17200" d="M375.912-168.646l-.888.454c.065-1.194,1.025-1.627,1.954-2.087A2.287,2.287,0,0,1,375.912-168.646Z" fill="#82b672"/>
    <path id="Path_17201" data-name="Path 17201" d="M376.961-170.255c-.023-1.083.494-1.383,1.517-.951Z" fill="#82b672"/>
    <path id="Path_17202" data-name="Path 17202" d="M364.135-156.765c2.325,1.134,3.026,3.51,4.479,5.31l0,0h0l.521.874c.15.051.3.1.45.134a1.889,1.889,0,0,1,.057.281c.145.068.288.143.428.223.115-.056.231-.11.34-.176h0l.252-.233a2.443,2.443,0,0,0,1.211-.461c1.4-3.176-1.355-4.726-2.919-6.742l-.315-.225-.13-.354a1.691,1.691,0,0,1-1.1-1.7l-.047.029a2.559,2.559,0,0,0-.415-2.593,3.359,3.359,0,0,0-1.776-1.1,18.169,18.169,0,0,0-6.8,2.951,33.2,33.2,0,0,1-3.047,1.71c.588,1.685,2.15,1.288,3.447,1.455a6.876,6.876,0,0,1,3.04.949Z" fill="#61934b"/>
    <path id="Path_17203" data-name="Path 17203" d="M354.354-148.318a7.292,7.292,0,0,0-1.792-2.772,2.391,2.391,0,0,1,2.01.1c.632.263,1.3.451,1.948.672,1.157,1.456.643,3.1.575,4.685a2.29,2.29,0,0,0,.038,1.25.845.845,0,0,1,.19.616c-1.773,1.016-1.773,1.016-2.751-2.559l0,.011C354.962-147.023,354.33-147.639,354.354-148.318Z" fill="#83aa73"/>
    <path id="Path_17204" data-name="Path 17204" d="M349.211-160.413c.765-1.406-.355-2.891.189-4.307.675-.61,1.2-.625,1.464.345l1.256,2.191,0,.01c-.245.669.358,1.272.169,1.936-.4.716,0,1.971-1.042,2.166-1.425.266-1.4-1.146-1.864-1.948A3.72,3.72,0,0,1,349.211-160.413Z" fill="#c5dbb9"/>
    <path id="Path_17205" data-name="Path 17205" d="M345.022-148.117a1.645,1.645,0,0,1-1.55-.643c-1.443-1.385-1.458-1.388-3.358-.344.036-1.222.832-1.77,1.976-1.928.879-.121,1.329.5,1.742,1.1S344.626-148.722,345.022-148.117Z" fill="#6a9d55"/>
    <path id="Path_17206" data-name="Path 17206" d="M352.627-151.078c-.866.5-1.717,1.106-2.75.317C350.751-151.2,351.587-151.927,352.627-151.078Z" fill="#83aa73"/>
    <path id="Path_17207" data-name="Path 17207" d="M340.258-152.287q.267-1.209.535-2.418A1.508,1.508,0,0,1,340.258-152.287Z" fill="#6a9d55"/>
    <path id="Path_17208" data-name="Path 17208" d="M338.281-150.2a3.424,3.424,0,0,1,1.959-2.068C340.194-151.052,339.221-150.638,338.281-150.2Z" fill="#6a9d55"/>
    <path id="Path_17209" data-name="Path 17209" d="M352.291-160.238a2,2,0,0,1-.169-1.936A1.606,1.606,0,0,1,352.291-160.238Z" fill="#6ea35d"/>
    <path id="Path_17210" data-name="Path 17210" d="M356.422-152.309c.311.647.6,1.294.09,1.973A1.316,1.316,0,0,1,356.422-152.309Z" fill="#83aa73"/>
    <path id="Path_17211" data-name="Path 17211" d="M340.135-149.134a2.259,2.259,0,0,1-1,1.767C338.868-148.265,339.377-148.763,340.135-149.134Z" fill="#6a9d55"/>
    <path id="Path_17212" data-name="Path 17212" d="M337.573-149.7l.721-.515C338.429-149.567,338.206-149.374,337.573-149.7Z" fill="#6a9d55"/>
    <path id="Path_17213" data-name="Path 17213" d="M342.392-170.929l-.9-1.295q1.173-.71,2.345-1.423c.652.174,1.245-.419,1.906-.133l.1.007a7.376,7.376,0,0,1,1.2.235l.027,0a11.493,11.493,0,0,0,1.274.243l-.037-.009c.714.273,1.365-.283,2.07-.139h-.022a6.349,6.349,0,0,0,1.29.324,2.586,2.586,0,0,1,.431.566q.447.837.894,1.677-.141.552-.28,1.1l-.054.167a1.926,1.926,0,0,1-.251,1.015c-1.306.427-2.779-.5-4.021.442C346.46-169.245,344.706-170.635,342.392-170.929Z" fill="#4d873e"/>
    <path id="Path_17214" data-name="Path 17214" d="M350.375-173.438a1.861,1.861,0,0,1-2.07.139A2.167,2.167,0,0,1,350.375-173.438Z" fill="#4d873e"/>
    <path id="Path_17215" data-name="Path 17215" d="M345.739-173.78a1.991,1.991,0,0,1-1.907.133q.344-.267.71-.5Z" fill="#4d873e"/>
    <path id="Path_17216" data-name="Path 17216" d="M351.643-173.114l-1.29-.324Z" fill="#4d873e"/>
    <path id="Path_17217" data-name="Path 17217" d="M348.342-173.29l-1.274-.243Z" fill="#4d873e"/>
    <path id="Path_17218" data-name="Path 17218" d="M347.041-173.538q-.6-.119-1.2-.235Z" fill="#4d873e"/>
    <path id="Path_17219" data-name="Path 17219" d="M350.863-164.375l-1.463-.345q-.19-1.3-.38-2.6C350.919-167.065,350.973-165.766,350.863-164.375Z" fill="#b1ceab"/>
    <path id="Path_17220" data-name="Path 17220" d="M352.383-168.587l.252-1.016a1.441,1.441,0,0,1,.211.608A.821.821,0,0,1,352.383-168.587Z" fill="#4d873e"/>
    <path id="Path_17221" data-name="Path 17221" d="M358.025-193.2a1.1,1.1,0,0,1-.156,1.213Z" fill="#7cb66d"/>
    <path id="Path_17222" data-name="Path 17222" d="M348.416-191.673l.018.416-.237-.056Z" fill="#579747"/>
    <path id="Path_17223" data-name="Path 17223" d="M353.874-199.924a1.729,1.729,0,0,1-.159-1.928A1.65,1.65,0,0,1,353.874-199.924Z" fill="#4f8a3f"/>
    <path id="Path_17224" data-name="Path 17224" d="M354.572-146.321a18.246,18.246,0,0,1,1.115,2.124c.365.974.978.689,1.636.435,1.006,1.931.346,4,.5,6a97.056,97.056,0,0,1-.208,14.335,4.561,4.561,0,0,1-.447,1.205l-1.3-.28-1.389-2.5c.3-.317.8-.606.846-.955a11.067,11.067,0,0,0,.185-3.46c-.971-5.324-.306-10.741-1.134-16.067A2.371,2.371,0,0,1,354.572-146.321Z" fill="#9bc18b"/>
    <path id="Path_17225" data-name="Path 17225" d="M357.133-144.378a1.074,1.074,0,0,1-.038-1.25Q357.115-145,357.133-144.378Z" fill="#9bc18b"/>
    <path id="Path_17226" data-name="Path 17226" d="M354.354-148.318c.518.627.792,1.277.215,2.008A2.042,2.042,0,0,1,354.354-148.318Z" fill="#9bc18b"/>
  </g>
</svg>
