<svg xmlns="http://www.w3.org/2000/svg" width="132.565" height="179.93" viewBox="0 0 132.565 179.93">
  <g id="Group_92" data-name="Group 92" transform="translate(-424.001 204.102)">
    <g id="Group_90" data-name="Group 90">
      <path id="Path_21807" data-name="Path 21807" d="M472.6-124.126a.26.26,0,0,0-.033-.36c-.3-.575.193-1.189-.087-1.765l.028.051a1.051,1.051,0,0,1,.316-1.577l-.019.025c.96-1.842.7-4.063,1.813-5.858a.267.267,0,0,0,.087-.374c.826-1.732.892-3.782,2.224-5.3a.261.261,0,0,0,.133-.349c.619-1.041.574-2.449,1.757-3.178l0,0c.776-.88.675-2.321,1.878-2.926l-.05.032c.28-.326.329-.816.746-1.045l-.019.022c.558-.356.3-1.191.892-1.526l-.012.016c.635-.768.636-1.989,1.737-2.422l-.043.035c.3-.308.333-.826.789-1.013l-.032.023c.519-.391.29-1.184.839-1.557a.238.238,0,0,0,.149-.322c.523-.5.223-1.5,1.083-1.8,1.15-.012,2.5-1.151,3.347.6-.2,1.937-1.785,3.233-2.321,5.015-.716,1.569-1.335,3.182-2.117,4.721-.365.812-.839,1.566-1.275,2.341-.121.221-.258.431-.4.639-.272.426-.519.868-.772,1.307-1.7,2.762-3.547,5.449-4.214,8.706.3,1.674,1.423,3.22.791,5.039a5.418,5.418,0,0,1-1.43,1.438l.033-.027c-.339.266-.342.84-.863.94l.079-.047a1.037,1.037,0,0,1-.681.5l.035-.033c-1.655,1.054-2.047,3.015-3.189,4.437l.014-.017c-.9,1.24-.676,3.063-2.093,4.036l.052-.026a34.867,34.867,0,0,1-1.886,3.6l.025-.04a.828.828,0,0,1-.794.155,1.678,1.678,0,0,1-.966-1.329c.01-1.376,1.245-2.133,1.669-3.3a.227.227,0,0,0,.1-.335c.716-.779.284-2.033,1.14-2.753l-.023.027c.357-.25.368-.8.833-.957l-.04.036A4.461,4.461,0,0,0,472.6-124.126Z" fill="#b2c82c"/>
      <path id="Path_21808" data-name="Path 21808" d="M497.132-128.653a.44.44,0,0,0-.036.495c-.209,2.4.074,4.9-1.585,6.967a1.949,1.949,0,0,0-.326,1.439c-1.227,2.56-.846,5.694-2.847,7.977l.021-.031a.485.485,0,0,1-.667-.07c-.528-.938-.6-2.111-1.458-2.891-1.026,2.169-2.807,1.053-4.34,1.01-.423-1.5.717-2.339,1.413-3.349.012-.19.485-.179.24-.5-.224-.29.151.1-.232.1a3.672,3.672,0,0,1-.6.189c-1.223.193-2.226-.024-2.643-1.364a1.7,1.7,0,0,1,.115-.715,11.511,11.511,0,0,1,.741-1.214,2.475,2.475,0,0,1,.444-.535l.024-.034c.628-.529.774-1.5,1.652-1.8l-.047.037c.281-.325.308-.853.8-1.007l-.038.024a14.647,14.647,0,0,1,4.9-5.4c1.341-.312,2.455,1.761,3.9.373A.456.456,0,0,1,497.132-128.653Z" fill="#94bc2a"/>
      <path id="Path_21809" data-name="Path 21809" d="M476.916-165.177l.149-.106-.046-.176c.214-.431.552-.838.258-1.365l.007.031c-.287-.622-.277-1.165.4-1.531l-.038.025c.656-.98,1.1-2.081,1.748-3.065l-.016.021a6.721,6.721,0,0,0,.683-.891c.517-.618,1.3-1.148,1.738-.242.759,1.564,1.883,1.439,3.19,1.155a1.826,1.826,0,0,1,2.386,1.229c.079,1.318.27,2.66-.787,3.736-1.408-.125-.962-1.83-2.141-2.4-1.094,1.416-.219,3.322-1.164,4.848-.573.924-.945,1.638-2.064,1.707-.935.2-1.113,1.034-1.434,1.745a6.611,6.611,0,0,1-.3.65c-.852,1.318-.914,2.93-1.591,4.29,1.085-.473.682-1.525.932-2.313a2.373,2.373,0,0,1,.31-.711,2.137,2.137,0,0,1,.612-.475,1.6,1.6,0,0,1,.752-.077c1.885.918-.065,2.475.606,3.6a2.827,2.827,0,0,1-.512,2.062,3.787,3.787,0,0,1-.507.514c-.179.163-.368.315-.557.471-.09.086-.184.164-.274.25-1.224,1.3-2.548,1.751-4.073.466a4.522,4.522,0,0,1-.955-2.782A22.872,22.872,0,0,1,476.916-165.177Z" fill="#559424"/>
      <path id="Path_21810" data-name="Path 21810" d="M470.692-175.523l-.127.542c.394,1.369-.707,2.609-.34,3.975a.423.423,0,0,0-.02.456,4.072,4.072,0,0,1,.162,3.019,6,6,0,0,0,.2,1.478,2.717,2.717,0,0,1,.056,1.081,7.38,7.38,0,0,0-.262,2.1,7.1,7.1,0,0,1,.138.709,3.24,3.24,0,0,1-.95,2.677.8.8,0,0,1-.686-.035,4.183,4.183,0,0,1-.435-1.669,3.906,3.906,0,0,1-.048-.665,7.174,7.174,0,0,0-.027-1.624,4.3,4.3,0,0,1-.062-.67,4.269,4.269,0,0,0-.339-2.049c-.07-3.46-1.57-6.487-2.768-9.633a15.485,15.485,0,0,1-1.3-7.228c.3-1.684,1.047-2.165,2.441-.908a8.417,8.417,0,0,1,1.375,1.581,3.6,3.6,0,0,1,.361.686c.052.11.1.227.155.334,0-.07.251.181.094-.08a1.156,1.156,0,0,1-.147-.42,2.115,2.115,0,0,1,1.227-2.19,2.774,2.774,0,0,1,3.062,1.109A34.146,34.146,0,0,1,470.692-175.523Z" fill="#b3cb46"/>
      <path id="Path_21811" data-name="Path 21811" d="M486.1-113.67c.57-.206.9-.835,1.659-.773.565.046,1.092.935,1.659.195.381-.5-.1-1.018-.23-1.522-.06-.224.009-.381.225-.405.168-.018.4-.043.505.049,1.31,1.173,2.363,2.472,1.978,4.407a4.438,4.438,0,0,1-1.381,3.5.194.194,0,0,0-.156.284c-.245.406-.354.9-.768,1.2l.007-.009c-.568.343-.3,1.173-.882,1.51h0c-.6.291-.243,1.247-.994,1.434l.05-.047c-.27.336-.308.848-.781,1.029l.035-.034c-.307.3-.343.8-.762,1.015l.006-.01c-.319.274-.28.827-.759.977l.006-.007c-.284.245-.48.633-.948.577-.744-.817-3.34-.825-1.268-2.881a2.037,2.037,0,0,1-1.49-2.244c.162-1.259.657-2.436.888-3.681C483.569-110.823,483.744-113.06,486.1-113.67Z" fill="#82ac1f"/>
      <path id="Path_21812" data-name="Path 21812" d="M445.312-183.227l.964.245a6.417,6.417,0,0,1,4.46,3.192l-.007-.02c.847.61,1.924.991,2.2,2.181.554,3,2.658,4.378,5.371,5.124a4.06,4.06,0,0,1,1.954,3.085c-1.267,2.972-2.857,3.621-6.133,2.51-4.493-2.8-6.177-7-6.053-12.106-.349-1.472-1.6-2.037-2.729-2.727-.813-.5-1.907-.555-2.405-1.547a.726.726,0,0,1,.459-.654A1.655,1.655,0,0,1,445.312-183.227Z" fill="#d7de78"/>
      <path id="Path_21813" data-name="Path 21813" d="M469.106-183.693l-.672,2.675a.458.458,0,0,1-.509-.166l.024.04a54.805,54.805,0,0,1,1.083-14.182c-.244.445-.086,1.3-.635,1.9-1.744-.76-.772-2.116-.641-3.221a6.338,6.338,0,0,1,1.282-2.93,3.454,3.454,0,0,1,1.706-1.273,1.585,1.585,0,0,1,.771.02c.345.367.2.947.562,1.309.5.546.265,1.306.552,1.916v0c.239.367.046.839.292,1.2l-.005-.012c.264.357.058.838.316,1.2l0-.005c.626.942.305,2.018.433,3.031a.513.513,0,0,0-.026.436c1.1,1.928-.493,3.779-.157,5.685l-.54,2.512a.4.4,0,0,1-.615.075C471.338-184.842,470.219-184.22,469.106-183.693Z" fill="#d7dd6d"/>
      <path id="Path_21814" data-name="Path 21814" d="M471.458-98.273a.3.3,0,0,0,.131-.382c.224-.318.437-.643.632-.981.552-2.773,2.1-5.088,3.431-7.507a2.256,2.256,0,0,1,.549-.583c2.176-.871,2.706.11,2.351,2.088a3.24,3.24,0,0,1-.358,1.1c-.627,1.008-1.579,1.767-2.215,2.754a2.31,2.31,0,0,0-.2,2.794,2.689,2.689,0,0,1,.57,1.874c-.193,1.257-.374,2.524-1.838,3-.119.515-1.027-.967-.795.291.211,1.139.871,2.23.208,3.416a9.561,9.561,0,0,1-3.762,2.192c-1.29-.311-2.553,1.008-3.856.068a1.193,1.193,0,0,1,.073-.741,14.753,14.753,0,0,0,2.763-3.7.2.2,0,0,0,.093-.32C469.936-94.716,470.3-96.659,471.458-98.273Z" fill="#96bc2f"/>
      <path id="Path_21815" data-name="Path 21815" d="M469.755-199.922a22.252,22.252,0,0,0-1.683,5.134,2.12,2.12,0,0,0,.157,1.318c.884,1.461-.07,2.989.171,4.471-1.7,2.288-2.151,2.289-3.895.017a.458.458,0,0,1-.383-.4.594.594,0,0,0,.042-.484c-.955-5.047.481-9.6,2.853-13.971,2.88-.765,3.58.085,2.867,3.486C469.842-200.212,469.8-200.067,469.755-199.922Z" fill="#c9d65c"/>
      <path id="Path_21816" data-name="Path 21816" d="M474.508-153.857c.529.569.421,1.535,1.214,1.939,1.857,2.314,2.591.218,3.573-.906l.012-.012q.321-.21.644-.417v0a.443.443,0,0,1,.685.181,3.146,3.146,0,0,1-1.365,2.435l.046-.038c-.3.3-.314.869-.853.967l.084-.054a.94.94,0,0,1-.683.512l.036-.035c-.6.59-.8,1.5-1.563,1.967l.033-.029c-.326.283-.357.795-.779,1l.02-.02c-.677.527-.3,1.544-.961,2.077a.336.336,0,0,0-.152.415c-1.037,1.44-.461,3.422-1.617,4.823l.027-.032c-.688.515-.244,1.6-1.031,2.062l.026-.031a.915.915,0,0,0-.24,1.162l-.008-.026a.726.726,0,0,1-.17,1.071.33.33,0,0,0-.152.411c-.477.462-.411,1.152-.709,1.691-.489.869-1.134,1.4-2.2,1.005a1.462,1.462,0,0,1-.548-.517c-.363-.855.248-1.737-.076-2.6a3.1,3.1,0,0,1-.062-.751c.161-.889.33-1.776,1.548-1.7.217-.162.434.766.58.05a17.5,17.5,0,0,1,.387-2.336,15.707,15.707,0,0,1,1.787-3.019l.14-.122-.037-.182a11.072,11.072,0,0,0,1.01-4.7l.034-.206a9.469,9.469,0,0,0,.973-4.56.352.352,0,0,0,.021-.456A.708.708,0,0,1,474.508-153.857Z" fill="#75ae2f"/>
      <path id="Path_21817" data-name="Path 21817" d="M491.308-164.3a.3.3,0,0,0,.17-.363,4.146,4.146,0,0,1,.433-.485,8.456,8.456,0,0,0,.662-1.855,4.8,4.8,0,0,1,.308-.6c.371-.556.574-1.2.933-1.765a3.589,3.589,0,0,1,.264-.6c.3-.455.4-1.017.73-1.461a1.037,1.037,0,0,1,.481-.419l-.042.031c.7.041.691.5.584,1.007-.056,3.181-1.663,6.1-1.545,9.312a12.777,12.777,0,0,1-.821,4.291c-2.086.278-4.025,1.4-6.22,1.083a.394.394,0,0,1,.241-.581.215.215,0,0,0,.093-.33,14.1,14.1,0,0,1,1.839-3.736.4.4,0,0,0,.162-.43c.683-.538.235-1.645,1.062-2.11l-.038.042C490.92-163.554,490.951-164.036,491.308-164.3Z" fill="#b2c82c"/>
      <path id="Path_21818" data-name="Path 21818" d="M466.883-118.345c.271-3.169.519-6.341.823-9.508.139-1.445-.135-2.922.349-4.337a2.205,2.205,0,0,0,2.323-.642c.592,1.008-.418,1.988-.052,2.992a.27.27,0,0,0-.009.38c.615,2.715-.37,5.253-.878,7.839a66.182,66.182,0,0,0-1.414,7.823,2.669,2.669,0,0,1-.354.865c-1.657.709-1.583-.665-1.894-1.573A5.843,5.843,0,0,0,466.883-118.345Z" fill="#8ab93a"/>
      <path id="Path_21819" data-name="Path 21819" d="M481.783-177.606a3.4,3.4,0,0,0,.5-2.157c-.055-1.908.579-3.737.636-5.631.3-1.12.481-2.268.782-3.388.274-1.016.7-1.874,2.014-1.567a1.536,1.536,0,0,1,.573.646c.207.676.239,1.4.493,2.062.365,1.69-.82,3.221-.5,4.907l-.289,1.525c.3,1.16-.339,2.193-.44,3.295-.494,1.458-2.514.344-3.018,1.788a1.483,1.483,0,0,1-.652.384.694.694,0,0,1-.577-.431A2.073,2.073,0,0,1,481.783-177.606Z" fill="#90bc3c"/>
      <path id="Path_21820" data-name="Path 21820" d="M487-170.306a1.591,1.591,0,0,0-1.94-.409,3.207,3.207,0,0,1-3.333-.187.911.911,0,0,1-.45-.869c-.016-.721-.082-.718-.758-.3-.152.094-.315.17-.473.254-.5-1.043.368-1.747.64-2.6a7.886,7.886,0,0,1,1.32-1.465l0,0c1.6-1.228,3.088-.315,4.592.257a2.509,2.509,0,0,1,.44.558,4.429,4.429,0,0,1,.3,1.311,6.371,6.371,0,0,1,.134.946.236.236,0,0,0,0,.371C487.741-171.637,487.826-170.869,487-170.306Z" fill="#61a222"/>
      <path id="Path_21821" data-name="Path 21821" d="M476.066-109.1a.2.2,0,0,0,.114-.3c.255-.395.359-.886.761-1.187l-.007.009c.372-.224.38-.714.707-.971a.349.349,0,0,0,.194-.375c.558-.864.593-2.085,1.737-2.551l-.042.065a.894.894,0,0,1,.749.06c.912.74,2.324.69,2.965,1.867a9.69,9.69,0,0,1-4.325,6.886c-.548-1.109-.132-3.681-2.678-1.767l-.007.007a.482.482,0,0,1-.693-.226C475.571-108.137,475.53-108.718,476.066-109.1Z" fill="#a7c53b"/>
      <path id="Path_21822" data-name="Path 21822" d="M467.356-144.158c-.145-.238-.291-.476-.436-.715v.017a.726.726,0,0,1-.068-.936c.338-.442.86-.7,1.157-1.184a2.886,2.886,0,0,0,.176-1.683c.232-2.964-.744-6,.562-8.894a8.306,8.306,0,0,1,1.055-1.772.394.394,0,0,1,.647.192.457.457,0,0,0-.018.442c.419.746-.4,1.522.058,2.267l0-.007c.7,1.3.012,2.687.251,4.016l-.006-.021a11.765,11.765,0,0,1-.4,5.846,17.059,17.059,0,0,0-.078,3.565,1.7,1.7,0,0,1-.6,1.179c-1.565.52-1.664-.739-2.03-1.673l.027.045A4.885,4.885,0,0,0,467.356-144.158Z" fill="#c3d464"/>
      <path id="Path_21823" data-name="Path 21823" d="M484.888-144.9q1.129-2.562,2.258-5.125a.9.9,0,0,1,1.153.244,14.04,14.04,0,0,1-.993,4.742c-.68,2.179-.169,3.606,1.894,4.518a3.091,3.091,0,0,1-.617,2.072l-.3,1.029a4.376,4.376,0,0,1-.818,1.048c-.813.654-1.673,1.149-2.7.475a2.331,2.331,0,0,1-.8-2.675,31.227,31.227,0,0,1,1.166-5.006C485.44-144.089,485.944-144.633,484.888-144.9Z" fill="#bfcf3e"/>
      <path id="Path_21824" data-name="Path 21824" d="M465.449-107.339q-.263-1.034-.524-2.069a.317.317,0,0,0-.01-.411,3.525,3.525,0,0,1-.259-1.06c-.064-.5-.163-.991-.187-1.5a4.118,4.118,0,0,1,.033-.793c.293-.669.169-1.772,1.456-1.412l1.3,1.843a3.106,3.106,0,0,1,.827-.376c.1.008.2.018.3.028l1.1.921a.78.78,0,0,1-.116.667,8.1,8.1,0,0,0-.532,1.71,2.2,2.2,0,0,1-.825,1.184l.007-.015c-.189.15-.385.292-.585.428A6.267,6.267,0,0,1,465.449-107.339Z" fill="#a2ba2d"/>
      <path id="Path_21825" data-name="Path 21825" d="M475.755-107.465c.16.035.32.072.479.11-1.119,2.539-2.712,4.865-3.424,7.592-.056.214-.378.358-.577.535a6.818,6.818,0,0,1,1.688-5.262.249.249,0,0,0,.137-.337c.623-.6.228-1.7,1.065-2.195l-.038.051C475.256-107.208,475.376-107.512,475.755-107.465Z" fill="#9fc135"/>
      <path id="Path_21826" data-name="Path 21826" d="M494.817-164.671q-.4,1.589-.794,3.177a2.119,2.119,0,0,1-.084-1.829q.859-3.981,1.728-7.959a.3.3,0,0,1,.454.178l-.142,1.065a6.674,6.674,0,0,1-.8,3.749A2.887,2.887,0,0,0,494.817-164.671Z" fill="#adbf3b"/>
      <path id="Path_21827" data-name="Path 21827" d="M466.741-100.447l-.861,1.487c-1.829-2.433-.173-4.528.645-6.705a.7.7,0,0,1,.886-.133.4.4,0,0,0-.031.465c.365.964-.5,1.872-.129,2.837l-.029-.042a.65.65,0,0,1-.18,1.068Z" fill="#a2ba2d"/>
      <path id="Path_21828" data-name="Path 21828" d="M470.124-146.554a3.9,3.9,0,0,0,.392.324.7.7,0,0,0-.05.483l-.6,2.686a1.323,1.323,0,0,1-.294-1.213C469.748-145.036,469.94-145.794,470.124-146.554Z" fill="#c8d76c"/>
      <path id="Path_21829" data-name="Path 21829" d="M493.035-167.327l.521-2.118a.348.348,0,0,0,.157-.379q.157-.42.476-.1c-.111.578-.207,1.159-.336,1.733A1.124,1.124,0,0,1,493.035-167.327Z" fill="#adbf3b"/>
      <path id="Path_21830" data-name="Path 21830" d="M484.756-160.253q-.228.087-.458.169c-.537-1.235-.644-2.3,1.033-2.685l-.443,2.138A.264.264,0,0,0,484.756-160.253Z" fill="#5f9b29"/>
      <path id="Path_21831" data-name="Path 21831" d="M437.3-117a2.533,2.533,0,0,0-.753-1.837c-.973-2.246-2.619-4.08-3.81-6.194-.661-1.172-1.359-2.324-2.04-3.485-.8-1.625-.08-2.192,1.481-2a9.141,9.141,0,0,1,3.238,1.323l2.349,1.705a3.77,3.77,0,0,0,1.825,1.618,9.965,9.965,0,0,0,2.379,2.164c.426.853,1.57,1.036,1.872,2a3.051,3.051,0,0,1-2.722,3.109c.657.85,1.26,1.717,1.833,2.608a5.419,5.419,0,0,1,1.122,2.493,1.388,1.388,0,0,1-.358.741,4.563,4.563,0,0,1-4.1-.227L438.1-115.19A2.964,2.964,0,0,0,437.3-117Z" fill="#739a1e"/>
      <path id="Path_21832" data-name="Path 21832" d="M457.152-92.462c-.421-.955-.886-1.692-2.159-1.675-.528.007-1.142-.535-1.586-.964a77.594,77.594,0,0,1-7.845-8.228,3.655,3.655,0,0,0-.226-1.027c-.547-2.18-.246-2.494,2-2.134.35.056.7.107,1.049.183,1.448.606,1.833,2.174,2.865,3.158a2.8,2.8,0,0,0,1.589,1.186,1.569,1.569,0,0,1,.83,1.486A2.29,2.29,0,0,0,455.272-98a14.8,14.8,0,0,1,2.989,1.32c.116.062.231.125.345.19a1.772,1.772,0,0,0-.007,1.564c.572,1.521,1.124,3.05,1.684,4.576" fill="#85ad24"/>
      <path id="Path_21833" data-name="Path 21833" d="M448.547-106.153c-.746.648-1.487.355-2.264.035a.557.557,0,0,0-.747.691c.121.429.357.825.482,1.253a.676.676,0,0,1-.456.845,51.956,51.956,0,0,1-5.943-9.65,4.465,4.465,0,0,1,2.568-.077,1.5,1.5,0,0,0,1.674-.381c2.358,1.447,3.181,4.006,4.51,6.2a3.432,3.432,0,0,1,.189.714C448.558-106.4,448.552-106.276,448.547-106.153Z" fill="#7ba121"/>
      <path id="Path_21834" data-name="Path 21834" d="M489.525-140.559c-.131.005-.263.013-.394.023a6.019,6.019,0,0,0-.808-.09c-2.144.041-2.521-.316-2.164-2.232.3-1.6.7-3.187,1.012-4.79a6.157,6.157,0,0,1,1-2.209c-.378-1.849,1.346-2.822,1.8-4.32a1.962,1.962,0,0,1,.428-.83,1.9,1.9,0,0,0-.575-.059,1.682,1.682,0,0,1-1.492-.161c-.444-.215-.681.587-1.158.261-.065-.044-.089-.148-.132-.224q.26-.493.52-.987a10.922,10.922,0,0,1,1.459-.621,3.48,3.48,0,0,0,2.585-1.59c.847.272.659,1.424,1.416,1.758l-.144.563a8.885,8.885,0,0,0-.9,3.662,16.944,16.944,0,0,1-1.285,7.673A31.226,31.226,0,0,0,489.525-140.559Z" fill="#acc12a"/>
      <path id="Path_21835" data-name="Path 21835" d="M481.7-128.268l-.565.534-1.768.955c.3-1.844-.559-3.418-1.173-5.05.34-.259.622-.587.976-.829.577-.426.675-1.175,1.135-1.687a2.606,2.606,0,0,1,.69-.406c.367-.05-.1-.041.264-.077,1.24-.122,2.717-.6,3.513.614.862,1.319-.509,2.273-1.129,3.307-.1.288-.2.577-.3.865a1.365,1.365,0,0,0-.827.885A1.374,1.374,0,0,0,481.7-128.268Z" fill="#c0cf3b"/>
      <path id="Path_21836" data-name="Path 21836" d="M489.822-155.066l.661-.39a.342.342,0,0,1,.139.341c-.03.13-.063.191-.1.184a10.109,10.109,0,0,1-1.165,2.689c-.445.768-.8,1.589-1.19,2.386l-1.024-.173Z" fill="#d0db8a"/>
      <path id="Path_21837" data-name="Path 21837" d="M484.361-142.175l-.622-.17c.089-.985.884-1.653,1.149-2.559.539-.088.99-.058.923.678C485.048-143.74,485.835-142.159,484.361-142.175Z" fill="#e9eebf"/>
      <path id="Path_21838" data-name="Path 21838" d="M483.75-142.348a1.06,1.06,0,0,1-.72,1.006A1.185,1.185,0,0,1,483.75-142.348Z" fill="#e9eebf"/>
      <path id="Path_21839" data-name="Path 21839" d="M487.111-117.9a47.748,47.748,0,0,0-4.052,5.28c-.771-.184-1.546-.355-2.313-.555-.628-.164-.769-.647-.731-1.223l.011-.015a1.325,1.325,0,0,0,.611-.645l.323-.777a2.726,2.726,0,0,0,1.452-1.349,3.839,3.839,0,0,0,1.462-2.01c.159-.026.317-.048.476-.066C485.085-117.705,485.085-117.705,487.111-117.9Z" fill="#9ec135"/>
      <path id="Path_21840" data-name="Path 21840" d="M487.959-117.166l-.5-.758a4.843,4.843,0,0,1,.6-.876c.151-.147.449-.142.681-.2a1.925,1.925,0,0,1,.058.521A1.73,1.73,0,0,1,487.959-117.166Z" fill="#dce7b2"/>
      <path id="Path_21841" data-name="Path 21841" d="M484.856-120.548c.144,0,.288,0,.431-.014a1.079,1.079,0,0,1-.717.924Z" fill="#9ec135"/>
      <path id="Path_21842" data-name="Path 21842" d="M485.331-162.769c-.995.644-.831,1.735-1.033,2.685a.338.338,0,0,1-.152.425c-.993,1.509-1.677,3.243-3.2,4.365-.535-.182-.988-.47-.8-1.115a10.779,10.779,0,0,1,.607-1.138c.333-.758-.108-1.123-.754-1.359-.61-1.617.16-2.934.922-4.252.391.192.742.605,1.235.3a1.143,1.143,0,0,0,.553-1.169c-.049-.353-.273-.681-.336-1.034s.21-.431.492-.345c.39.118.929.126.636-.378-.766-1.32-.33-2.442.268-3.608.232-.451.6-.321.939-.246a1.381,1.381,0,0,1,1.142,1.053c.161.709.251,1.434.372,2.151A6.944,6.944,0,0,1,485.331-162.769Z" fill="#519026"/>
      <path id="Path_21843" data-name="Path 21843" d="M480.948-155.294a13.818,13.818,0,0,1,3.2-4.365c-.025,1.37-1.153,2.319-1.374,3.614a8.8,8.8,0,0,0-1.856,2.863.967.967,0,0,0-.416.061l-.548-.13Z" fill="#5f9b29"/>
      <path id="Path_21844" data-name="Path 21844" d="M476.947-155.028c.546-1.537,1.08-3.078,1.653-4.6.088-.235.352-.4.535-.6a1.182,1.182,0,0,1,.476.868c.016.113.03.226.046.339a.62.62,0,0,1-.243.588,1.729,1.729,0,0,0-.177.481c-.317.813-.415,1.691-.715,2.5S477.7-154.347,476.947-155.028Z" fill="#8bb45f"/>
      <path id="Path_21845" data-name="Path 21845" d="M476.947-155.028c.572.106,1.02,0,1.235-.627.276-.8.186-1.774,1.055-2.3.529,1.063-.154,2.036-.285,3.041-.04.305-.621.575-.994.793C477.395-153.795,477.144-154.032,476.947-155.028Z" fill="#5f9b29"/>
      <path id="Path_21846" data-name="Path 21846" d="M479.3-152.824c-.067,1.132-.909,1.731-1.658,2.385-.526.458-.864.4-1.326-.265a8.268,8.268,0,0,1-.589-1.215,1.946,1.946,0,0,0,2.933-.485A2.235,2.235,0,0,1,479.3-152.824Z" fill="#5f9b29"/>
      <path id="Path_21847" data-name="Path 21847" d="M480.927-163.158l-.921,4.252,0,0-.22.145-.207-.163-.154-.138c-.263-.524.273-1.1-.114-1.618A2.938,2.938,0,0,1,480.927-163.158Z" fill="#7aa84e"/>
      <path id="Path_21848" data-name="Path 21848" d="M479.315-160.682c.583.5.291,1.064.114,1.618-.453-.3-.267-.763-.294-1.171A2.4,2.4,0,0,0,479.315-160.682Z" fill="#c6dbb4"/>
      <path id="Path_21849" data-name="Path 21849" d="M479.951-153.253l-.645.417Z" fill="#5f9b29"/>
      <path id="Path_21850" data-name="Path 21850" d="M479.583-158.926a1.567,1.567,0,0,1,.427.019l-.6.467A1.223,1.223,0,0,1,479.583-158.926Z" fill="#5f9b29"/>
      <path id="Path_21851" data-name="Path 21851" d="M445.356-152.722c.262.835,1.2,1.077,1.589,1.8-1.389.985-2.087-.565-3.17-.873-1.077,1.986-1.978,3.982-.619,6.2.77-.5,1.472-2.068,2.9-.692.713,2.177,2.172,3.928,3.365,5.831,1.174,2.36,3.546,4.191,3.207,7.22-.446.288-1.01.156-1.448.28-.167,1.031,2.138,1.819.107,2.807a14.548,14.548,0,0,1-1.872-1.956c-1.8-2.734-3.923-5.25-5.463-8.161a12.737,12.737,0,0,0-2.027-2.9,4.606,4.606,0,0,1-1.381-2.308c-.336-.576-.33-1.316-.86-1.8l-.01.011c-.545-4.225-2.449-8.05-3.571-12.1a2.685,2.685,0,0,0-.685-1.634c-.129-.212-.247-.427-.361-.647-.354-1.02-.662-2.054-1.11-3.04-.208-.458-.7-1-.047-1.4.588-.368.966.142,1.318.572.4.491.518,1.151.976,1.6l-.042-.052a1.007,1.007,0,0,0,.412.725l-.027-.04a1.614,1.614,0,0,0,.414.7l-.013-.022a3.438,3.438,0,0,0,.393.68l.006.011a2.971,2.971,0,0,0,.726,1.222c.669.693,1.462,1.233,1.48,2.409.037,2.367,1.242,3.548,3.7,3.18C444.031-154.383,444.333-153.233,445.356-152.722Z" fill="#b4c92d"/>
      <path id="Path_21852" data-name="Path 21852" d="M451.283-130.149c.18-.369.643-.705.193-1.161-.5-.5-1.205-.811-1.5-1.5a.91.91,0,0,1,.061-.74.821.821,0,0,1,.646-.354c.69.136,1.36.371,2.038.569,1.218.235,1.8,1.255,2.558,2.062.938,1.623,2.44,2.845,3.246,4.553.231.052.179.412.241.4.2-.022.159-.16-.091-.267a.8.8,0,0,1-.018-1.217c1.387-.672,1.244-1.755.873-2.972-.265-.868-1.094-1.817.105-2.648l.371-.046.763.873a20.436,20.436,0,0,0,1.341,4.222q.12.865.242,1.732c.3.321.047.833.389,1.141l-.01-.028c.183.385-.031.883.342,1.215l-.007-.05c.18.4-.052.871.225,1.253l0,.01c.488,3.323.488,3.323-2.2,2.336h0c-.222-.4-.722-.429-1.007-.747l.02.02c-.127-.447-.73-.4-.867-.833l-.037-.029a1.7,1.7,0,0,0-.63-.578l-.813-.326a9.094,9.094,0,0,0-3.3-2.967Z" fill="#afc428"/>
      <path id="Path_21853" data-name="Path 21853" d="M443.243-155.1c-.575.663-1.6.281-2.183.927a.276.276,0,0,1-.251.03c-.154-.064-.42-.168-.419-.251.016-.947-1.47-.982-1.261-1.747.2-.711.533-1.106-.489-1.2-.1-.009-.275-.274-.251-.384.112-.517,1.1-.776.412-1.54-.417-.46-.782-.968-1.171-1.455a1.156,1.156,0,0,1,1.267.19,1.712,1.712,0,0,1,1.067.781C441.09-158.226,442.48-156.885,443.243-155.1Z" fill="#aabd31"/>
      <path id="Path_21854" data-name="Path 21854" d="M436.331-159.888c.568,1.8,1.67,3.426,1.736,5.4a1.417,1.417,0,0,0,.4.967c.761.594.666,1.449.816,2.228a3.072,3.072,0,0,0,.718,1.978c.853.787.286,1.451-.335,2.057a2.485,2.485,0,0,1-.476-.646q-1.414-4.55-2.783-9.112c-.286-.952-.518-1.919-.775-2.879l.191-.262A.443.443,0,0,1,436.331-159.888Z" fill="#c1d042"/>
      <path id="Path_21855" data-name="Path 21855" d="M436.19-163.917c-.959-.284-1-1.64-2.432-2a16.517,16.517,0,0,1,1.738,4.7c-.213.216-.375.182-.487-.1-.63-1.287-1.294-2.558-1.872-3.868a4.881,4.881,0,0,1-.306-1.566c-.033-.4.276-.629.622-.784a.6.6,0,0,1,.72.2A6.946,6.946,0,0,1,436.19-163.917Z" fill="#b5c836"/>
      <path id="Path_21856" data-name="Path 21856" d="M438.9-160.535l-1.267-.19a1.122,1.122,0,0,1-.3-1.188Z" fill="#b5c836"/>
      <path id="Path_21857" data-name="Path 21857" d="M439.68-147.274a1.439,1.439,0,0,1,.86,1.8A2.188,2.188,0,0,1,439.68-147.274Z" fill="#c1d042"/>
      <path id="Path_21858" data-name="Path 21858" d="M435.637-159.9l-.332-.723.387-.1a.518.518,0,0,1,.145.682Z" fill="#c1d042"/>
      <path id="Path_21859" data-name="Path 21859" d="M435.009-161.319l.243.053.244.046.018.031q.21.195.111.351c-.068.108-.126.156-.175.146l-.145.069A.629.629,0,0,1,435.009-161.319Z" fill="#c1d042"/>
      <path id="Path_21860" data-name="Path 21860" d="M437.327-161.924l-.393-.679A.691.691,0,0,1,437.327-161.924Z" fill="#b5c836"/>
      <path id="Path_21861" data-name="Path 21861" d="M436.947-162.582a.794.794,0,0,1-.414-.7A.717.717,0,0,1,436.947-162.582Z" fill="#b5c836"/>
      <path id="Path_21862" data-name="Path 21862" d="M436.56-163.244a.725.725,0,0,1-.412-.724A.7.7,0,0,1,436.56-163.244Z" fill="#b5c836"/>
      <path id="Path_21863" data-name="Path 21863" d="M464.349-182.965a20.221,20.221,0,0,1,.166-6.119.953.953,0,0,1,.107-.238,3.251,3.251,0,0,1,.495-.5c.024-.018.333.2.331.313-.008.68-.216,1.407.716,1.705.766.245,1.047-.511,1.591-.717a8.965,8.965,0,0,1-.288,6.688c-.66-.692-1.306-1.4-1.984-2.071-.492-.489-.633-.417-.977.44C464.441-183.3,464.4-183.132,464.349-182.965Z" fill="#c0d151"/>
      <path id="Path_21864" data-name="Path 21864" d="M472.46-183.449a.523.523,0,0,1-.153.4l-3.2-.648a2.437,2.437,0,0,1,1.872-1.4C472.457-185.225,472.493-185.255,472.46-183.449Z" fill="#cad65b"/>
      <path id="Path_21865" data-name="Path 21865" d="M470.65-162.551q-.279,1.548-.559,3.1c-.254.592-.232,1.362-1.026,1.611-.122-.222-.243-.445-.365-.668l.21-1.062a1.593,1.593,0,0,0,.853-1.314c.144-.623.311-1.241.468-1.862A1.736,1.736,0,0,1,470.65-162.551Z" fill="#b8ce58"/>
      <path id="Path_21866" data-name="Path 21866" d="M468.636-163.559a2.773,2.773,0,0,1-.045-2.285C469.244-165.1,468.78-164.324,468.636-163.559Z" fill="#b8ce58"/>
      <path id="Path_21867" data-name="Path 21867" d="M470.177-165.085a3.133,3.133,0,0,1,.054,2.385C469.442-163.478,470-164.286,470.177-165.085Z" fill="#b8ce58"/>
      <path id="Path_21868" data-name="Path 21868" d="M468.912-159.573a1.784,1.784,0,0,1-.132-1.721C469.289-160.755,469.059-160.161,468.912-159.573Z" fill="#b8ce58"/>
      <path id="Path_21869" data-name="Path 21869" d="M468.787-161.767a2.1,2.1,0,0,1-.155-1.81C469.23-163.02,468.97-162.39,468.787-161.767Z" fill="#b8ce58"/>
      <path id="Path_21870" data-name="Path 21870" d="M470.113-167.362q.19.147.392.277l-.252,1.027A1.122,1.122,0,0,1,470.113-167.362Z" fill="#b8ce58"/>
      <path id="Path_21871" data-name="Path 21871" d="M481.064-96.276a.662.662,0,0,0-.58.521c-.419.037-.73.488-1.2.313-1.577-.047-1.56-1.61-2.327-2.431a3.244,3.244,0,0,1-.288-.662,3.265,3.265,0,0,1-.151-1.435,1.182,1.182,0,0,1,.395-.591,33.676,33.676,0,0,0,5.163-6.9,3.1,3.1,0,0,1,1.166-1.452c-.171.8-.3,1.6-.528,2.384-.125.427-.411.8-.326,1.289.075.428-.108.956.334,1.243.485.313.84-.089,1.2-.352a1.666,1.666,0,0,1,.433-.315.542.542,0,0,1,.467.075.528.528,0,0,1,.068.484,3.594,3.594,0,0,1-2.366,1.837,6.041,6.041,0,0,1,2.294,1.809l-.858,1.481a1.284,1.284,0,0,0-.863.832.7.7,0,0,0-.567.534,2.726,2.726,0,0,0-1.461,1.332" fill="#89b222"/>
      <path id="Path_21872" data-name="Path 21872" d="M487.7-112.618c.1-.135.181-.36.3-.38s.268.167.4.263c-.1.135-.18.361-.3.381S487.84-112.521,487.7-112.618Z" fill="#94bc2a"/>
      <path id="Path_21873" data-name="Path 21873" d="M448.037-166.962a2.766,2.766,0,0,0-1.286-1.5,78.545,78.545,0,0,1-5.215-8.937c-.243-.479-.412-1-.615-1.5a.814.814,0,0,0-.409-.842l.026.052a.816.816,0,0,0-.436-.7l-.034,0c.148-1,.995-.923,1.34-.484,1.58,2.012,2.669,1.184,3.715-.471,1.752-.123,2.512,1.411,3.706,2.219-.021.863-.508,1.778.421,2.516.53.422.4.982-.014,1.43a1.364,1.364,0,0,0-.03,1.933,33.2,33.2,0,0,0,5.031,6c2.3,1.213,3.179,3.691,4.874,5.446.515.533.663,1.275,1.841.7,1-.49,2.044.376,2.707,1.365.561.838.878,1.8,1.385,2.66l2.718,7.984c.314.309.045.826.4,1.12v-.015a2.473,2.473,0,0,1,.281.906c-.012.106-.024.211-.037.317a1.007,1.007,0,0,1-1.3.848v0c-.252-.355-.042-.836-.324-1.183l0,.008a2.027,2.027,0,0,1-.332-.655c-.653-1.205-1.37-2.382-1.94-3.625a4.8,4.8,0,0,0-2.433-2.482c-.33-.152-.614-.414-.95-.544a19.51,19.51,0,0,1-8.293-6.541,7.552,7.552,0,0,0-.784-.753A22.069,22.069,0,0,0,448.037-166.962Z" fill="#abc741"/>
      <path id="Path_21874" data-name="Path 21874" d="M465.044-157.076a6.81,6.81,0,0,1-1.877-2.278,2.053,2.053,0,0,0-2.676-1.231,1.2,1.2,0,0,1-1.55-.387,15.5,15.5,0,0,1-2.469-3.23c-.6-1.139-1.82-1.793-2.235-3.046.783-.431,1.285.476,2,.42a7.984,7.984,0,0,0,1.061,0,.877.877,0,0,0,.593-.474c.272-1.078,2.233-.635,1.937-2.182a26.58,26.58,0,0,1,5.093,10.621,3.938,3.938,0,0,0,.314.733Z" fill="#d8e080"/>
      <path id="Path_21875" data-name="Path 21875" d="M444.849-181.11c.039.436.269,1,.078,1.281a7.12,7.12,0,0,1-1.529,1.452.525.525,0,0,1-.713-.152c-.491-.635-.931-1.311-1.445-1.926-.374-.447-.795-.223-1.171.068a16,16,0,0,1-2.5-4.119c-.3-.646-.683-1.253-1.028-1.877a2.8,2.8,0,0,0-.177-1.727c.122-.589-.165-1.445.381-1.719.758-.379,1.09.59,1.631.938.22.142.439.287.658.431a12.387,12.387,0,0,0,3.193,3.5l.951,1.246a2.928,2.928,0,0,0-.089.5C443.476-182.346,444.554-182.054,444.849-181.11Z" fill="#b1ca4a"/>
      <path id="Path_21876" data-name="Path 21876" d="M452.561-177.724l1.462.9c.3,1.048,1.315,1.493,1.925,2.286a18.106,18.106,0,0,1,2.105,2.5c-.435-.1-.865-.235-1.305-.3-1.2-.17-2.247-.506-2.669-1.842a1.616,1.616,0,0,0-.75-.735C452.117-175.607,452.277-176.641,452.561-177.724Z" fill="#dce390"/>
      <path id="Path_21877" data-name="Path 21877" d="M444.849-181.11c-1.112-.046-1.52-.923-1.983-1.714-.037-.065.145-.258.226-.391a10.229,10.229,0,0,1,3.884,1.636,3.574,3.574,0,0,1,1.855,2.456A3.243,3.243,0,0,1,446.5-180.3,2.4,2.4,0,0,0,444.849-181.11Z" fill="#a9c144"/>
      <path id="Path_21878" data-name="Path 21878" d="M463.707-85.86a14.83,14.83,0,0,1,2.665-2.279c.938-.214,1.875-.433,2.814-.64a.624.624,0,0,1,.783.485,21.2,21.2,0,0,1-2.628,2.893" fill="#90b22c"/>
      <path id="Path_21879" data-name="Path 21879" d="M474.091-94.309a1.893,1.893,0,0,0,1.321-1.494c.106-.514.232-1.024.35-1.536.952-.015.975.78,1.217,1.387a4.637,4.637,0,0,1-.146,2.861,1.823,1.823,0,0,1-2.182.953A1.423,1.423,0,0,1,474.091-94.309Z" fill="#869b40"/>
      <path id="Path_21880" data-name="Path 21880" d="M474.091-94.309a3.334,3.334,0,0,0,.48,1.81c1.015,1.16,1.529,2.4.665,3.884-1.331.538-.869-1.151-1.634-1.318a1.524,1.524,0,0,1,.013-.457,4.689,4.689,0,0,0-.282-2.636c-.153-.7-.343-1.395-.478-2.1a.441.441,0,0,1,.272-.339.584.584,0,0,1,.446.216A9.169,9.169,0,0,1,474.091-94.309Z" fill="#b6c771"/>
      <path id="Path_21881" data-name="Path 21881" d="M476.474-95.972l-.712-1.367a.97.97,0,0,0-.735-1.311,2.36,2.36,0,0,1,1.524-3.106,1.549,1.549,0,0,0,.358,1.195l-.088.572c-.441.573.063.893.344,1.272a3.142,3.142,0,0,0,.033.513,2.679,2.679,0,0,1,.242,1.783A1.038,1.038,0,0,1,476.474-95.972Z" fill="#c6d59d"/>
      <path id="Path_21882" data-name="Path 21882" d="M476.551-101.756a5.362,5.362,0,0,0-1.525,3.106c-.9-1.345-.25-2.6.447-3.667a16.857,16.857,0,0,1,2.4-2.468c.159.151.2.291.132.418s-.14.194-.194.182Z" fill="#9fc135"/>
      <path id="Path_21883" data-name="Path 21883" d="M476.241-107.362c.751-.913,1.054-1.008,1.975-.66a1.028,1.028,0,0,1,.669,1.291c-.057.356-.116.711-.174,1.067l.01-.015q-.381.3-.572-.147c-.193-.216-.129-.441-.085-.7.148-.886-.015-1.094-.822-1.055A5.719,5.719,0,0,0,476.241-107.362Z" fill="#9fc135"/>
      <path id="Path_21884" data-name="Path 21884" d="M478.149-105.826l.572.147a2.045,2.045,0,0,1-.912,1.494c.021-.2.042-.4.062-.6Q478.009-105.306,478.149-105.826Z" fill="#a7c53b"/>
      <path id="Path_21885" data-name="Path 21885" d="M469.679-141.988c.455.734.086,1.507.109,2.261.018.942.721,1.924-.17,2.81-.583-.126-1.061-.058-1.224.634-.1.432-.219.861-.329,1.292-.066-.167-.214-.349-.186-.5.477-2.525-.118-5-.317-7.5a2.662,2.662,0,0,1,.066-.534C468.236-142.908,468.593-141.96,469.679-141.988Z" fill="#c8d76c"/>
      <path id="Path_21886" data-name="Path 21886" d="M468.057-132.179a3.925,3.925,0,0,1,.085-2.822C468.818-134.038,468.212-133.115,468.057-132.179Z" fill="#8ab93a"/>
      <path id="Path_21887" data-name="Path 21887" d="M461.1-120.761c.431.073.859.172,1.293.212a.662.662,0,0,0,.82-.734c.01-.605.055-1.209.084-1.814.428,1.275.774,2.584,1.307,3.813.521,1.2.555,2.582,1.231,3.957.79-1.085.612-2.154,1.048-3.018a3.9,3.9,0,0,1-.925,3.764c-.978.382-.7,1.406-1.073,2.1-.421-1.452-.909-2.889-1.245-4.361A6.334,6.334,0,0,0,461.1-120.761Z" fill="#bacc3b"/>
      <path id="Path_21888" data-name="Path 21888" d="M463.3-123.107a1,1,0,0,1-.225-1.253,2.481,2.481,0,0,1,.416.207Q463.39-123.63,463.3-123.107Z" fill="#bacc3b"/>
      <path id="Path_21889" data-name="Path 21889" d="M467.356-144.158l.3.683A.569.569,0,0,1,467.356-144.158Z" fill="#c8d76c"/>
      <path id="Path_21890" data-name="Path 21890" d="M491.91-164.758a4.443,4.443,0,0,1,1.164-2.6c-.112.579-.209,1.161-.34,1.736A1.116,1.116,0,0,1,491.91-164.758Z" fill="#adbf3b"/>
      <path id="Path_21891" data-name="Path 21891" d="M494.653-171.361c.157,0,.314.013.471.028-.152.589-.181,1.26-.95,1.445Q494.414-170.624,494.653-171.361Z" fill="#adbf3b"/>
      <path id="Path_21892" data-name="Path 21892" d="M467.477-113.329l.94.246a.879.879,0,0,1-1.162.346Z" fill="#b2c82c"/>
      <path id="Path_21893" data-name="Path 21893" d="M485.6-177.263c-.081.961.649,1.189,1.327,1.464l-.045.954c-.367-.235-.732-.666-1.1-.668a11.722,11.722,0,0,1-3-.521c-.225-.061-.508.093-.765.148a6.26,6.26,0,0,1,.183-.765c.432-1.172.5-1.218,1.7-1.068.433.055.861.157,1.29.237A1.916,1.916,0,0,0,485.6-177.263Z" fill="#73ac30"/>
      <path id="Path_21894" data-name="Path 21894" d="M484.426-191.52c1.646.133,1.659.147,1.72,1.887-.32-.131-.647-.383-.958-.365-.474.027-.725.459-.84.891-.317,1.186-.6,2.38-.9,3.572A13.87,13.87,0,0,1,484.426-191.52Z" fill="#a6c756"/>
      <path id="Path_21895" data-name="Path 21895" d="M481.114-174.388l.425-1.6c.157.035.314.068.47.1C481.874-175.288,481.841-174.63,481.114-174.388Z" fill="#73ac30"/>
      <path id="Path_21896" data-name="Path 21896" d="M486.143-189.653a2.745,2.745,0,0,1,.424.193q-.13.783-.263,1.567C485.745-188.434,485.948-189.044,486.143-189.653Z" fill="#a6c756"/>
      <path id="Path_21897" data-name="Path 21897" d="M440.512-179.739a.759.759,0,0,1,.409.841A1,1,0,0,1,440.512-179.739Z" fill="#b1ca4a"/>
      <path id="Path_21898" data-name="Path 21898" d="M440.1-180.389a.677.677,0,0,1,.436.7A.689.689,0,0,1,440.1-180.389Z" fill="#b1ca4a"/>
      <path id="Path_21899" data-name="Path 21899" d="M458.261-96.678a.913.913,0,0,1-1.238.068,4.6,4.6,0,0,0-2.049-.721c-.825-.935-1.819-1.785-1.611-3.233a2.333,2.333,0,0,0-.728-1.225,4.116,4.116,0,0,1-1.354-1.291,65.487,65.487,0,0,0-6.971-10.8q-.735-1.071-1.421-2.175c-.777-.834-.94-2.265-2.385-2.451a3.072,3.072,0,0,1-.509-.17c-.376-.2-.532-.5-.157-.82a4.331,4.331,0,0,1,.728-.316c.745-.407,1.4.819,1.964.241.435-.447.161-1.408.854-1.861.149-.1.308-.178.462-.267l.928.37a68.712,68.712,0,0,1,6.665,7.91,40.059,40.059,0,0,1,4.707,8.6,10.292,10.292,0,0,0,.631,1.185,3.049,3.049,0,0,0,.635,1.895c.208.975.425,1.949.62,2.926A4.175,4.175,0,0,1,458.261-96.678Z" fill="#6c9220"/>
      <path id="Path_21900" data-name="Path 21900" d="M435.42-129.194c-1.258-.251-2.513-.512-3.774-.75-.733-.139-.765-.1-.893.883-.024.181-.035.363-.052.545l-4.9-6.106a2.815,2.815,0,0,0-.478-.6l.02.024a.935.935,0,0,0-.6-.67.356.356,0,0,1-.315-.3,1.062,1.062,0,0,1-.4-.495l-.018-.021c.164-1.035.862-.705,1.363-.435a20.751,20.751,0,0,0,2.1,1.085.319.319,0,0,1,.309.261,5.571,5.571,0,0,0,.485.545l0-.015c-.1,1.076.894,1.023,1.454,1.419l1.748,1.166a1.356,1.356,0,0,0,.977.761C433.338-130.9,434.66-130.355,435.42-129.194Z" fill="#86aa2d"/>
      <path id="Path_21901" data-name="Path 21901" d="M486.879-174.843a1.046,1.046,0,0,1,.212,1.177A1.027,1.027,0,0,1,486.879-174.843Z" fill="#73ac30"/>
      <path id="Path_21902" data-name="Path 21902" d="M466.452-147.749a.66.66,0,0,1,.332.655,4.722,4.722,0,0,1-.462-.168A2.849,2.849,0,0,1,466.452-147.749Z" fill="#c3d464"/>
      <path id="Path_21903" data-name="Path 21903" d="M455.121-61.731c.886-3.689,1.847-7.364,2.644-11.074,2.3-10.706,4.528-21.426,6.785-32.14.709-2.608,1.846-3.168,2.985-3.724q-.366,1.294-.734,2.587a1.347,1.347,0,0,0-.331.823c-.01.294.01.446.06.457l-.236,1.344c-.281.122-.417.439-.392.94a.273.273,0,0,0,.217.288l.01-.08-3.174,14.263A6.666,6.666,0,0,0,462.834-85c-1.74,7.958-2.926,16.035-5.14,23.893" fill="#8aa62e"/>
      <path id="Path_21904" data-name="Path 21904" d="M468.625-147.853c.5.476.465.848-.217,1.089l.006.014a.788.788,0,0,1,.215-1.1Z" fill="#9da662"/>
      <path id="Path_21905" data-name="Path 21905" d="M484.361-142.175a1.568,1.568,0,0,0,.709-1.03,1.788,1.788,0,0,1,.742-1.02c-.4,1.958-.811,3.915-1.2,5.877a4.9,4.9,0,0,0-.109,1.342,1.215,1.215,0,0,0,1.45.86c.583-.245,1.143-.541,1.713-.814q-.191.779-.383,1.556a2.2,2.2,0,0,0-.92,1.452,1.363,1.363,0,0,0-.693,1.051c-.6.293-.724.89-.931,1.436a.731.731,0,0,0-.588.509c-.169.018-.338.034-.507.049.308-.744.643-1.478.915-2.235a.818.818,0,0,0-.749-1.155c-1.163.134-2.356-.162-3.495.251.123-.775.785-1.138,1.261-1.64a3.743,3.743,0,0,0,1.3-2.233c.723-.74.323-1.924,1.053-2.662Z" fill="#cbd54f"/>
      <path id="Path_21906" data-name="Path 21906" d="M445.74-145.926c-.382-.758-.982-.426-1.346-.116-.386.328-.539.917-.862,1.34a.746.746,0,0,1-1,.1c-.319-.167-.653-.39-.463-.834.123-.285.6-.468.183-.874-1.322-1.3-.119-2.75-.218-4.123,0-.064.287-.188.452-.218.79-.142.535-.539.235-.937-.26-.344-.768-.671-.211-1.111a1.084,1.084,0,0,1,1.275-.155,5.562,5.562,0,0,1,1.227,1.066,2.493,2.493,0,0,0,1.929.864c.9.323,1.293,1.174,1.891,1.809a17.506,17.506,0,0,0,2.487,2.731c.311.888,1.154,1.322,1.715,2a10.615,10.615,0,0,1,2,2.461c-.008.769.766,1.464.218,2.284-1.134.51-1.344-.528-1.772-1.109a3.663,3.663,0,0,0-2.645-1.8c-.123,1.687,2.3,2.738,1.153,4.608-1.73.162-1.977-1.351-2.67-2.359A44.141,44.141,0,0,1,445.74-145.926Z" fill="#acc126"/>
      <path id="Path_21907" data-name="Path 21907" d="M455.019-139.523q.007-1.2.015-2.4a13.752,13.752,0,0,1,1.359,1.632c1.067,1.755,2.081,3.543,3.077,5.339a9.752,9.752,0,0,1,.54,1.491l-.192.078C456.971-134.459,456.2-137.147,455.019-139.523Z" fill="#afc428"/>
      <path id="Path_21908" data-name="Path 21908" d="M468.629-147.854q-.108.552-.215,1.1a1.025,1.025,0,0,1-.251-1.237Z" fill="#c3d464"/>
      <path id="Path_21909" data-name="Path 21909" d="M468.163-147.972a.963.963,0,0,1-.4-1.12A1.047,1.047,0,0,1,468.163-147.972Z" fill="#c3d464"/>
      <path id="Path_21910" data-name="Path 21910" d="M469.249-111.682a1.878,1.878,0,0,1-.85,1.511C468.525-110.763,468.552-111.41,469.249-111.682Z" fill="#b2c82c"/>
      <path id="Path_21911" data-name="Path 21911" d="M465.069-110.761a1.224,1.224,0,0,1-.156-1.3A1.1,1.1,0,0,1,465.069-110.761Z" fill="#bacc3b"/>
      <path id="Path_21912" data-name="Path 21912" d="M491.976-152.4a3.859,3.859,0,0,1,.9-3.662Z" fill="#b2c82c"/>
      <path id="Path_21913" data-name="Path 21913" d="M460.093-121.508a1.034,1.034,0,0,1,1.008.747A1.075,1.075,0,0,1,460.093-121.508Z" fill="#bacc3b"/>
      <path id="Path_21914" data-name="Path 21914" d="M459.246-122.321a.993.993,0,0,1,.867.833l-.875-.391C459.238-122.027,459.24-122.174,459.246-122.321Z" fill="#bacc3b"/>
      <path id="Path_21915" data-name="Path 21915" d="M463.077-124.31a.931.931,0,0,1-.343-1.215A1.193,1.193,0,0,1,463.077-124.31Z" fill="#bacc3b"/>
      <path id="Path_21916" data-name="Path 21916" d="M462.745-125.5a1,1,0,0,1-.389-1.141A1.048,1.048,0,0,1,462.745-125.5Z" fill="#bacc3b"/>
      <path id="Path_21917" data-name="Path 21917" d="M466.781-147.1a1,1,0,0,1,.324,1.183A1.1,1.1,0,0,1,466.781-147.1Z" fill="#c3d464"/>
      <path id="Path_21918" data-name="Path 21918" d="M467.03-106.027c-.4-.2-.421-.368.032-.509A.441.441,0,0,1,467.03-106.027Z" fill="#a2ba2d"/>
      <path id="Path_21919" data-name="Path 21919" d="M467.135-107.09c-.188-.115-.241-.263-.121-.414.046-.06.151-.074.229-.108Z" fill="#a2ba2d"/>
      <path id="Path_21920" data-name="Path 21920" d="M480.637-115.061a.863.863,0,0,1-.611.645A.855.855,0,0,1,480.637-115.061Z" fill="#a7c53b"/>
      <path id="Path_21921" data-name="Path 21921" d="M458.579-122.928a.814.814,0,0,1,.63.578A.8.8,0,0,1,458.579-122.928Z" fill="#bacc3b"/>
      <path id="Path_21922" data-name="Path 21922" d="M440.5-118.51a.683.683,0,0,1,1.133-.162,7.374,7.374,0,0,1,1.689,2.426.754.754,0,0,1-.77.488Z" fill="#adc173"/>
      <path id="Path_21923" data-name="Path 21923" d="M442.556-115.758l.77-.488,1.3,1.925-.776.5A4.858,4.858,0,0,1,442.556-115.758Z" fill="#c4d196"/>
      <path id="Path_21924" data-name="Path 21924" d="M453.363-100.564l1.61,3.233a3.277,3.277,0,0,1-2.135-2.459C452.714-100.156,453-100.432,453.363-100.564Z" fill="#b0c675"/>
      <path id="Path_21925" data-name="Path 21925" d="M450.971-102.641l.733-.482a2.231,2.231,0,0,1,.931,1.334C451.763-101.453,451.379-102.071,450.971-102.641Z" fill="#aec472"/>
      <path id="Path_21926" data-name="Path 21926" d="M448-106.828a.789.789,0,0,1,.493.7A.725.725,0,0,1,448-106.828Z" fill="#85ad24"/>
      <path id="Path_21927" data-name="Path 21927" d="M490.525-154.931a3.545,3.545,0,0,1-.041-.525,4.154,4.154,0,0,1,.239.379A1.44,1.44,0,0,1,490.525-154.931Z" fill="#b2c82c"/>
      <path id="Path_21928" data-name="Path 21928" d="M479.187-132.09c.321-.681.332-1.542,1.127-1.949A1.4,1.4,0,0,1,479.187-132.09Z" fill="#cbd54f"/>
      <path id="Path_21929" data-name="Path 21929" d="M483.934-140.581a3.556,3.556,0,0,1-1.053,2.662C483.1-138.858,482.964-139.938,483.934-140.581Z" fill="#e9eebf"/>
      <path id="Path_21930" data-name="Path 21930" d="M449.581-140.668l-.676.462c-.852-1.243-1.721-2.474-2.545-3.734a2.852,2.852,0,0,1-.62-1.987C447.412-144.458,448.324-142.438,449.581-140.668Z" fill="#dfe8ad"/>
      <path id="Path_21931" data-name="Path 21931" d="M435.45-160.692a2.239,2.239,0,0,1,.063-.5,1,1,0,0,1,.818,1.3,3.405,3.405,0,0,1-.495-.151Q435.644-160.366,435.45-160.692Z" fill="#b5c836"/>
      <path id="Path_21932" data-name="Path 21932" d="M455.1-132.145c-.764-2.107-2.338-3.762-3.24-5.792.253-1.022-.434-1.708-.884-2.482a7.733,7.733,0,0,1-1.292-2.376.916.916,0,0,1,.226-.737.87.87,0,0,1,.734-.074,12.451,12.451,0,0,1,1.477.679,3.573,3.573,0,0,1,2.144,2.312c.1.4.5.73.756,1.092a9.747,9.747,0,0,1,2.395,3.205c.458,1.231,1.68,1.889,2.4,2.931-.187.4-.574.8-.238,1.246.914,1.222.762,2.74,1.384,4.12l-2.241.539a6.678,6.678,0,0,1-3.245-4l-.018-.037A1.4,1.4,0,0,0,455.1-132.145Z" fill="#a5b925"/>
      <path id="Path_21933" data-name="Path 21933" d="M455.479-131.481a26.57,26.57,0,0,1,3.244,4q.111.585.22,1.169l-.041.026a1.565,1.565,0,0,1-1.1-.7c-1.008-1.356-2.342-2.471-3.024-4.068Z" fill="#dfe6ab"/>
      <path id="Path_21934" data-name="Path 21934" d="M458.943-126.313l.179.324c-.061-.021-.15-.025-.175-.067a.677.677,0,0,1-.044-.231Z" fill="#dfe6ab"/>
      <path id="Path_21935" data-name="Path 21935" d="M477.165-98.717c-.94-.535-.96-.608-.343-1.272Q476.993-99.353,477.165-98.717Z" fill="#9fc135"/>
      <path id="Path_21936" data-name="Path 21936" d="M455.1-132.145a.624.624,0,0,1,.363.627Z" fill="#dfe6ab"/>
      <path id="Path_21937" data-name="Path 21937" d="M451.344-142.055l-.357-.305c.148-.049.308-.157.442-.13s.24.185.359.287Z" fill="#acc126"/>
      <path id="Path_21938" data-name="Path 21938" d="M460.876-73.973c-.971,3.667-2.018,7.319-2.9,11.009-2.547,10.649-5.028,21.314-7.535,31.973-.768,2.59-1.919,3.124-3.07,3.652q.4-1.284.794-2.569a1.344,1.344,0,0,0,.35-.815c.017-.293,0-.445-.049-.457l.267-1.339c.284-.115.428-.429.414-.93a.272.272,0,0,0-.211-.293l-.011.079q1.752-7.092,3.506-14.184a6.655,6.655,0,0,0,.192-3.043c1.925-7.916,3.3-15.962,5.7-23.767" fill="#8aa62e"/>
    </g>
    <g id="Group_91" data-name="Group 91">
      <path id="Path_21939" data-name="Path 21939" d="M521.456-110.834a.261.261,0,0,0,.064-.356c-.135-.633.5-1.1.382-1.724l.015.055a1.05,1.05,0,0,1,.722-1.437l-.026.02c1.414-1.523,1.752-3.733,3.3-5.17a.267.267,0,0,0,.182-.338c1.255-1.451,1.862-3.411,3.548-4.523a.261.261,0,0,0,.22-.3c.873-.84,1.2-2.209,2.536-2.6l0,0c.981-.643,1.266-2.059,2.586-2.325l-.058.018c.357-.241.534-.7,1-.811l-.024.017c.632-.2.6-1.071,1.263-1.236l-.015.012c.815-.572,1.139-1.75,2.315-1.876l-.051.022c.372-.217.54-.708,1.03-.767l-.037.013c.6-.24.592-1.065,1.221-1.28a.238.238,0,0,0,.229-.27c.637-.347.612-1.39,1.52-1.451,1.113.293,2.719-.448,3.07,1.46-.707,1.814-2.576,2.645-3.564,4.221-1.106,1.324-2.13,2.716-3.291,3.993-.567.687-1.223,1.289-1.849,1.92-.175.182-.363.348-.554.511-.375.339-.73.7-1.09,1.056-2.368,2.215-4.862,4.317-6.368,7.281-.149,1.694.521,3.482-.57,5.068a5.4,5.4,0,0,1-1.759,1.009l.039-.018c-.4.168-.553.721-1.081.679l.088-.024a1.04,1.04,0,0,1-.79.307l.043-.023c-1.875.578-2.772,2.366-4.25,3.435l.019-.013c-1.2.958-1.463,2.776-3.087,3.338l.057-.01a35.032,35.032,0,0,1-2.77,2.97l.034-.031a.831.831,0,0,1-.806-.061,1.675,1.675,0,0,1-.58-1.538c.373-1.323,1.764-1.727,2.482-2.741a.229.229,0,0,0,.185-.3c.9-.562.811-1.885,1.827-2.354l-.029.02c.41-.146.567-.675,1.057-.7l-.049.024A4.455,4.455,0,0,0,521.456-110.834Z" fill="#b2c82c"/>
      <path id="Path_21940" data-name="Path 21940" d="M546.309-108.71a.442.442,0,0,0-.166.468c-.835,2.255-1.225,4.748-3.371,6.3a1.948,1.948,0,0,0-.7,1.3c-1.86,2.144-2.322,5.267-4.856,6.94l.029-.025a.486.486,0,0,1-.625-.243c-.261-1.045-.018-2.195-.641-3.175-1.563,1.821-2.985.274-4.452-.174-.011-1.561,1.309-2.066,2.248-2.855.062-.181.515-.044.363-.416-.14-.339.121.132-.249.03a3.619,3.619,0,0,1-.63.024c-1.231-.138-2.141-.612-2.188-2.015a1.7,1.7,0,0,1,.3-.659,11.52,11.52,0,0,1,1.037-.975,2.455,2.455,0,0,1,.569-.4l.033-.027c.744-.344,1.142-1.241,2.068-1.295l-.056.023c.358-.239.524-.741,1.043-.758l-.044.012a14.668,14.668,0,0,1,6.152-3.913c1.376.055,1.9,2.349,3.666,1.394A.455.455,0,0,1,546.309-108.71Z" fill="#94bc2a"/>
      <path id="Path_21941" data-name="Path 21941" d="M536.477-149.281l.171-.062,0-.183c.32-.358.754-.661.61-1.247l0,.031c-.111-.675.042-1.2.8-1.369l-.043.014c.892-.771,1.61-1.717,2.5-2.494l-.02.017a6.849,6.849,0,0,0,.894-.679c.662-.46,1.555-.764,1.74.226.318,1.709,1.435,1.886,2.771,1.958a1.826,1.826,0,0,1,1.976,1.817c-.273,1.292-.444,2.636-1.748,3.4-1.324-.494-.444-2.02-1.431-2.877-1.429,1.077-1.091,3.146-2.406,4.367-.8.74-1.344,1.33-2.441,1.1-.956-.052-1.347.7-1.845,1.3a6.538,6.538,0,0,1-.462.547c-1.17,1.046-1.657,2.584-2.669,3.717,1.171-.17,1.061-1.29,1.511-1.984a2.332,2.332,0,0,1,.487-.6,2.142,2.142,0,0,1,.716-.3,1.6,1.6,0,0,1,.745.126c1.575,1.383-.718,2.369-.368,3.629a2.825,2.825,0,0,1-1.039,1.853,3.8,3.8,0,0,1-.625.361c-.216.11-.438.207-.661.307-.11.059-.221.109-.331.168-1.525.934-2.92,1.015-4.051-.628a4.524,4.524,0,0,1-.185-2.936A22.882,22.882,0,0,1,536.477-149.281Z" fill="#559424"/>
      <path id="Path_21942" data-name="Path 21942" d="M533.213-160.9l-.267.489c.018,1.424-1.371,2.329-1.38,3.744a.423.423,0,0,0-.139.434,4.066,4.066,0,0,1-.643,2.954,6.045,6.045,0,0,0-.2,1.478,2.713,2.713,0,0,1-.232,1.057,7.449,7.449,0,0,0-.809,1.959,6.948,6.948,0,0,1-.055.721,3.237,3.237,0,0,1-1.624,2.329.8.8,0,0,1-.652-.214,4.183,4.183,0,0,1,.022-1.726,3.932,3.932,0,0,1,.13-.653,7.242,7.242,0,0,0,.4-1.573,4.244,4.244,0,0,1,.117-.663,4.264,4.264,0,0,0,.215-2.065c.848-3.356.2-6.672-.121-10.023a15.485,15.485,0,0,1,.658-7.314c.733-1.545,1.582-1.811,2.594-.23a8.373,8.373,0,0,1,.908,1.888,3.639,3.639,0,0,1,.167.757c.02.12.037.246.06.363.024-.066.195.241.112-.052a1.153,1.153,0,0,1-.03-.444c.269-.915.713-1.647,1.763-1.787a2.774,2.774,0,0,1,2.659,1.88A34.182,34.182,0,0,1,533.213-160.9Z" fill="#b3cb46"/>
      <path id="Path_21943" data-name="Path 21943" d="M531.7-97.18c.6-.048,1.089-.567,1.8-.307.533.195.806,1.19,1.549.628.5-.379.176-1.008.181-1.529,0-.232.109-.365.324-.331.167.026.4.065.474.181.953,1.477,1.625,3.009.741,4.773a4.441,4.441,0,0,1-2.258,3.012.194.194,0,0,0-.226.232c-.343.327-.579.773-1.057.951l.009-.008c-.638.181-.6,1.052-1.249,1.223h0c-.656.122-.563,1.138-1.338,1.12l.061-.031c-.349.252-.521.735-1.026.785l.044-.023c-.376.206-.543.681-1.005.777l.009-.008c-.38.18-.488.723-.99.741l.007-.006c-.338.162-.63.484-1.066.307-.5-.986-3-1.68-.461-3.114a2.038,2.038,0,0,1-.843-2.558c.49-1.172,1.278-2.176,1.83-3.316C528.512-95.1,529.273-97.215,531.7-97.18Z" fill="#82ac1f"/>
      <path id="Path_21944" data-name="Path 21944" d="M510.775-175.049l.865.491A6.417,6.417,0,0,1,515.1-170.3l0-.021c.657.813,1.594,1.465,1.54,2.684-.259,3.039,1.406,4.925,3.824,6.363a4.058,4.058,0,0,1,1.069,3.492c-2.009,2.531-3.713,2.736-6.579.8-3.592-3.887-4.1-8.386-2.634-13.275.053-1.512-1-2.388-1.91-3.353-.653-.693-1.693-1.04-1.91-2.127a.725.725,0,0,1,.615-.51A1.653,1.653,0,0,1,510.775-175.049Z" fill="#d7de78"/>
      <path id="Path_21945" data-name="Path 21945" d="M533.845-169.2l-1.356,2.4a.459.459,0,0,1-.447-.295l.012.045a54.81,54.81,0,0,1,4.8-13.39c-.354.364-.427,1.229-1.115,1.663-1.48-1.194-.185-2.245.234-3.276a6.338,6.338,0,0,1,2.012-2.487,3.457,3.457,0,0,1,1.982-.776,1.6,1.6,0,0,1,.738.224c.235.445-.056.966.195,1.411.341.659-.09,1.33.026,1.994v0c.134.417-.178.821-.037,1.238v-.013c.16.414-.166.824-.012,1.238v0c.354,1.074-.241,2.027-.385,3.038a.508.508,0,0,0-.141.413c.546,2.149-1.475,3.514-1.656,5.441q-.591,1.14-1.184,2.28a.4.4,0,0,1-.614-.09C536.3-169.721,535.057-169.417,533.845-169.2Z" fill="#d7dd6d"/>
      <path id="Path_21946" data-name="Path 21946" d="M513.512-86.205a.3.3,0,0,0,.227-.334c.3-.247.592-.5.869-.779,1.267-2.528,3.376-4.35,5.3-6.332a2.262,2.262,0,0,1,.684-.416c2.328-.264,2.579.821,1.714,2.636a3.239,3.239,0,0,1-.635.962c-.872.806-1.991,1.286-2.865,2.07a2.307,2.307,0,0,0-.935,2.64,2.691,2.691,0,0,1,.054,1.958c-.519,1.161-1.028,2.335-2.566,2.407-.252.465-.735-1.205-.844.07-.1,1.154.25,2.381-.7,3.35a9.553,9.553,0,0,1-4.208,1.118c-1.162-.641-2.729.3-3.737-.954a1.188,1.188,0,0,1,.267-.7,14.746,14.746,0,0,0,3.643-2.837.2.2,0,0,0,.175-.284C511.1-83.177,511.969-84.955,513.512-86.205Z" fill="#96bc2f"/>
      <path id="Path_21947" data-name="Path 21947" d="M538.764-184.683a22.2,22.2,0,0,0-2.981,4.507,2.114,2.114,0,0,0-.2,1.312c.465,1.643-.859,2.864-1.019,4.357-2.24,1.758-2.68,1.639-3.761-1.014a.458.458,0,0,1-.261-.492.6.6,0,0,0,.168-.455c.415-5.121,3.005-9.136,6.448-12.719,2.98.024,3.43,1.03,1.843,4.12C538.925-184.938,538.844-184.81,538.764-184.683Z" fill="#c9d65c"/>
      <path id="Path_21948" data-name="Path 21948" d="M531.16-139c.36.688,0,1.592.658,2.19,1.178,2.723,2.441.9,3.685.072l.014-.008c.244-.078.488-.156.732-.231v0a.443.443,0,0,1,.614.355,3.15,3.15,0,0,1-1.961,1.987l.054-.024c-.374.213-.532.755-1.078.707l.1-.03a.941.941,0,0,1-.794.313l.044-.024c-.739.409-1.171,1.237-2.028,1.483l.04-.019c-.39.186-.555.672-1.017.762l.024-.015c-.792.33-.694,1.411-1.476,1.75a.334.334,0,0,0-.256.36c-1.382,1.114-1.351,3.178-2.836,4.223l.035-.023c-.8.314-.658,1.475-1.541,1.715l.035-.023a.912.912,0,0,0-.539,1.057l0-.028a.725.725,0,0,1-.447.988.333.333,0,0,0-.256.357c-.582.32-.7,1-1.13,1.443a1.666,1.666,0,0,1-2.387.387,1.461,1.461,0,0,1-.393-.644c-.124-.92.7-1.609.614-2.522a3.1,3.1,0,0,1,.139-.741c.39-.816.788-1.627,1.943-1.23.251-.1.215.854.546.2a17.367,17.367,0,0,1,.991-2.15A15.644,15.644,0,0,1,525.8-128.8l.167-.081.013-.185a11.1,11.1,0,0,0,2.218-4.267l.086-.189a9.48,9.48,0,0,0,2.146-4.141.353.353,0,0,0,.141-.434C530.517-138.561,530.659-138.9,531.16-139Z" fill="#75ae2f"/>
      <path id="Path_21949" data-name="Path 21949" d="M550.124-144.624a.3.3,0,0,0,.259-.305,3.973,3.973,0,0,1,.546-.353c.541-.422.714-1.1,1.129-1.614a4.836,4.836,0,0,1,.455-.493c.505-.439.872-1.009,1.367-1.456a3.628,3.628,0,0,1,.414-.511c.415-.359.654-.876,1.09-1.216a1.037,1.037,0,0,1,.576-.277l-.049.018c.668.227.534.663.3,1.127-.895,3.052-3.219,5.446-3.953,8.571a12.8,12.8,0,0,1-1.927,3.921c-2.086-.284-4.253.285-6.286-.6a.394.394,0,0,1,.387-.5.215.215,0,0,0,.177-.293,14.078,14.078,0,0,1,2.762-3.117.4.4,0,0,0,.27-.372c.8-.338.661-1.524,1.582-1.754l-.048.031C549.552-144.01,549.71-144.467,550.124-144.624Z" fill="#b2c82c"/>
      <path id="Path_21950" data-name="Path 21950" d="M514.411-106.772c1.1-2.985,2.178-5.978,3.309-8.952.516-1.356.643-2.853,1.484-4.09a2.2,2.2,0,0,0,2.41,0c.3,1.13-.929,1.807-.841,2.872a.272.272,0,0,0-.11.365c-.124,2.78-1.746,4.967-2.92,7.327a66.108,66.108,0,0,0-3.434,7.17,2.666,2.666,0,0,1-.57.74c-1.786.246-1.35-1.06-1.411-2.018A5.843,5.843,0,0,0,514.411-106.772Z" fill="#8ab93a"/>
      <path id="Path_21951" data-name="Path 21951" d="M544.459-159.979a3.4,3.4,0,0,0,1.053-1.948c.451-1.855,1.546-3.451,2.1-5.262.583-1,1.064-2.06,1.651-3.06.532-.909,1.169-1.623,2.357-.979a1.537,1.537,0,0,1,.381.775c.021.706-.138,1.408-.07,2.118-.095,1.727-1.643,2.889-1.785,4.6l-.681,1.395c-.019,1.2-.907,2.024-1.3,3.06-.861,1.276-2.515-.333-3.383.927a1.5,1.5,0,0,1-.731.2.7.7,0,0,1-.442-.569C543.809-159.2,543.949-159.715,544.459-159.979Z" fill="#90bc3c"/>
      <path id="Path_21952" data-name="Path 21952" d="M547.561-151.558c-.428-.607-.839-1.085-1.762-.908a3.205,3.205,0,0,1-3.164-1.062.909.909,0,0,1-.205-.957c.176-.7.111-.714-.651-.493-.171.05-.349.081-.523.12-.207-1.139.818-1.588,1.3-2.338a7.822,7.822,0,0,1,1.661-1.063h0c1.872-.76,3.062.513,4.36,1.462a2.491,2.491,0,0,1,.277.655,4.426,4.426,0,0,1-.055,1.344,6.333,6.333,0,0,1-.122.948.236.236,0,0,0-.094.359C548.626-152.646,548.5-151.883,547.561-151.558Z" fill="#61a222"/>
      <path id="Path_21953" data-name="Path 21953" d="M520.82-95.425a.205.205,0,0,0,.19-.259c.35-.314.58-.76,1.047-.944l-.009.007c.419-.117.555-.588.938-.75a.347.347,0,0,0,.287-.309c.767-.686,1.123-1.854,2.35-2l-.058.051a.9.9,0,0,1,.707.257c.684.955,2.059,1.28,2.365,2.584a9.685,9.685,0,0,1-5.993,5.5c-.235-1.213.847-3.584-2.115-2.412l-.008.005a.481.481,0,0,1-.608-.4C520.089-94.629,520.2-95.2,520.82-95.425Z" fill="#a7c53b"/>
      <path id="Path_21954" data-name="Path 21954" d="M521.7-131.54c-.077-.268-.154-.537-.23-.805l0,.016a.725.725,0,0,1,.182-.92,16.2,16.2,0,0,0,1.429-.836,2.874,2.874,0,0,0,.614-1.576c1.009-2.8.872-5.986,2.9-8.429a8.271,8.271,0,0,1,1.485-1.429.393.393,0,0,1,.573.356.458.458,0,0,0-.134.422c.207.83-.789,1.361-.544,2.2v-.007c.333,1.44-.7,2.594-.82,3.939v-.021a11.751,11.751,0,0,1-1.932,5.531,16.993,16.993,0,0,0-1.018,3.418,1.7,1.7,0,0,1-.889.979c-1.646.087-1.408-1.153-1.515-2.151l.015.05A4.85,4.85,0,0,0,521.7-131.54Z" fill="#c3d464"/>
      <path id="Path_21955" data-name="Path 21955" d="M538.8-127.621l3.534-4.345a.9.9,0,0,1,1.047.54,14.015,14.015,0,0,1-2.212,4.31c-1.233,1.922-1.117,3.434.631,4.859a3.094,3.094,0,0,1-1.143,1.835l-.566.911a4.367,4.367,0,0,1-1.067.794c-.957.416-1.917.666-2.73-.256a2.332,2.332,0,0,1-.063-2.791,31.285,31.285,0,0,1,2.449-4.52C539.118-126.689,539.748-127.08,538.8-127.621Z" fill="#bfcf3e"/>
      <path id="Path_21956" data-name="Path 21956" d="M510.116-96.537q.021-1.068.042-2.135a.317.317,0,0,0,.1-.4,3.567,3.567,0,0,1,.03-1.091c.071-.5.106-1,.217-1.492a4.009,4.009,0,0,1,.241-.756c.459-.567.632-1.663,1.778-.976q.381,1.061.763,2.12a3.11,3.11,0,0,1,.9-.143l.287.107.815,1.179a.782.782,0,0,1-.287.613A8.019,8.019,0,0,0,514.033-98a2.2,2.2,0,0,1-1.109.924l.011-.013q-.335.141-.678.258A6.268,6.268,0,0,1,510.116-96.537Z" fill="#a2ba2d"/>
      <path id="Path_21957" data-name="Path 21957" d="M520.088-93.933c.145.077.289.154.433.233-1.751,2.153-3.9,3.974-5.311,6.416-.11.192-.459.245-.7.363a6.816,6.816,0,0,1,3.02-4.628.25.25,0,0,0,.222-.288c.76-.415.668-1.577,1.608-1.836l-.05.039C519.538-93.816,519.735-94.078,520.088-93.933Z" fill="#9fc135"/>
      <path id="Path_21958" data-name="Path 21958" d="M553.606-144.057q-.8,1.428-1.606,2.854a2.116,2.116,0,0,1,.4-1.786q1.881-3.612,3.773-7.218a.3.3,0,0,1,.39.292l-.419.989a6.683,6.683,0,0,1-1.761,3.4A2.885,2.885,0,0,0,553.606-144.057Z" fill="#adbf3b"/>
      <path id="Path_21959" data-name="Path 21959" d="M509.538-89.55l-1.223,1.207c-1.12-2.831,1.031-4.413,2.395-6.3a.7.7,0,0,1,.89.106.4.4,0,0,0-.152.44c.1,1.027-.975,1.674-.876,2.7l-.017-.048a.649.649,0,0,1-.456.982Z" fill="#a2ba2d"/>
      <path id="Path_21960" data-name="Path 21960" d="M525-133.118a3.883,3.883,0,0,0,.292.416.7.7,0,0,0-.175.452l-1.287,2.433a1.323,1.323,0,0,1,.037-1.248C524.235-131.754,524.621-132.434,525-133.118Z" fill="#c8d76c"/>
      <path id="Path_21961" data-name="Path 21961" d="M552.59-147.089l1.064-1.9a.348.348,0,0,0,.251-.324q.262-.363.487.025c-.26.529-.506,1.064-.783,1.583A1.125,1.125,0,0,1,552.59-147.089Z" fill="#adbf3b"/>
      <path id="Path_21962" data-name="Path 21962" d="M542.735-142.458q-.243.022-.486.042c-.192-1.333-.013-2.392,1.706-2.316l-.993,1.945A.262.262,0,0,0,542.735-142.458Z" fill="#5f9b29"/>
      <path id="Path_21963" data-name="Path 21963" d="M485.53-113.3a2.531,2.531,0,0,0-.24-1.971c-.344-2.424-1.446-4.628-2.036-6.981-.327-1.306-.7-2.6-1.045-3.9-.345-1.78.5-2.136,1.958-1.539a9.188,9.188,0,0,1,2.773,2.133l1.814,2.266a3.761,3.761,0,0,0,1.332,2.042,9.917,9.917,0,0,0,1.722,2.717c.184.936,1.239,1.415,1.275,2.428a3.051,3.051,0,0,1-3.448,2.278c.408.994.76,1.99,1.077,3a5.416,5.416,0,0,1,.423,2.7,1.392,1.392,0,0,1-.541.62,4.566,4.566,0,0,1-3.9-1.3q-.441-1.268-.883-2.535A2.964,2.964,0,0,0,485.53-113.3Z" fill="#739a1e"/>
      <path id="Path_21964" data-name="Path 21964" d="M498.178-84.386c-.153-1.032-.406-1.867-1.638-2.187-.511-.133-.961-.818-1.275-1.348a77.643,77.643,0,0,1-5.388-10.012,3.661,3.661,0,0,0,.053-1.05c.05-2.247.423-2.47,2.492-1.529.322.147.648.289.963.454,1.237.967,1.192,2.582,1.927,3.8a2.8,2.8,0,0,0,1.219,1.565,1.566,1.566,0,0,1,.407,1.652,2.29,2.29,0,0,0,.893,2.816,14.77,14.77,0,0,1,2.532,2.063c.1.091.19.182.283.275a1.774,1.774,0,0,0-.421,1.506c.149,1.619.277,3.239.413,4.859" fill="#85ad24"/>
      <path id="Path_21965" data-name="Path 21965" d="M493.5-99.866c-.891.428-1.528-.051-2.192-.565a.557.557,0,0,0-.9.469c0,.445.126.89.133,1.335a.674.674,0,0,1-.663.694,51.911,51.911,0,0,1-3.179-10.878,4.46,4.46,0,0,1,2.5.6,1.5,1.5,0,0,0,1.715.076c1.892,2.019,2.008,4.7,2.709,7.173a3.5,3.5,0,0,1-.006.738C493.578-100.1,493.54-99.983,493.5-99.866Z" fill="#7ba121"/>
      <path id="Path_21966" data-name="Path 21966" d="M542.124-122.2c-.129-.03-.258-.057-.387-.082a5.942,5.942,0,0,0-.756-.3c-2.078-.528-2.346-.973-1.5-2.725.713-1.468,1.523-2.888,2.244-4.352a6.143,6.143,0,0,1,1.547-1.866c.125-1.883,2.045-2.365,2.879-3.69a1.948,1.948,0,0,1,.632-.687,1.926,1.926,0,0,0-.539-.209,1.689,1.689,0,0,1-1.4-.55c-.37-.325-.812.385-1.185-.055-.051-.06-.047-.167-.068-.251l.762-.815a10.882,10.882,0,0,1,1.572-.212,3.483,3.483,0,0,0,2.913-.849c.746.485.259,1.547.9,2.07l-.287.5a8.9,8.9,0,0,0-1.837,3.293,16.941,16.941,0,0,1-3.269,7.061A31.053,31.053,0,0,0,542.124-122.2Z" fill="#acc12a"/>
      <path id="Path_21967" data-name="Path 21967" d="M531.329-112.42l-.686.366-1.958.453c.78-1.7.365-3.445.205-5.181.4-.16.755-.4,1.161-.541.669-.259.962-.955,1.541-1.327a2.616,2.616,0,0,1,.772-.209c.368.049-.086-.066.276,0,1.228.21,2.779.137,3.224,1.521.483,1.5-1.091,2.058-1.963,2.891l-.516.755a1.362,1.362,0,0,0-1.031.635A1.378,1.378,0,0,0,531.329-112.42Z" fill="#c0cf3b"/>
      <path id="Path_21968" data-name="Path 21968" d="M546.248-136.115l.741-.2a.342.342,0,0,1,.044.365c-.064.117-.111.168-.143.151a10.1,10.1,0,0,1-1.835,2.286c-.632.623-1.189,1.321-1.779,1.986l-.941-.438Z" fill="#d0db8a"/>
      <path id="Path_21969" data-name="Path 21969" d="M537.571-125.129l-.555-.328c.347-.926,1.29-1.36,1.785-2.164.543.057.971.206.711.9C538.648-126.456,538.988-124.723,537.571-125.129Z" fill="#e9eebf"/>
      <path id="Path_21970" data-name="Path 21970" d="M537.027-125.457a1.061,1.061,0,0,1-.96.78A1.184,1.184,0,0,1,537.027-125.457Z" fill="#e9eebf"/>
      <path id="Path_21971" data-name="Path 21971" d="M533.8-100.994a47.841,47.841,0,0,0-5.305,4.019c-.695-.381-1.4-.751-2.083-1.147a1.01,1.01,0,0,1-.382-1.372l.015-.012a1.324,1.324,0,0,0,.76-.46c.172-.221.344-.443.517-.664a2.728,2.728,0,0,0,1.757-.917,3.83,3.83,0,0,0,1.942-1.552c.16.017.318.038.477.063C531.795-101.339,531.795-101.339,533.8-100.994Z" fill="#9ec135"/>
      <path id="Path_21972" data-name="Path 21972" d="M534.424-100.058l-.28-.864a4.871,4.871,0,0,1,.808-.687c.184-.1.47-.017.711-.017a1.93,1.93,0,0,1-.082.518A1.734,1.734,0,0,1,534.424-100.058Z" fill="#dce7b2"/>
      <path id="Path_21973" data-name="Path 21973" d="M532.326-104.141c.139.039.279.072.42.1a1.081,1.081,0,0,1-.937.7Z" fill="#9ec135"/>
      <path id="Path_21974" data-name="Path 21974" d="M543.955-144.732c-1.13.358-1.26,1.453-1.707,2.316a.338.338,0,0,1-.259.37c-1.357,1.192-2.475,2.683-4.238,3.363-.468-.317-.829-.715-.473-1.286a10.939,10.939,0,0,1,.886-.937c.522-.643.193-1.112-.367-1.51-.161-1.721.93-2.787,2.014-3.857.326.289.555.78,1.111.617a1.142,1.142,0,0,0,.843-.981c.046-.353-.084-.728-.051-1.086s.317-.36.566-.2c.345.217.863.367.714-.2-.39-1.476.328-2.443,1.213-3.408.342-.374.661-.152.97.01A1.382,1.382,0,0,1,546-150.2c-.032.726-.137,1.449-.211,2.173A6.935,6.935,0,0,1,543.955-144.732Z" fill="#519026"/>
      <path id="Path_21975" data-name="Path 21975" d="M537.751-138.683a13.8,13.8,0,0,1,4.238-3.363c-.386,1.314-1.725,1.931-2.281,3.121a8.8,8.8,0,0,0-2.547,2.271.945.945,0,0,0-.418-.052l-.494-.27Z" fill="#5f9b29"/>
      <path id="Path_21976" data-name="Path 21976" d="M533.822-139.485c.933-1.338,1.856-2.683,2.812-4,.147-.2.446-.295.675-.439a1.18,1.18,0,0,1,.23.964c-.015.112-.031.225-.046.338a.619.619,0,0,1-.39.5,1.8,1.8,0,0,0-.3.417c-.521.7-.847,1.521-1.352,2.225S534.364-138.63,533.822-139.485Z" fill="#8bb45f"/>
      <path id="Path_21977" data-name="Path 21977" d="M533.822-139.485a.939.939,0,0,0,1.357-.278c.478-.7.648-1.661,1.627-1.942.228,1.165-.688,1.923-1.08,2.858-.12.283-.751.389-1.168.5C533.927-138.177,533.748-138.473,533.822-139.485Z" fill="#5f9b29"/>
      <path id="Path_21978" data-name="Path 21978" d="M535.5-136.739c-.364,1.074-1.334,1.43-2.23,1.862-.628.3-.94.16-1.209-.606a8.319,8.319,0,0,1-.246-1.328,1.946,1.946,0,0,0,2.957.308A2.241,2.241,0,0,1,535.5-136.739Z" fill="#5f9b29"/>
      <path id="Path_21979" data-name="Path 21979" d="M539.811-146.273q-1.006,1.929-2.014,3.857h.005l-.25.081-.157-.212-.112-.174c-.115-.575.555-.991.318-1.59A2.941,2.941,0,0,1,539.811-146.273Z" fill="#7aa84e"/>
      <path id="Path_21980" data-name="Path 21980" d="M537.6-144.311c.43.638,0,1.1-.318,1.59-.357-.411-.055-.806.026-1.207A2.268,2.268,0,0,0,537.6-144.311Z" fill="#c6dbb4"/>
      <path id="Path_21981" data-name="Path 21981" d="M536.249-136.978l-.732.231Z" fill="#5f9b29"/>
      <path id="Path_21982" data-name="Path 21982" d="M537.4-142.547a1.614,1.614,0,0,1,.407.131l-.7.293A1.206,1.206,0,0,1,537.4-142.547Z" fill="#5f9b29"/>
      <path id="Path_21983" data-name="Path 21983" d="M502.747-145.62c.031.875.868,1.355,1.057,2.153-1.6.583-1.863-1.1-2.827-1.68-1.564,1.63-2.961,3.317-2.238,5.819.875-.278,1.967-1.606,2.976.1.112,2.288,1.055,4.363,1.7,6.514.508,2.586,2.311,4.979,1.182,7.811-.506.16-1.015-.117-1.469-.113-.435.95,1.58,2.32-.64,2.735a14.6,14.6,0,0,1-1.288-2.381c-1.012-3.113-2.394-6.1-3.109-9.316a12.735,12.735,0,0,0-1.187-3.333,4.615,4.615,0,0,1-.722-2.591c-.171-.645.03-1.357-.352-1.964l-.013.008c.592-4.218-.232-8.411-.241-12.618a2.686,2.686,0,0,0-.229-1.757c-.068-.238-.125-.477-.176-.719-.072-1.078-.1-2.157-.266-3.226-.08-.5-.407-1.147.325-1.367.665-.2.9.394,1.12.9a17.653,17.653,0,0,0,.517,1.8l-.026-.061a1.008,1.008,0,0,0,.2.808l-.015-.046a1.61,1.61,0,0,0,.214.787l-.007-.025a3.378,3.378,0,0,0,.2.76l0,.012a2.977,2.977,0,0,0,.377,1.371c.461.845,1.083,1.575.79,2.714-.591,2.293.259,3.75,2.73,4.047C501.908-147.572,501.895-146.383,502.747-145.62Z" fill="#b4c92d"/>
      <path id="Path_21984" data-name="Path 21984" d="M502.49-122.283c.271-.308.806-.51.493-1.068-.346-.618-.947-1.1-1.046-1.842a.912.912,0,0,1,.255-.7.821.821,0,0,1,.716-.17c.63.313,1.214.718,1.816,1.088,1.112.549,1.4,1.687,1.921,2.666.474,1.812,1.6,3.388,1.925,5.249.209.112.064.444.126.454.193.03.195-.113-.017-.283a.8.8,0,0,1,.305-1.178c1.514-.281,1.663-1.363,1.627-2.635-.026-.907-.574-2.042.8-2.525l.37.053.505,1.044a20.483,20.483,0,0,0,.176,4.426l-.225,1.735c.209.39-.175.815.073,1.2l0-.03c.075.42-.263.843.008,1.262l.007-.05c.068.433-.281.827-.114,1.268v.011c-.409,3.333-.409,3.333-2.736,1.671h0c-.109-.446-.584-.6-.774-.987l.014.025c0-.465-.6-.577-.616-1.034l-.028-.037a1.7,1.7,0,0,0-.455-.724l-.7-.53a9.1,9.1,0,0,0-2.4-3.734Q503.5-119.967,502.49-122.283Z" fill="#afc428"/>
      <path id="Path_21985" data-name="Path 21985" d="M501.338-148.474c-.729.487-1.613-.151-2.35.316a.275.275,0,0,1-.25-.037c-.132-.1-.361-.273-.338-.353.267-.909-1.158-1.336-.753-2.018.376-.634.806-.926-.154-1.29a.472.472,0,0,1-.14-.437c.245-.468,1.271-.456.8-1.376-.281-.554-.5-1.14-.745-1.712a1.154,1.154,0,0,1,1.171.518,1.707,1.707,0,0,1,.823,1.036C500.088-152.057,501.074-150.4,501.338-148.474Z" fill="#aabd31"/>
      <path id="Path_21986" data-name="Path 21986" d="M495.939-154.918c.072,1.886.7,3.745.247,5.662a1.407,1.407,0,0,0,.135,1.039c.576.775.258,1.574.2,2.365a3.073,3.073,0,0,0,.169,2.1c.614.984-.109,1.475-.867,1.9a2.466,2.466,0,0,1-.288-.749q-.161-4.761-.273-9.524c-.024-.993.008-1.988.014-2.982l.253-.2A.443.443,0,0,1,495.939-154.918Z" fill="#c1d042"/>
      <path id="Path_21987" data-name="Path 21987" d="M496.869-158.841c-.85-.527-.534-1.847-1.816-2.575a16.493,16.493,0,0,1,.433,4.992q-.393.228-.443-.224c-.267-1.408-.571-2.809-.783-4.225a4.916,4.916,0,0,1,.12-1.592c.073-.39.432-.533.807-.591a.6.6,0,0,1,.641.387A6.947,6.947,0,0,1,496.869-158.841Z" fill="#b5c836"/>
      <path id="Path_21988" data-name="Path 21988" d="M498.584-154.863l-1.171-.518a1.125,1.125,0,0,1,.028-1.225Z" fill="#b5c836"/>
      <path id="Path_21989" data-name="Path 21989" d="M495.832-141.868a1.439,1.439,0,0,1,.352,1.964A2.187,2.187,0,0,1,495.832-141.868Z" fill="#c1d042"/>
      <path id="Path_21990" data-name="Path 21990" d="M495.273-155.114l-.129-.784.4.007a.518.518,0,0,1-.042.7Z" fill="#c1d042"/>
      <path id="Path_21991" data-name="Path 21991" d="M495.043-156.648l.22.115.223.11.009.033c.1.163.105.286.015.369s-.164.117-.208.094l-.158.029A.631.631,0,0,1,495.043-156.648Z" fill="#c1d042"/>
      <path id="Path_21992" data-name="Path 21992" d="M497.439-156.618q-.1-.38-.2-.759A.691.691,0,0,1,497.439-156.618Z" fill="#b5c836"/>
      <path id="Path_21993" data-name="Path 21993" d="M497.246-157.353a.8.8,0,0,1-.214-.786A.714.714,0,0,1,497.246-157.353Z" fill="#b5c836"/>
      <path id="Path_21994" data-name="Path 21994" d="M497.047-158.094a.728.728,0,0,1-.2-.808A.7.7,0,0,1,497.047-158.094Z" fill="#b5c836"/>
      <path id="Path_21995" data-name="Path 21995" d="M529.064-169.76a20.175,20.175,0,0,1,1.78-5.856.87.87,0,0,1,.166-.2,3.141,3.141,0,0,1,.609-.351c.028-.011.267.285.237.389-.188.654-.581,1.3.239,1.834.673.438,1.145-.216,1.724-.271a8.968,8.968,0,0,1-2.047,6.374c-.454-.842-.89-1.694-1.366-2.523-.345-.6-.5-.569-1.059.166C529.242-170.061,529.158-169.907,529.064-169.76Z" fill="#c0d151"/>
      <path id="Path_21996" data-name="Path 21996" d="M537.014-168.08a.528.528,0,0,1-.254.348l-2.916-1.472a2.441,2.441,0,0,1,2.176-.854C537.482-169.794,537.524-169.813,537.014-168.08Z" fill="#cad65b"/>
      <path id="Path_21997" data-name="Path 21997" d="M529.74-148.406q-.68,1.419-1.358,2.837c-.4.5-.584,1.251-1.416,1.282q-.089-.37-.175-.74l.483-.969c.627-.081.905-.548,1.171-1.042.3-.563.628-1.115.944-1.672A1.728,1.728,0,0,1,529.74-148.406Z" fill="#b8ce58"/>
      <path id="Path_21998" data-name="Path 21998" d="M528.064-149.911a2.773,2.773,0,0,1,.561-2.216C529.057-151.231,528.405-150.611,528.064-149.911Z" fill="#b8ce58"/>
      <path id="Path_21999" data-name="Path 21999" d="M529.954-150.975a3.135,3.135,0,0,1-.579,2.314C528.82-149.62,529.572-150.251,529.954-150.975Z" fill="#b8ce58"/>
      <path id="Path_22000" data-name="Path 22000" d="M527.275-145.995a1.783,1.783,0,0,1,.329-1.694C527.952-147.035,527.573-146.523,527.275-145.995Z" fill="#b8ce58"/>
      <path id="Path_22001" data-name="Path 22001" d="M527.736-148.143a2.094,2.094,0,0,1,.329-1.786C528.495-149.234,528.077-148.7,527.736-148.143Z" fill="#b8ce58"/>
      <path id="Path_22002" data-name="Path 22002" d="M530.494-153.187c.1.127.2.251.3.37l-.514.924A1.119,1.119,0,0,1,530.494-153.187Z" fill="#b8ce58"/>
      <path id="Path_22003" data-name="Path 22003" d="M522.248-81.737a.662.662,0,0,0-.7.348c-.414-.075-.833.277-1.244-.016-1.508-.462-1.078-1.966-1.6-2.96a3.26,3.26,0,0,1-.1-.715,3.273,3.273,0,0,1,.234-1.424,1.174,1.174,0,0,1,.537-.465,33.694,33.694,0,0,0,6.8-5.284,3.093,3.093,0,0,1,1.509-1.092c-.376.722-.716,1.467-1.141,2.159-.233.379-.609.666-.655,1.157-.041.432-.357.893-.006,1.287.384.43.833.136,1.248-.022a1.693,1.693,0,0,1,.5-.19.54.54,0,0,1,.43.2.527.527,0,0,1-.062.484,3.6,3.6,0,0,1-2.768,1.146,6.042,6.042,0,0,1,1.734,2.351l-1.22,1.2A1.282,1.282,0,0,0,524.7-83a.7.7,0,0,0-.689.364,2.723,2.723,0,0,0-1.76.9" fill="#89b222"/>
      <path id="Path_22004" data-name="Path 22004" d="M532.974-95.74c.13-.105.269-.3.388-.288s.214.232.32.36c-.13.1-.268.3-.387.289S533.08-95.611,532.974-95.74Z" fill="#94bc2a"/>
      <path id="Path_22005" data-name="Path 22005" d="M509.1-158.643a2.763,2.763,0,0,0-.843-1.788,78.528,78.528,0,0,1-2.665-10c-.107-.527-.133-1.07-.2-1.606a.814.814,0,0,0-.172-.92l.011.057a.814.814,0,0,0-.234-.791l-.033-.008c.408-.928,1.2-.627,1.42-.113.991,2.359,2.261,1.849,3.706.53,1.723.345,2.05,2.024,2.988,3.12-.249.826-.96,1.58-.26,2.538.4.547.123,1.052-.391,1.375a1.363,1.363,0,0,0-.541,1.856,33.146,33.146,0,0,0,3.265,7.114c1.892,1.778,2.089,4.4,3.259,6.542.356.651.3,1.4,1.59,1.162,1.1-.207,1.873.9,2.25,2.032.319.957.371,1.966.632,2.932q.254,4.209.509,8.419c.22.381-.175.808.09,1.186l0-.014a2.441,2.441,0,0,1,.032.948c-.039.1-.079.2-.119.3a1.009,1.009,0,0,1-1.481.474v0c-.149-.409.181-.817,0-1.227v.009a2.044,2.044,0,0,1-.148-.719c-.31-1.336-.69-2.66-.911-4.01a4.8,4.8,0,0,0-1.689-3.036c-.279-.235-.483-.562-.773-.776a19.523,19.523,0,0,1-6.267-8.5,7.657,7.657,0,0,0-.556-.934A22.1,22.1,0,0,0,509.1-158.643Z" fill="#abc741"/>
      <path id="Path_22006" data-name="Path 22006" d="M522.885-144.61a6.8,6.8,0,0,1-1.208-2.693,2.052,2.052,0,0,0-2.254-1.9c-.811.019-1.062-.142-1.393-.783a15.55,15.55,0,0,1-1.527-3.768c-.273-1.257-1.28-2.211-1.349-3.529.869-.209,1.114.8,1.814.933a8.123,8.123,0,0,0,1.024.278.878.878,0,0,0,.7-.3c.547-.969,2.322-.022,2.446-1.592a26.585,26.585,0,0,1,2.1,11.589,3.881,3.881,0,0,0,.109.791Z" fill="#d8e080"/>
      <path id="Path_22007" data-name="Path 22007" d="M509.768-173.13c-.077.431-.005,1.036-.263,1.256a7.167,7.167,0,0,1-1.859,1,.526.526,0,0,1-.648-.336c-.3-.742-.55-1.511-.884-2.24-.242-.53-.707-.424-1.147-.243a16.048,16.048,0,0,1-1.317-4.633c-.118-.7-.327-1.389-.495-2.083a2.8,2.8,0,0,0,.287-1.712c.273-.535.223-1.437.822-1.556.831-.166.895.857,1.324,1.335.175.2.348.394.521.591a12.418,12.418,0,0,0,2.153,4.219l.588,1.453a2.87,2.87,0,0,0-.218.458C508.772-174.685,509.734-174.119,509.768-173.13Z" fill="#b1ca4a"/>
      <path id="Path_22008" data-name="Path 22008" d="M516.309-167.824l1.173,1.255c.008,1.089.873,1.788,1.251,2.714a18.144,18.144,0,0,1,1.369,2.964c-.393-.213-.772-.455-1.18-.631-1.115-.481-2.033-1.082-2.087-2.482a1.617,1.617,0,0,0-.529-.907C515.321-165.9,515.749-166.856,516.309-167.824Z" fill="#dce390"/>
      <path id="Path_22009" data-name="Path 22009" d="M509.768-173.13c-1.06-.339-1.221-1.292-1.458-2.178-.019-.072.208-.21.321-.317a10.23,10.23,0,0,1,3.313,2.6,3.57,3.57,0,0,1,1.138,2.859,3.243,3.243,0,0,1-1.94-1.75C510.919-172.559,510.327-172.837,509.768-173.13Z" fill="#a9c144"/>
      <path id="Path_22010" data-name="Path 22010" d="M502.753-76.285a14.831,14.831,0,0,1,3.173-1.493c.961.042,1.923.078,2.883.128a.624.624,0,0,1,.627.674,21.258,21.258,0,0,1-3.3,2.1" fill="#90b22c"/>
      <path id="Path_22011" data-name="Path 22011" d="M515-81.686a1.894,1.894,0,0,0,1.67-1.09c.238-.468.495-.927.743-1.389.923.237.734,1.009.807,1.659a4.637,4.637,0,0,1-.9,2.721,1.823,1.823,0,0,1-2.356.341A1.423,1.423,0,0,1,515-81.686Z" fill="#869b40"/>
      <path id="Path_22012" data-name="Path 22012" d="M515-81.686a3.342,3.342,0,0,0-.016,1.873c.673,1.387.838,2.723-.385,3.922-1.427.166-.535-1.34-1.228-1.7a1.526,1.526,0,0,1,.134-.437,4.7,4.7,0,0,0,.425-2.617c.038-.717.039-1.436.094-2.15a.441.441,0,0,1,.353-.256.584.584,0,0,1,.372.327A9.093,9.093,0,0,1,515-81.686Z" fill="#b6c771"/>
      <path id="Path_22013" data-name="Path 22013" d="M517.74-82.659q-.162-.753-.325-1.506a.969.969,0,0,0-.362-1.459,2.361,2.361,0,0,1,2.292-2.592,1.547,1.547,0,0,0,.029,1.247l-.236.528c-.577.436-.176.878-.005,1.318a3.188,3.188,0,0,0-.1.5,2.677,2.677,0,0,1-.238,1.784A1.04,1.04,0,0,1,517.74-82.659Z" fill="#c6d59d"/>
      <path id="Path_22014" data-name="Path 22014" d="M519.345-88.216a5.366,5.366,0,0,0-2.293,2.592c-.512-1.536.446-2.57,1.4-3.419a16.873,16.873,0,0,1,2.965-1.745c.114.188.119.334.017.438s-.186.15-.235.124Z" fill="#9fc135"/>
      <path id="Path_22015" data-name="Path 22015" d="M520.529-93.705c.966-.682,1.283-.693,2.08-.114a1.028,1.028,0,0,1,.3,1.422q-.223.492-.449.984l.013-.012c-.3.123-.468.026-.513-.294-.129-.259-.008-.459.1-.7.377-.815.275-1.059-.514-1.235A5.791,5.791,0,0,0,520.529-93.705Z" fill="#9fc135"/>
      <path id="Path_22016" data-name="Path 22016" d="M521.963-91.719l.513.294a2.049,2.049,0,0,1-1.275,1.2l.219-.562C521.6-91.1,521.782-91.408,521.963-91.719Z" fill="#a7c53b"/>
      <path id="Path_22017" data-name="Path 22017" d="M523.363-128.833c.244.828-.316,1.476-.494,2.21-.231.912.187,2.046-.907,2.664-.529-.276-1.008-.336-1.348.288-.213.39-.439.772-.659,1.158-.02-.178-.114-.392-.048-.528,1.128-2.309,1.21-4.855,1.678-7.313a2.625,2.625,0,0,1,.2-.5C522.215-130.1,522.308-129.093,523.363-128.833Z" fill="#c8d76c"/>
      <path id="Path_22018" data-name="Path 22018" d="M519.2-119.8a3.921,3.921,0,0,1,.829-2.7C520.429-121.394,519.6-120.665,519.2-119.8Z" fill="#8ab93a"/>
      <path id="Path_22019" data-name="Path 22019" d="M509.474-110.632c.395.184.782.393,1.19.546a.661.661,0,0,0,.985-.49c.169-.581.373-1.152.561-1.728.075,1.343.062,2.7.251,4.023.185,1.3-.147,2.637.141,4.142,1.049-.838,1.16-1.915,1.809-2.633a3.905,3.905,0,0,1-1.888,3.385c-1.045.109-1.048,1.17-1.59,1.739-.022-1.512-.112-3.027-.047-4.536A6.337,6.337,0,0,0,509.474-110.632Z" fill="#bacc3b"/>
      <path id="Path_22020" data-name="Path 22020" d="M512.211-112.314a1,1,0,0,1,.114-1.267,2.421,2.421,0,0,1,.346.309Z" fill="#bacc3b"/>
      <path id="Path_22021" data-name="Path 22021" d="M521.7-131.54q.055.369.109.738A.571.571,0,0,1,521.7-131.54Z" fill="#c8d76c"/>
      <path id="Path_22022" data-name="Path 22022" d="M550.826-144.909c.493-.824.834-1.773,1.81-2.2-.261.529-.508,1.065-.787,1.584A1.118,1.118,0,0,1,550.826-144.909Z" fill="#adbf3b"/>
      <path id="Path_22023" data-name="Path 22023" d="M555.218-150.551q.227.067.447.151c-.3.528-.508,1.167-1.3,1.142Z" fill="#adbf3b"/>
      <path id="Path_22024" data-name="Path 22024" d="M513.657-101.777l.841.485a.88.88,0,0,1-1.212.027C513.41-101.436,513.533-101.607,513.657-101.777Z" fill="#b2c82c"/>
      <path id="Path_22025" data-name="Path 22025" d="M548.047-158.64c-.333.906.31,1.32.892,1.764l-.3.908c-.292-.324-.53-.836-.885-.936A11.71,11.71,0,0,1,545-158.2c-.2-.119-.515-.045-.777-.06a6.357,6.357,0,0,1,.378-.689c.728-1.015.808-1.041,1.919-.581.4.167.788.379,1.182.569A1.794,1.794,0,0,0,548.047-158.64Z" fill="#73ac30"/>
      <path id="Path_22026" data-name="Path 22026" d="M550.689-172.7c1.553.564,1.561.58,1.16,2.275-.274-.211-.523-.54-.827-.606a1.028,1.028,0,0,0-1.046.637c-.62,1.06-1.211,2.137-1.813,3.207A13.858,13.858,0,0,1,550.689-172.7Z" fill="#a6c756"/>
      <path id="Path_22027" data-name="Path 22027" d="M542.962-157.052l.833-1.428c.142.074.284.148.427.221C543.934-157.719,543.727-157.094,542.962-157.052Z" fill="#73ac30"/>
      <path id="Path_22028" data-name="Path 22028" d="M551.851-170.443a2.758,2.758,0,0,1,.358.3l-.668,1.442C551.145-169.373,551.5-169.907,551.851-170.443Z" fill="#a6c756"/>
      <path id="Path_22029" data-name="Path 22029" d="M505.223-172.956a.761.761,0,0,1,.172.92A1,1,0,0,1,505.223-172.956Z" fill="#b1ca4a"/>
      <path id="Path_22030" data-name="Path 22030" d="M505-173.69a.677.677,0,0,1,.235.791A.687.687,0,0,1,505-173.69Z" fill="#b1ca4a"/>
      <path id="Path_22031" data-name="Path 22031" d="M500.363-88.159a.912.912,0,0,1-1.212-.261,4.594,4.594,0,0,0-1.785-1.238c-.548-1.12-1.282-2.2-.7-3.544a2.32,2.32,0,0,0-.378-1.373,4.116,4.116,0,0,1-.964-1.6,65.438,65.438,0,0,0-3.864-12.263c-.283-.819-.55-1.643-.8-2.474-.528-1.01-.307-2.433-1.652-3a3.109,3.109,0,0,1-.445-.3c-.309-.295-.381-.625.065-.832a4.252,4.252,0,0,1,.786-.113c.826-.195,1.136,1.161,1.83.753.538-.317.528-1.316,1.316-1.569.169-.054.344-.091.516-.136l.8.6a68.651,68.651,0,0,1,4.335,9.391,40.1,40.1,0,0,1,2.265,9.535,10.259,10.259,0,0,0,.295,1.31,3.047,3.047,0,0,0,.111,2c-.058,1-.106,1.991-.176,2.986A4.175,4.175,0,0,1,500.363-88.159Z" fill="#6c9220"/>
      <path id="Path_22032" data-name="Path 22032" d="M486.94-125.559c-1.147-.575-2.289-1.158-3.441-1.722-.671-.328-.714-.294-1.1.615-.071.168-.13.342-.195.513l-3.111-7.186a2.862,2.862,0,0,0-.3-.709l.013.028a.934.934,0,0,0-.4-.8.356.356,0,0,1-.225-.371,1.071,1.071,0,0,1-.258-.584l-.011-.026c.432-.954,1.017-.451,1.429-.058a20.809,20.809,0,0,0,1.733,1.6.319.319,0,0,1,.229.334,5.755,5.755,0,0,0,.323.654l.007-.014c-.386,1.01.591,1.223,1.027,1.753l1.377,1.587a1.353,1.353,0,0,0,.74.992C485.382-127.752,486.513-126.88,486.94-125.559Z" fill="#86aa2d"/>
      <path id="Path_22033" data-name="Path 22033" d="M548.643-155.966a1.045,1.045,0,0,1-.108,1.191A1.027,1.027,0,0,1,548.643-155.966Z" fill="#73ac30"/>
      <path id="Path_22034" data-name="Path 22034" d="M521.774-135.242a.658.658,0,0,1,.148.719c-.139-.088-.272-.183-.4-.284A2.855,2.855,0,0,1,521.774-135.242Z" fill="#c3d464"/>
      <path id="Path_22035" data-name="Path 22035" d="M488.089-55.288c1.83-3.323,3.73-6.613,5.479-9.98,5.049-9.716,10.037-19.463,15.048-29.2,1.373-2.328,2.618-2.567,3.863-2.8q-.695,1.15-1.391,2.3a1.345,1.345,0,0,0-.538.706q-.13.421-.063.457l-.583,1.234c-.3.043-.519.313-.626.8a.271.271,0,0,0,.133.335l.03-.074-6.834,12.915a6.653,6.653,0,0,0-.923,2.906C497.9-68.473,494.62-61,490.406-54.005" fill="#8aa62e"/>
      <path id="Path_22036" data-name="Path 22036" d="M523.9-134.768c.352.591.224.941-.5.993l0,.015a.787.787,0,0,1,.5-1.007Z" fill="#9da662"/>
      <path id="Path_22037" data-name="Path 22037" d="M537.571-125.129a1.568,1.568,0,0,0,.956-.805,1.788,1.788,0,0,1,.985-.788c-.905,1.782-1.818,3.561-2.708,5.351a4.91,4.91,0,0,0-.461,1.266,1.215,1.215,0,0,0,1.171,1.213c.626-.082,1.245-.219,1.868-.332q-.392.7-.781,1.4a2.205,2.205,0,0,0-1.273,1.157,1.363,1.363,0,0,0-.946.83c-.652.125-.934.666-1.277,1.138a.734.734,0,0,0-.7.336c-.167-.027-.335-.057-.5-.088.494-.635,1.011-1.255,1.474-1.913a.819.819,0,0,0-.417-1.312c-1.157-.178-2.229-.779-3.436-.682.323-.715,1.057-.89,1.65-1.248a3.753,3.753,0,0,0,1.846-1.808c.892-.523.82-1.771,1.719-2.289Z" fill="#cbd54f"/>
      <path id="Path_22038" data-name="Path 22038" d="M501.319-138.965c-.168-.831-.835-.67-1.267-.468-.46.215-.763.743-1.187,1.065a.745.745,0,0,1-.986-.168c-.263-.245-.527-.549-.226-.926.194-.244.7-.294.408-.8-.931-1.6.612-2.683.881-4.033.012-.063.325-.106.493-.091.8.073.659-.378.474-.841-.159-.4-.563-.851.091-1.128a1.086,1.086,0,0,1,1.27.188,5.6,5.6,0,0,1,.9,1.353,2.489,2.489,0,0,0,1.631,1.343c.781.55.937,1.475,1.346,2.246a17.455,17.455,0,0,0,1.675,3.291c.065.939.763,1.58,1.125,2.38a10.585,10.585,0,0,1,1.274,2.9c-.211.739.351,1.615-.394,2.261-1.229.191-1.156-.865-1.415-1.539a3.661,3.661,0,0,0-2.075-2.435c-.564,1.594,1.49,3.248-.107,4.748-1.711-.3-1.549-1.825-1.951-2.981A44.234,44.234,0,0,1,501.319-138.965Z" fill="#acc126"/>
      <path id="Path_22039" data-name="Path 22039" d="M508.573-130.335q.326-1.156.65-2.314a13.663,13.663,0,0,1,.879,1.934c.565,1.974,1.069,3.967,1.555,5.962a9.73,9.73,0,0,1,.126,1.581l-.2.025C509.116-124.934,509.079-127.732,508.573-130.335Z" fill="#afc428"/>
      <path id="Path_22040" data-name="Path 22040" d="M523.9-134.767q-.249.5-.5,1.007a1.025,1.025,0,0,1,.085-1.259Z" fill="#c3d464"/>
      <path id="Path_22041" data-name="Path 22041" d="M523.484-135.005a.96.96,0,0,1-.09-1.186A1.048,1.048,0,0,1,523.484-135.005Z" fill="#c3d464"/>
      <path id="Path_22042" data-name="Path 22042" d="M514.929-99.721a1.88,1.88,0,0,1-1.219,1.233C513.989-99.026,514.186-99.643,514.929-99.721Z" fill="#b2c82c"/>
      <path id="Path_22043" data-name="Path 22043" d="M510.655-99.939a1.222,1.222,0,0,1,.2-1.3A1.1,1.1,0,0,1,510.655-99.939Z" fill="#bacc3b"/>
      <path id="Path_22044" data-name="Path 22044" d="M547.621-132.98a3.863,3.863,0,0,1,1.837-3.293Z" fill="#b2c82c"/>
      <path id="Path_22045" data-name="Path 22045" d="M508.7-111.619a1.033,1.033,0,0,1,.774.987A1.075,1.075,0,0,1,508.7-111.619Z" fill="#bacc3b"/>
      <path id="Path_22046" data-name="Path 22046" d="M508.1-112.628a1,1,0,0,1,.616,1.033l-.741-.608C508.012-112.345,508.054-112.487,508.1-112.628Z" fill="#bacc3b"/>
      <path id="Path_22047" data-name="Path 22047" d="M512.318-113.532a.931.931,0,0,1-.008-1.262A1.194,1.194,0,0,1,512.318-113.532Z" fill="#bacc3b"/>
      <path id="Path_22048" data-name="Path 22048" d="M512.312-114.764a1,1,0,0,1-.073-1.2A1.045,1.045,0,0,1,512.312-114.764Z" fill="#bacc3b"/>
      <path id="Path_22049" data-name="Path 22049" d="M521.921-134.532a1,1,0,0,1,0,1.227A1.1,1.1,0,0,1,521.921-134.532Z" fill="#c3d464"/>
      <path id="Path_22050" data-name="Path 22050" d="M511.294-94.854c-.332-.294-.309-.466.165-.483A.443.443,0,0,1,511.294-94.854Z" fill="#a2ba2d"/>
      <path id="Path_22051" data-name="Path 22051" d="M511.676-95.852c-.151-.16-.163-.317-.007-.431.06-.045.165-.031.249-.044Z" fill="#a2ba2d"/>
      <path id="Path_22052" data-name="Path 22052" d="M526.806-99.966a.861.861,0,0,1-.76.46A.853.853,0,0,1,526.806-99.966Z" fill="#a7c53b"/>
      <path id="Path_22053" data-name="Path 22053" d="M507.615-113.389a.819.819,0,0,1,.455.725A.8.8,0,0,1,507.615-113.389Z" fill="#bacc3b"/>
      <path id="Path_22054" data-name="Path 22054" d="M489.015-113.911a.684.684,0,0,1,1.136.144,7.372,7.372,0,0,1,.987,2.787.756.756,0,0,1-.871.267Z" fill="#adc173"/>
      <path id="Path_22055" data-name="Path 22055" d="M490.267-110.713l.871-.267q.372,1.1.743,2.2L491-108.5A4.853,4.853,0,0,1,490.267-110.713Z" fill="#c4d196"/>
      <path id="Path_22056" data-name="Path 22056" d="M496.668-93.2q.348,1.771.7,3.544a3.277,3.277,0,0,1-1.409-2.936C495.934-92.98,496.281-93.171,496.668-93.2Z" fill="#b0c675"/>
      <path id="Path_22057" data-name="Path 22057" d="M494.91-95.838l.835-.271a2.231,2.231,0,0,1,.545,1.533C495.361-94.483,495.154-95.18,494.91-95.838Z" fill="#aec472"/>
      <path id="Path_22058" data-name="Path 22058" d="M493.151-100.662a.787.787,0,0,1,.29.805A.723.723,0,0,1,493.151-100.662Z" fill="#85ad24"/>
      <path id="Path_22059" data-name="Path 22059" d="M546.89-135.8a3.78,3.78,0,0,1,.1-.516,3.63,3.63,0,0,1,.13.428A1.354,1.354,0,0,1,546.89-135.8Z" fill="#b2c82c"/>
      <path id="Path_22060" data-name="Path 22060" d="M529.912-116.772c.491-.572.729-1.4,1.6-1.581A1.4,1.4,0,0,1,529.912-116.772Z" fill="#cbd54f"/>
      <path id="Path_22061" data-name="Path 22061" d="M536.737-123.7a3.56,3.56,0,0,1-1.719,2.288C535.477-122.264,535.632-123.341,536.737-123.7Z" fill="#e9eebf"/>
      <path id="Path_22062" data-name="Path 22062" d="M503.631-132.877l-.774.266c-.492-1.424-1.005-2.841-1.466-4.274a2.855,2.855,0,0,1-.072-2.08C502.542-137.107,502.888-134.917,503.631-132.877Z" fill="#dfe8ad"/>
      <path id="Path_22063" data-name="Path 22063" d="M495.3-155.927a2.21,2.21,0,0,1,.193-.463,1,1,0,0,1,.444,1.472,3.655,3.655,0,0,1-.437-.276C495.435-155.439,495.369-155.683,495.3-155.927Z" fill="#b5c836"/>
      <path id="Path_22064" data-name="Path 22064" d="M506.7-123.2c-.18-2.234-1.259-4.247-1.592-6.444.515-.918.033-1.762-.2-2.627a7.733,7.733,0,0,1-.617-2.633.916.916,0,0,1,.413-.651.866.866,0,0,1,.727.124,12.235,12.235,0,0,1,1.245,1.045,3.574,3.574,0,0,1,1.456,2.8,3.833,3.833,0,0,0,.44,1.253,9.746,9.746,0,0,1,1.461,3.725c.116,1.309,1.12,2.266,1.544,3.463-.285.333-.764.616-.558,1.138.557,1.421.009,2.845.244,4.34l-2.3-.073a6.684,6.684,0,0,1-2.072-4.715l-.007-.041A1.4,1.4,0,0,0,506.7-123.2Z" fill="#a5b925"/>
      <path id="Path_22065" data-name="Path 22065" d="M506.888-122.457a26.455,26.455,0,0,1,2.071,4.715q-.048.592-.1,1.185l-.046.014a1.562,1.562,0,0,1-.873-.961c-.614-1.574-1.6-3-1.84-4.723Z" fill="#dfe6ab"/>
      <path id="Path_22066" data-name="Path 22066" d="M508.862-116.557l.087.359c-.053-.036-.138-.063-.151-.11a.683.683,0,0,1,.018-.235Z" fill="#dfe6ab"/>
      <path id="Path_22067" data-name="Path 22067" d="M519.133-85.123c-.765-.765-.764-.841.006-1.318Q519.136-85.782,519.133-85.123Z" fill="#9fc135"/>
      <path id="Path_22068" data-name="Path 22068" d="M506.7-123.2a.621.621,0,0,1,.184.7C506.82-122.731,506.759-122.965,506.7-123.2Z" fill="#dfe6ab"/>
      <path id="Path_22069" data-name="Path 22069" d="M505.7-133.748l-.264-.389c.156-.008.338-.07.46-.009s.183.243.271.372Z" fill="#acc126"/>
      <path id="Path_22070" data-name="Path 22070" d="M496.878-65.57c-1.907,3.279-3.883,6.523-5.71,9.848-5.274,9.6-10.488,19.224-15.726,28.84-1.427,2.3-2.677,2.5-3.928,2.71l1.446-2.267a1.338,1.338,0,0,0,.553-.693q.141-.417.074-.455l.612-1.22c.3-.036.526-.3.645-.788a.272.272,0,0,0-.125-.338l-.033.073q3.567-6.375,7.134-12.751a6.658,6.658,0,0,0,.991-2.883c3.951-7.124,7.4-14.521,11.781-21.413" fill="#8aa62e"/>
    </g>
  </g>
</svg>
