<svg xmlns="http://www.w3.org/2000/svg" width="471.706" height="47.341" viewBox="0 0 471.706 47.341">
  <g id="Group_54" data-name="Group 54" transform="translate(-35.596 -768.426)">
    <path id="Path_13578" data-name="Path 13578" d="M483.332,782.861l5.823-.667c5.047.974,3.2,2.064-.472,2.684-15.938,2.694-31.8,6.022-49.02,7.247-17.348,1.234-35.33,3.1-54.041,2.373-1.267-.05-2.575.013-3.864.024-5.947.055-8.283.726-5.607,2.547,2.6,1.77,2.851,3.541-2.251,5.057-13.226.962-26.332.224-39.385-.321-18.8-.784-37.386-1.884-55.505-3.654-9.822-.959-19.944-.27-29.7.224-16.763.849-33.443.355-49.955-.193-7.612-.253-15.171-.725-22.934-.744-14.2-.035-28.4.182-42.568-.463-7.684-.35-15.569-.347-21.925,1.438a11.54,11.54,0,0,1-3.539.407c-11.049-.835-19.979.512-28.844,2.238-2.551.5-6.358.257-9.556.187a129.311,129.311,0,0,0-18.14.417,21.144,21.144,0,0,1-9.444-.9l.044.042a2.7,2.7,0,0,1,.147-3.729q.043-2.2.086-4.4c-1.315-.773-2.215-1.572-2.2-2.458.038-2.254,2.868-2.947,10.05-2.428,11.342.82,13.157.076,11.2-3.365-1.751-3.076-3.306-5.991-12.908-7.869-1.306-.256-1.478-.823,0-1.238l.076-.043a5.528,5.528,0,0,1,1.727-.469l3.884-.032c6.7.887,10.916-1.671,17.38-1.114l5.466-.806c12.075-.119,25.125-1.5,35.958.457,22.379,4.047,47.5,2.95,71.386,4.137a62.869,62.869,0,0,0,13.9-.768c8.56-1.436,16.857-.145,16.615,2.815s4.529,3.654,12.85,3.717c4.51.034,9,.112,13.529.1,10.551-.033,20.654.473,28.205,3.006,5.506,1.848,13.047,2.1,19.634,1.281,15.526-1.933,30.629-.541,45.7.119,11.983.525,24.481.394,35.8,2.167,3.54.555,8.376.338,12.461.114,11.1-.609,22.022-1.1,33.535-.938,8.883.126,15.181-2.342,22.738-3.59a24.931,24.931,0,0,1,2.8-.213c1.392-.005,2.74.086,4.057.208.8.081,1.608.177,2.391.279a32.577,32.577,0,0,0,7.2.047,7.077,7.077,0,0,1,1.709-.183,32.446,32.446,0,0,1,8.308.005l3.4.012a15.609,15.609,0,0,1,2.138-.348,6.213,6.213,0,0,1,1.685-.237c.833-.131,1.5-.334,2.31-.474l.2-.036a3.915,3.915,0,0,1,1.646-.429l3.311-.839A17.044,17.044,0,0,0,483.332,782.861Z" fill="#e14562"/>
    <path id="Path_13579" data-name="Path 13579" d="M42.4,800.757c4.013.468,7.857.791,11.785-.181,2.976-.736,6.835-.593,10.218-.337a51.8,51.8,0,0,0,8.413.111,103.937,103.937,0,0,0,11.9-1.407,19.186,19.186,0,0,1,3.381-.5,36.475,36.475,0,0,0,7.059-.837,14.014,14.014,0,0,1,6.226.033c.778.17,1.535.366,2.4.478,3.1.4,6.261.345,7.761-.471,2.638-1.434,6.508-1.666,11.336-1.6,6.729.092,13.492-.145,20.13.5,2.345.229,5.121.08,7.7.081q18.878.009,37.755,0a38.782,38.782,0,0,1,9.15.673,32.179,32.179,0,0,0,7.389.48c6.131,0,12.263-.013,18.393.006a130.451,130.451,0,0,1,15.283.441,18.112,18.112,0,0,0,6.379-.342,38.872,38.872,0,0,1,9.128-.693c5.121-.028,10.31.2,15.292-.418a25.22,25.22,0,0,1,5.68.083c2.722.3,5.581.5,8.192.862,6.472.9,13.464,1.176,20.333,1.6a22.65,22.65,0,0,0,3.754.011,15.419,15.419,0,0,1,6.945.441c2.362.794,5.441.893,8.79.913,9.3.056,18.471.5,27.614.986a55.537,55.537,0,0,0,5.752.123c6.044-.327,12.035-.106,18.047.011.393.109.785.218,1.184.326,2.973,3.152,1.768,3.783-8.816,3.982-4.092.077-7.783,1.1-12.111.423-16.546,1.212-33.063,2.459-49.654,3.613-5.247.365-10.39,1.016-15.993.841-.294-.6,2.008-.374,2.4-.71.17-.145.138-.362-.12-.49a5.864,5.864,0,0,0-3.268-.325c-6.762,2.045-15.45,2.168-24.2,2.264a8.058,8.058,0,0,0-3.189.479c-2.779,1.271-3.207,1.329-5.668.376-3.356-1.3-8.558-1.936-12.061-3.185-1.229-.437-2.022.046-2.043.47-.035.7-1.2,1.058-3.535,1.079-.645.006-1.33-.033-1.929.018-3.418.293-5.561-1.013-9.033-.625a90.417,90.417,0,0,1-9.6.125,30.774,30.774,0,0,1-4.136-.584c-1.084-.093-2.638.482-4.049.515-3.761.089-7.768.366-10.745-.725a5.678,5.678,0,0,0-3.345.073,11.24,11.24,0,0,1-6.632.333,30.983,30.983,0,0,0-14.219.046,39.084,39.084,0,0,1-15.259.307,50.541,50.541,0,0,0-7.422-.549c-3.071,0-5.916.152-7.781.909-2.713,1.1-6.371,1.429-10.733,1.6-9.888.384-19.713.911-29.562,1.382-2.249.108-3.379-.183-4.383-.8-2.042-1.253-2.23-1.228-6.549-.855-4.957.429-10.1.589-15.136.878-5.018.288-9.549-.363-14.363-.25a9.073,9.073,0,0,1-2.445-.376c-3.449-1.011-6.978-2-10.156-3.09-3.281-1.119-4.43-2.543-5.245-3.973C43.942,803.794,43.2,802.274,42.4,800.757Z" fill="#e45d79"/>
    <path id="Path_13580" data-name="Path 13580" d="M442.646,785.622c-6.244,1.518-13.05,2.776-19.978,4a32.541,32.541,0,0,1-9.068.4,97.379,97.379,0,0,0-19.881.21c-8.125.97-16.548.541-24.872.561a13.163,13.163,0,0,1-3.4-.441c-3.708-1.179-8.374-1.3-13.353-1.246-4.185.048-8.238-.165-12.39-.411-6.559-.389-13.115-.967-20.018-.761-4.193.125-8.068-.54-12.294-.653a46.04,46.04,0,0,0-10.152.473,45.166,45.166,0,0,1-10,.79,28.661,28.661,0,0,0-2.888.045,37.944,37.944,0,0,1-17.462-2.028,25.734,25.734,0,0,0-8.468-1.605c-3.715-.193-7.052-.908-11.05-.9-1.276,0-2.743-.215-3.8-.09-7.006.826-13.89-.238-20.829-.057a27.8,27.8,0,0,1-7.247-.658c-2.846-.719-4.616-1.623-2.856-2.792,1.861-1.235.617-2.2-2.548-3.092-3.983-1.119-5.347-1.162-9.868-.157-1.795.4-3.662.772-5.568,1.122a19.816,19.816,0,0,1-4.628.26c-11.692-.611-23.465-.91-35.334-1.092-9.231-.141-18.4-.713-27.554-1.166a34.868,34.868,0,0,1-6.134-.79c-3.646-.9-6.705-2.087-12.331-1.562-5.355-1.363-11.1-.949-17.264-.548a56.542,56.542,0,0,1-14.047-.581c2.7-1.449,2.7-1.449,8.165-.974a11.2,11.2,0,0,0,3.921.008l3.677-.148c1.2-.279,2.827-.193,4.083-.424l3.689-.144a16.659,16.659,0,0,1,7.676-.711c13.971,2.651,29.9,1.793,44.934,2.084,14.891.289,30.136.666,44.985-.7a45.943,45.943,0,0,1,13.613,1.009c1.106.33,2.265.645,3.3.993a16.329,16.329,0,0,0,5.876.686,235.619,235.619,0,0,0,45.427,2.185c5.927-.323,12.067-.223,18.159-.556,7.6-.414,11.246,1.392,9.832,4.335,2.362-1.866,5.4-3.395,13.309-3.108,12.479.452,26.976-1.386,36.6,3.058,5.882-2.206,12.97-3.006,22.7-2.064,5.615.543,12.149-.118,18.2-.43,2.848-.147,5.68-.5,8.216.231l8.069,1.865c10.341,1.441,21.314.171,31.952.638,6.206.273,11.377.3,7.949,2.766C440.555,784.26,443.544,784.852,442.646,785.622Z" fill="#e45d79"/>
    <path id="Path_13581" data-name="Path 13581" d="M374.6,801.808c.027-.384-.273-.8.136-1.145,2.257-1.9-.247-3.426-3.831-4.909-1.472-.609-1.022-.987,1.289-1.356a48.686,48.686,0,0,1,8.262-.671c4.824.037,9.655,0,14.483.011,5.787.013,11.543.1,16.86-.853a40.545,40.545,0,0,1,5.609-.293,43.417,43.417,0,0,0,6.516-.429,34.233,34.233,0,0,1,10.953-.283,26.463,26.463,0,0,0,8.185-.544c6.083-1.063,12.016-2.205,18.164-3.234a73.742,73.742,0,0,1,10.607-1.318,16.637,16.637,0,0,0,3.556-.356c3.193-1.045,7.628-1.366,11.661-1.925a7.393,7.393,0,0,0,3.356-.963c.556-.52-.778-.9-1.249-1.346,3.906-.588,7.763-1.207,11.743-1.747a9.359,9.359,0,0,1,4.166.46c1.243.4,1.617.882.238,1.249-2.527.672-2.22,1.163.073,1.86,2.508.764,2.448,1.183.516,1.938-1.33.519-3.008.963-4.587,1.423-2.234.651-2.986,1.431-2.484,2.335a6.349,6.349,0,0,1,1.59.571c.341.144.535.3.583.479,1.071,1,1.285,2.005-.146,3q-.052.274-.583.5c-16.62-.064-28.389,3.516-42.814,5.131-23.755,2.659-48.652,2.55-73.132,3.493a26.094,26.094,0,0,1-9.534-1.018Z" fill="#e45d79"/>
    <path id="Path_13582" data-name="Path 13582" d="M393.72,778.175a31.915,31.915,0,0,0-3.821.076c-6.753,1.094-14.223.781-21.394,1.021a31.363,31.363,0,0,1-9.08-.7,9.717,9.717,0,0,0-5.145.175c-3.5,1-6.93,2.018-10.506,2.991a8.779,8.779,0,0,1-2.6.136,1.3,1.3,0,0,1-1.1-.713c-.052-.272.394-.557.7-.83.473-.424.057-.782-1.15-.987a58.646,58.646,0,0,0-10.724-1.205c-8.4.021-16.8,0-25.205.037-3.5.018-4.128.267-4.665,1.42a5.98,5.98,0,0,1-.823,1.7c-.453.522-3.069.9-4.7.771-1.932-.155-3.635-1.023-3.01-1.605a9.307,9.307,0,0,1,1.6-1.046c.7-.4,2.629-.721,1.573-1.246a15.01,15.01,0,0,0-3.368-1,19.49,19.49,0,0,0-8.758-.036c-3.276.76-7.417.533-11.161.19a17.8,17.8,0,0,0-5.41.235,45.163,45.163,0,0,1-14.775.177,82.876,82.876,0,0,0-14.088-.742c-6.96.187-11.863-.59-14.829-2.468a10.393,10.393,0,0,1,3.783-.833,43.239,43.239,0,0,0,8.778-1.03,28.11,28.11,0,0,1,5.561-.343c1.885-.067,3.738-.211,5.483-.314,1.254.292,1.41.669,1.609,1.049.349.669,1.285,1.056,3.875.749a30.934,30.934,0,0,1,13.12.887,5.579,5.579,0,0,0,1.707.034,1.52,1.52,0,0,0,.831-.492c1.02-.926-2.187-1.592-1.755-2.475a1.461,1.461,0,0,1,1.062-.763,6.418,6.418,0,0,1,3.366.185,14.924,14.924,0,0,0,4.867,1.292c5.063.452,12.673.039,16.331-1.308A23.055,23.055,0,0,1,298.978,770c5.117.141,10.247.261,15.359.393,11.852.306,23.789.423,35.671-.093,3.173-.138,6.4-.216,9.608-.217,3.25,0,5.461.764,4.879,1.706-.521.842-1.672,1.643-1.258,2.534.313.671,2.455,1.127,3.973.678a10.393,10.393,0,0,1,6.3-.049,21.592,21.592,0,0,0,7.344.136c4.535-.543,5.332-.523,7.428.391C390.267,776.343,391.921,777.273,393.72,778.175Z" fill="#ea879c"/>
    <path id="Path_13583" data-name="Path 13583" d="M374.784,801.865c4.02.213,7.975.727,12.113.045a26.673,26.673,0,0,1,3.811-.076c10.627.08,20.987-.486,31.328-1.114a29.922,29.922,0,0,1,3.821-.1c9.471.715,17.342-.792,25.712-1.6,1.216-.117,2.349-.449,3.519-.449,10.953,0,17.691-2.47,26.016-3.966a28.5,28.5,0,0,1,9.666-.617,66.059,66.059,0,0,0,9.5.266c-.2.18-.235.408-.632.533-6.428,2.031-11.667,4.268-15.232,6.883-1.514,1.109-5.453,1.708-9.381,1.814-10.965.3-21.06,1.719-31.981,2.062-6.054.19-12.015.692-18.071.809-4.888.094-9.628.42-14.189.785-6.071.486-12.047.546-18.163.506-3.534-.023-7.335.224-10.5.027-2.881-.179-5.991-.558-8.972-.874a43.925,43.925,0,0,0-11.208.049,16.394,16.394,0,0,1-7.084-.314c5.08-.15,9.864-.736,15.1-.758,4.018-.017,5.369-.825,4.988-2.2A8.951,8.951,0,0,1,374.784,801.865Z" fill="#ea849a"/>
    <path id="Path_13584" data-name="Path 13584" d="M212.1,772.845a46.9,46.9,0,0,1-4.784.035c-5.094-.518-9.8-.746-14.466.414a31.89,31.89,0,0,1-5.609.21q-19.788.018-39.576,0c-.644,0-1.321.036-1.926-.01-9.459-.723-19.121-.534-28.73-.579-2.824-.014-5.011-.35-6.2-1.127-1.815-1.188-4.722-1.077-8.01-.666-.559.07-1.268.034-1.908.047a4.778,4.778,0,0,1,.373-1.146c.617-1.044,2.38-1.332,5.24-.856.831.139,1.453.387,2.28.529,3.239.555,4.8.615,6.667-.233,2.242-1.016,4.448-1.136,8.05-.764,2.343.242,5.086.187,7.649.185q18.856-.015,37.714-.077c1.289,0,2.651.061,3.856-.039,8.671-.715,17.266-.105,25.894.076,6.885.144,11.551,1.043,12.972,3.153C211.776,772.277,211.928,772.561,212.1,772.845Z" fill="#ea869c"/>
    <path id="Path_13585" data-name="Path 13585" d="M48.821,775.312c0,.826,1.99,1.187,4.123,1.42a14.116,14.116,0,0,1,7.326,2.54c1.434.936,3.749,1.777,2.271,2.967-1.082.872.555,1.7,2,2.45,2.178,1.132,1.708,2.189-.354,3.271-3.187,1.672-4.753,1.827-10.833.993-2.049-.281-4.054-.6-6.158-.834-2.026-.229-3.981.15-4.105.808-.235,1.246-.28,2.495-.4,3.743l-4.457-1.1c-2.2-.541-3.141-1.254-2.357-2.052,1.244-1.266,1.688-2.557,3.831-3.807,2.853-1.664,4.775-3.56,1.822-5.523-1.572-1.045-.955-2.037,1.852-2.906C45.349,776.672,47.016,775.973,48.821,775.312Z" fill="#e45f79"/>
    <path id="Path_13586" data-name="Path 13586" d="M442.646,785.622c-1.048-.2-2.081-.407-3.147-.6-2.547-.456-3.142-.963-1.69-1.582.541-.23,1.433-.384,2.043-.6,1.839-.659.967-1.627-1.723-1.7a142.37,142.37,0,0,0-16.262.131c-2.842.25-5.664.272-8.542.34-4.9.115-8.835-.3-11.536-1.571.531-.106,1.091-.2,1.588-.323,8.575-2.069,14.908-2.26,23.237-.275a48.484,48.484,0,0,0,11.517,1.044,27.722,27.722,0,0,0,6.863-.9,9.666,9.666,0,0,1,3.618-.08c1.544.263,1.753.745,1.718,1.247-.064.893-2.49,1.3-4.2,1.84-1.623.517-1.529,1.025-.1,1.525,1.45.505,3.03.978,4.554,1.465-.232.365-1.5.418-2.191.645l-.97.006-.97-.006a20.309,20.309,0,0,0-2.012-.53Q443.543,785.665,442.646,785.622Z" fill="#eb8a9e"/>
    <path id="Path_13587" data-name="Path 13587" d="M175.008,813.217l-19.989.775c2.237-1.853,5.21-2.512,10.08-2.353A44.917,44.917,0,0,1,175.008,813.217Z" fill="#e87a8e"/>
    <path id="Path_13588" data-name="Path 13588" d="M88.254,815.767c-1.1-.055-2.43-.045-3.492-.2-.657-.1-1.246-.44-1.243-.673s.678-.644,1.229-.671c3.673-.182,7.386-.318,11.1-.384,1.01-.017,1.163.4,1.019.675-.262.5-1.26.889-2.872,1.013C92.189,815.665,90.279,815.687,88.254,815.767Z" fill="#e45d79"/>
    <path id="Path_13589" data-name="Path 13589" d="M184.671,812.876c5.092-1.542,9.551-1.327,13.923-1.213a3.164,3.164,0,0,1,2.028.474c.307.4-.814.513-1.659.53C194.86,812.753,190.746,812.793,184.671,812.876Z" fill="#eb8a9a"/>
    <path id="Path_13590" data-name="Path 13590" d="M71.888,773.654c-3.251.635-7.817.6-10,1.814a7.529,7.529,0,0,1-3.453.04c-1.358-.22-2.623-.491-3.928-.74a21.969,21.969,0,0,0,2.789-.2A53.8,53.8,0,0,1,71.888,773.654Z" fill="#e45f79"/>
    <path id="Path_13591" data-name="Path 13591" d="M89.44,771.882a5.347,5.347,0,0,1-3.921-.009Z" fill="#ea869c"/>
    <path id="Path_13592" data-name="Path 13592" d="M97.2,771.31a10.238,10.238,0,0,1-4.082.424A10.517,10.517,0,0,1,97.2,771.31Z" fill="#ea869c"/>
    <path id="Path_13593" data-name="Path 13593" d="M50.624,774.8l-1.728.469C48.946,774.941,49.422,774.752,50.624,774.8Z" fill="#e45f79"/>
  </g>
</svg>
