<svg xmlns="http://www.w3.org/2000/svg" width="75.15" height="71.073" viewBox="0 0 75.15 71.073">
  <g id="Group_94" data-name="Group 94" transform="translate(-206.726 -456.121)">
    <path id="Path_25151" data-name="Path 25151" d="M264.553,523.253c-7.329,3.087-14.865,4.733-22.876,3.561a39.551,39.551,0,0,1-8.191-2.425c-.933-2.78,1.119-4.966,1.563-7.485a63.267,63.267,0,0,1,3.214-10.194c-.865,1.26-1.336,2.847-2.554,3.922-.445.392-.914.969-1.6.569-.634-.369-.57-1.07-.464-1.669.335-1.9,1.6-3.343,2.518-4.956.964-1.692,2.411-3.243,1.652-5.584-1.232.136-1.407,1.239-1.845,1.986-3.145,5.371-6.553,10.578-9.906,15.817-.8,1.247-1.4,3.053-3.55,2.51l-.005-.009c-.733-1.847.576-3.089,1.4-4.41,3.3-5.284,6.669-10.526,9.772-15.931.785-1.368,1.959-2.637,1.359-4.784-1.584.64-1.936,2.158-2.691,3.282-3.03,4.517-5.027,9.743-9.245,13.445a1.106,1.106,0,0,1-1.033-.327c-.508-1.669.551-2.864,1.338-4.083,2.7-4.175,5.183-8.474,7.719-12.744.784-1.321,1.8-2.7.481-4.639-2.5,2.378-3.641,5.421-5.323,8.066-1.6,2.511-3.047,5.122-4.686,7.61-.724,1.1-1.249,2.511-2.915,2.589a1.439,1.439,0,0,1-.909-.644c1.463-4.829,4.764-8.644,7.163-12.958,1.614-2.9,3.806-5.533,4.462-9.893-3.6,5.634-6.308,10.8-9.606,15.57-.874,1.266-1.294,3.464-3.722,2.783-.623-1.931.515-3.365,1.408-4.839,2.651-4.373,5.444-8.656,8.014-13.081,1.657-2.853,2.96-5.75,3.012-9.1,2.66-4.127,7.068-4.474,11.234-4.669a73.473,73.473,0,0,0,10.728-.912c5.079,6,12.551,9.679,16.423,16.858a1.392,1.392,0,0,1,.372.634c.046.411.257.425.191.175-.94-3.614-1.909-7.208-4.733-9.948-1.522-1.476-3.239-2.7-4.827-4.091-.714-.624-1.764-1.326-1.238-2.423.445-.931,1.557-.611,2.368-.419,1.4.331,3.056-.066,4.1,1.351,9.2,2.862,15.181,8.765,17.308,18.312,2.321,12.543-3.066,25.532-13.833,31.587A6.911,6.911,0,0,0,264.553,523.253Z" fill="#d23c3f"/>
    <path id="Path_25152" data-name="Path 25152" d="M222.914,510.746c3.378-5.485,6.775-10.959,10.116-16.468.625-1.03.911-2.752,2.523-1.887a2.6,2.6,0,0,1,.861,3.649c-1.527,2.829-3.148,5.61-4.807,8.364-3,4.982-6.063,9.93-9.1,14.892-9.093-6.079-14.434-14.449-15.511-25.42l.276-.543c4.082-7.558,9.058-14.592,13.029-22.218,1.08-2.073,1.829-4.412,4.063-5.67a3,3,0,0,1,2.592-.814c.787,3.311-1.617,5.58-2.848,8.153-2.518,5.263-5.914,10.063-8.5,15.3a4.721,4.721,0,0,1-1.837,2.2c-1.678.749-1.281,2.218-1.211,3.56.4,7.513,4.176,13.175,9.9,17.673C223.346,512.224,222.121,510.643,222.914,510.746Z" fill="#d85e66"/>
    <path id="Path_25153" data-name="Path 25153" d="M263.123,471.765c-1.933-.35-3.957.038-6.183-.628,6.857,4.4,11.43,10.051,11.5,18.571-1.284-.562-1.247-1.864-1.939-2.642a22.678,22.678,0,0,0-8.272-9.757c-.7-.505-1.426-1-2.079-1.563-7.036-6.088-7.981-10.591-3.133-18.357,1.572-1.774,3.085-.515,4.289.355,1.391,1.005-.276,1.961-.624,2.811-2.539,6.2-1.877,7.4,5.25,7.175,7.3-.235,13.4,1.7,18.392,8.182C274.364,473.558,269.358,469.953,263.123,471.765Z" fill="#839b51"/>
    <path id="Path_25154" data-name="Path 25154" d="M222.513,519.3c2.182-.892,2.748-3.129,3.854-4.846,3.859-5.992,7.543-12.1,11.523-18.532,1.294,2.865,2.2,5.07.1,7.8-1.53,1.988-3.231,4.077-3.93,7.164,2.5-1.945,2.91-4.8,5.155-6.543a115.258,115.258,0,0,1-5.724,20.04C229.539,523.318,225.559,522.32,222.513,519.3Z" fill="#d95f68"/>
    <path id="Path_25155" data-name="Path 25155" d="M213.02,490.282l1.445-1.9a238.554,238.554,0,0,0,12.314-21.953,5.49,5.49,0,0,1,1.89-2.185l.936-.142c1.619,1.491,1.384,3.248.587,4.98a14.419,14.419,0,0,0-1.551,4.03c-.5,1.493-1.8,2.495-2.418,3.918-3.238,5.589-6.492,11.165-10.026,16.573a8.154,8.154,0,0,1-2.66,3.05C211.341,494.7,211.831,492.518,213.02,490.282Z" fill="#d95f67"/>
    <path id="Path_25156" data-name="Path 25156" d="M239.957,463.438c-4.334-4.568-10.351-4.8-16.705-6.36,6.505-1.354,12.1-1.729,17.248,1.988a62.613,62.613,0,0,0,5.467,3.84c1.145.653,2.519,1.963,3.969.326.466,3.454-.564,4.63-3.644,4.077a13.089,13.089,0,0,1-5.648-2.765A2.383,2.383,0,0,1,239.957,463.438Z" fill="#8da35b"/>
    <path id="Path_25157" data-name="Path 25157" d="M239.957,463.438l.7.439c1.235,1.561,3.586,1.782,4.494,3.738-.358,1.037-1.287,1.141-2.127,1.112a22.946,22.946,0,0,0-13.949,4.242,1.483,1.483,0,0,1-1.083.1,2.8,2.8,0,0,1,.63-3.087c1.718-1.8,1.363-3.8.98-5.873C233,463.058,236.492,463.443,239.957,463.438Z" fill="#d23f40"/>
    <path id="Path_25158" data-name="Path 25158" d="M219.636,467.786a4.842,4.842,0,0,1,2.806-1.549c.322,1.728-.609,3.051-1.368,4.464-4.23,7.881-9.11,15.369-13.774,22.989l-.3.186a19.243,19.243,0,0,1,.027-6.508c2.97-4.99,6.138-9.863,8.984-14.926A18.1,18.1,0,0,1,219.636,467.786Z" fill="#d95f67"/>
    <path id="Path_25159" data-name="Path 25159" d="M245.065,467.548c-1.426-1.275-3.775-1.442-4.4-3.671,1.635.748,3.246,1.559,4.913,2.23,2.787,1.121,4.511.5,4.363-2.881.342-2.3,1.074-4.409,3.086-5.837a5.72,5.72,0,0,1-.329,1.44c-3.63,6.883-2.029,12.318,5.238,17.589,3.779,2.74,7.828,5.4,8.572,10.647-3.141-4.974-7.548-8.667-12.222-12.1-1.741-1.277-2.626-3.248-3.832-4.955C249.1,468.222,246.546,469.054,245.065,467.548Z" fill="#302a36"/>
    <path id="Path_25160" data-name="Path 25160" d="M264.553,523.253a1.794,1.794,0,0,1,.98-1.479c11.646-6.96,15.669-17.6,14.774-30.61a5.869,5.869,0,0,1,.123-1.087c2.4,3.393,1.217,7.129.645,10.607C279.395,510.911,274.319,518.849,264.553,523.253Z" fill="#362739"/>
    <path id="Path_25161" data-name="Path 25161" d="M207.3,493.69c.654-3.277,2.985-5.649,4.6-8.394,3.688-6.258,7.868-12.239,10.539-19.059a2.5,2.5,0,0,1,1.923-.792,273.467,273.467,0,0,1-14.53,25.137C209.1,491.7,208.591,493.018,207.3,493.69Z" fill="#c64146"/>
    <path id="Path_25162" data-name="Path 25162" d="M207.49,485.985c1.617-6.79,4.123-13.047,10.262-17.127-.966,4.841-4.282,8.454-6.671,12.536C210.118,483.039,209.756,485.307,207.49,485.985Z" fill="#da6169"/>
    <path id="Path_25163" data-name="Path 25163" d="M228.669,464.248q-5.744,10.356-11.488,20.71c-.716,1.289-1.352,2.647-2.715,3.427,2.332-5.713,6.125-10.627,8.837-16.132,1.245-2.527,2.438-5.08,3.654-7.622Z" fill="#c54045"/>
    <path id="Path_25164" data-name="Path 25164" d="M207.49,485.985a121.232,121.232,0,0,0,10.262-17.127,2.571,2.571,0,0,1,1.885-1.072c-3.107,6.437-7.2,12.294-10.812,18.435a2.276,2.276,0,0,1-1.8,1.147Q207.257,486.677,207.49,485.985Z" fill="#c64045"/>
    <path id="Path_25165" data-name="Path 25165" d="M229.1,474.718c1.39,5.7-2.688,9.473-4.946,13.865-2.428,4.722-6.155,8.7-7.971,13.783a.61.61,0,0,1-.575.8c-2.48-1.074-2.113-3.436-2.474-5.47,4.341-6.94,8.822-13.795,12.7-21.016C226.5,475.315,227.407,474.363,229.1,474.718Z" fill="#d95f67"/>
    <path id="Path_25166" data-name="Path 25166" d="M218.626,507.015c4.518-5.422,7.365-11.9,11.27-17.713.514-.764.456-2.888,1.861-1.909,1.083.755,2.941,2.138,1.653,4.257q-5.187,8.535-10.349,17.085c-.318.527-.563,1.1-.842,1.648Q218.785,510.445,218.626,507.015Z" fill="#d95f67"/>
    <path id="Path_25167" data-name="Path 25167" d="M215.855,503.135l.332-.77c4.679-5.053,7.366-11.4,11.093-17.078.65-.989,1.08-2.894,2.246-2.387,1.624.706,1.167,2.637.413,3.963-3.121,5.492-6.332,10.933-9.557,16.365-.689,1.16-1.575,2.2-2.37,3.3C216.014,506.21,215.741,504.8,215.855,503.135Z" fill="#d95f67"/>
    <path id="Path_25168" data-name="Path 25168" d="M229.1,474.718l-2.789,1.514q-.468.636-.691-.122L228,473.064c4.7-4.906,10.9-5.155,17.068-5.516,1.694,1.043,5.182-1.834,5.384,2.465a18.5,18.5,0,0,1-9.023,1.356A19.315,19.315,0,0,0,229.1,474.718Z" fill="#ced389"/>
    <path id="Path_25169" data-name="Path 25169" d="M215.855,503.135a5.527,5.527,0,0,0,2.156,3.393c.206.162.41.325.615.487a6.887,6.887,0,0,0,3.593,3.368l.7.363q.822.922,1.646,1.844c-3.333-.658-5.6-2.853-7.683-5.291-4.085-4.779-5.606-10.4-5.351-16.578.065-1.561.56-1.775,1.494-.439a10.211,10.211,0,0,0,.339,6.23c.438.51-.154,1.184.27,1.7C213.953,500.04,214.321,501.851,215.855,503.135Z" fill="#3a263a"/>
    <path id="Path_25170" data-name="Path 25170" d="M230.066,516.532c.166,2.354-1.261,3.287-2.164,4.95C227.433,519.183,228.94,518.257,230.066,516.532Z" fill="#d23c3f"/>
    <path id="Path_25171" data-name="Path 25171" d="M213.629,498.209l-.27-1.7,12.264-20.4c.23.043.461.084.691.122-3.1,7.135-7.631,13.432-11.668,20.019C214.263,496.877,213.966,497.555,213.629,498.209Z" fill="#c54045"/>
  </g>
</svg>
