<svg xmlns="http://www.w3.org/2000/svg" width="448.824" height="274.061" viewBox="0 0 448.824 274.061">
  <g id="Group_64" data-name="Group 64" transform="translate(-33.586 -60.353)">
    <path id="Path_17227" data-name="Path 17227" d="M276.142,122.122c4.605,9.663,2.419,17.955-5.093,25.165-.083.232-.167.462-.248.7-3.524,3.465-7.894,5.649-12.15,8-2.07-.956-2.214,1.384-3.373,2-23.99,11.111-44.741,27.878-68.585,39.242a69.141,69.141,0,0,1-12.121,4.888c-3.869,1.01-8.05,2.465-11.331-1.037-3.062-3.266-1.7-7.193-.634-10.916,1.79-5.722,4.292-11.166,6.573-16.7a356.191,356.191,0,0,1,20.8-36.252c4.87-6.3,10.159-12.29,13.949-19.367a1.4,1.4,0,0,1,1.66-.864c3.119-3.683,6.213-7.388,9.365-11.043a53.01,53.01,0,0,1,13.262-10.779c7.328-4.371,14.615-5.057,22.027-.322-.828,12.174,10.136,16.9,15.818,24.958.873,1.237,2.328,1.27,3.83.854A5.869,5.869,0,0,1,276.142,122.122Z" transform="translate(96.725 23.633)" fill="#ee9c6e"/>
    <path id="Path_17228" data-name="Path 17228" d="M261.3,136.127c.55,1.641,1.615,3.082,1.588,4.946-.271,20.11.534,40.338-5.3,59.923-3.066,10.3-7.239,20.045-16.015,27.1a37.314,37.314,0,0,1-41.786,3.546c-.912-.515-1.829-1.019-2.943-1.641-.423,1.759-.815,3.38-1.205,5-1.915-1.629-1.272-3.783-1.211-5.826.209-6.912-1.01-13.464-4.956-19.309-1.293-1.7-2.715-3.329-3.326-5.448.288-9.879,3.892-18.55,12.559-23.327,16.171-8.915,26.205-22.076,30.995-39.648.576-2.119.924-4.521,3.133-5.833a1.4,1.4,0,0,1,.508-.1c3.068.564,6.838.48,8.857,2.52,2.535,2.562-2.574,5.3-1.341,8.723,2.806.209,4.535-1.667,5.919-3.551,2.27-3.087,4.549-3.971,7.857-1.511,1.158.863,2.63,1.8,4.155,1.218C260.841,140.948,255.161,136.476,261.3,136.127Z" transform="translate(115.484 56.889)" fill="#483252"/>
    <path id="Path_17229" data-name="Path 17229" d="M220.526,180.111l3.252,4.5c8.353,18.8,6.968,36.229-7.337,51.826-11.552,10.649-24.949,16.342-40.883,15.233-1.657-2.469-.318-5.115-.374-7.662-.142-6.471.134-12.952-.668-18.343-.576,6.814-3.393,14.186-5.241,21.781-.362,1.485-1.1,3.609-2.841,3.192-1.848-.443-1.3-2.632-.972-4.122,1.71-7.7,3.79-15.3,5.635-22.965.648-2.7,1.223-5.392-1.056-8.774-1.03,4.77-1.9,8.674-3.017,12.51-.506,1.732-.4,3.98-2.8,4.612-2.2-1.811-1.332-4.1-.889-6.26.7-3.4,1.766-6.724,2.326-10.154.3-1.815,1.038-3.748-.882-5.636-1.609,1.4-1.295,3.437-1.813,5.111-2.4,7.762-2.737,16.08-6.3,23.54-1.4.64-2.651.668-3.525-.852,1.984-8.474,4.565-16.811,6.234-25.364.443-2.265,1.564-4.788-1.144-6.877-1.934,1.478-1.537,3.767-2.05,5.643-2.2,8.033-2.959,16.465-6.743,24.057a1.449,1.449,0,0,1-1.5-.061c-1.536-2.158-.578-4.373-.063-6.532,1.7-7.118,3.67-14.172,4.963-21.382.4-2.209,1.082-4.428-.155-7.339-2.021,9.031-4.155,17.429-6.269,25.835-.545,2.17-.715,4.507-2.316,6.306-1.005.279-1.541-.293-1.966-1.075-.8-2.11-.174-4.155.35-6.181,1.578-6.1,2.836-12.281,4.329-18.4,1.544-6.325,2.725-12.624,1.314-19.128,2.217-5.823,7.423-8.333,12.592-10.234a100.033,100.033,0,0,0,13.457-5.629c9.735,5.273,21.2,7.107,29.653,14.832-2.727-6.253-5.766-8.885-13.318-11.856-2.339-.919-6.534-1.177-6.2-3.721.43-3.261,4.7-2.428,7.432-3.043a6.206,6.206,0,0,1,1.045-.06c7.363-.773,14.024,1.239,20.286,4.988C216.262,174.335,218.956,176.662,220.526,180.111Z" transform="translate(81.874 80.937)" fill="#d23c3f"/>
    <path id="Path_17230" data-name="Path 17230" d="M123.492,115.04a19.63,19.63,0,0,0,9.373-4.642c.71-1.448,2.149-1.8,3.477-2.323q1.007-.393,2.047-.694a9.523,9.523,0,0,1,2.9-.327,8.88,8.88,0,0,1,2.187.379,18.055,18.055,0,0,1,8.809,5.269c.9.9,1.8,1.8,2.623,2.774,2.758,3.783,3.456,8.284,4.44,12.694a12.844,12.844,0,0,1,.13,1.664c.4,3.452-.729,6.759-.935,10.154-1.392,6.648-1.379,13.639-4.793,19.792-.355.114-.775.162-.938-.077-.618-.91-6.951-5.522-7.949-5.717a6.791,6.791,0,0,1-.005-4.668c.3-7.79.3-15.562-1.954-23.148,2.207,7.381,2.144,14.955,1.992,22.54-.754,2.038-.267,4.21-.691,6.279a3.211,3.211,0,0,1-1.093,1.75c-9.7,5.921-17.854,13.873-26.985,20.546-3.85,1.086-6.575,3.72-9.208,6.539-1.225,1.312-2.238,3.352-4.686,2.221-3.948-6.107-3.6-13.177-4.4-19.966-.343-2.9.232-5.889-.784-8.741a58.18,58.18,0,0,1-.028-12.9,228.441,228.441,0,0,1,3.9-22.579c.987-3.25.455-7.682,5.824-7.546l3.393.506c1.3,2.033,1.01,4.229.678,6.425-.365,1.079-.849,2.028-1.79,2,3.129-1.9,6.891-1.991,10.737-1.281,2.822,1.351,4.477-.65,6.409-2.108,1.49-1.121,3.033-2.2,4.117-3.161-1.223.578-2.305,2.467-4.366,2.421A3.348,3.348,0,0,1,123.492,115.04Z" transform="translate(47.761 35.346)" fill="#d23c3f"/>
    <path id="Path_17231" data-name="Path 17231" d="M238.341,137.744c-2.4-.037-4.742-1.532-7.221.64-1.279,1.121-2.808-.715-3.839-1.854-4.637-5.12-9.163-10.342-13.863-15.4-3.147-3.387-2.175-6.975-.979-10.668,1.4-.926,3.184-1.4,3-3.767-.132-1.732-.09-3.691,2.866-2.73.907.3,1.04-.207.7-2.391-.387-2.437-1.862-5.162,2.038-6.381,1.012-.316.48-1.91.775-2.853.613-1.964-2.44-6.453,3.312-5.122.144.033.622-.5.573-.633-2.231-5.865,5.034-7.223,5.612-11.8.162-1.277,1.019-2.98,2.628-2.736,1.715.26,1.218,2.258,1.645,3.593,1.435-.383,1.493-1.732,2.112-2.621.84-1.211,2.038-2.389,3.41-2,1.9.534.94,2.205.763,3.549-.2,1.485-.8,3.106.912,4.289.492.339,1.093,1.455.931,1.667-2.565,3.336-1.859,8.2-4.366,11.074a10.645,10.645,0,0,0-2.911,7.137c-1.14,1.3-1.319,3.1-2.425,4.424,1.189-1.288,1.4-3.073,2.367-4.473,3.776,1.283,5.844.293,6.538-3.992.306-1.889.144-5.932,4.8-3.4,2.026,1.1,1.674-2.295,2.667-3.421,1.33-1.511,1.295-6.98,5.215-1.927.85,1.095,1.339-.418,1.82-.951,1.054-1.165,1.968-2.463,3.064-3.582,1.179-1.2,2.284-3.322,4.213-2.462,2.5,1.116.385,3.338.511,5.271,1.393.009,1.919-1.212,2.753-1.876,1.755-1.4,3.913-2.544,5.656-.887,1.534,1.458-.323,3.252-1.207,4.609-1.174,1.8-1.882,2.966-.524,5.4,1.558,2.8-1.833,3.495-3.7,4.566-1.576.9-5.088.392-2.581,4.111.662.982-.773,2.17-1.991,2.642-1.664.648-3.98,1.5-2.354,3.479,1.137,1.385,2.418-1.112,3.674-1.8.153-.083.274-.237.434-.293,1.421-.494,2.5-2.491,4.132-1.627,1.687.889-.258,2.88.654,4.341,1.007-.408,1.984-.77,2.932-1.193,1.2-.536,2.467-.842,3.34.343.94,1.277-.206,2.259-.878,3.224-1.126,1.613-4.333,2.407-2.045,5.369.156.2-.311,1.291-.49,1.291-4.888,0-6.582,5.577-11.427,6.214-4.2.552-7.072,5.051-11.654,5.513,2.344,7.782-8.69,3.665-8.623,9.565A16.669,16.669,0,0,1,238.341,137.744Z" transform="translate(134.526 8.011)" fill="#97c5ae"/>
    <path id="Path_17232" data-name="Path 17232" d="M170.056,69.469c1.678,1.117,2.463-.228,3.405-1.212,1.543-1.608,3.2-2.686,5.552-1.481.573.3,1.673.51,2,.2,5.853-5.587,13.574,1.692,19.525-2.883,3.814,2.534,9.461,2.762,12.02,5.805,2.664,3.168,3.581,7.59,8.722,8.1.485.049,1.116.929,1.283,1.534,1.68,6.121,3.732,12.164,4.285,18.543.158,1.836-.817,3.349-1.5,4.948s-1.926,3.268-1.806,4.821c.592,7.732-3.776,12.385-9.351,16.6a10.133,10.133,0,0,0-4.087,6.894c-2.484-2.713-4.05-2.024-4.6,1.379-.251,1.548-.462,3.015-1.629,4.168A6.278,6.278,0,0,1,199.545,138c-2.393-1.623-4.647-.474-6.97.274-2.293.74-5.167,2.077-6.181-1.339-1.033-3.477,1.551-5,4.547-5.747,1.342-.337,2.838-.192,3.967-1.188,1.713-1.511,3.054-3.1.729-5.19a4.529,4.529,0,0,1-.914-1.128,4.161,4.161,0,0,1,.185-3.51c.706-1.483,1.766-2.648,3.5-2.707,1.933-.065,2.01,1.625,2.288,2.908.706,3.271,1.919,3.547,3.793.77.966-5.238,1.079-10.313-2.613-14.716a8.238,8.238,0,0,0-6.633-3.124c-6.348-.13-9.15-6.726-5.538-12.125,1.476-.553,2.2.446,3.129,1.618-5.484-5.573-15.284-9.683-22.275-8.251-4.271.875-7.813,4.326-12.209,5.492-1.9.647-3.809,1.051-5.726.044-2.426-3.98.664-6.424,2.669-9.054.928-1.219,2.546-1.8,3.777-2.778,2.249-1.312,4.5-2.586,5.64-5.158C165.72,70.819,167.7,69.833,170.056,69.469Z" transform="translate(89.435 2.831)" fill="#809866"/>
    <path id="Path_17233" data-name="Path 17233" d="M148.149,232.978c-10.538,5.8-21,6.554-31.339-.481a7.339,7.339,0,0,1-2.18-2.326c-2.063-5.164-3.644-10.338-.253-15.595a8.658,8.658,0,0,1,2.029-2.423c2.439-1.725,5.31-2.534,8.014-3.693s4.751-2.848,5.208-5.956c1.065-3.864-.541-8.506,3.358-11.538,2.932-2.644,6.926-.958,10.122-2.5,2.748-2.084,1.652-5.1,1.678-7.711.044-4.324,1.576-7.058,5.928-8.534,5.252-1.78,6.223-4.289,5.13-10.595a4.894,4.894,0,0,1-1.806-3.937c1.938-8.906,6.39-10.558,13.467-4.623,3.3,2.771,5.914,5.78,10.761,2.739,1.852-1.161,3.556.84,4.572,2.541a15.61,15.61,0,0,1,1.917,12.092c-.756,3.1.158,5.148,3.579,5.582,1.829.6,3.865.5,5.526,1.662,2.159,4.143-.835,5.025-3.763,5.7s-5.722-.822-8.627-.794c-5.194-.105-9.5,2.664-14.131,4.389a2.957,2.957,0,0,1-2.224-.272c-1.263-1.977.188-3.9.109-5.744a55.37,55.37,0,0,0-.91,6.163,5.29,5.29,0,0,1-.546,1.316,12.4,12.4,0,0,1-3.18,2.708c-.517.443-1.028.893-1.52,1.363A43.509,43.509,0,0,0,155.3,196.5a39.248,39.248,0,0,0-2.324,3.63,41.364,41.364,0,0,0-4.357,10.559c-.33,1.355-.192,3.358-2.558,3.189-1-.813-1.059-2.1-1.386-3.041a35.449,35.449,0,0,1-1.017,12.666c.318-1.836,1.286-4.545,1.084-7.462-.079-1.158.648-1.992,1.985-.989,1.815,3.681.192,7.745,1.316,11.5a11.218,11.218,0,0,1,.4,1.623C148.544,229.787,149.381,231.447,148.149,232.978Z" transform="translate(59.662 67.531)" fill="#8db15e"/>
    <path id="Path_17234" data-name="Path 17234" d="M130.806,136.256l-3.718,1.328A33.662,33.662,0,0,1,110.234,120.6c-.771-1.634-1.435-3.108-3.224-3.85a4.35,4.35,0,0,1-1.536-1.393c-1.024-1.3-1.629-14.295-.713-15.651,3.022-4.479,7.012-8.147,8.344-13.963.56-2.446,5.392-5.761,7.39-5.956,4.96-.481,7.316-6.778,13.144-4.784,2.017.69,5.273-.715,7.339-2.1a11.618,11.618,0,0,1,6.887-1.78c1.23.713,2.089,2.512,3.964,1.335,3.43-.727,5.7,1.114,7.288,3.709a6.96,6.96,0,0,0,5.856,3.539,7.667,7.667,0,0,1,3.818,2.822A18.787,18.787,0,0,0,172.2,86.4c2.481,2.265,2.057,4.19-.975,5.452a8.082,8.082,0,0,1-5.125.476c-12.972-3.386-22,3.814-30.905,11.39-.852.726-.945,1.822-1.195,2.829a39.047,39.047,0,0,1-1.7,3.809c-1.195,3.214-.283,5.1,3.333,5.232a8.484,8.484,0,0,1,4.508,1.117c2.281,1.513,3.542,3.57.177,4.948-3.126,1.281-3.417,3.477-3.489,6.225-.069,2.548.634,5.281-1.328,7.511l-2.992.225c-3.73-5.729-5.067-12.272-6.833-17.951C125.966,123.7,131.114,129.32,130.806,136.256Z" transform="translate(53.537 8.16)" fill="#a4bc7d"/>
    <path id="Path_17235" data-name="Path 17235" d="M210.931,182.388c-5.461-.214-6.45-1.158-4.911-6.654,1.142-4.078.253-7.551-1.293-11.1-1.244-2.85-3.424-3.818-5.619-1.327-2.674,3.034-4.275,1.5-6.26-.606-1.783-1.889-3.509-3.841-5.925-5.085-5.376-2.765-7.04-2.138-8.534,3.628-.221.856-.283,1.713-1.082,2.26-8,3.182-11.29,2.374-15.781-4.124-1.817-2.628-3.973-3.7-7.163-2.83-3.667,1-7.613,1-10.7,3.82a5.376,5.376,0,0,1-5.011,1.03c-5.9-1.776-10.15-.009-12.938,5.429-2.971.993-3.886-2.787-6.127-3.185a17.936,17.936,0,0,1,5.308,4.691,2.336,2.336,0,0,1-2.057,1.374c-7.342-.255-11,3.8-12.443,10.5-1.414,1.239-2.948.467-4.472.3-5.034-.566-8.131,1.515-8.975,6.49-.9,5.29-1.857,10.586.842,15.841,1.321,2.572,1.413,5.566-2.189,6.914-3.389,1.267-2.528,3.156-.824,5.16,1.6,1.882,4,2.83,5.65,4.6,1.026,1.1,3.568,2.646.042,3.983-9.586-3.6-15.437-10.482-17.686-20.395a10.339,10.339,0,0,1,2.412-9.776c2.577-2.8,3.036-6.055,2.5-9.751-1.024-7.065,2.154-10.979,9.263-11.506,2.66-.2,5.034.383,4.686-3.927-.267-3.331,2.975-3.1,5.069-2.314,2.528.951,3.994.859,4.442-2.075a2.923,2.923,0,0,1,.427-1.952c.608-.963,1.174-1.978,2.414-2.27,3.561-4.285,6.606-9.236,12.907-9.978a20.833,20.833,0,0,0,17.774-5.26,7.84,7.84,0,0,1,5.881-1.843,8.118,8.118,0,0,1,2.848.936,17.492,17.492,0,0,1,4.41,3.656c1.321,1.409,2.586,1.666,3.973.137,4.159-3.377,8.421-4.124,12.854-.522,2.173,1.766,4.526,1.5,6.956.652,2.152-.747,4.138-1.915,6.334-2.534,7.153-2.01,11.949,1.184,12.81,8.56.184,1.587.107,3.591,1.567,4.264,6.78,3.124,6.8,10.624,10.4,15.785C214.808,176.379,214.947,180.065,210.931,182.388Z" transform="translate(36.991 62.116)" fill="#627f43"/>
    <path id="Path_17236" data-name="Path 17236" d="M96.74,207.618c2.2-2.44-.446-2.834-1.645-3.677-2.411-1.7-5.144-3.027-6.655-5.721-1.523-2.713-1.9-5.2,2.291-5.426,4.289-.232,3.5-3.342,2.288-5.1-3.809-5.533-1.889-11.352-1.254-16.957.761-6.72,5.628-8.669,14.395-6.52,2.122,1.692,2.107,4.233,2.623,6.557a2.946,2.946,0,0,0,2.165,2.685,12.73,12.73,0,0,1,7.706,6.7c1.479,2.778,4.234,2.771,6.7,3.477a7.3,7.3,0,0,1,4.433,4.189c1.55,4.148,3.6,7.425,7.8,9.865,4.331,2.519-1.748,3.1-1.862,5.058l-1.17,1.8c-3.586,4.3-3.437,9.781.425,15.576q.387.954.777,1.91a29.014,29.014,0,0,1-12.712-4.043A113.483,113.483,0,0,0,96.74,207.618Z" transform="translate(40.721 77.992)" fill="#a3bc7d"/>
    <path id="Path_17237" data-name="Path 17237" d="M110.645,186.252c-.462.536-.924,1.07-1.385,1.608-9.607-.722-13.813-5.06-17.679-18.23a66.748,66.748,0,0,0-.8-11.166c-.018-4.187-.058-8.374.021-12.557.8-6.237.738-12.6,1.785-16.249a103.222,103.222,0,0,0-1.558,15.152c-.648,4.645-.16,9.312-.267,13.966.418,1.864.984,3.742-.553,5.4-4.853-12.048-5.933-24.726-4.888-37.415.947-11.5,6.749-16.029,18.469-16.045,3.943-.007,8-.734,11.839.938-3.361,1.226-3.911,4.164-4.361,7.161a83.6,83.6,0,0,0-4.754,22.994c-.009,4.282-.049,8.56.025,12.836C107,165.3,108.818,175.779,110.645,186.252Z" transform="translate(38.886 38.004)" fill="#e17970"/>
    <path id="Path_17238" data-name="Path 17238" d="M149.143,91.019l-3.082-2.4c-2.616-.174-4.568-.85-5.932-3.653-1.348-2.773-3.644-5.454-7.564-3.284-4.8,4.487-2.433-1.414-3.465-2.389,3.941-3.707,5.874-8.79,10.76-12.3,3.9-2.8,9.375-.6,11.865-5.283.174-.327,1.7-.207,2.44.088,3.458,1.37,6.789.543,10.025-.592,1.358-.478,3.333-1.414,3.825-.385,2.289,4.8,10.254-.04,11.057,6.7.372,3.124,3.045,3.321,5.086,4.368-1,4.456-3.913,7.483-7.479,10.022-2.511,2.34-5.287,4.387-6.664,7.79a2.743,2.743,0,0,0,.648,3.214,2.657,2.657,0,0,1-.942,1.016c-2.054,1.323-4.735,1.669-6.163,3.967a3.285,3.285,0,0,1-2.664,2.026C155.039,99.52,153.1,93.936,149.143,91.019Z" transform="translate(72.303)" fill="#5e7253"/>
    <path id="Path_17239" data-name="Path 17239" d="M241.636,145.4c-3,.353-2.07,1.768-1.167,3.56.836,1.657,1.922,3.827.471,5.4-1.759,1.9-2.857-1.017-4.435-1.311a6.563,6.563,0,0,1-3.294-1.492c-1.989-1.957-2.885-1.247-4.138.849a11.017,11.017,0,0,1-7.441,5.361,3.057,3.057,0,0,1-2.973-.474c-1.117-1.105.058-1.775.518-2.643,1.133-2.142,2.147-4.349,3.461-7.044a14.434,14.434,0,0,1-9.126-2.8c-1.225-.415-1.848-1.885-1.021-2.295,4.276-2.117,3.988-6.077,4.438-9.79.842-.706,1.295-2.275,2.892-1.3,2.679.225,4.963,1.513,7.836,3.05a18.963,18.963,0,0,1,5.025-11.227l-.054.058c5.554,1.8,5.9,2.586,3.342,7.56q-.477.925-.942,1.859c-2.992,6.005-2.992,6,3.472,6.3a7.91,7.91,0,0,1,2.569.281c1.9.782,4.459,1.411,4.591,3.73C245.795,145.4,242.576,143.83,241.636,145.4Z" transform="translate(135.144 47.612)" fill="#a3c43e"/>
    <path id="Path_17240" data-name="Path 17240" d="M162.676,220.945c2.223-10.259,4.443-20.518,6.71-30.977,3.9,1.184,5.129,2.8,4.291,6.973-1.188,5.909-3.725,11.584-3.512,17.763.03.258.061.517.095.777-1.437,5.7-1.493,11.842-5.255,16.821-14.427-4.486-25.357-13.028-31.5-27.131,1.009-3.646.135-7.943,3.707-10.7a2.492,2.492,0,0,1,1.2.926c2.151,6.608,4.507,13.1,9.556,18.213,4.222,4.275,9.5,6.7,15,8.755.162.06-.172-.274-.246-.439A1.234,1.234,0,0,1,162.676,220.945Z" transform="translate(75.639 98.116)" fill="#d85e66"/>
    <path id="Path_17241" data-name="Path 17241" d="M155.984,212.522c2.948-6.1,3.156-13.007,5.466-19.671,4.176,2.715,4.512,6.162,3.489,10.176a226.544,226.544,0,0,0-5.71,27.518q3.618-13.836,7.235-27.674c2.346,9.9,3.05,19.643,1.151,29.44-5.051.26-10.129.745-14.811-1.885-1.611-3.746.68-7.009,1.307-10.475A56.008,56.008,0,0,1,156,212.487Z" transform="translate(89.819 100.298)" fill="#d95f67"/>
    <path id="Path_17242" data-name="Path 17242" d="M191.559,108.717c-.213-1.5,1.223-2.765.408-4.44-.722-1.485-.52-3.553,1.488-3.257,1.509.221,4.921-1.53,4.572,2.514-.056,2.569,4.356,3.2,2.78,6.436-3.53,7.724-9.126,13.982-14.423,20.451-2.49,2.53-5.2.817-7.843.422a3.206,3.206,0,0,1-1.808-1.348c-.188-.864,1.167-2.614-.956-2.407a26.9,26.9,0,0,1-4.464.054,3.828,3.828,0,0,1-1.416-.474c-1.523-1.167-2.488-2.592-2.135-4.624.487-1.469,1.539-2.627,3.033-2.381,3.2.525,5.645-.986,8.375-2.166,3.407-1.474,6.722-2.737,8.5-6.371C188.387,109.653,190.2,109.432,191.559,108.717Z" transform="translate(101.512 30.639)" fill="#5e7254"/>
    <path id="Path_17243" data-name="Path 17243" d="M133.061,214.851l-.727-4.656c1.14-11.116,3.99-21.857,7.135-32.534a13.588,13.588,0,0,1,4.1-4.15c1.783,2.275.618,4.779.242,7.042a239.081,239.081,0,0,1-8.5,34.33,5.846,5.846,0,0,1-1.086,1.783Z" transform="translate(74.75 85.658)" fill="#d95f67"/>
    <path id="Path_17244" data-name="Path 17244" d="M104.163,122.57q.156-3.632.313-7.262c1.151-2.144.272-4.526.789-6.745,1.386-2.773,3.9-2.1,6.221-2.047a1.633,1.633,0,0,1,1.019,1.736c1.929,3.663-.75,5.188-3.684,6.812,9.758.429,10.5,1.269,7.068,7.49a2.2,2.2,0,0,1-1.557.309C110.941,122.682,107.536,123.169,104.163,122.57Z" transform="translate(53.425 34.86)" fill="#9db075"/>
    <path id="Path_17245" data-name="Path 17245" d="M100.278,99.417c4.816-.443,8.052,2.816,11.744,5.011-.351,4.6-3.44,3.623-6.308,3.094-2.9-.2-5.9,1.033-8.7-.6.813-1.869-.777-2.462-1.789-3.363l-.06-2.226C96.481,99.661,99.185,101.69,100.278,99.417Z" transform="translate(46.612 29.539)" fill="#a8bc85"/>
    <path id="Path_17246" data-name="Path 17246" d="M184.259,228.969a16.623,16.623,0,0,1,1.685-3.147c11.136-13.177,12.406-27.871,6.868-43.663-.567-1.623-1.567-3.163-1.216-5.018,4.818,6.107,5.9,13.2,5.513,20.7-.1,1.878-.033,3.763-.044,5.645C196.182,213.68,192.573,222.507,184.259,228.969Z" transform="translate(114.056 88.407)" fill="#322337"/>
    <path id="Path_17247" data-name="Path 17247" d="M133.412,217.125c3.711-14.256,7-28.605,9.347-43.157l1.23-1.063a3.655,3.655,0,0,1,1.124,3.351c-1.522,10.183-3.233,20.33-6.474,30.144a3,3,0,0,1-1,1.188c-2.339,3.119-1.072,7.629-4.053,10.5A1.951,1.951,0,0,1,133.412,217.125Z" transform="translate(75.562 85.199)" fill="#c64046"/>
    <path id="Path_17248" data-name="Path 17248" d="M114.4,121.369a20.447,20.447,0,0,0,1.133-3.985c.155-1.841-.952-3.651-2.715-2.233-2.894,2.33-4.846.729-7.205-.717,2.014-2.277,6.828-2.27,5.789-6.977q2.659,3.634,5.32,7.272l2.214,3.777C118.22,120.717,117.607,123.094,114.4,121.369Z" transform="translate(54.526 35.657)" fill="#668146"/>
    <path id="Path_17249" data-name="Path 17249" d="M156.614,204.027c-.005,6.169-3.491,11.717-3.2,17.939l-1.98-.306C153.3,215.823,153.569,209.518,156.614,204.027Z" transform="translate(89.208 108.758)" fill="#d23c3f"/>
    <path id="Path_17250" data-name="Path 17250" d="M111.6,107.9c-1.666,1.924-4.426.517-6.221,2.047l-1.358-2.941c1.513-3.918,3.971-2.184,6.327-1.056Z" transform="translate(53.315 33.476)" fill="#658146"/>
    <path id="Path_17251" data-name="Path 17251" d="M101.168,105.345c1.985-1.27,5.2-.044,6.308-3.094l3.21,3.175c-1.079,2.539-4.085.239-5.411,2.158Z" transform="translate(51.158 31.716)" fill="#6c864c"/>
    <path id="Path_17252" data-name="Path 17252" d="M156.181,76.941c2.563-3.287,5.582-6.236,7.479-10.022l3.027.411c-2.05,1.244-4.036,2.539-4.689,5.083C161.229,75.41,158.326,75.7,156.181,76.941Z" transform="translate(92.802 4.97)" fill="#1d283c"/>
    <path id="Path_17253" data-name="Path 17253" d="M87.945,143.43l.179-5.127c.292-.434.608-.432.945-.054,1.3,3.514,1.8,7.047.248,10.628Q88.632,146.154,87.945,143.43Z" transform="translate(41.149 58.755)" fill="#4a4556"/>
    <path id="Path_17254" data-name="Path 17254" d="M100.278,99.468l1.137,3.505c-2.251-.768-4.108-2.024-6.253-1.59C96.055,98.57,98.314,99.413,100.278,99.468Z" transform="translate(46.612 29.488)" fill="#668246"/>
    <path id="Path_17255" data-name="Path 17255" d="M103.505,106.216c.882-3.033,3.769-1.033,5.411-2.158l1.815,2.284c-2.129.23-4.515-1.075-6.327,1.056Z" transform="translate(52.927 33.084)" fill="#acc087"/>
    <path id="Path_17256" data-name="Path 17256" d="M95.2,101.838c1.406.046,3.238-.938,3.867,1.175.473,1.594-.857,1.948-2.079,2.187A3.5,3.5,0,0,1,95.2,101.838Z" transform="translate(46.632 31.26)" fill="#658146"/>
    <g id="Group_61" data-name="Group 61" transform="translate(33.586 131.15)">
      <path id="Path_17257" data-name="Path 17257" d="M67.672,206.31c.631,2.34,1.232,4.691,1.9,7.021,1.374,4.8,5.336,7.209,9.853,6.032,4.605-1.2,6.835-5.018,5.693-10.041-.845-3.718-1.892-7.388-2.85-11.079.429-.689-.341-1.618.448-2.235,2.706,4.394,3.69,9.4,4.517,14.332.815,4.858-2.713,9.331-7.455,10.559a9.9,9.9,0,0,1-11.824-6.185c-1.135-3.229-2.323-6.59-1.766-10.176C67.2,204.7,66.962,205.9,67.672,206.31Z" transform="translate(-9.015 -28.463)" fill="#807e7e"/>
      <path id="Path_17258" data-name="Path 17258" d="M67.3,121.872l-.43.067-.38.211-3.851-15.265c.218-.4.488-.439.815-.123Q65.374,114.315,67.3,121.872Z" transform="translate(-11.596 -96.179)" fill="#3b3b3b"/>
      <g id="Group_60" data-name="Group 60">
        <path id="Path_17259" data-name="Path 17259" d="M78.786,207.984c-5.3-14.528-8.792-29.6-13.36-44.351q.221-.77.78-.2c5.271,14.537,8.741,29.616,13.348,44.353C79.41,208.3,79.159,208.383,78.786,207.984Z" transform="translate(-9.483 -53.303)" fill="#414040"/>
        <path id="Path_17260" data-name="Path 17260" d="M70.193,215.2l-1.485-1.773A247.018,247.018,0,0,1,62.714,184.7c.137-.506.381-.59.75-.192Q66.83,199.856,70.193,215.2Z" transform="translate(-11.536 -37.355)" fill="#3f3e3e"/>
        <path id="Path_17261" data-name="Path 17261" d="M55.322,147.079q2.744,10.979,5.485,21.959c-.276,1.88.643,3.577.822,5.389a.9.9,0,0,1-1.161.641q-3-13.881-5.995-27.759C54.626,146.754,54.916,146.7,55.322,147.079Z" transform="translate(-17.775 -65.685)" fill="#444343"/>
        <path id="Path_17262" data-name="Path 17262" d="M64.179,161.1c-2.084-7.228-4.247-14.437-6.185-21.7-.411-1.541-1.026-3.387.348-4.935q3.379,13.243,6.759,26.486C64.855,161.37,64.546,161.4,64.179,161.1Z" transform="translate(-15.487 -75.049)" fill="#3a3a3a"/>
        <path id="Path_17263" data-name="Path 17263" d="M56.939,154.474c-.281.083-.564.16-.849.23l-3.336-16.422c-.833-.863-.3-1.112.548-1.216A68.505,68.505,0,0,1,56.939,154.474Z" transform="translate(-19.392 -73.08)" fill="#50504f"/>
        <path id="Path_17264" data-name="Path 17264" d="M60.622,170.383c1.091,3.76,2.527,7.458,2.054,11.5q-.242.783-.9.3c-1.124-3.756-2.467-7.472-2.082-11.5C59.87,170.153,60.172,170.036,60.622,170.383Z" transform="translate(-13.876 -48.01)" fill="#6f6e6e"/>
        <path id="Path_17265" data-name="Path 17265" d="M61.3,149.694a2.241,2.241,0,0,1,.924-.153c2.37,3.319,2.862,7.262,3.674,11.1q-.348.733-.922.162C62.657,157.46,62.1,153.536,61.3,149.694Z" transform="translate(-12.607 -63.639)" fill="#6f6f6f"/>
        <path id="Path_17266" data-name="Path 17266" d="M64.646,131.476l.318-15.846q.19-.762.81-.278C66.6,120.811,66.862,126.23,64.646,131.476Z" transform="translate(-10.074 -89.66)" fill="#6a6767"/>
        <path id="Path_17267" data-name="Path 17267" d="M35.294,105.531c.643,5.3-.271,10.57-.362,15.855-.107.5-.365.6-.777.292C33.349,116.212,33.138,110.788,35.294,105.531Z" transform="translate(-33.586 -96.952)" fill="#6e6c6b"/>
        <path id="Path_17268" data-name="Path 17268" d="M57.529,139.221l-.548,1.216c-1.688-4.9-7.2-3.516-10.227-6.218C51.112,134.231,55.178,134.88,57.529,139.221Z" transform="translate(-23.618 -75.236)" fill="#6a6867"/>
        <path id="Path_17269" data-name="Path 17269" d="M66.052,111.23l-.4.139-.42-.016A43.408,43.408,0,0,1,59.2,100.648C63.093,103.131,64.286,107.365,66.052,111.23Z" transform="translate(-14.198 -100.648)" fill="#6a6868"/>
        <path id="Path_17270" data-name="Path 17270" d="M73.03,188.769c.257-.06.513-.123.768-.193q1.816,6.528,3.63,13.056l-.448,2.235Z" transform="translate(-3.727 -34.089)" fill="#3c3b3b"/>
        <path id="Path_17271" data-name="Path 17271" d="M60.847,177.137a5.074,5.074,0,0,0,.9-.3l3.127,13.286-.376.093-.374.1Z" transform="translate(-12.95 -42.971)" fill="#3a3a3a"/>
        <path id="Path_17272" data-name="Path 17272" d="M38.132,124.051l3.106,7.6c-3.742-2.484-4.248-6.749-5.754-10.463a.942.942,0,0,1,1.211-.209C37.5,121.849,37.155,123.26,38.132,124.051Z" transform="translate(-32.149 -85.357)" fill="#444343"/>
        <path id="Path_17273" data-name="Path 17273" d="M61.938,175.982q-.472.126-.931.29l-3.122-13.281c.26-.062.518-.13.775-.2,1.625,2.077,3.25,4.153,2.1,7.056Z" transform="translate(-15.192 -53.609)" fill="#3d3c3c"/>
        <path id="Path_17274" data-name="Path 17274" d="M63.391,156.018a4.011,4.011,0,0,0,.922-.162q1.716,6.568,3.433,13.135-.39.095-.78.2Q65.18,162.6,63.391,156.018Z" transform="translate(-11.024 -58.857)" fill="#393838"/>
        <path id="Path_17275" data-name="Path 17275" d="M38.853,127.46a26.928,26.928,0,0,1,6.313,7.376A10.3,10.3,0,0,1,38.853,127.46Z" transform="translate(-29.599 -80.352)" fill="#636160"/>
        <path id="Path_17276" data-name="Path 17276" d="M42.4,131.623a20.89,20.89,0,0,1,7.734,4.6A8.672,8.672,0,0,1,42.4,131.623Z" transform="translate(-26.917 -77.201)" fill="#757373"/>
        <path id="Path_17277" data-name="Path 17277" d="M37.442,125.761l-.38.105-.387.086L33.91,114.847a1.1,1.1,0,0,0,.777-.292l2.019,7.068C37.986,122.818,38.443,124.159,37.442,125.761Z" transform="translate(-33.34 -90.121)" fill="#343333"/>
        <path id="Path_17278" data-name="Path 17278" d="M61.187,133.972c1.314-2.813,2.56-5.672,4.895-7.85C65.813,129.589,64.4,132.343,61.187,133.972Z" transform="translate(-12.692 -81.365)" fill="#757474"/>
      </g>
    </g>
    <g id="Group_63" data-name="Group 63" transform="translate(414.411 131.531)">
      <path id="Path_17279" data-name="Path 17279" d="M250.336,212.575c2.107,4.605,5.858,5.958,10.6,5.355C255.746,220.868,251.014,218.475,250.336,212.575Z" transform="translate(-250.336 -16.303)" fill="#898786"/>
      <path id="Path_17280" data-name="Path 17280" d="M292.97,104.585c-2.975-3.286-6.829-1.989-10.431-2C287.318,99.769,290.579,100.394,292.97,104.585Z" transform="translate(-225.959 -100.865)" fill="#9b9998"/>
      <g id="Group_62" data-name="Group 62" transform="translate(0.176 1.678)">
        <path id="Path_17281" data-name="Path 17281" d="M274.7,192.518q12.4-44.331,24.8-88.664c.908,1.775.025,3.433-.43,5.069q-11.659,41.914-23.382,83.813A.605.605,0,0,1,274.7,192.518Z" transform="translate(-232.071 -100.28)" fill="#5a5a59"/>
        <path id="Path_17282" data-name="Path 17282" d="M279.377,154.318a2.381,2.381,0,0,0,.991.218c-6.2,8.679-6.863,19.339-10.373,28.98-.715.374-.524,1.541-1.481,1.7C270.053,174.186,272.095,163.331,279.377,154.318Z" transform="translate(-236.751 -62.08)" fill="#979695"/>
        <path id="Path_17283" data-name="Path 17283" d="M263,201.844c-.081-5.845,2.151-11.164,3.79-16.619.717-.374.525-1.537,1.481-1.7-.051,6.19-2.368,11.853-4.11,17.649A1.852,1.852,0,0,1,263,201.844Z" transform="translate(-240.93 -39.974)" fill="#959494"/>
        <path id="Path_17284" data-name="Path 17284" d="M267.836,147.625c-.733,2.295-1.105,4.791-2.266,6.843-2.822,4.983-.868,9.758.068,14.62-2.952-2.1-3.3-5.408-3.015-8.426.509-5.348,1.794-10.6,4.884-15.191C268.165,146.105,267.457,146.949,267.836,147.625Z" transform="translate(-241.273 -68.777)" fill="#929090"/>
        <path id="Path_17285" data-name="Path 17285" d="M258.895,193.723c-1.4,5.517-2.293,11.2-5.375,16.155a1.9,1.9,0,0,1-.648-1.186c1.411-5.513,2.288-11.2,5.376-16.157A1.863,1.863,0,0,1,258.895,193.723Z" transform="translate(-248.592 -33.151)" fill="#959494"/>
        <path id="Path_17286" data-name="Path 17286" d="M282.071,112.332q-4.675,12.9-9.349,25.792c-1.123-.829-.608-1.876-.271-2.8q3.84-10.46,7.766-20.889C280.558,113.529,280.651,112.325,282.071,112.332Z" transform="translate(-234.086 -93.863)" fill="#545453"/>
        <path id="Path_17287" data-name="Path 17287" d="M256.664,222.027c3.352-4.35,2.808-10.071,5.183-14.764.7-.364.52-1.492,1.439-1.669.26,5.136-1.762,9.785-3.257,14.518C259.654,221.294,258.874,223.334,256.664,222.027Z" transform="translate(-245.722 -23.266)" fill="#979696"/>
        <path id="Path_17288" data-name="Path 17288" d="M265.362,172.8c-1.372,5.489-2.316,11.122-5.355,16.055-.365.341-.671.311-.912-.142,1.421-5.477,2.305-11.136,5.4-16.05Q265.018,172.149,265.362,172.8Z" transform="translate(-243.881 -48.366)" fill="#8c8b8b"/>
        <path id="Path_17289" data-name="Path 17289" d="M285.715,101.82c-4.025,3.874-4.013,9.8-7.184,14.11A14.39,14.39,0,0,1,285.715,101.82Z" transform="translate(-229.244 -101.82)" fill="#888786"/>
        <path id="Path_17290" data-name="Path 17290" d="M266.633,193.048l-1.481,1.7q2.952-11.056,5.907-22.113l1.481-1.7Q269.588,181.992,266.633,193.048Z" transform="translate(-239.296 -49.501)" fill="#5c5c5c"/>
        <path id="Path_17291" data-name="Path 17291" d="M261.053,214.7l-1.439,1.669,5.94-22.127,1.161-.675Q263.883,204.134,261.053,214.7Z" transform="translate(-243.489 -32.37)" fill="#565656"/>
        <path id="Path_17292" data-name="Path 17292" d="M261.489,181.7a6.148,6.148,0,0,0,.912.142q-2.912,10.044-5.823,20.086l-.647-1.186Z" transform="translate(-246.276 -41.354)" fill="#575757"/>
        <path id="Path_17293" data-name="Path 17293" d="M254.716,201.731l.648,1.184q-2.427,8.549-4.851,17.1C249.876,213.452,253.358,207.835,254.716,201.731Z" transform="translate(-250.436 -26.19)" fill="#555"/>
        <path id="Path_17294" data-name="Path 17294" d="M263.037,179.981a3.188,3.188,0,0,0-.871-.137c2.121-5.571,1.915-11.94,5.81-16.9Q265.507,171.462,263.037,179.981Z" transform="translate(-241.557 -55.551)" fill="#535353"/>
        <path id="Path_17295" data-name="Path 17295" d="M273.275,129.353c-.74,2.8-1.1,5.758-3.222,8C269.231,133.925,269.491,130.929,273.275,129.353Z" transform="translate(-235.876 -80.978)" fill="#898989"/>
        <path id="Path_17296" data-name="Path 17296" d="M270.758,137.02c-.935,2.407-.826,5.243-2.943,7.165a.626.626,0,0,1-1.066-.241C267.589,141.349,267.113,137.992,270.758,137.02Z" transform="translate(-238.087 -75.174)" fill="#888787"/>
        <path id="Path_17297" data-name="Path 17297" d="M267.794,140.961l1.066.241q-1.584,4.918-3.164,9.837l-.329-2.154Q266.583,144.924,267.794,140.961Z" transform="translate(-239.133 -72.191)" fill="#575656"/>
      </g>
    </g>
    <path id="Path_17298" data-name="Path 17298" d="M183.029,174.374c-5.473,1.629-11.081.982-16.589.587-4.953-.358-7.086-3.944-7.334-8.646a107.274,107.274,0,0,0-.938-10.886c-1.82-11.777-10.076-20.688-22.351-23.487a2.5,2.5,0,0,1,.972-2.541c3.452-1.128,1.912-5.383,4.435-7.1,2.451.271,4.853,1.523,7.379.369a8.941,8.941,0,0,1,2.154-.109c4.563,1.462,8.363-.754,12.248-2.546a4.154,4.154,0,0,1,1.439-.155c3.217,2.534,5.3,2.3,5.907-2.251a5.042,5.042,0,0,1,2.713-4.162,9.924,9.924,0,0,1,7.448.568,9.789,9.789,0,0,0,5.478.661,3.416,3.416,0,0,1,1.467.323c1.8,2-.086,4.391.589,6.824,2.946-.733,3.958-4.211,6.926-4.45.225-.009.452-.014.676-.016,1.711,1.019,4.436-.364,5.45,2.305l.928.975c.6,2.323-1.16,3.532-2.455,4.816-7.588,7.527-11.988,16.127-9.83,27.2a11.637,11.637,0,0,1-.206,5.137Q186.283,166.083,183.029,174.374Z" transform="translate(77.325 39.821)" fill="#d6deaa"/>
    <path id="Path_17299" data-name="Path 17299" d="M211.662,134.294c-6.336-.868-11.022-5.248-11.473-10.619A49.109,49.109,0,0,0,211.662,134.294Z" transform="translate(126.115 47.933)" fill="#695c88"/>
    <path id="Path_17300" data-name="Path 17300" d="M189.695,130.716a12.273,12.273,0,0,1-9.857-11.888A32.4,32.4,0,0,0,189.695,130.716Z" transform="translate(110.71 44.264)" fill="#625889"/>
    <path id="Path_17301" data-name="Path 17301" d="M203.641,112.623c-4.009-3.465-8.894-6.4-9.4-12.468C196.791,104.749,201.134,107.951,203.641,112.623Z" transform="translate(121.614 30.129)" fill="#605889"/>
    <path id="Path_17302" data-name="Path 17302" d="M215.025,117.039c2.723,4.869,7.363,6.462,11.287,9.964C219.973,126.293,215.6,122.517,215.025,117.039Z" transform="translate(137.345 42.91)" fill="#675a88"/>
    <path id="Path_17303" data-name="Path 17303" d="M192.973,143.854c-4.3-1.362-7.221-4.1-8.14-8.676C187.848,137.75,190.009,141.138,192.973,143.854Z" transform="translate(114.491 56.641)" fill="#635989"/>
    <path id="Path_17304" data-name="Path 17304" d="M171.982,133.647c3.579,1.687,6.8,3.776,8.507,7.564A19.915,19.915,0,0,1,171.982,133.647Z" transform="translate(104.763 55.482)" fill="#615889"/>
    <path id="Path_17305" data-name="Path 17305" d="M159.555,160.582c1.212-3.027,3.753-2.221,5.787-1.638,2.787.8.754,2.915.59,4.342-.977,8.537.78,10.3,9.34,7.212,9.359-3.375,18.22-4.057,27.036,1.126.568.332,1.1.733,2.368,1.592-9.228-.661-17.735-3.087-25.569,1.991l-8.911,2.077c11.756,2.9,20.36,7.711,24.155,19.55l-3.542-2.764c-3.609-4.886-8.913-7.105-14.365-9.052-3.442-1.228-6.954-2.27-10.087-4.231C158.57,175.912,157.963,168.617,159.555,160.582Z" transform="translate(94.818 74.212)" fill="#839c51"/>
    <path id="Path_17306" data-name="Path 17306" d="M151.1,178.225c3.461,13.921-3.335,26.43-5.448,39.583q-.369,2.3-.731,4.595c-3.72-.669-5.2-3.3-5.84-6.669,2.159-10.906,5.563-21.551,6.8-32.652C146.744,180.521,147.921,178.294,151.1,178.225Z" transform="translate(79.858 89.226)" fill="#d95f67"/>
    <path id="Path_17307" data-name="Path 17307" d="M145.93,219.759c1.875-9.892,5.215-19.455,6.6-29.465.153-1.105.313-3.2,2.474-2.405,2.277.838,4.073,2.36,3.507,5.1-1.021,4.928-1.968,9.9-3.472,14.692-1.481,4.719-1.244,10.017-4.584,14.128C148.367,222.4,146.719,222.031,145.93,219.759Z" transform="translate(85.042 96.41)" fill="#d95f68"/>
    <path id="Path_17308" data-name="Path 17308" d="M142.969,219.1q3.445-15.188,6.882-30.378c.33-1.462.613-2.934,1-4.786,2.867,2.6,3.876,4.942,2.874,8.767-2.535,9.7-4.419,19.566-6.564,29.366C144.889,222.317,143.2,221.739,142.969,219.1Z" transform="translate(82.801 93.551)" fill="#d95f67"/>
    <path id="Path_17309" data-name="Path 17309" d="M148.371,186.1a13.063,13.063,0,0,0-4.073,4.234.863.863,0,0,1-1.3.1c-.958-2.006.585-3.456,1.128-5.132,4.6-10.118,13.527-14,23.544-16.312,2.286.188,6.032-3.862,6.306,2.17a23.186,23.186,0,0,1-11.408,5.8C156.82,178.226,152.232,181.694,148.371,186.1Z" transform="translate(82.589 81.356)" fill="#ced388"/>
    <path id="Path_17310" data-name="Path 17310" d="M167.288,177.355c-1.4-5.032-4.471-1.174-6.8-1.276-1.75-.109-3.44.654-5.146.525-1.82-.137-3.965-.26-3.814-3.041,2.871-.9,5.406,1.346,8.231.875,2.339-.388,5.378-.1,3.962-4.108.444-3.565-1.1-7.385,1.376-10.691.2.617.7,1.323.545,1.841-2.855,9.776,3.807,17.714,12.42,20.328,5.164,1.567,10.264,3.337,14.592,6.668,1.557,1.2,3.737,2.1,3.7,4.651-6.358-5.375-13.917-8.361-21.7-10.877C171.717,181.3,169.76,178.957,167.288,177.355Z" transform="translate(89.275 75.157)" fill="#2c2935"/>
    <path id="Path_17311" data-name="Path 17311" d="M148.318,212.255a8.549,8.549,0,0,0,4.194,2.969c.336.183.673.364,1.01.546a7.157,7.157,0,0,0,4.517,2.045c.748.938,1.806.828,2.825.849l2.635,1.5c-10.584,2.045-23.1-9.9-27.6-26.3.274-1.068,1.04-.945,1.833-.759,1.13.782,1.439,2.045,1.9,3.222.634,2.012,1.219,4.045,1.982,6.019a9.083,9.083,0,0,1,.538,2.683,12.094,12.094,0,0,0,5.176,6.2Z" transform="translate(77.452 100.398)" fill="#352539"/>
    <path id="Path_17312" data-name="Path 17312" d="M163.407,146.013,161.158,146a6.842,6.842,0,0,1-3.419-2.324c-1.193-1.464-1.794-3.011-.8-4.825,1.082-1.977,2.823-2.361,4.92-2.17,2.245.2,3.832,2.546,6.564,1.885-.039-2.4-1.989-2.6-3.488-3.14a11.486,11.486,0,0,1-6.571-5.7c-2.388-4.544-1.843-6.485,2.774-9.361-3.539-.228-7.051-.292-10.463,1.822,2.841,2.405,6.292,4,7.762,7.711.845,2.129,2.428,4.062.65,6.3-1.666,2.093-3.788,3.082-7.267.773,2.458,2.864,5.86,4.377,2.3,7.476a3,3,0,0,1-1.465-.1,21.625,21.625,0,0,1-3.616-3.031c-2.226-2.1-3.394-4.617-1.968-7.544,1.518-3.115,4.269-2.386,7.592-1.432-1.678-3.006-4.224-4.19-6.272-5.838-5.477-4.4-5.322-7.019.828-9.962,1.365-.652,2.028-1.349,1.485-2.773-.587-1.537-1.486-2.862-3.4-2.743a2.471,2.471,0,0,0-2.465,2.23c-1.5,6.713-1.543,6.71-8.5,6.369-1.182-.058-2.841-.673-3.131.894-.337,1.81,1.2,2.767,2.829,3.208a6.652,6.652,0,0,0,3.1-.365c3.783-.778,5.963,1.207,7.421,4.368,1.038,2.252,1.225,4.445-.959,6.169-2.932,2.314-5.8,2.028-8.521-.427l-1.924-2.151c1.8-2.066,4.6-.4,7-2.11-7.567.327-14.441-.717-13.817-10.006.432-6.446,6.29-4.347,10.459-4.612.322-2.214-.966-3.026-2.588-3.189-2.632-.262-7.713,5.162-8.226,7.854-.446,2.346,2.1,5.489-1.655,7.038l-1.887-.179c-.005-2.969.058-5.942-.035-8.908s.777-5.155,3.969-5.81c.833-.172,1.906-.146,1.882-1.318-.019-.954-.822-1.457-1.7-1.734a20.3,20.3,0,0,0-2-.617c-9.012-1.868-9.511-3.164-4.252-11.123.278-3.85,4.414-3.7,6.2-5.991,1.441-.271,2.911-.334,3.544,1.3.589,1.523-.376,2.676-1.432,3.64-1.8,1.646-4.194,2.516-5.863,4.354-.7.778-1.516,1.587-1.163,2.732a1.494,1.494,0,0,0,1.731.847c1.244-.13,1.706-1.056,2-2.112.141-.5.225-1.024.388-1.52.782-2.353,2.291-3.936,4.856-4.108a6.335,6.335,0,0,1,5.744,3c1.613,2.221,1.859,5.329,4.717,7.084.086-2.049-1.492-3.322-1.685-5.06-.216-1.943.778-3.644,1.144-5.937-3.77,2.333-7.251,2.555-9.574-.912-1.952-2.915-.589-5.654,2.18-7.624,1.653-1.091,2.771-3.14,5.167-2.894,3.976,3.243-.455,4.881-1.272,7.082,1.464-1.393,3.247-2.822,5.419-1.471,4.236,2.639,3.261,6.859,2.268,11.619,5.313-2.637,9.261-.228,13.423,1.52-2.073-1.824-4.811-2.124-6.975-3.546-2.412-1.581-4.732-3.4-4.313-6.643.425-3.3,2.655-4.749,5.954-4.552a1.939,1.939,0,0,0,1.857-.717c.893-1.251.873-4.059,3.435-2.648,1.794.987,2.177,3.141,1.894,5.132a4.306,4.306,0,0,1-3.746,3.85c-1.024.192-2.057-.288-3.577-.07,1.286,2.384,3.5,2.333,5.339,2.845,3.879,1.077,6.77,2.969,6.6,7.541a4.9,4.9,0,0,0,1.917,4.1c2.917,2.523,4.255,5.54,2.477,9.323a1.856,1.856,0,0,0,.726,2.681c1.072.661,1.912.329,2.715-.613,2.233-2.623,3.739-1.908,4.79,1.084.578,1.641,2.416,1.926,3.558,2.971a7.365,7.365,0,0,1,1,9.579c-1.611,2.163-6.72,3.05-9.189,1.608-1.511-.884-1.741-2.066-.873-3.528,1.175-1.132,2.665-.446,3.994-.7.908-.169,1.7-.52,1.766-1.587a1.678,1.678,0,0,0-.97-1.7c-1.007-.476-1.623.114-2.082.938a6.52,6.52,0,0,1-2.374,2.716c-1.608,2.3-3.626,2.743-5.773.922-1.789-1.516-1.186-3.519,1.876-6.7-2.743-2.256-4.939-.427-6.975.979-1.655,1.144-.657,2.481.409,3.5,1.692,1.606,3.976,2.161,5.981,3.215,5.909,3.108,6.485,8.948,1.291,12.652C168.562,146.462,165.841,145.357,163.407,146.013Z" transform="translate(64.604 17.433)" fill="#bfcf8f"/>
    <path id="Path_17313" data-name="Path 17313" d="M131.944,122.295c1,.285,1.985.655,3,.838a5.362,5.362,0,0,0,5.912-2.4c1.258-2.158-.61-4.011-1.683-5.68-1.218-1.892-3.212-2.939-5.385-1.522-2.681,1.752-4.482.785-6.22-1.362-.979-1.209-2.5-2.258-1.571-4.041,1.005-1.92,2.751-1.618,4.582-1.244,7.019,1.432,7.393,1.044,7.116-5.87-.128-3.229,3.491-2.722,4.558-2.839,3.519-.387,4.675,2.91,5.287,5.742.553,2.574-.924,3.329-3.445,2.72a2.748,2.748,0,0,0-3.607,2.147c-.492,1.989.527,3.351,1.991,4.482,2.606,2.014,5.338,3.883,7.769,6.086.894.81,2.087,2.386,1.035,3.711-1.481,1.859-2.3-.323-3.3-.968-1.657-1.074-3.419-1.411-4.705.19-1.457,1.811-1.105,3.825.207,5.782,1.232,1.841,4.131,2.238,4.254,4.992-2.8,4.076-7.265,4.559-11.624,1.258C135.1,130.182,134.105,126.035,131.944,122.295Z" transform="translate(69.737 28.61)" fill="#a6be7f"/>
    <path id="Path_17314" data-name="Path 17314" d="M132.047,149.285a13.721,13.721,0,0,0-8.377,3.684c-4.793,4.568-10.013,5.478-15.918,2.507a181.155,181.155,0,0,1,26.994-20.9C136.138,139.9,135.547,144.861,132.047,149.285Z" transform="translate(56.142 56.189)" fill="#aa2f30"/>
    <path id="Path_17315" data-name="Path 17315" d="M133.4,139.822q-1.486,8.8-2.976,17.6c-3.95-.146-4.644-4.624-7.783-5.849-.223-5.717.246-11.3,3.15-16.421C133.255,131.265,133.255,131.265,133.4,139.822Z" transform="translate(67.376 54.729)" fill="#a73132"/>
    <path id="Path_17316" data-name="Path 17316" d="M123.14,115.1c.457-2.945,1.476-5.794.406-8.9a2.746,2.746,0,0,1,2.447-3.825c1.448-.214,2.75-.51,3.5-1.9,2.1-3.92,4.551-1.966,6.852-.314,1.355.972,2.186,2.43,1.4,4.108-.789,1.7-2.3,1.089-3.646.748-2.892-.729-5.772-1.743-7.769,1.8-1.676,2.973-.014,4.988,1.718,6.979,2.152,2.474,4.4,4.739,7.91,1.818a2.229,2.229,0,0,1,3.6.585,4.895,4.895,0,0,1,.773,3.391c-.42,1.307-1.861,1.033-3.154.815a41.745,41.745,0,0,0-5.211-.276A31.18,31.18,0,0,0,123.14,115.1Z" transform="translate(67.79 28.633)" fill="#a6be7f"/>
    <path id="Path_17317" data-name="Path 17317" d="M140.379,124.813q-.561,1.168-1.119,2.333c-2.83.671-6.29-.292-8.072,3.1q.4-5.092.791-10.18c2.224-.961,4.6-.3,6.893-.576,1.6-.192,3.793-.7,4.538,1.316C144.327,123.29,141.714,123.7,140.379,124.813Z" transform="translate(73.883 44.616)" fill="#5e7256"/>
    <path id="Path_17318" data-name="Path 17318" d="M101.566,167.306A90.773,90.773,0,0,1,96.979,136.1q.382-.846,1.131-.3c1.724,7.58.715,15.516,3.008,23.018.6,1.968,1.27,3.915,1.906,5.872Z" transform="translate(47.964 56.95)" fill="#4a3a4c"/>
    <path id="Path_17319" data-name="Path 17319" d="M125.167,142.835a85.534,85.534,0,0,0-3.229-27.63c5.355,8.636,4.754,18.23,4.32,27.8A.671.671,0,0,1,125.167,142.835Z" transform="translate(66.881 41.522)" fill="#2f2735"/>
    <path id="Path_17320" data-name="Path 17320" d="M121.916,117.825c-1.685-5.05-3.349-10.106-5.062-15.147-1.284-3.779-1.311-3.77,2.112-7.2-2.532,8.272,3.565,14.418,4.656,21.7Z" transform="translate(62.427 26.59)" fill="#2d3545"/>
    <path id="Path_17321" data-name="Path 17321" d="M96.959,137.576c.5-7.729.666-15.535,5.222-22.314q-2.037,11.319-4.074,22.64Q97.3,138.553,96.959,137.576Z" transform="translate(47.972 41.565)" fill="#4b3c4e"/>
    <path id="Path_17322" data-name="Path 17322" d="M125.439,130.931l1.091.169q.016,2.678.028,5.355-1.573,8.212-3.148,16.422c-.611-.278-1.223-.552-1.831-.829q1.352-7.353,2.7-14.7C124.838,135.237,124.032,132.885,125.439,130.931Z" transform="translate(66.609 53.426)" fill="#413547"/>
    <path id="Path_17323" data-name="Path 17323" d="M111.02,118.82c2.418.481,3.344-1.4,4.535-2.864,2.7-1.348,4.73-3.892,9.247-5.132-4.375,3.906-7.592,6.884-10.937,9.711-1.24,1.047-2.623.557-3.777-.471a2.4,2.4,0,0,1,1.081-.98Z" transform="translate(57.91 38.205)" fill="#493c4c"/>
    <path id="Path_17324" data-name="Path 17324" d="M140.04,125.823c.081-1.736,2.669-1.732,2.505-3.869-3.41-2.261-7.372.529-10.906-.875q0-.878-.005-1.757c3.955.32,8.036,1.82,11.624-1.258q.385-.058.775-.105.6.105.585.487c-.014.3-.07.448-.174.448C143.263,121.385,146.091,126.428,140.04,125.823Z" transform="translate(74.221 43.607)" fill="#283244"/>
    <path id="Path_17325" data-name="Path 17325" d="M116.918,115.65l-1.081.98c-4.417-.065-8.85-.329-13.348,1.876.443-2.43,2.389-1.56,2.941-2.716A46.883,46.883,0,0,1,116.918,115.65Z" transform="translate(52.159 41.639)" fill="#0f1b30"/>
    <path id="Path_17326" data-name="Path 17326" d="M96.959,127.962c.383.107.766.214,1.147.325q0,6.647,0,13.288-.567.145-1.131.3Q96.966,134.918,96.959,127.962Z" transform="translate(47.972 51.179)" fill="#1a2237"/>
    <path id="Path_17327" data-name="Path 17327" d="M218.365,113.351c.311-1.68.232-2.3.5-2.558,7.926-7.631,15.885-15.224,24.364-22.287C236.1,97.423,227.478,104.83,218.365,113.351Z" transform="translate(139.874 21.311)" fill="#54578d"/>
    <path id="Path_17328" data-name="Path 17328" d="M218.4,97.365a59,59,0,0,1,5.181-13.434l1.286.51q-2.506,6.815-5.009,13.631Z" transform="translate(139.904 17.848)" fill="#575c90"/>
    <path id="Path_17329" data-name="Path 17329" d="M244.169,94.853a14.47,14.47,0,0,1-8.948,3.816C238.127,95.64,241.139,95.185,244.169,94.853Z" transform="translate(152.633 26.116)" fill="#585d90"/>
    <path id="Path_17330" data-name="Path 17330" d="M184.17,113.866c.336.011.671.019,1.007.028,1.513,4.934.4,6.875-4.524,7.293-2.618.223-4.99.673-5.773,3.5-.734,2.658.671,4.255,3.136,5.218,1.625.636,2.18,2.166,2.416,3.8-1.667,3.358-3.639,6.076-7.966,3.691-.715-2.064-.842-4.487-3.793-4.965a1.58,1.58,0,0,1-1-2.765c1.885-2.3,2.284-4.849,2.36-7.724.054-2.115,2.321-2.857,3.858-3.957,1.471-1.051,2.757-2.307,2.567-4.262-.227-2.326-2.089-1.616-3.591-1.859-3.387-.55-2.314-3.185-1.479-4.805,2.147-4.171,2.46-7-3.161-8.376-2.391-.587-2.163-3.31-.524-4.672,3.537-2.938,3.3-5.77,1.341-9.581-1.782-3.472-.169-5.761,3.981-7.146,2.173.606,4.837.039,6.183,2.6-1.051,1.2-1.476,2.765-2.335,4.067-1.543,2.339-1.379,4.164,1.172,5.686,3.542,2.108,3.626,4.821,1.142,7.866a5.681,5.681,0,0,0-1.45,2.753c-.221,1.58.26,2.839,1.943,3.192,1.483.313,2.272-.662,2.7-1.92.624-1.836.283-3.851.977-5.677.611-1.611,1.706-2.734,3.518-2.616a2.494,2.494,0,0,1,2.4,3.345c-1.46,4.7,1.348,7.158,4.472,9.583a5.656,5.656,0,0,1,.557,2.172,7.07,7.07,0,0,1-1.284,3.336,2.054,2.054,0,0,1-2.126,1.139c-.991-.23-1.188-1.135-1.381-1.978-.4-1.741.541-4.97-3.061-3.479C183.648,108.516,182.005,110.68,184.17,113.866Z" transform="translate(100.573 12.82)" fill="#809866"/>
    <path id="Path_17331" data-name="Path 17331" d="M147.394,87.135l1.885-2.033c1.882-2.4,4.944-2.792,7.332-4.333l.322-.149q1.837-.466,3.67-.931c4.062.322,7.232-2.537,11.051-3.092,1.516,2.326,1.168,5.046,1.305,7.571.169,3.1-2.013,4.138-4.9,2.678a7.156,7.156,0,0,1-1.272-.9c-1.59-1.3-3.331-2.349-4.87-.16-1.319,1.876.206,3.178,1.432,4.436,4.394,4.5,4.37,5.167-.3,9.911a3.13,3.13,0,0,1-3.927-1.7,20.1,20.1,0,0,0-11.088-9.642A1.1,1.1,0,0,1,147.394,87.135Z" transform="translate(86.033 12.296)" fill="#839a69"/>
    <path id="Path_17332" data-name="Path 17332" d="M189.732,105.2c-4.368-1.555-7.652-3.653-5.234-9.175.527-1.205.694-3.052-1.421-3.154-1.692-.081-2.365,1.277-2.447,2.827-.076,1.4.03,2.806-.088,4.2-.149,1.787-.578,3.581-2.574,4.132a4.358,4.358,0,0,1-4.751-1.4c-1.481-1.736-1.3-3.542-.207-5.325a10.275,10.275,0,0,1,1.948-2.4c2.187-1.9,1.69-3.553-.274-5.183-4.772-3.96-4.723-5.533.332-10.744q.58.163.555.555c-.019.3-.077.448-.177.448-2.335,6.979.012,10.3,7.711,10.508,2.915.081,3.333,2.576,4.791,4.088C189.878,97.883,191.3,101.285,189.732,105.2Z" transform="translate(104.143 14.099)" fill="#a6bb85"/>
    <path id="Path_17333" data-name="Path 17333" d="M176.9,118.149c-1.4-.706-.931-2.829-2.925-3.344-3.414-.88-3.874-3.767-3.257-6.689.61-2.876,3.152-3.8,5.619-3.616,4.927.36,6.039-2.281,5.787-6.378,2.7.3,2.382,2.36,1.933,3.95a5.861,5.861,0,0,1-4.707,4.391c-1.36.251-2.9,0-4.1.553-1.576.727-3.1,2.052-2.193,4.136.94,2.149,2.563.339,3.72.508,2.9.423,5.9-5.8,8.537.072C184.955,117.388,182.432,119.31,176.9,118.149Z" transform="translate(103.628 28.591)" fill="#a6bb86"/>
    <path id="Path_17334" data-name="Path 17334" d="M187.746,83.333c-.125-.334-.251-.668-.376-1-1.3-2.488-3.774-1.783-5.856-2.14a13.458,13.458,0,0,0-6.536-1.852c-2.509.2-4.93-.777-7.441-.538a5.525,5.525,0,0,1-1.98.279c-3.208,2.281-6.413,4.575-10.712,3.159,3.712-1.75,7.785-2.527,11-5.6,2.829-2.7,6.494.576,10.076-.234,5.784-1.3,15.447,6.951,16.136,13.327C190.243,86.814,190.178,84.022,187.746,83.333Z" transform="translate(91.79 10.747)" fill="#252e41"/>
    <path id="Path_17335" data-name="Path 17335" d="M177.476,101.623c-3.078-.564-2.235-2.528-1.479-4.345,1.026-2.472,2.978-4.245,5.615-3.725,3.379.666,1.5,4.118,2.488,6.179,2.34.023,1.277-2.606,2.606-3.336,1.523.712.467,2.388,1.265,3.372-1.209,1.418-2.173,3.405-4.549,2.618-1.55-.515-1.657-1.978-1.822-3.419-.114-.989.854-2.748-1.17-2.771-1.335-.016-2.078,1.216-2.463,2.39A18.407,18.407,0,0,0,177.476,101.623Z" transform="translate(107.266 25.063)" fill="#aabf89"/>
    <path id="Path_17336" data-name="Path 17336" d="M179.635,112.781c4.4-.04,7.78-1.43,8.416-6.416,1.272-.771,2.555-1.5,4.131-.97-.664.543-1.583.949-1.948,1.646-4.113,7.838-11.081,10.238-19.318,10.452-.624.016-1.221,1.079-1.829,1.655a1.781,1.781,0,0,1-2.2,0c-.225-2.818,1.511-3.767,3.9-4.1a2.347,2.347,0,0,1,1.458.633C175.838,117.6,177.732,115.179,179.635,112.781Z" transform="translate(100.891 33.959)" fill="#273143"/>
    <path id="Path_17337" data-name="Path 17337" d="M183.885,104.011c-1.829-.6-.631-2.326-1.263-3.37q-.05-1.081-.1-2.159-.92-5.31-1.836-10.624c2.476.056,2.669,2.193,2.771,3.705C183.741,95.7,185.923,99.8,183.885,104.011Z" transform="translate(111.352 20.82)" fill="#323c4a"/>
    <path id="Path_17338" data-name="Path 17338" d="M99.184,182.118q-.556-3.629-1.116-7.26c.457-8.036,3.563-11.143,11.378-11.429,1.124-.042,2.472.492,3.164-.989a.651.651,0,0,1,.181-1.038,2.912,2.912,0,0,0,1.718-2.451c1.1-4.918,4.341-5.99,8.657-4.77,4.094,1.156,7.195,1.03,10.772-2.379,5.086-4.849,15.006-2.1,18.2,4.2,1.079,2.129,1.922,3.677,5.064,2.618,2.512-.847,5.5-.285,8.279-.348q.788,1.508,1.573,3.013c2.075,3.091,1.223,5.954-.669,8.736-8.832,1.4-16.516,5.392-23.691,10.53a1.394,1.394,0,0,1-.713-1.9c1.52-2.02,2.953-4.111,4.421-6.179-1.511,1.8-2.644,3.885-4.106,5.726-1.78,2.9-1.815,6.873-5.364,8.676-3.391-1.165-3.01-3.843-2.491-6.469,1.158-5.868,4.477-10.493,8.525-14.729,1.984-2.075,4.593-3.705,5.155-6.966-3.834,3.349-6.995,7.318-10.306,11.146-1.054,1.219-1.869,3.792-3.8,2.692s-.97-3.463-.221-5.243c1.274-3.031,2.739-5.99,3.423-10.022-2.9,1.414-3.257,3.654-3.964,5.679-.778,2.226-.624,4.962-3.287,6.2-2.664-.16-3.41-2.765-5.192-4.052-1.251-1.139-2.212-2.639-4.482-3.586,1.428,5.148,4.582,8.6,7.263,12.269,2.542,3.481,4.266,7.186,4.22,11.549a4.515,4.515,0,0,1-2.556,4.255c-1.546.757-2.21-.255-2.614-1.564a19.318,19.318,0,0,0-3.352-9.091c-.994-1.606-2.059-3.807-4.749-2.7,1.035,3.639,4.749,5.016,6.633,7.926a2.743,2.743,0,0,1,.5,2.788c-2.242,2.581-4.647,1.731-7.065.316-4.544-2.66-7.523-6.71-10.053-11.2a20.9,20.9,0,0,0-3.428-5.151c1.55,3.3,2.583,6.747,3.786,10.136,2.14,6.028,7.37,8.527,12.791,10.844,5.786,2.474,6.229,5.241,1.8,9.649-3.011-1.107-1.82-5.856-5.519-6.374a10.927,10.927,0,0,1-9.716-6.944c-.845-1.943-2.672-2.6-4.463-3.168C101.951,184.488,100.147,183.99,99.184,182.118Z" transform="translate(48.812 67.351)" fill="#c5d28a"/>
    <path id="Path_17339" data-name="Path 17339" d="M139.853,220.134a9.852,9.852,0,0,1-2.231-6.095,22.315,22.315,0,0,1,.889-9.159,233.374,233.374,0,0,0,5.292-28.01c.225-1.76,1.13-3.266,1.5-4.956a2.765,2.765,0,0,1,1.1-1.339l1.622-.2c4.027,2.432,2.669,6.127,2.163,9.561-.213,1.451-1.8,2.558-1.195,4.273l-1.76,4.47c.467,8.465-2.621,16.3-4.429,24.353C142.25,215.483,142.714,218.567,139.853,220.134Z" transform="translate(78.614 83.288)" fill="#d95f67"/>
    <path id="Path_17340" data-name="Path 17340" d="M144.429,186.346c-1.327-2.874.886-5.554.439-8.46-.288-1.876-.36-3.727-1.406-5.375a30.485,30.485,0,0,1,14.165-4.948c2.46,2.729,5.91,1.917,8.964,2.516C157.617,173.343,148.542,176.463,144.429,186.346Z" transform="translate(83.175 81.156)" fill="#d13e40"/>
    <path id="Path_17341" data-name="Path 17341" d="M137.657,209.923l-1.688.063-.153-1.476c1.947-9.841,3.916-19.676,5.817-29.524.327-1.692.362-3.438.531-5.16q1.536-1.067,3.069-2.136c1.848,4.122.007,8.14-.585,12.106-1.242,8.339-3.405,16.516-5.215,24.752A1.484,1.484,0,0,1,137.657,209.923Z" transform="translate(77.386 84.279)" fill="#d95e67"/>
    <path id="Path_17342" data-name="Path 17342" d="M131.6,192.656c2.056-5.035,2.281-10.846,6.362-15.022,1.762,4.006-.388,7.718-1.093,11.454-1.075,5.71-2.632,11.343-4.157,16.965-1.869-4.113-.471-8.52-1.139-12.742Z" transform="translate(74.172 88.779)" fill="#d56265"/>
    <path id="Path_17343" data-name="Path 17343" d="M136.864,210.555c3.447-8.85,4.746-18.216,6.529-27.46.683-3.544,1.572-7.1,1.047-10.774a7.381,7.381,0,0,1,.3-.926,1.167,1.167,0,0,1,1.659-.348,270.1,270.1,0,0,1-8.339,42.631Q137.461,212.119,136.864,210.555Z" transform="translate(78.179 83.646)" fill="#c34146"/>
    <path id="Path_17344" data-name="Path 17344" d="M110.55,175.337c3.11,1,3.1,4.252,4.626,6.4a3.013,3.013,0,0,1,1.135.82c1.55,3.159,4.582,4.284,7.559,5.469a4.307,4.307,0,0,0,3.779-.61c1.966-.745,2.934-2.672,4.545-3.837a1.445,1.445,0,0,1,1.244.355c-.151,3.477-2.507,5.1-5.332,6.316-2.848,1.223-5.708,2.419-8.562,3.628-.51-2.093,1.984-2.043,2.62-3.816-5.278-1.207-8.207-4.684-9.347-9.883-.476-2.168-2.24-3.463-4.067-4.57A1.332,1.332,0,0,1,110.55,175.337Z" transform="translate(56.897 86.863)" fill="#353e4d"/>
    <path id="Path_17345" data-name="Path 17345" d="M132.218,207.386c.237-7.863,3.626-15.071,4.753-22.763a38.1,38.1,0,0,0,.5-5.654c.562-1.124.843-2.435,2.089-3.1-.947,11.159-3.85,21.89-7.135,32.536A2.913,2.913,0,0,1,132.218,207.386Z" transform="translate(74.662 87.446)" fill="#c64146"/>
    <path id="Path_17346" data-name="Path 17346" d="M141.462,164.649c2.418-2.523,1.81-5.533,1.369-8.516,3.084,2.144,1.8,9.11-2.138,11.375a6.086,6.086,0,0,1-2.439.842c-4.637.371-5.385,3.356-5.389,7.272,0,3.122,1.36,6.685-1.992,9.124-.19-.191-.38-.381-.571-.573-.659-2.14.35-4.261.06-6.4a36.4,36.4,0,0,1,.32-6.589C132.267,165.7,137.615,166.417,141.462,164.649Z" transform="translate(73.039 72.503)" fill="#2f3848"/>
    <path id="Path_17347" data-name="Path 17347" d="M133.484,188.752c-.016.22-.025.439-.026.657-1.46,4.407-.706,9.442-4.38,14.683.936-4.663,1.855-7.952,2.2-11.3.332-3.25.072-6.561.894-10Q132.828,185.773,133.484,188.752Z" transform="translate(72.285 92.684)" fill="#2f3a47"/>
    <path id="Path_17348" data-name="Path 17348" d="M123.912,185.34l-1.218-.03a3.327,3.327,0,0,1-1.267-2.228c-.172-3.83-.571-7.754,3.8-9.832a2.1,2.1,0,0,1,1.611.511C123.067,176.916,126.071,181.781,123.912,185.34Z" transform="translate(66.423 85.453)" fill="#555e64"/>
    <path id="Path_17349" data-name="Path 17349" d="M116.093,202.39c-4.828-4.377-5.071-13.286-.425-15.577C112.061,192.109,114.58,197.235,116.093,202.39Z" transform="translate(59.603 95.727)" fill="#36404c"/>
    <path id="Path_17350" data-name="Path 17350" d="M143,174.691l-1.66.348c1.081-2.806.139-6.181,2.337-9,1.465,2.9-.8,5.3-.239,7.82A3.215,3.215,0,0,0,143,174.691Z" transform="translate(81.57 80.003)" fill="#454b51"/>
    <path id="Path_17351" data-name="Path 17351" d="M125.2,175.052l-1.706-.067a2.637,2.637,0,0,1,.5-1.636c2.087-2.126,4.788-1.741,7.381-1.813,1.451.053,2.913.076,4.1,1.116a.91.91,0,0,0,.378.434C132.658,175.674,128.417,172.583,125.2,175.052Z" transform="translate(68.059 84.163)" fill="#232c40"/>
    <path id="Path_17352" data-name="Path 17352" d="M167.521,86.219c5.828,1.908,10.422,5.236,12.977,11.032a2.85,2.85,0,0,0,2.593,1.446c4.146.875,4.442,4.779,6.042,7.664a4.5,4.5,0,0,1-.422,3.788c-.645.5-1.451.52-1.775-.162-2.258-4.768-6.021-8.376-9.282-12.385a20.4,20.4,0,0,0-10.92-7.488c-5.968-1.783-11.831-1.316-17.644-2.17-3.217-.473-6.917,1.061-10.461.128l-4.057,3.094c-2.772.882-4.029,4.257-7.248,4.408-1.386,2.618-5.408,2.064-6.322,5.252-.58-2.349-.578-2.978.966-3.753,4.993-2.5,8.209-7.666,13.8-9.207,5.371-1.481,10.333-5.5,16.5-2.2,1.483.8,3.758.279,5.643.1.963-.091,2.5-.592,2.671-1.212.367-1.341-.773-2.172-2.128-2.36-2.655-.371-1.8-3.031-2.918-4.392,3.047.084,4.2,3.05,5.817,4.681A14.949,14.949,0,0,0,167.521,86.219Z" transform="translate(65.905 13.213)" fill="#242e40"/>
    <path id="Path_17353" data-name="Path 17353" d="M131.073,73.146c2.808-2.887,5.176-1.181,6.875,1.11,1.834,2.474,3.354,5.071,6.619,5.826-2.857.912-4.865.248-6.183-2.711C137.033,74.336,134.754,72.4,131.073,73.146Z" transform="translate(73.796 8.533)" fill="#1c273b"/>
    <path id="Path_17354" data-name="Path 17354" d="M109.268,157.944c-.06.344-.119.689-.181,1.037-3-.251-3.823-2.994-6.366-5.086C106.429,154.047,107.067,157.169,109.268,157.944Z" transform="translate(52.335 70.808)" fill="#282130"/>
    <path id="Path_17355" data-name="Path 17355" d="M118.189,180.721l-1.8.269c-2.788.474-5.361-.113-6.734-2.665-2.061-3.828-4.744-6.627-9.1-7.683a2.1,2.1,0,0,1-1.815-2.651c5.141,2.117,10.029,4.442,12.541,9.987C112.578,180.844,116.308,178.686,118.189,180.721Z" transform="translate(49.257 81.479)" fill="#323b4b"/>
    <path id="Path_17356" data-name="Path 17356" d="M107.982,194.163c-1.838-5.267-6.009-7.85-11.014-9.5C103.537,184.684,106.974,187.593,107.982,194.163Z" transform="translate(47.979 94.098)" fill="#333e4d"/>
    <path id="Path_17357" data-name="Path 17357" d="M103.543,184.68c-4.709-2.451-6.952-6.847-8.831-11.563,3.106,3.681,5.633,7.862,9.419,10.923C104.226,184.52,104.029,184.734,103.543,184.68Z" transform="translate(46.271 85.36)" fill="#323c4c"/>
    <path id="Path_17358" data-name="Path 17358" d="M100.326,179.334l10.345,5.7c-4.322-.429-7.762-2.486-10.932-5.065Q100.032,179.652,100.326,179.334Z" transform="translate(50.076 90.066)" fill="#333d4c"/>
    <path id="Path_17359" data-name="Path 17359" d="M88.074,137.877c-.374-6.311.966-12.394,2.071-18.508l1.316.127-2.377,19.518C88.462,138.889,88.4,138.264,88.074,137.877Z" transform="translate(41.198 44.674)" fill="#4e4252"/>
    <path id="Path_17360" data-name="Path 17360" d="M88.046,129.9q.506.567,1.01,1.135l-.063,13.32a8.088,8.088,0,0,1-.945.053Q88.048,137.158,88.046,129.9Z" transform="translate(41.225 52.648)" fill="#172136"/>
    <path id="Path_17361" data-name="Path 17361" d="M155.732,78.972c-1.7,2.7-4.925,2.827-7.332,4.333C149.456,79.513,152.951,79.845,155.732,78.972Z" transform="translate(86.912 14.094)" fill="#1d273b"/>
    <path id="Path_17362" data-name="Path 17362" d="M175.285,117.938c-1.323-1.936-4.25-.074-5.45-2.305,2.217.028,4.707-1.418,6.476,1.081C177.362,118.2,175.522,117.435,175.285,117.938Z" transform="translate(103.138 41.549)" fill="#101c32"/>
    <path id="Path_17363" data-name="Path 17363" d="M109.907,109.034c-.374,1.717-1.989,1.78-3.189,2.3-.717.311-1.344-.148-1.365-1.031-.039-1.662,1.492-1.8,2.483-2.31C108.709,107.54,109.491,108.108,109.907,109.034Z" transform="translate(54.326 35.941)" fill="#658245"/>
    <path id="Path_17364" data-name="Path 17364" d="M132.813,89.465c2.976-1.59,7.211,1.188,9.512-2.743,4.874,5.387,12.518-1.392,17.427,3.955.285.309,1.061.59,1.337.427,4.013-2.386,6.107.453,8.237,3.011,4.668,5.612,10.189,10.591,13.1,17.517a8.591,8.591,0,0,0,3.156-5.25c.58-3.2,2.664-4.637,5.715-4.777-.775-.815-2.11-.17-3.21-.613-2.421-.975-4.336-2.324-4.529-5.171a5.213,5.213,0,0,1,3.814-5.606c2.544-.9,4.419-1.318,2.261-4.848-1.887-3.091.444-6.378,5.478-9.207,2.857-.546,5.232-.044,6.467,2.955-3.867,1.305-4.153,3.965-2.147,6.875,2.592,3.758,2.382,6.7-1.606,9.163a2.506,2.506,0,0,0-1.467,2.556c.232,1.363,1.444,1.156,2.439,1.416,4.942,1.295,5.571,2.737,3.377,7.262a29.151,29.151,0,0,0-1.335,3.379,21.568,21.568,0,0,0-.488,2.5c2.458-.949,4.944-2.932,6.271.506,1.17,3.033-.011,5.538-2.683,7.06-2.621,1.5-5.311,2.347-3.741,6.506.924,2.451-2.328,3.579-3.37,5.557,3.108.763,6.791,1.095,4.579,5.928l-1.077-.139c-1.168-.362-2.221-.994-3.349-1.444-3.716-1.476-4.876-3.785-2.379-7.256,1.8-2.5,1.646-4.705-1.39-7.606,2.388,9.63-5.283,9.381-11.083,12.492a39.7,39.7,0,0,0,4.039-1.8c2.122-.975,4.115-.838,5.654,1.052,1.688,2.073,1.293,4.222-.193,6.221a9.593,9.593,0,0,1-3.871,3.407,2.271,2.271,0,0,1-2.56-1.051c-.432-1.76.9-2.832,2.066-4.93-3.192,3.045-7.29,1.353-9.887,4.032-2.876,2.177-3.609,6.387-7.342,7.745-.313-.021-.625-.033-.94-.042-2-.613-3.229,3.535-5.55.889,1.249-1.269,3.9-1.845,2.871-4.327-1.105-2.66-1.855-5.765-5.088-6.9-.645-.225-1.418-.1-2.056-.336-2.674-1-5.064-2.432-6.041-5.315-.33-.977-.271-2.391.993-2.6,3.224-.539,6.063-4.659,9.751-1.149.724.689,1.453,1.37,2.337,2.205-2.071,1.293-6.067.132-5.1,3.922.859,3.377,3.426,1.908,5.515,1.023h0c-.1,4.6,3.384,2.846,5.64,3.122,3.083.376,3.92-1.929,4.269-4.219.376-2.46.13-5.462-2.708-5.961-3.352-.59-4.308-2.121-3.275-6.014-1.376,1.061-2.286,1.409-2.34,1.859-.59,4.937-3.482,2.093-5.192,1.325-2.648-1.189-2.613-2.251-.251-4.714,2.144-2.237.388-5.74-2.509-7.4-2.089-1.191-3.041-2.152-2.233-4.826.882-2.913-.706-5.067-3.763-5.821-1.85-.457-3.844-.527-5.561-1.267-1.85-.8-4.264-2.112-3.582-4.431.771-2.625,2.892-.884,4.313-.2,1.653.794,2.662.074,3.618-1.063,1.975-2.349-.193-4.108-1.049-6.564-.358,4.415-2,5.522-6.225,4.512-2.9-.7-4.24,3.946-2,6.678,2.377,2.9,5.816,3.705,9.226,4.472,1.685.378,3.349.963,2.764,2.946-.6,2.047-2.651,1.413-4.027.993a17.769,17.769,0,0,1-4.078-2.281c-1.882-1.2-3.66-2.1-5.48.153-1.049,1.3-2.272,1.432-3.567.148-1.167-1.158-1.5-2.24-.336-3.625a5.032,5.032,0,0,0,.543-5.447c-1.314-3.217-3.279-4.874-6.039-1.425-1.3,1.629-2.7,2.818-4.064.928-1.66-2.3,1.393-2.054,2.3-2.931C132.722,93.327,134.9,92.107,132.813,89.465Z" transform="translate(71.723 11.82)" fill="#a8be84"/>
    <path id="Path_17365" data-name="Path 17365" d="M141.5,130.265a1.713,1.713,0,0,1-.411-.935c2.463-2.414.488-3.44-1.349-4.705-1.369-.94-3.5-2.2-2.086-4.043,1.2-1.558,2.277.618,3.254,1.348a2.87,2.87,0,0,0,4.189-.267,3.509,3.509,0,0,0,.91-4.215c-1.307-3.727-4.05-5.981-7.228-7.924-1.446-.884-3.725-1.616-3.182-3.584.538-1.952,2.982.4,3.488-.276,2.818-3.727,7.295.406,10.231-2.4a1.4,1.4,0,0,1,2.189.618,1.894,1.894,0,0,1-1.052,2.627c-2.8.763-5.714,1.283-4.849,5.243.9,4.125,3.6,6.645,7.58,7.854.5.151,1.065.072,1.546.246,2.177.78,4.03,2.332,3.124,4.628-1.149,2.91-3.433,1.114-5.22.318-.943-.42-1.7-1.355-2.658-1.62-1.657-.459-3.394-.813-4.624,1.14-1.126,1.79-.223,2.885.938,4.083.842.866,1.546,1.866,2.31,2.8C145.924,133.262,143.666,132.131,141.5,130.265Z" transform="translate(77.161 32.235)" fill="#a5bd7e"/>
    <path id="Path_17366" data-name="Path 17366" d="M165.328,123.08c1-1.193,1.992-2.4,3.011-3.577,1.446-1.676,1.775-3.488.158-5.129-1.544-1.567-3.407-1.571-5.173-.206-.828.638-1.53,1.448-2.395,2.019-.952.629-2.135.752-2.651-.457-.483-1.133-.525-2.509,1.088-2.961,1.664-.466,3.417-.634,5.053-1.17,6.351-2.08,7.247-4.652,3.3-10.35,2.493.3,5.1-.246,6.221,2.235,1.026,2.275,2.465,4.721-.7,7.1-2.577,1.938-2.339,4.391,1.311,5.037,1.922.341,2.505,1.632,3.333,2.918-1.678.8-3.386,1.562-4.125,3.472q-1.61,1.081-3.222,2.158c-.336-.016-.671-.035-1.007-.06C167.935,124.574,166.124,125.9,165.328,123.08Z" transform="translate(94.167 30.958)" fill="#819867"/>
    <path id="Path_17367" data-name="Path 17367" d="M151.5,119.188c1.954.255,3.4-.376,4.125-2.324.195-.522.388-1.578,1.175-.576.358.455.183,1.33.249,2.013-3.767,3.1-7.829,5-12.81,3.119C146.067,118.731,149.625,121.686,151.5,119.188Z" transform="translate(83.766 42.026)" fill="#283143"/>
    <path id="Path_17368" data-name="Path 17368" d="M156.792,131.4c-2.077-3.79-2.449-6.125-1.852-11.178,1.9,1.5,1.376,3.472,1.392,5.134C156.349,127.219,157.734,128.9,156.792,131.4Z" transform="translate(91.667 45.321)" fill="#2d3547"/>
    <path id="Path_17369" data-name="Path 17369" d="M156.93,114.765l-.19-1.847c2.562-.525,5.232-2.026,7.416.829a2.264,2.264,0,0,0,2.114,1.154c1.117,1.5,2.8.722,4.208,1.033-1.009,2.368-3.275,1.541-4.282.833C163.288,114.725,160.026,115.322,156.93,114.765Z" transform="translate(93.225 39.136)" fill="#212a3e"/>
    <path id="Path_17370" data-name="Path 17370" d="M138.813,212.37c3.646-10.206,5.73-20.778,7.376-31.452q.522-.14,1.044-.283c-.835,11.591-3.867,22.707-7.283,33.743Z" transform="translate(79.655 91.052)" fill="#c54045"/>
    <path id="Path_17371" data-name="Path 17371" d="M127.6,89.88c2.953-.587,3.317-5.431,7.249-4.408-1.46,2.073-5.081,3.864-1.891,6.822,2.509,2.326,5.6,3.2,7.711-.963a1.113,1.113,0,0,1,1.736-.511,2.5,2.5,0,0,1,.719,3.314c-2.613,3.663-2.312,6.752,1.246,9.514a1.324,1.324,0,0,1,.19,2.2c-1.017,1.058-2.136.947-3.314.216-2.425-1.507-3.115-4.094-4.1-6.5-1.072-2.634-2.753-4.684-5.837-4.243-2.941.42-3.839,2.681-3.718,5.433.086,1.97-.861,2.976-2.832,2.806-1.465-.127-3.329.72-4.2-1.174-.778-1.7.318-2.917,1.36-4.183,1.847-2.244,4.457-3.307,6.8-4.8.842-.538,1.882-1.311,1.551-2.493C129.9,89.6,128.556,90.072,127.6,89.88Z" transform="translate(65.637 18.908)" fill="#a4bd7d"/>
    <path id="Path_17372" data-name="Path 17372" d="M150.188,112.446c-.105-1.56,1.418-2.426,1.7-3.7.525-2.412,2-1.736,3.526-1.548,2.268.278,2.084,1.9,2.131,3.489.056,1.987-.9,2.783-2.848,2.818a8.691,8.691,0,0,1-4.5-1.063Z" transform="translate(88.261 35.288)" fill="#a8be84"/>
    <path id="Path_17373" data-name="Path 17373" d="M162.9,107.5c-2.384-2.026-2.662-5.557-5.294-7.407,2.124-3.252,4.431-6.293-1.012-8.973-2.356-1.16-3.2-3.783-1.026-6.2,2.071-2.3,4.183-1.957,6.337.083,1.044.987,1.876,2.952,3.8,1.945,2.066-1.081.406-2.753.351-4.176-.07-1.92-.072-3.842-.1-5.765l1.144-1.037c2.73,2.516,3.751,10.53,1.569,12.866-2.994,3.208-5.963.933-9.05-.281,2.91,2.469,5.032,5.018,3.888,9.082-.423,1.507,1.369,2.328,1.783,3.6C166.163,103.9,167.245,106.774,162.9,107.5Z" transform="translate(91.388 11.821)" fill="#a9be88"/>
    <path id="Path_17374" data-name="Path 17374" d="M161.821,107.8a8.52,8.52,0,0,0,1.764-1.827c1.9-3.793-3.828-5.536-3.069-7.228,1.671-3.725,1.356-5.8-2.015-7.82-1.4-.836-3.684-1.876-2.36-3.911,1.588-2.437,2.845.074,4.173.915,1.72,1.089,3.387,2.853,5.654,1.335,2.24-1.5,2.563-3.6,1.42-5.991-1.061-2.212.643-4.969-1.365-7,2.83-2.017,5.543,1.095,8.347.192a42.781,42.781,0,0,0-3.431,3.927c-1.518,2.2-3.066,4.447.427,6.522,2.936,1.741,1.369,2.969-.787,3.779-.961.36-2.079.3-3.041.662-2.019.75-3.741,1.711-3.721,4.392.019,2.665,1.724,3.728,3.758,4.378,2.375.757,5.16.622,6.914,4.12-5.369-2.082-8.759-1.609-8.641,4.682.047,2.446-2.212,2.769-4.166,3.008Q161.752,109.862,161.821,107.8Z" transform="translate(92.47 11.522)" fill="#809866"/>
    <path id="Path_17375" data-name="Path 17375" d="M141.283,188.282c-.214.337-.43.673-.647,1.01-3.273,2.521-1.941,6.285-2.569,9.519-1.3,2.209-2.056,4.735-3.908,6.615-1.428.592-2.744,2.142-4.438.532-1.787-1.766-.325-4.055-1.012-6.3-2.365-.641-4.805,2.553-7.2.235q-.174-.575-.353-1.151c3.421-5.6,3.242-5.93-3.268-8.571-6.922-2.806-12.257-7.009-13.574-15.061-.374-2.279-2.064-4.32-2.989-6.538-.437-1.051-1.054-2.486.678-3.05,1.23-.4,1.862.638,2.379,1.553,1.79,3.177,3.474,6.415,5.343,9.542,3.6,6.019,9.11,8.968,13.668,7.448,1.188-.636,1.511.422,2.054,1.051,2.767,1.975,3.113-.409,3.113-2.047a16.5,16.5,0,0,0-3.115-9.7c-2.707-3.816-5.417-7.638-7.9-11.6-.824-1.312-2.609-3.242-.675-4.586,1.818-1.262,3,.991,4.252,2.08.785.683,1.506,1.442,2.254,2.168.6,2.056,2.279,3.452,3.245,5.311.687,1.323.4-.755.98-.552,1.6-1.775,1.653-4.094,2.284-6.228s1.105-4.421,3.006-5.975c.963-.787,1.912-1.831,3.208-1.128,1.483.8.708,2.071.278,3.2-1.054,2.762-2.077,5.536-3.143,8.295-.613,1.587-1.894,3.006-1.044,5.315,3.934-4.742,7.752-9.3,11.51-13.906,1.116-1.367,2.07-3.279,4.048-1.33,1.708,1.683.492,3.189-.8,4.491-3.811,3.828-8.145,7.258-10.633,12.165-2.057,4.059-5.176,8.168-1.664,13.016.812,2.836-1.536,5.014-1.523,7.119,1.9-4.341,2.365-10,7.125-13.458C146.734,171.4,154.1,167,163.583,167.3c-.859,2.163-2.9,2.159-4.691,2.418-2.463.353-3.776,2.073-5.1,3.857C148.858,177.822,143.007,181.3,141.283,188.282Z" transform="translate(50.917 69.856)" fill="#f2efc2"/>
    <path id="Path_17376" data-name="Path 17376" d="M119.2,177.339l-2.054-1.051-1.026-1.537c-.986-3.758-5.619-4.853-6.4-8.762-.206-.828-.84-1.9-.532-2.433.822-1.416,1.657-.121,2.479.334C116.964,166.818,118.462,171.862,119.2,177.339Z" transform="translate(57.165 77.635)" fill="#ebeabe"/>
    <path id="Path_17377" data-name="Path 17377" d="M126.817,168.006c-3.874,4.949-5.413,11.029-8.149,18.027-.522-5.2,1.771-8.263,2.548-11.687q2.583-4.391,5.167-8.783.841-.148.757.7Z" transform="translate(64.347 79.625)" fill="#3e4453"/>
    <path id="Path_17378" data-name="Path 17378" d="M123.026,169.747a32.036,32.036,0,0,1,8.177-9.734c-2.258,4.814-5.183,7.392-7.421,10.435A8.924,8.924,0,0,0,123.026,169.747Z" transform="translate(67.704 75.44)" fill="#394250"/>
    <path id="Path_17379" data-name="Path 17379" d="M110.2,164.692c2.187,2.881,5.975,4.593,6.4,8.762-2.509-2.509-5.141-4.909-7.485-7.564C107.413,163.967,109.547,164.852,110.2,164.692Z" transform="translate(56.685 78.931)" fill="#343e4e"/>
    <path id="Path_17380" data-name="Path 17380" d="M117.895,162.407l.385,2.534c-2.013-2.131-4.389-4.031-4.61-7.293C115.9,158.5,116.278,161,117.895,162.407Z" transform="translate(60.621 73.649)" fill="#3b4250"/>
    <path id="Path_17381" data-name="Path 17381" d="M112.608,180.8c1.558-.023,3.1.04,4.44-1.072,1.095-.9,2.077-2.836,3.867-1.286,1.363,1.179.924,2.78.483,4.354a29.389,29.389,0,0,0-.575,4.069C117.587,185.516,113.509,185.31,112.608,180.8Z" transform="translate(59.818 88.95)" fill="#c3d08a"/>
    <path id="Path_17382" data-name="Path 17382" d="M119.809,185.532c.6-2.618,1.047-5.331,3.908-6.615l.132,2.1A5.715,5.715,0,0,1,119.809,185.532Z" transform="translate(65.269 89.75)" fill="#c1ce8a"/>
    <path id="Path_17383" data-name="Path 17383" d="M124.146,179.262c-1.936-3.537.84-5.355,2.736-7.493,2.746-3.1,5.29-6.476,9.778-7.218q-.058,3.684-.116,7.371c-.965,2.623-2.925,4.428-5.025,6.118C128.978,177.944,126.444,177.893,124.146,179.262Z" transform="translate(68.055 78.876)" fill="#c4d18a"/>
    <path id="Path_17384" data-name="Path 17384" d="M128.059,174.864c.515-2.992,2.934-4.419,5.025-6.118.594,2.173-.506,4.048-1.067,6.018Z" transform="translate(71.514 82.051)" fill="#e9e6be"/>
    <path id="Path_17385" data-name="Path 17385" d="M157.624,113.692c.928-6.265,5.556-10.025,8.679-14.65,1.1-1.627,3.373-1.811,5.332-1.327,1.58.39,3.219,1.377,2.966,3.129-.334,2.314-2.089,1.539-3.676,1.11-2.147-.583-4.247-.315-5.578,1.755-1.439,2.233.715,3.01,1.857,4.169,1.84,1.866.22,2.811-1.112,3.517A22.812,22.812,0,0,1,157.624,113.692Z" transform="translate(93.894 28.105)" fill="#809866"/>
    <path id="Path_17386" data-name="Path 17386" d="M172.021,102.292c-2.541-.29-4.259-1.715-6.46-1.479-3.6.387-2.307-2.913-2.583-4.349-.455-2.381,1.759-2.01,3.242-1.613,2.556.687,4.71.58,4.566-2.715-.091-2.121,1.03-1.894,2.2-1.63,1.572.353,2.435,1.337,1.659,3.043C173.369,96.347,171.526,98.931,172.021,102.292Z" transform="translate(97.901 22.7)" fill="#809866"/>
    <path id="Path_17387" data-name="Path 17387" d="M171.363,82.168c2.286,1.866,3.017,3.727,1.028,5.468a24.088,24.088,0,0,0-4.206,4.508c-1.189,1.738-3.008,1.413-4.684.6-.917-.443-2.107-.9-1.782-2.2.452-1.815,2.129-2.209,3.656-2.356C168.884,87.85,170.978,86.088,171.363,82.168Z" transform="translate(96.952 16.514)" fill="#809866"/>
    <path id="Path_17388" data-name="Path 17388" d="M164.557,115.676c-2.307-1.748-5.137,1.179-7.416-.829a.953.953,0,0,1-.931-.279c.875-1.249,1.522-2.734,3.588-2.23a6.425,6.425,0,0,0,3.024-.058c1.857-.485,3.456-4.217,5.007-2.161C169.561,112.416,165.16,113.421,164.557,115.676Z" transform="translate(92.824 37.208)" fill="#809767"/>
  </g>
</svg>
