<svg xmlns="http://www.w3.org/2000/svg" width="86.463" height="121.065" viewBox="0 0 86.463 121.065">
  <g id="Group_96" data-name="Group 96" transform="translate(-358.246 -214.647)">
    <path id="Path_25174" data-name="Path 25174" d="M423.521,261.149c6.021,7.832,5.9,13.935-2.473,21.683-15.483,14.334-29.635,29.988-45.14,44.272a41.579,41.579,0,0,1-10.617,7.574c-4.9,2.25-7.144.858-7.042-4.468.241-12.48,3.253-24.485,7.253-36.178,3.671-10.729,8-21.241,12.255-31.76,2.349-5.8,6.56-10.252,11.524-14.005,3.692-2.791,7.737-2.214,11.829-1.337.506,5.005,3.738,7.777,7.948,9.791a21.011,21.011,0,0,1,3.357,2.339c2.479,1.852,4.871,4.006,8.307,1.748A2.389,2.389,0,0,1,423.521,261.149Z" fill="#ee9c6e"/>
    <path id="Path_25175" data-name="Path 25175" d="M423.521,261.149c-1.442.467-3.066-.024-4.332,1.542-.977,1.21-2.528.355-3.71-.434-3.917-2.614-7.848-5.207-11.745-7.851-2.7-1.829-3.411-4.4-2.624-7.478,1.54-1.047.524-3.479,1.145-3.91,2.834-1.967,1.556-3.838.479-5.886a1.155,1.155,0,0,1-.09-.707c4.225-1.7,1.037-4.169.686-6.342-.09-.555.231-1.138.712-1.142,2.476-.018,1.4-1.51,1.3-2.746-.108-1.352-2.029-3.805,1.7-3.388.061.007.338-1.952.522-2.993.208-1.171-.167-2.821,1.26-3.2,1.312-.35,1.174,1.583,2.173,2.389.263-.647.473-1.073.612-1.521.376-1.21.849-2.851,2.068-2.833,1.77.026,1.169,1.8,1.237,2.973.021.37,0,.977.2,1.068,3.513,1.66.67,4.234,1.087,5.969.74,3.076-.828,4.994-1.221,7.444-.441,2.75,2.191,2.12,3.732,2.592.9-1.512.21-3.181.469-4.761.254-1.549-.18-3.335,2.675-2.607,1.363.348.856-1.765,1.354-2.679.65-1.194-.349-4.766,3.1-2.205.619.46.923-.544,1.167-1.031.5-1,.84-2.091,1.4-3.055.6-1.029.93-2.584,2.483-2.459,1.478.12.849,1.9,1.641,2.662.787.162.953-.574,1.358-.963.982-.943,2.051-2.375,3.452-1.588,1.559.876.334,2.446.123,3.71-.218,1.311-.969,2.209.862,3.6,1.8,1.373-.715,2.876-1.966,3.92-1.068.891-3.052,1.2-1.113,3.232.612.643-.279,1.547-.881,2.226-.55.621-2.271,1.046-1.041,2.2,1.505,1.412,1.416-1.048,2.354-1.308.4-.11.62-.759.989-1.088a10.32,10.32,0,0,1,1.219-.823c1.651,2.549,4.016,1.131,6.132,1.119.069,0,.2.189.2.291.007.354.1.93-.069,1.031-2.962,1.749.935,6.144-2.889,7.485-1.282.449-2.715.6-1.921,2.6.1.249-.463,1.089-.777,1.124-2.9.318-4.033,2.705-5.684,4.562-1.191,1.34-4.1,1.551-2.619,4.452a.363.363,0,0,1-.129.331C427.5,256.033,427.158,260.394,423.521,261.149Z" fill="#97c5ae"/>
    <path id="Path_25176" data-name="Path 25176" d="M405.139,293.009c-3.607-.6-7.14-1.342-8.952-4.948C399.16,289.75,402.18,291.334,405.139,293.009Z" fill="#6a5d88"/>
    <path id="Path_25177" data-name="Path 25177" d="M420.93,279.91c-3.5-.46-7.023-.869-8.879-4.554C414.606,277.668,418.307,277.729,420.93,279.91Z" fill="#675b88"/>
    <path id="Path_25178" data-name="Path 25178" d="M369.964,287.831a19.8,19.8,0,0,0,8.677,6.309A8.082,8.082,0,0,1,369.964,287.831Z" fill="#605889"/>
    <path id="Path_25179" data-name="Path 25179" d="M390.124,267.507c-3.441-1.654-7.358-2.8-8.6-7.036C384.058,263.23,387.391,264.995,390.124,267.507Z" fill="#5b558a"/>
    <path id="Path_25180" data-name="Path 25180" d="M388.875,311.23c-3.977-.714-6.3-2.111-8.46-5.32Z" fill="#605889"/>
    <path id="Path_25181" data-name="Path 25181" d="M410.907,254.867l13.1-20.645,1.139.715-13.071,20.649Z" fill="#585c90"/>
    <path id="Path_25182" data-name="Path 25182" d="M408.736,242.8a20.7,20.7,0,0,1,.959-10.188A21.4,21.4,0,0,1,408.736,242.8Z" fill="#585e90"/>
    <path id="Path_25183" data-name="Path 25183" d="M430.924,243.73c1.009-2.266,2.877-3.386,5.66-4.72C435.1,241.967,432.981,242.837,430.924,243.73Z" fill="#5b6392"/>
    <path id="Path_25184" data-name="Path 25184" d="M415.076,235.73c.131,1.269.779,2.523-.074,3.659a1.516,1.516,0,0,1-1.278-.313C413.028,237.55,414.527,236.843,415.076,235.73Z" fill="#fff"/>
  </g>
</svg>
