<svg xmlns="http://www.w3.org/2000/svg" width="398.28" height="274.061" viewBox="0 0 398.28 274.061">
  <g id="Group_68" data-name="Group 68" transform="translate(-44.952 -60.353)">
    <path id="Path_17389" data-name="Path 17389" d="M274.909,121.793c4.556,9.56,2.393,17.762-5.039,24.895-.082.229-.165.457-.245.688-3.487,3.428-7.809,5.588-12.019,7.919-2.047-.946-2.19,1.37-3.337,1.974-23.732,10.992-44.261,27.579-67.849,38.821a68.4,68.4,0,0,1-11.991,4.835c-3.827,1-7.964,2.439-11.209-1.026-3.03-3.231-1.679-7.116-.627-10.8,1.771-5.661,4.246-11.046,6.5-16.517a352.361,352.361,0,0,1,20.577-35.862c4.818-6.228,10.05-12.158,13.8-19.159a1.381,1.381,0,0,1,1.643-.855c3.085-3.643,6.146-7.309,9.264-10.924A52.441,52.441,0,0,1,227.5,95.121c7.25-4.324,14.458-5,21.791-.318-.819,12.043,10.027,16.721,15.648,24.69.864,1.224,2.3,1.257,3.789.845A5.806,5.806,0,0,1,274.909,121.793Z" transform="translate(85.925 23.044)" fill="#ee9c6e"/>
    <path id="Path_17390" data-name="Path 17390" d="M260.489,136.12c.544,1.623,1.6,3.049,1.571,4.893-.268,19.894.528,39.905-5.24,59.28-3.033,10.185-7.161,19.83-15.843,26.805a36.913,36.913,0,0,1-41.337,3.508c-.9-.509-1.809-1.008-2.911-1.623-.419,1.74-.806,3.344-1.192,4.95-1.895-1.611-1.258-3.742-1.2-5.764.207-6.838-1-13.319-4.9-19.1-1.279-1.684-2.685-3.294-3.29-5.39.285-9.773,3.85-18.351,12.424-23.077,16-8.819,25.924-21.839,30.662-39.222.57-2.1.914-4.472,3.1-5.771a1.381,1.381,0,0,1,.5-.1c3.035.558,6.765.474,8.762,2.492,2.508,2.534-2.546,5.239-1.326,8.63,2.776.207,4.486-1.649,5.856-3.513,2.246-3.054,4.5-3.928,7.773-1.495,1.145.853,2.6,1.785,4.111,1.2C260.039,140.889,254.42,136.466,260.489,136.12Z" transform="translate(104.215 55.471)" fill="#483252"/>
    <path id="Path_17391" data-name="Path 17391" d="M219.68,179.973l3.217,4.455c8.263,18.6,6.893,35.84-7.258,51.269-11.428,10.535-24.681,16.166-40.444,15.069-1.639-2.442-.315-5.06-.37-7.58-.141-6.4.132-12.813-.66-18.146-.57,6.74-3.356,14.033-5.185,21.547-.358,1.469-1.09,3.57-2.811,3.158-1.828-.438-1.288-2.6-.961-4.078,1.691-7.613,3.749-15.137,5.574-22.719.641-2.666,1.21-5.334-1.045-8.68-1.019,4.719-1.879,8.581-2.984,12.375-.5,1.714-.391,3.937-2.774,4.563-2.174-1.792-1.317-4.059-.879-6.193.69-3.365,1.747-6.652,2.3-10.045.294-1.8,1.027-3.707-.873-5.576-1.592,1.389-1.281,3.4-1.794,5.056-2.378,7.679-2.708,15.907-6.233,23.287-1.385.633-2.623.66-3.487-.843,1.962-8.383,4.516-16.63,6.167-25.091.438-2.24,1.547-4.736-1.131-6.8-1.914,1.462-1.521,3.727-2.028,5.583-2.173,7.947-2.927,16.288-6.671,23.8a1.434,1.434,0,0,1-1.484-.061c-1.519-2.134-.572-4.326-.063-6.462,1.679-7.041,3.631-14.02,4.91-21.153.391-2.185,1.071-4.38-.153-7.26-2,8.934-4.111,17.242-6.2,25.557-.539,2.147-.707,4.458-2.291,6.238-.994.276-1.524-.29-1.945-1.064-.8-2.087-.172-4.111.346-6.115,1.561-6.036,2.805-12.149,4.283-18.2,1.528-6.257,2.7-12.488,1.3-18.923,2.194-5.76,7.344-8.244,12.457-10.124a98.956,98.956,0,0,0,13.312-5.569c9.631,5.216,20.974,7.031,29.334,14.673-2.7-6.186-5.7-8.79-13.175-11.729-2.313-.909-6.464-1.165-6.13-3.681.426-3.226,4.648-2.4,7.352-3.01a6.138,6.138,0,0,1,1.034-.059c7.284-.765,13.874,1.225,20.068,4.934C215.462,174.26,218.126,176.561,219.68,179.973Z" transform="translate(71.443 78.919)" fill="#d23c3f"/>
    <path id="Path_17392" data-name="Path 17392" d="M123.2,114.954a19.419,19.419,0,0,0,9.273-4.592c.7-1.432,2.126-1.778,3.44-2.3q1-.388,2.025-.687a9.421,9.421,0,0,1,2.873-.323,8.785,8.785,0,0,1,2.164.375,17.861,17.861,0,0,1,8.715,5.213c.89.892,1.785,1.776,2.6,2.744,2.729,3.742,3.419,8.2,4.392,12.558a12.706,12.706,0,0,1,.129,1.646c.4,3.415-.721,6.686-.925,10.045-1.377,6.577-1.364,13.493-4.742,19.58-.351.113-.766.16-.928-.076-.612-.9-6.876-5.463-7.863-5.656a6.718,6.718,0,0,1-.005-4.618c.3-7.707.3-15.394-1.933-22.9,2.183,7.3,2.12,14.795,1.971,22.3-.746,2.016-.264,4.165-.683,6.212a3.176,3.176,0,0,1-1.081,1.731c-9.6,5.857-17.663,13.724-26.7,20.325-3.808,1.074-6.5,3.68-9.109,6.469-1.211,1.3-2.214,3.316-4.636,2.2-3.906-6.042-3.56-13.036-4.356-19.752-.339-2.868.229-5.826-.775-8.647a57.556,57.556,0,0,1-.028-12.758,225.993,225.993,0,0,1,3.862-22.336c.977-3.215.45-7.6,5.762-7.465l3.356.5c1.286,2.011,1,4.184.671,6.356-.362,1.067-.84,2.006-1.771,1.978,3.1-1.875,6.817-1.969,10.622-1.267,2.791,1.337,4.429-.643,6.341-2.086,1.474-1.109,3-2.173,4.072-3.127-1.21.572-2.28,2.44-4.319,2.4A3.312,3.312,0,0,1,123.2,114.954Z" transform="translate(38.181 34.465)" fill="#d23c3f"/>
    <path id="Path_17393" data-name="Path 17393" d="M238.051,137.026c-2.378-.036-4.691-1.516-7.144.633-1.265,1.109-2.777-.707-3.8-1.834-4.587-5.065-9.064-10.23-13.714-15.238-3.113-3.351-2.152-6.9-.968-10.554,1.387-.916,3.149-1.387,2.972-3.727-.13-1.714-.089-3.652,2.835-2.7.9.292,1.029-.205.688-2.366-.382-2.411-1.842-5.107,2.016-6.313,1-.313.475-1.889.767-2.823.607-1.943-2.414-6.384,3.276-5.067.143.033.615-.5.567-.626-2.207-5.8,4.98-7.145,5.552-11.677.16-1.264,1.008-2.948,2.6-2.706,1.7.257,1.2,2.233,1.627,3.554,1.42-.379,1.477-1.714,2.089-2.593.831-1.2,2.016-2.364,3.374-1.981,1.879.528.93,2.181.754,3.511-.195,1.469-.793,3.073.9,4.243.487.335,1.081,1.439.921,1.649-2.538,3.3-1.839,8.11-4.319,10.955a10.531,10.531,0,0,0-2.88,7.06c-1.128,1.286-1.305,3.071-2.4,4.377,1.177-1.274,1.382-3.04,2.341-4.425,3.735,1.269,5.781.29,6.467-3.949.3-1.868.143-5.868,4.749-3.36,2,1.092,1.656-2.27,2.638-3.384,1.316-1.495,1.281-6.905,5.159-1.907.841,1.083,1.324-.414,1.8-.94,1.043-1.152,1.947-2.437,3.031-3.544,1.166-1.191,2.26-3.287,4.168-2.435,2.47,1.1.381,3.3.506,5.214,1.378.009,1.9-1.2,2.724-1.856,1.736-1.385,3.871-2.517,5.595-.878,1.517,1.443-.32,3.217-1.194,4.559-1.161,1.783-1.862,2.934-.518,5.345,1.542,2.765-1.813,3.457-3.659,4.517-1.559.893-5.034.388-2.553,4.067.655.972-.765,2.147-1.969,2.614-1.646.641-3.937,1.484-2.329,3.441,1.125,1.37,2.392-1.1,3.634-1.776.151-.082.271-.235.429-.29,1.406-.488,2.472-2.465,4.088-1.609,1.669.879-.255,2.849.647,4.295,1-.4,1.962-.761,2.9-1.18,1.185-.53,2.44-.833,3.3.339.93,1.264-.2,2.235-.869,3.189-1.114,1.6-4.286,2.381-2.023,5.312.155.2-.308,1.278-.485,1.278-4.835,0-6.511,5.517-11.3,6.148-4.158.546-7,5-11.529,5.454,2.319,7.7-8.6,3.626-8.531,9.462A16.493,16.493,0,0,1,238.051,137.026Z" transform="translate(122.783 7.811)" fill="#97c5ae"/>
    <path id="Path_17394" data-name="Path 17394" d="M169.859,69.412c1.66,1.105,2.437-.226,3.368-1.2,1.526-1.59,3.17-2.658,5.492-1.465.567.292,1.655.5,1.975.2,5.79-5.527,13.429,1.674,19.316-2.852,3.773,2.506,9.36,2.732,11.89,5.743,2.635,3.134,3.542,7.509,8.628,8.016.48.049,1.1.919,1.269,1.517,1.662,6.056,3.692,12.033,4.239,18.344.156,1.816-.808,3.313-1.481,4.895s-1.9,3.233-1.787,4.769c.586,7.649-3.735,12.252-9.25,16.42a10.024,10.024,0,0,0-4.043,6.82c-2.458-2.684-4.006-2-4.55,1.364-.249,1.531-.457,2.983-1.611,4.123a6.211,6.211,0,0,1-4.283,1.1c-2.367-1.606-4.6-.469-6.9.271-2.268.732-5.112,2.054-6.115-1.324-1.022-3.44,1.535-4.941,4.5-5.685,1.328-.334,2.807-.189,3.925-1.175,1.695-1.495,3.021-3.068.721-5.134a4.479,4.479,0,0,1-.9-1.116,4.116,4.116,0,0,1,.182-3.473,4,4,0,0,1,3.461-2.678c1.912-.064,1.988,1.608,2.263,2.877.7,3.236,1.9,3.509,3.753.761.956-5.181,1.067-10.2-2.585-14.558a8.15,8.15,0,0,0-6.561-3.09c-6.28-.129-9.052-6.653-5.478-11.995,1.46-.548,2.178.441,3.1,1.6-5.425-5.513-15.12-9.579-22.036-8.162-4.225.866-7.729,4.279-12.078,5.433-1.881.64-3.768,1.039-5.664.043-2.4-3.937.657-6.355,2.64-8.956.918-1.206,2.518-1.783,3.737-2.748,2.225-1.3,4.45-2.558,5.579-5.1C165.57,70.746,167.529,69.771,169.859,69.412Z" transform="translate(78.816 2.761)" fill="#809866"/>
    <path id="Path_17395" data-name="Path 17395" d="M147.765,232.082c-10.425,5.734-20.772,6.483-31-.476a7.261,7.261,0,0,1-2.157-2.3c-2.041-5.108-3.6-10.227-.25-15.427a8.565,8.565,0,0,1,2.008-2.4c2.412-1.707,5.253-2.506,7.928-3.653s4.7-2.817,5.152-5.892c1.053-3.822-.535-8.414,3.322-11.414,2.9-2.616,6.852-.947,10.013-2.472,2.718-2.061,1.634-5.044,1.66-7.629.043-4.277,1.559-6.982,5.864-8.442,5.2-1.761,6.156-4.243,5.075-10.481a4.842,4.842,0,0,1-1.787-3.9c1.917-8.81,6.321-10.444,13.323-4.573,3.269,2.741,5.85,5.718,10.646,2.71,1.832-1.149,3.518.831,4.523,2.513a15.442,15.442,0,0,1,1.9,11.962c-.747,3.066.156,5.093,3.541,5.522,1.809.589,3.824.5,5.466,1.644,2.136,4.1-.826,4.971-3.723,5.64s-5.661-.813-8.534-.786c-5.138-.1-9.4,2.635-13.98,4.342a2.925,2.925,0,0,1-2.2-.269c-1.25-1.955.186-3.86.108-5.682a54.76,54.76,0,0,0-.9,6.1,5.234,5.234,0,0,1-.541,1.3,12.269,12.269,0,0,1-3.146,2.678c-.511.438-1.017.883-1.5,1.349A43.039,43.039,0,0,0,154.836,196a38.821,38.821,0,0,0-2.3,3.591,40.921,40.921,0,0,0-4.31,10.446c-.327,1.34-.189,3.322-2.531,3.155-.992-.8-1.048-2.074-1.371-3.009a35.069,35.069,0,0,1-1.006,12.53c.315-1.816,1.272-4.5,1.072-7.382-.078-1.145.641-1.971,1.964-.979,1.8,3.641.189,7.662,1.3,11.374a11.1,11.1,0,0,1,.391,1.606C148.156,228.926,148.984,230.568,147.765,232.082Z" transform="translate(49.786 65.848)" fill="#8db15e"/>
    <path id="Path_17396" data-name="Path 17396" d="M130.522,135.557l-3.678,1.314a33.3,33.3,0,0,1-16.674-16.8c-.763-1.616-1.42-3.075-3.189-3.808a4.3,4.3,0,0,1-1.519-1.378c-1.013-1.286-1.611-14.141-.706-15.483,2.99-4.43,6.937-8.06,8.254-13.813.554-2.419,5.334-5.7,7.31-5.892,4.907-.476,7.237-6.706,13-4.733,2,.683,5.216-.707,7.26-2.074a11.493,11.493,0,0,1,6.813-1.761c1.217.706,2.067,2.485,3.921,1.321,3.393-.72,5.638,1.1,7.21,3.669a6.886,6.886,0,0,0,5.793,3.5,7.584,7.584,0,0,1,3.777,2.791,18.585,18.585,0,0,0,3.377,3.822c2.454,2.24,2.035,4.145-.965,5.393a8,8,0,0,1-5.07.471c-12.832-3.349-21.766,3.773-30.573,11.268a4.8,4.8,0,0,0-1.182,2.8A38.634,38.634,0,0,1,132,109.935c-1.182,3.179-.28,5.049,3.3,5.176a8.393,8.393,0,0,1,4.46,1.105c2.256,1.5,3.5,3.532.176,4.895-3.092,1.267-3.381,3.44-3.452,6.158-.068,2.52.627,5.225-1.314,7.43l-2.96.222c-3.69-5.668-5.013-12.141-6.759-17.758C125.733,123.133,130.826,128.695,130.522,135.557Z" transform="translate(43.813 7.956)" fill="#a4bc7d"/>
    <path id="Path_17397" data-name="Path 17397" d="M209.551,181.958c-5.4-.212-6.381-1.145-4.858-6.582,1.13-4.034.25-7.47-1.279-10.976-1.231-2.819-3.388-3.777-5.558-1.312-2.645,3-4.229,1.479-6.193-.6-1.764-1.868-3.471-3.8-5.861-5.03-5.319-2.736-6.965-2.115-8.442,3.589-.219.846-.28,1.695-1.071,2.235-7.912,3.148-11.169,2.348-15.612-4.079-1.8-2.6-3.93-3.664-7.086-2.8-3.627.992-7.531.992-10.585,3.779a5.319,5.319,0,0,1-4.957,1.019c-5.84-1.757-10.041-.009-12.8,5.371-2.939.982-3.845-2.757-6.061-3.151a17.744,17.744,0,0,1,5.251,4.641,2.311,2.311,0,0,1-2.035,1.359c-7.264-.252-10.877,3.758-12.309,10.383-1.4,1.225-2.917.462-4.423.294-4.98-.56-8.044,1.5-8.878,6.421-.886,5.233-1.837,10.472.833,15.671,1.307,2.545,1.4,5.506-2.166,6.839-3.353,1.253-2.5,3.122-.815,5.1,1.582,1.862,3.954,2.8,5.59,4.55,1.015,1.086,3.53,2.618.042,3.94-9.483-3.56-15.271-10.37-17.5-20.176a10.228,10.228,0,0,1,2.386-9.671c2.55-2.765,3-5.99,2.473-9.646-1.013-6.989,2.131-10.861,9.163-11.383,2.632-.195,4.98.379,4.636-3.885-.264-3.3,2.943-3.07,5.014-2.289,2.5.94,3.951.85,4.394-2.053a2.892,2.892,0,0,1,.422-1.931c.6-.952,1.161-1.957,2.388-2.246,3.523-4.239,6.535-9.137,12.768-9.871a20.61,20.61,0,0,0,17.583-5.2,7.756,7.756,0,0,1,5.817-1.823,8.03,8.03,0,0,1,2.817.926,17.3,17.3,0,0,1,4.363,3.617c1.307,1.394,2.558,1.648,3.93.136,4.114-3.341,8.331-4.079,12.716-.516,2.15,1.747,4.477,1.479,6.881.645,2.129-.739,4.093-1.895,6.266-2.506,7.076-1.988,11.821,1.171,12.673,8.468.182,1.569.106,3.553,1.55,4.218,6.707,3.09,6.726,10.51,10.293,15.615C213.387,176.014,213.524,179.66,209.551,181.958Z" transform="translate(27.679 60.568)" fill="#627f43"/>
    <path id="Path_17398" data-name="Path 17398" d="M96.639,207.143c2.18-2.414-.441-2.8-1.627-3.638-2.385-1.679-5.089-2.995-6.584-5.659-1.507-2.684-1.882-5.143,2.266-5.367,4.243-.229,3.461-3.306,2.263-5.046-3.768-5.473-1.868-11.23-1.241-16.774.753-6.648,5.567-8.576,14.24-6.45,2.1,1.674,2.084,4.187,2.595,6.487a2.914,2.914,0,0,0,2.141,2.656,12.594,12.594,0,0,1,7.623,6.626c1.463,2.748,4.189,2.741,6.629,3.44a7.22,7.22,0,0,1,4.385,4.144c1.533,4.1,3.561,7.345,7.712,9.759,4.284,2.492-1.729,3.066-1.842,5l-1.158,1.785c-3.547,4.257-3.4,9.676.421,15.408q.383.944.768,1.889a28.7,28.7,0,0,1-12.575-4A112.265,112.265,0,0,0,96.639,207.143Z" transform="translate(31.316 76.048)" fill="#a3bc7d"/>
    <path id="Path_17399" data-name="Path 17399" d="M110.369,185.439c-.457.53-.914,1.058-1.37,1.59-9.5-.714-13.665-5.006-17.489-18.035a66.031,66.031,0,0,0-.793-11.046c-.017-4.142-.057-8.284.021-12.422.793-6.17.73-12.466,1.766-16.074a102.111,102.111,0,0,0-1.542,14.989c-.641,4.6-.158,9.212-.264,13.816.414,1.844.973,3.7-.548,5.346-4.8-11.918-5.87-24.46-4.835-37.013.937-11.372,6.676-15.857,18.271-15.872,3.9-.007,7.919-.727,11.711.928-3.325,1.213-3.869,4.119-4.314,7.085a82.7,82.7,0,0,0-4.7,22.747c-.009,4.236-.049,8.468.024,12.7C106.764,164.716,108.561,175.078,110.369,185.439Z" transform="translate(29.527 37.057)" fill="#e17970"/>
    <path id="Path_17400" data-name="Path 17400" d="M148.928,90.69l-3.049-2.378c-2.588-.172-4.519-.841-5.868-3.614-1.333-2.743-3.6-5.4-7.483-3.249-4.75,4.439-2.407-1.4-3.428-2.364,3.9-3.667,5.811-8.7,10.644-12.168,3.853-2.767,9.275-.589,11.737-5.226.172-.323,1.679-.205,2.414.087,3.421,1.356,6.716.537,9.918-.586,1.344-.473,3.3-1.4,3.784-.381,2.265,4.749,10.144-.04,10.938,6.633.368,3.09,3.012,3.285,5.032,4.321-.989,4.408-3.871,7.4-7.4,9.914-2.484,2.315-5.23,4.34-6.593,7.707a2.714,2.714,0,0,0,.641,3.179,2.628,2.628,0,0,1-.932,1c-2.032,1.309-4.684,1.651-6.1,3.925a3.25,3.25,0,0,1-2.635,2C154.761,99.1,152.844,93.575,148.928,90.69Z" transform="translate(62.111)" fill="#5e7253"/>
    <path id="Path_17401" data-name="Path 17401" d="M241.319,145.165c-2.965.349-2.047,1.749-1.154,3.521.827,1.639,1.9,3.786.466,5.339-1.74,1.884-2.826-1.006-4.387-1.3a6.492,6.492,0,0,1-3.259-1.476c-1.968-1.936-2.854-1.234-4.093.84a10.9,10.9,0,0,1-7.361,5.3,3.024,3.024,0,0,1-2.941-.469c-1.105-1.093.057-1.756.513-2.614,1.121-2.119,2.124-4.3,3.424-6.968a14.279,14.279,0,0,1-9.028-2.765c-1.211-.41-1.828-1.865-1.01-2.27,4.231-2.094,3.946-6.012,4.39-9.685.833-.7,1.281-2.251,2.861-1.284,2.651.222,4.91,1.5,7.752,3.017a18.76,18.76,0,0,1,4.971-11.107l-.054.057c5.494,1.776,5.84,2.558,3.306,7.479q-.472.915-.932,1.839c-2.96,5.941-2.96,5.936,3.434,6.236a7.825,7.825,0,0,1,2.541.278c1.881.773,4.411,1.4,4.542,3.69C245.433,145.167,242.249,143.609,241.319,145.165Z" transform="translate(123.385 46.426)" fill="#a3c43e"/>
    <path id="Path_17402" data-name="Path 17402" d="M162.362,220.613c2.2-10.149,4.4-20.3,6.638-30.645,3.859,1.171,5.074,2.771,4.244,6.9-1.175,5.845-3.685,11.459-3.474,17.572.03.256.061.511.094.768-1.422,5.644-1.477,11.715-5.2,16.641-14.272-4.437-25.084-12.888-31.157-26.84,1-3.607.134-7.858,3.667-10.585a2.466,2.466,0,0,1,1.184.916c2.127,6.537,4.458,12.961,9.454,18.017,4.177,4.229,9.4,6.626,14.836,8.661.16.059-.17-.271-.243-.435A1.221,1.221,0,0,1,162.362,220.613Z" transform="translate(65.364 95.67)" fill="#d85e66"/>
    <path id="Path_17403" data-name="Path 17403" d="M155.944,212.311c2.917-6.033,3.122-12.867,5.407-19.46,4.131,2.685,4.463,6.1,3.452,10.067a224.118,224.118,0,0,0-5.649,27.222q3.58-13.688,7.158-27.377c2.32,9.792,3.017,19.432,1.138,29.124-5,.257-10.02.737-14.652-1.865-1.594-3.706.673-6.933,1.293-10.363a55.41,55.41,0,0,1,1.872-7.383Z" transform="translate(79.19 97.798)" fill="#d95f67"/>
    <path id="Path_17404" data-name="Path 17404" d="M191.3,108.632c-.21-1.483,1.21-2.736.4-4.392-.714-1.469-.514-3.514,1.472-3.222,1.493.219,4.868-1.514,4.523,2.487-.056,2.541,4.309,3.17,2.75,6.367-3.492,7.641-9.028,13.832-14.268,20.232-2.463,2.5-5.145.808-7.759.417a3.172,3.172,0,0,1-1.789-1.333c-.186-.855,1.154-2.586-.946-2.381a26.6,26.6,0,0,1-4.417.054,3.786,3.786,0,0,1-1.4-.469c-1.507-1.154-2.461-2.564-2.112-4.575.481-1.453,1.523-2.6,3-2.355,3.163.52,5.585-.975,8.286-2.143,3.37-1.458,6.65-2.708,8.409-6.3C188.165,109.559,189.957,109.34,191.3,108.632Z" transform="translate(90.592 29.875)" fill="#5e7254"/>
    <path id="Path_17405" data-name="Path 17405" d="M133.054,214.407l-.72-4.606c1.128-11,3.947-21.622,7.058-32.185a13.443,13.443,0,0,1,4.057-4.105c1.764,2.251.612,4.728.24,6.966a236.512,236.512,0,0,1-8.411,33.961A5.784,5.784,0,0,1,134.2,216.2Z" transform="translate(64.497 83.523)" fill="#d95f67"/>
    <path id="Path_17406" data-name="Path 17406" d="M104.163,122.4q.154-3.593.309-7.184c1.138-2.12.269-4.477.78-6.673,1.371-2.743,3.862-2.082,6.155-2.025a1.615,1.615,0,0,1,1.008,1.717c1.908,3.624-.742,5.133-3.645,6.739,9.653.424,10.383,1.255,6.992,7.41a2.173,2.173,0,0,1-1.54.306C110.869,122.507,107.5,122.989,104.163,122.4Z" transform="translate(43.704 33.991)" fill="#9db075"/>
    <path id="Path_17407" data-name="Path 17407" d="M100.223,99.416c4.764-.438,7.966,2.786,11.618,4.957-.348,4.552-3.4,3.584-6.24,3.061-2.87-.193-5.838,1.022-8.611-.594.8-1.849-.768-2.435-1.769-3.327l-.059-2.2C96.467,99.658,99.142,101.665,100.223,99.416Z" transform="translate(37.06 28.803)" fill="#a8bc85"/>
    <path id="Path_17408" data-name="Path 17408" d="M184.259,228.413a16.443,16.443,0,0,1,1.667-3.113c11.016-13.036,12.273-27.572,6.794-43.194-.561-1.606-1.55-3.129-1.2-4.964,4.766,6.042,5.835,13.058,5.454,20.475-.1,1.858-.033,3.723-.043,5.585C196.054,213.288,192.484,222.02,184.259,228.413Z" transform="translate(102.823 86.203)" fill="#322337"/>
    <path id="Path_17409" data-name="Path 17409" d="M133.412,216.65c3.671-14.1,6.923-28.3,9.247-42.693l1.217-1.052a3.616,3.616,0,0,1,1.112,3.315c-1.505,10.074-3.2,20.112-6.4,29.821a2.973,2.973,0,0,1-.991,1.175c-2.313,3.085-1.06,7.547-4.01,10.387A1.93,1.93,0,0,1,133.412,216.65Z" transform="translate(65.289 83.075)" fill="#c64046"/>
    <path id="Path_17410" data-name="Path 17410" d="M114.309,121.219a20.227,20.227,0,0,0,1.121-3.942c.153-1.822-.942-3.612-2.685-2.209-2.863,2.3-4.794.721-7.128-.709,1.992-2.253,6.754-2.246,5.727-6.9q2.631,3.6,5.263,7.194l2.19,3.737C118.084,120.574,117.478,122.926,114.309,121.219Z" transform="translate(44.777 34.768)" fill="#668146"/>
    <path id="Path_17411" data-name="Path 17411" d="M156.558,204.027c-.005,6.1-3.454,11.591-3.165,17.746l-1.959-.3C153.28,215.7,153.546,209.459,156.558,204.027Z" transform="translate(78.595 106.047)" fill="#d23c3f"/>
    <path id="Path_17412" data-name="Path 17412" d="M111.515,107.864c-1.648,1.9-4.378.511-6.155,2.025l-1.344-2.91c1.5-3.876,3.928-2.16,6.259-1.045Z" transform="translate(43.596 32.642)" fill="#658146"/>
    <path id="Path_17413" data-name="Path 17413" d="M101.168,105.312c1.964-1.257,5.14-.043,6.24-3.061l3.176,3.141c-1.067,2.512-4.041.236-5.353,2.134Z" transform="translate(41.493 30.925)" fill="#6c864c"/>
    <path id="Path_17414" data-name="Path 17414" d="M156.181,76.833c2.536-3.252,5.522-6.169,7.4-9.914l2.995.407c-2.028,1.231-3.992,2.512-4.639,5.028C161.175,75.319,158.3,75.6,156.181,76.833Z" transform="translate(82.099 4.847)" fill="#1d283c"/>
    <path id="Path_17415" data-name="Path 17415" d="M87.945,143.371l.177-5.072c.289-.429.6-.428.935-.054,1.29,3.476,1.78,6.972.245,10.514Q88.625,146.066,87.945,143.371Z" transform="translate(31.733 57.291)" fill="#4a4556"/>
    <path id="Path_17416" data-name="Path 17416" d="M265.649,215.238c3.233,3.827,7.168,4.118,11.522,2.282C273.01,221.7,267.865,220.68,265.649,215.238Z" transform="translate(162.898 114.322)" fill="#898786"/>
    <path id="Path_17417" data-name="Path 17417" d="M277.332,100.412c-3.709-2.339-7.034-.078-10.47.869C270.667,97.327,273.94,97.055,277.332,100.412Z" transform="translate(163.793 27.853)" fill="#9b9998"/>
    <path id="Path_17418" data-name="Path 17418" d="M100.223,99.466l1.125,3.468c-2.227-.76-4.064-2-6.186-1.573C96.045,98.578,98.28,99.412,100.223,99.466Z" transform="translate(37.06 28.753)" fill="#668246"/>
    <path id="Path_17419" data-name="Path 17419" d="M103.5,106.192c.873-3,3.728-1.022,5.353-2.134l1.8,2.26c-2.107.228-4.467-1.064-6.259,1.045Z" transform="translate(43.218 32.259)" fill="#acc087"/>
    <path id="Path_17420" data-name="Path 17420" d="M95.2,101.836c1.39.045,3.2-.928,3.826,1.163.468,1.576-.848,1.928-2.056,2.164A3.465,3.465,0,0,1,95.2,101.836Z" transform="translate(37.08 30.48)" fill="#658146"/>
    <g id="Group_66" data-name="Group 66" transform="translate(44.952 130.656)">
      <path id="Path_17421" data-name="Path 17421" d="M56.4,204.795c.033,2.4.035,4.8.106,7.2.148,4.936,3.358,8.211,7.976,8.185,4.709-.026,7.778-3.143,7.907-8.237.1-3.77-.01-7.545-.028-11.317.577-.558.068-1.636.973-2.035,1.521,4.875,1.243,9.918.834,14.843-.4,4.856-4.877,8.284-9.721,8.3a9.794,9.794,0,0,1-9.829-8.814c-.3-3.372-.62-6.885.791-10.187C56.341,203.133,55.819,204.228,56.4,204.795Z" transform="translate(-38.007 -28.625)" fill="#807e7e"/>
      <path id="Path_17422" data-name="Path 17422" d="M75.617,124.5l-.428-.042-.417.111.033-15.575q.456-.493.812.08Z" transform="translate(-22.942 -94.922)" fill="#3b3b3b"/>
      <g id="Group_65" data-name="Group 65">
        <path id="Path_17423" data-name="Path 17423" d="M65.5,210.461c-1.536-15.222-1.21-30.525-1.99-45.78q.4-.683.794,0c1.509,15.222,1.158,30.526,1.978,45.778C66.023,210.912,65.762,210.933,65.5,210.461Z" transform="translate(-31.252 -53.902)" fill="#414040"/>
        <path id="Path_17424" data-name="Path 17424" d="M55.959,215.5l-.991-2.06a244.477,244.477,0,0,1,1.258-29c.254-.452.509-.474.767,0Q56.474,199.966,55.959,215.5Z" transform="translate(-37.565 -39.327)" fill="#3f3e3e"/>
        <path id="Path_17425" data-name="Path 17425" d="M58.233,146.144q-.05,11.2-.1,22.39c-.723,1.735-.256,3.586-.527,5.366a.884.884,0,0,1-1.269.332q.514-14.037,1.025-28.074C57.645,145.662,57.935,145.681,58.233,146.144Z" transform="translate(-36.548 -67.593)" fill="#444343"/>
        <path id="Path_17426" data-name="Path 17426" d="M63.2,161.579c-.235-7.439-.551-14.876-.636-22.317-.017-1.576-.156-3.5,1.538-4.646q.01,13.521.019,27.041C63.779,162,63.473,161.956,63.2,161.579Z" transform="translate(-31.963 -75.842)" fill="#3a3a3a"/>
        <path id="Path_17427" data-name="Path 17427" d="M57.8,153.472c-.29.01-.581.016-.869.014q.4-8.28.806-16.559c-.589-1.031-.019-1.138.822-1.032A67.837,67.837,0,0,1,57.8,153.472Z" transform="translate(-36.112 -74.922)" fill="#50504f"/>
        <path id="Path_17428" data-name="Path 17428" d="M57.579,170.022c.129,3.871.6,7.766-.836,11.524q-.425.691-.939.063c-.162-3.876-.541-7.766.81-11.536C56.913,169.617,57.233,169.579,57.579,170.022Z" transform="translate(-37.071 -49.939)" fill="#6f6e6e"/>
        <path id="Path_17429" data-name="Path 17429" d="M63,150.136a2.229,2.229,0,0,1,.921.078c1.465,3.761.973,7.66.817,11.536q-.511.618-.925-.07C62.411,157.913,62.833,154.016,63,150.136Z" transform="translate(-31.771 -64.399)" fill="#6f6f6f"/>
        <path id="Path_17430" data-name="Path 17430" d="M72.373,133.124l4.17-15.115q.37-.683.845-.068C76.843,123.375,75.776,128.635,72.373,133.124Z" transform="translate(-24.712 -88.364)" fill="#6a6767"/>
        <path id="Path_17431" data-name="Path 17431" d="M50.015,100.8c-.676,5.24-2.838,10.067-4.215,15.113q-.336.68-.815.09C45.545,110.566,46.666,105.315,50.015,100.8Z" transform="translate(-44.928 -100.801)" fill="#6e6c6b"/>
        <path id="Path_17432" data-name="Path 17432" d="M61.734,139.033l-.822,1.032c-.422-5.114-6.047-5.127-8.289-8.456C56.8,132.686,60.538,134.3,61.734,139.033Z" transform="translate(-39.29 -78.061)" fill="#6a6867"/>
        <path id="Path_17433" data-name="Path 17433" d="M76.953,113.961l-.414.038-.4-.118a42.992,42.992,0,0,1-3.179-11.737C76.091,105.476,76.2,109.826,76.953,113.961Z" transform="translate(-24.278 -99.81)" fill="#6a6868"/>
        <path id="Path_17434" data-name="Path 17434" d="M64.658,190.875c.261.005.521.005.782,0q.149,6.7.3,13.4l-.973,2.034Z" transform="translate(-30.407 -34.317)" fill="#3c3b3b"/>
        <path id="Path_17435" data-name="Path 17435" d="M55.76,176.582a4.992,4.992,0,0,0,.939-.063l-.243,13.5-.384,0-.382,0Z" transform="translate(-37.027 -44.913)" fill="#3a3a3a"/>
        <path id="Path_17436" data-name="Path 17436" d="M46.791,119.529l1.125,8.042c-2.983-3.294-2.428-7.505-2.963-11.433a.931.931,0,0,1,1.211.1C46.727,117.264,46.047,118.531,46.791,119.529Z" transform="translate(-44.952 -89.614)" fill="#444343"/>
        <path id="Path_17437" data-name="Path 17437" d="M57.161,175.6c-.323,0-.643.021-.965.05l.247-13.495c.264,0,.528,0,.793,0,1.052,2.386,2.1,4.775.292,7.276Z" transform="translate(-36.653 -55.517)" fill="#3d3c3c"/>
        <path id="Path_17438" data-name="Path 17438" d="M63.389,156.771a4.027,4.027,0,0,0,.925.07q.042,6.716.085,13.43c-.264,0-.528,0-.794,0Q63.5,163.52,63.389,156.771Z" transform="translate(-31.344 -59.489)" fill="#393838"/>
        <path id="Path_17439" data-name="Path 17439" d="M46.633,123.112a26.608,26.608,0,0,1,4.255,8.611A10.2,10.2,0,0,1,46.633,123.112Z" transform="translate(-43.711 -84.333)" fill="#636160"/>
        <path id="Path_17440" data-name="Path 17440" d="M49.04,128.02a20.653,20.653,0,0,1,6.294,6.3A8.579,8.579,0,0,1,49.04,128.02Z" transform="translate(-41.935 -80.71)" fill="#757373"/>
        <path id="Path_17441" data-name="Path 17441" d="M45.732,120.911l-.389.007-.391-.01.057-11.322a1.082,1.082,0,0,0,.815-.09q.107,3.634.212,7.269C46.972,118.222,47.083,119.619,45.732,120.911Z" transform="translate(-44.952 -94.384)" fill="#343333"/>
        <path id="Path_17442" data-name="Path 17442" d="M67.506,134.343c1.948-2.378,3.838-4.815,6.608-6.334C73.012,131.268,70.986,133.564,67.506,134.343Z" transform="translate(-28.305 -80.719)" fill="#757474"/>
      </g>
    </g>
    <g id="Group_67" data-name="Group 67" transform="translate(421.011 129.076)">
      <path id="Path_17443" data-name="Path 17443" d="M273.432,191.253q.013-45.542.026-91.08c1.338,1.45.937,3.264.939,4.943q.052,43.039.038,86.08A.6.6,0,0,1,273.432,191.253Z" transform="translate(-252.368 -99.685)" fill="#5a5a59"/>
      <path id="Path_17444" data-name="Path 17444" d="M274.849,152.6a2.383,2.383,0,0,0,1-.057c-3.6,9.919-1.39,20.252-2.167,30.373-.582.546-.089,1.606-.959,2.014C271.256,174.009,270.311,163.124,274.849,152.6Z" transform="translate(-253.785 -61.031)" fill="#979695"/>
      <path id="Path_17445" data-name="Path 17445" d="M273.279,201.9c-1.634-5.548-.923-11.211-.813-16.844.582-.548.09-1.6.958-2.018,1.6,5.911.9,11.923.782,17.909A1.835,1.835,0,0,1,273.279,201.9Z" transform="translate(-253.265 -38.518)" fill="#959494"/>
      <path id="Path_17446" data-name="Path 17446" d="M263.508,148.529c-.087,2.381.223,4.86-.337,7.123-1.361,5.5,1.773,9.53,3.958,13.912-3.372-1.218-4.587-4.274-5.117-7.225-.937-5.232-1.111-10.578.61-15.773C263.418,146.994,262.968,147.985,263.508,148.529Z" transform="translate(-261.313 -65.442)" fill="#929090"/>
      <path id="Path_17447" data-name="Path 17447" d="M267.03,195.391c.139,5.628.8,11.28-.82,16.821a1.875,1.875,0,0,1-.933-.956c-.123-5.628-.8-11.282.822-16.825A1.84,1.84,0,0,1,267.03,195.391Z" transform="translate(-258.569 -30.111)" fill="#959494"/>
      <path id="Path_17448" data-name="Path 17448" d="M266.388,111.317q-1.022,13.531-2.041,27.062c-1.29-.492-1.079-1.625-1-2.593q.873-10.989,1.837-21.97C265.266,112.859,265.034,111.687,266.388,111.317Z" transform="translate(-259.859 -91.459)" fill="#545453"/>
      <path id="Path_17449" data-name="Path 17449" d="M272.381,223.216c2.037-5.037-.005-10.342,1.008-15.445.574-.534.1-1.561.928-1.975,1.615,4.825.925,9.793.76,14.7C275.035,221.725,274.835,223.873,272.381,223.216Z" transform="translate(-253.144 -21.723)" fill="#979696"/>
      <path id="Path_17450" data-name="Path 17450" d="M267.6,173.562c.155,5.595.754,11.214-.827,16.724-.257.421-.556.475-.907.106-.1-5.6-.768-11.223.869-16.729Q267.1,173.037,267.6,173.562Z" transform="translate(-258.114 -45.693)" fill="#8c8b8b"/>
      <path id="Path_17451" data-name="Path 17451" d="M268.645,99.892c-2.8,4.764-1.211,10.41-3.087,15.358A14.238,14.238,0,0,1,268.645,99.892Z" transform="translate(-258.949 -99.892)" fill="#888786"/>
      <path id="Path_17452" data-name="Path 17452" d="M273.428,192.656l-.958,2.018q-.13-11.32-.261-22.642l.959-2.014Q273.3,181.335,273.428,192.656Z" transform="translate(-253.27 -48.132)" fill="#5c5c5c"/>
      <path id="Path_17453" data-name="Path 17453" d="M273.987,214.987l-.928,1.975q-.115-11.333-.231-22.663l.926-.952Q273.869,204.168,273.987,214.987Z" transform="translate(-252.814 -30.913)" fill="#565656"/>
      <path id="Path_17454" data-name="Path 17454" d="M265.869,183.188a5.873,5.873,0,0,0,.907-.106q-.1,10.343-.2,20.687l-.932-.959Z" transform="translate(-258.116 -38.489)" fill="#575757"/>
      <path id="Path_17455" data-name="Path 17455" d="M265.326,204.112l.933.956q-.034,8.791-.07,17.583C263.834,216.567,265.659,210.289,265.326,204.112Z" transform="translate(-258.619 -22.967)" fill="#555"/>
      <path id="Path_17456" data-name="Path 17456" d="M267.228,180.912a3.221,3.221,0,0,0-.866.1c.537-5.871-1.356-11.885,1.036-17.649Q267.315,172.14,267.228,180.912Z" transform="translate(-257.74 -53.043)" fill="#535353"/>
      <path id="Path_17457" data-name="Path 17457" d="M264.826,129.331c.042,2.866.487,5.779-.94,8.484C262.19,134.764,261.641,131.841,264.826,129.331Z" transform="translate(-260.421 -78.163)" fill="#898989"/>
      <path id="Path_17458" data-name="Path 17458" d="M264.24,137.44c-.25,2.541.608,5.214-.9,7.608a.619.619,0,0,1-1.079.057C262.371,142.408,261.024,139.335,264.24,137.44Z" transform="translate(-260.752 -72.178)" fill="#888787"/>
      <path id="Path_17459" data-name="Path 17459" d="M262.269,141.874l1.079-.057q-.2,5.11-.4,10.217l-.885-1.964Q262.166,145.971,262.269,141.874Z" transform="translate(-260.757 -68.947)" fill="#575656"/>
    </g>
    <path id="Path_17460" data-name="Path 17460" d="M182.521,173.715c-5.414,1.611-10.962.972-16.411.581-4.9-.355-7.01-3.9-7.255-8.553a106.116,106.116,0,0,0-.928-10.769c-1.8-11.651-9.968-20.466-22.11-23.235a2.475,2.475,0,0,1,.961-2.513c3.415-1.116,1.891-5.326,4.387-7.02,2.425.268,4.8,1.507,7.3.365a8.844,8.844,0,0,1,2.131-.108c4.514,1.446,8.273-.746,12.116-2.519a4.109,4.109,0,0,1,1.424-.153c3.182,2.506,5.244,2.277,5.844-2.227a4.988,4.988,0,0,1,2.684-4.118,9.817,9.817,0,0,1,7.368.561,9.684,9.684,0,0,0,5.419.654,3.379,3.379,0,0,1,1.451.32c1.778,1.98-.085,4.344.582,6.751,2.915-.725,3.916-4.166,6.852-4.4.223-.009.447-.014.669-.016,1.693,1.008,4.389-.36,5.392,2.28l.918.965c.6,2.3-1.147,3.494-2.428,4.764-7.507,7.446-11.859,15.954-9.725,26.906a11.512,11.512,0,0,1-.2,5.082Q185.74,165.513,182.521,173.715Z" transform="translate(67.008 38.829)" fill="#d6deaa"/>
    <path id="Path_17461" data-name="Path 17461" d="M211.539,134.18c-6.268-.859-10.9-5.192-11.35-10.505A48.581,48.581,0,0,0,211.539,134.18Z" transform="translate(114.581 46.739)" fill="#695c88"/>
    <path id="Path_17462" data-name="Path 17462" d="M189.589,130.588a12.142,12.142,0,0,1-9.751-11.76A32.053,32.053,0,0,0,189.589,130.588Z" transform="translate(99.56 43.161)" fill="#625889"/>
    <path id="Path_17463" data-name="Path 17463" d="M203.54,112.489c-3.966-3.428-8.8-6.327-9.3-12.334C196.763,104.7,201.06,107.867,203.54,112.489Z" transform="translate(110.193 29.378)" fill="#605889"/>
    <path id="Path_17464" data-name="Path 17464" d="M215.025,117.039c2.694,4.816,7.284,6.393,11.166,9.857C219.92,126.194,215.6,122.458,215.025,117.039Z" transform="translate(125.532 41.84)" fill="#675a88"/>
    <path id="Path_17465" data-name="Path 17465" d="M192.886,143.761c-4.25-1.347-7.144-4.06-8.053-8.583C187.816,137.723,189.953,141.074,192.886,143.761Z" transform="translate(103.247 55.229)" fill="#635989"/>
    <path id="Path_17466" data-name="Path 17466" d="M171.982,133.647c3.541,1.669,6.725,3.735,8.416,7.483A19.7,19.7,0,0,1,171.982,133.647Z" transform="translate(93.762 54.099)" fill="#615889"/>
    <path id="Path_17467" data-name="Path 17467" d="M159.548,160.559c1.2-2.995,3.713-2.2,5.725-1.62,2.757.791.746,2.884.584,4.295-.966,8.445.772,10.189,9.24,7.135,9.259-3.339,18.024-4.013,26.746,1.114.561.328,1.085.725,2.343,1.575-9.129-.654-17.544-3.054-25.295,1.969l-8.816,2.054c11.63,2.866,20.141,7.629,23.9,19.34l-3.5-2.734c-3.57-4.834-8.817-7.029-14.211-8.955-3.4-1.215-6.879-2.246-9.978-4.185C158.573,175.724,157.973,168.507,159.548,160.559Z" transform="translate(84.065 72.362)" fill="#839c51"/>
    <path id="Path_17468" data-name="Path 17468" d="M150.972,178.225c3.424,13.771-3.3,26.146-5.39,39.158q-.365,2.273-.723,4.545c-3.68-.662-5.145-3.261-5.777-6.6,2.136-10.788,5.5-21.32,6.725-32.3C146.662,180.5,147.826,178.293,150.972,178.225Z" transform="translate(69.478 87.002)" fill="#d95f67"/>
    <path id="Path_17469" data-name="Path 17469" d="M145.93,219.415c1.855-9.786,5.159-19.246,6.527-29.148.151-1.093.309-3.165,2.447-2.379,2.253.829,4.029,2.334,3.469,5.042-1.01,4.875-1.947,9.8-3.435,14.534-1.465,4.669-1.231,9.909-4.535,13.976C148.341,222.028,146.71,221.663,145.93,219.415Z" transform="translate(74.533 94.006)" fill="#d95f68"/>
    <path id="Path_17470" data-name="Path 17470" d="M142.969,218.724q3.408-15.025,6.808-30.052c.327-1.446.607-2.9.989-4.735,2.837,2.572,3.834,4.889,2.844,8.673-2.508,9.593-4.371,19.356-6.494,29.051C144.869,221.905,143.2,221.333,142.969,218.724Z" transform="translate(72.347 91.219)" fill="#d95f67"/>
    <path id="Path_17471" data-name="Path 17471" d="M148.31,185.9a12.922,12.922,0,0,0-4.029,4.189.854.854,0,0,1-1.288.1c-.947-1.985.579-3.419,1.116-5.077,4.552-10.01,13.382-13.851,23.291-16.137,2.261.186,5.967-3.82,6.238,2.147a22.937,22.937,0,0,1-11.286,5.737C156.668,178.114,152.13,181.545,148.31,185.9Z" transform="translate(72.141 79.328)" fill="#ced388"/>
    <path id="Path_17472" data-name="Path 17472" d="M167.118,177.164c-1.387-4.978-4.423-1.161-6.725-1.262-1.731-.108-3.4.647-5.091.52-1.8-.136-3.923-.257-3.773-3.009,2.84-.89,5.348,1.331,8.143.866,2.313-.384,5.32-.1,3.919-4.064.44-3.527-1.085-7.305,1.361-10.576.195.61.688,1.309.539,1.822-2.824,9.671,3.766,17.524,12.287,20.11,5.108,1.55,10.154,3.3,14.435,6.6,1.54,1.185,3.7,2.081,3.659,4.6-6.29-5.317-13.768-8.272-21.469-10.761C171.5,181.07,169.564,178.749,167.118,177.164Z" transform="translate(78.66 73.284)" fill="#2c2935"/>
    <path id="Path_17473" data-name="Path 17473" d="M148.184,212.048a8.458,8.458,0,0,0,4.149,2.937c.332.181.666.36,1,.541a7.08,7.08,0,0,0,4.469,2.023c.74.928,1.787.819,2.795.84l2.607,1.488c-10.47,2.023-22.854-9.8-27.3-26.019.271-1.057,1.029-.935,1.813-.751,1.118.773,1.423,2.023,1.877,3.188.627,1.99,1.206,4,1.961,5.955a8.985,8.985,0,0,1,.532,2.654,11.964,11.964,0,0,0,5.12,6.134Z" transform="translate(67.132 97.896)" fill="#352539"/>
    <path id="Path_17474" data-name="Path 17474" d="M162.929,145.34l-2.225-.009a6.768,6.768,0,0,1-3.382-2.3c-1.18-1.448-1.775-2.979-.793-4.773,1.071-1.955,2.793-2.336,4.867-2.147,2.221.2,3.791,2.519,6.494,1.865-.038-2.374-1.968-2.576-3.45-3.106a11.363,11.363,0,0,1-6.5-5.638c-2.362-4.495-1.823-6.415,2.744-9.261-3.5-.226-6.975-.289-10.35,1.8,2.811,2.379,6.224,3.961,7.679,7.629.836,2.107,2.4,4.018.643,6.228-1.648,2.07-3.747,3.049-7.189.765,2.432,2.833,5.8,4.33,2.273,7.4a2.971,2.971,0,0,1-1.45-.1,21.391,21.391,0,0,1-3.577-3c-2.2-2.074-3.358-4.568-1.947-7.463,1.5-3.082,4.224-2.36,7.51-1.417-1.66-2.974-4.178-4.145-6.205-5.776-5.418-4.357-5.265-6.944.819-9.855,1.351-.645,2.006-1.335,1.469-2.743-.581-1.521-1.47-2.831-3.362-2.713a2.445,2.445,0,0,0-2.439,2.206c-1.483,6.641-1.526,6.638-8.405,6.3-1.17-.057-2.811-.666-3.1.885-.334,1.79,1.191,2.738,2.8,3.174a6.581,6.581,0,0,0,3.064-.362c3.742-.77,5.9,1.194,7.342,4.321,1.027,2.228,1.211,4.4-.949,6.1-2.9,2.289-5.734,2.006-8.43-.422l-1.9-2.127c1.776-2.044,4.55-.393,6.925-2.087-7.486.323-14.285-.709-13.668-9.9.428-6.377,6.222-4.3,10.347-4.563.318-2.19-.956-2.993-2.56-3.155-2.6-.259-7.63,5.107-8.138,7.769-.441,2.32,2.074,5.43-1.637,6.963l-1.867-.177c-.005-2.937.057-5.878-.035-8.812s.768-5.1,3.926-5.748c.824-.17,1.886-.144,1.862-1.3-.019-.944-.813-1.441-1.681-1.716a20.085,20.085,0,0,0-1.976-.61c-8.915-1.848-9.408-3.13-4.206-11,.275-3.808,4.366-3.664,6.134-5.927,1.425-.268,2.88-.33,3.506,1.284.582,1.507-.372,2.647-1.417,3.6-1.785,1.629-4.149,2.489-5.8,4.307-.7.77-1.5,1.57-1.151,2.7a1.478,1.478,0,0,0,1.712.838c1.231-.129,1.688-1.045,1.976-2.089.139-.5.222-1.013.384-1.5.773-2.327,2.266-3.893,4.8-4.064A6.267,6.267,0,0,1,138.1,98.58c1.6,2.2,1.839,5.272,4.667,7.008.085-2.027-1.476-3.287-1.667-5.006-.214-1.922.77-3.6,1.132-5.873-3.73,2.308-7.173,2.527-9.471-.9-1.931-2.884-.582-5.593,2.157-7.542,1.636-1.079,2.741-3.106,5.112-2.863,3.933,3.209-.45,4.828-1.258,7.006,1.448-1.378,3.212-2.791,5.36-1.455,4.191,2.611,3.226,6.786,2.244,11.494,5.256-2.609,9.162-.226,13.279,1.5-2.051-1.8-4.759-2.1-6.9-3.508-2.386-1.564-4.681-3.36-4.267-6.572.421-3.266,2.626-4.7,5.89-4.5a1.918,1.918,0,0,0,1.837-.709c.883-1.238.864-4.015,3.4-2.619,1.775.977,2.154,3.108,1.874,5.077a4.26,4.26,0,0,1-3.706,3.808c-1.013.189-2.035-.285-3.539-.07,1.272,2.359,3.464,2.308,5.282,2.814,3.838,1.065,6.7,2.937,6.534,7.46a4.843,4.843,0,0,0,1.9,4.053c2.885,2.5,4.21,5.48,2.451,9.222a1.836,1.836,0,0,0,.718,2.652c1.06.654,1.891.325,2.685-.607,2.209-2.595,3.7-1.888,4.738,1.072.572,1.623,2.39,1.9,3.52,2.939a7.286,7.286,0,0,1,.986,9.476c-1.594,2.14-6.648,3.017-9.09,1.59a2.233,2.233,0,0,1-.864-3.49c1.163-1.119,2.637-.441,3.951-.688.9-.167,1.677-.514,1.747-1.57a1.66,1.66,0,0,0-.959-1.681c-1-.471-1.606.113-2.06.928a6.45,6.45,0,0,1-2.348,2.687c-1.59,2.277-3.587,2.713-5.711.913-1.769-1.5-1.173-3.481,1.856-6.626-2.713-2.232-4.886-.422-6.9.968-1.637,1.132-.65,2.454.4,3.459,1.674,1.589,3.933,2.138,5.916,3.181,5.845,3.075,6.415,8.852,1.278,12.516C168.029,145.785,165.337,144.692,162.929,145.34Z" transform="translate(54.604 16.998)" fill="#bfcf8f"/>
    <path id="Path_17475" data-name="Path 17475" d="M131.877,122.035c.991.282,1.964.648,2.972.829a5.3,5.3,0,0,0,5.849-2.371c1.244-2.134-.6-3.968-1.665-5.619-1.2-1.872-3.177-2.908-5.327-1.505-2.652,1.733-4.434.777-6.153-1.347-.968-1.2-2.475-2.233-1.554-4,.994-1.9,2.722-1.6,4.533-1.231,6.944,1.417,7.314,1.032,7.039-5.807-.127-3.195,3.454-2.692,4.509-2.809,3.481-.382,4.625,2.878,5.23,5.68.547,2.546-.914,3.294-3.408,2.691a2.719,2.719,0,0,0-3.568,2.124c-.487,1.968.521,3.315,1.969,4.434,2.578,1.992,5.28,3.841,7.686,6.021.885.8,2.065,2.36,1.024,3.671-1.465,1.839-2.279-.32-3.264-.958-1.639-1.062-3.382-1.4-4.655.188-1.441,1.792-1.093,3.784.205,5.72,1.218,1.822,4.086,2.214,4.208,4.938-2.769,4.032-7.187,4.51-11.5,1.244C135,129.838,134.015,125.736,131.877,122.035Z" transform="translate(59.609 27.896)" fill="#a6be7f"/>
    <path id="Path_17476" data-name="Path 17476" d="M131.787,149.127a13.574,13.574,0,0,0-8.287,3.645c-4.742,4.519-9.905,5.419-15.747,2.48a179.209,179.209,0,0,1,26.7-20.671C135.833,139.846,135.249,144.751,131.787,149.127Z" transform="translate(46.353 54.788)" fill="#aa2f30"/>
    <path id="Path_17477" data-name="Path 17477" d="M133.284,139.745q-1.47,8.7-2.944,17.411c-3.907-.144-4.594-4.575-7.7-5.786-.221-5.656.243-11.181,3.116-16.244C133.14,131.28,133.14,131.28,133.284,139.745Z" transform="translate(57.307 53.365)" fill="#a73132"/>
    <path id="Path_17478" data-name="Path 17478" d="M123.14,114.914c.452-2.913,1.46-5.732.4-8.8a2.717,2.717,0,0,1,2.421-3.784c1.432-.212,2.72-.5,3.461-1.884,2.082-3.878,4.5-1.945,6.779-.311,1.34.961,2.162,2.4,1.389,4.064-.78,1.679-2.273,1.078-3.607.74-2.861-.721-5.71-1.724-7.686,1.78-1.658,2.941-.014,4.934,1.7,6.9,2.129,2.447,4.356,4.688,7.825,1.8a2.2,2.2,0,0,1,3.56.579,4.842,4.842,0,0,1,.765,3.355c-.415,1.293-1.841,1.022-3.12.806a41.292,41.292,0,0,0-5.155-.273A30.845,30.845,0,0,0,123.14,114.914Z" transform="translate(57.711 27.919)" fill="#a6be7f"/>
    <path id="Path_17479" data-name="Path 17479" d="M140.28,124.754q-.555,1.155-1.107,2.308c-2.8.664-6.222-.289-7.985,3.069q.391-5.037.782-10.071c2.2-.951,4.547-.3,6.819-.57,1.58-.189,3.753-.692,4.49,1.3C144.186,123.247,141.6,123.652,140.28,124.754Z" transform="translate(63.651 43.504)" fill="#5e7256"/>
    <path id="Path_17480" data-name="Path 17480" d="M101.517,166.965a89.8,89.8,0,0,1-4.538-30.871q.378-.837,1.119-.3c1.705,7.5.707,15.349,2.976,22.771.594,1.947,1.257,3.872,1.886,5.809Z" transform="translate(38.379 55.53)" fill="#4a3a4c"/>
    <path id="Path_17481" data-name="Path 17481" d="M125.133,142.538a84.615,84.615,0,0,0-3.195-27.333c5.3,8.543,4.7,18.035,4.274,27.5A.663.663,0,0,1,125.133,142.538Z" transform="translate(56.824 40.487)" fill="#2f2735"/>
    <path id="Path_17482" data-name="Path 17482" d="M121.853,117.585c-1.667-5-3.313-10-5.007-14.984-1.271-3.739-1.3-3.73,2.089-7.121-2.5,8.183,3.527,14.263,4.606,21.469Z" transform="translate(52.482 25.928)" fill="#2d3545"/>
    <path id="Path_17483" data-name="Path 17483" d="M96.959,137.336c.5-7.646.659-15.368,5.166-22.074q-2.015,11.2-4.031,22.4Q97.3,138.3,96.959,137.336Z" transform="translate(38.387 40.529)" fill="#4b3c4e"/>
    <path id="Path_17484" data-name="Path 17484" d="M125.4,130.931l1.079.167q.016,2.649.028,5.3-1.556,8.124-3.115,16.246c-.6-.275-1.21-.546-1.811-.82q1.337-7.274,2.671-14.546C124.8,135.191,124.005,132.864,125.4,130.931Z" transform="translate(56.559 52.094)" fill="#413547"/>
    <path id="Path_17485" data-name="Path 17485" d="M111.01,118.734c2.392.476,3.308-1.387,4.486-2.833,2.67-1.333,4.679-3.85,9.148-5.077-4.328,3.864-7.51,6.81-10.82,9.607-1.227,1.036-2.6.551-3.737-.466a2.369,2.369,0,0,1,1.069-.97Z" transform="translate(48.077 37.253)" fill="#493c4c"/>
    <path id="Path_17486" data-name="Path 17486" d="M139.95,125.739c.08-1.717,2.64-1.714,2.479-3.827-3.374-2.237-7.293.523-10.788-.866q0-.868-.005-1.738c3.912.316,7.95,1.8,11.5-1.244q.381-.057.766-.1.6.1.579.481c-.014.3-.07.443-.172.443C143.138,121.348,145.936,126.337,139.95,125.739Z" transform="translate(63.981 42.519)" fill="#283244"/>
    <path id="Path_17487" data-name="Path 17487" d="M116.763,115.647l-1.069.97c-4.37-.064-8.755-.325-13.2,1.856.438-2.4,2.364-1.543,2.91-2.687A46.382,46.382,0,0,1,116.763,115.647Z" transform="translate(42.469 40.601)" fill="#0f1b30"/>
    <path id="Path_17488" data-name="Path 17488" d="M96.959,127.962c.379.106.758.212,1.135.322q0,6.575,0,13.145-.561.143-1.119.292Q96.966,134.843,96.959,127.962Z" transform="translate(38.387 49.903)" fill="#1a2237"/>
    <path id="Path_17489" data-name="Path 17489" d="M218.365,113.085c.308-1.662.229-2.275.5-2.531,7.841-7.549,15.714-15.061,24.1-22.048C235.911,97.327,227.381,104.655,218.365,113.085Z" transform="translate(127.997 20.78)" fill="#54578d"/>
    <path id="Path_17490" data-name="Path 17490" d="M218.4,97.221a58.371,58.371,0,0,1,5.126-13.29l1.272.5q-2.479,6.742-4.955,13.484Z" transform="translate(128.027 17.403)" fill="#575c90"/>
    <path id="Path_17491" data-name="Path 17491" d="M244.073,94.853a14.314,14.314,0,0,1-8.852,3.775C238.1,95.632,241.075,95.182,244.073,94.853Z" transform="translate(140.439 25.465)" fill="#585d90"/>
    <path id="Path_17492" data-name="Path 17492" d="M183.98,113.473c.332.01.664.019,1,.028,1.5,4.881.391,6.8-4.476,7.215-2.59.221-4.936.666-5.711,3.466-.727,2.63.664,4.21,3.1,5.162,1.608.629,2.157,2.143,2.39,3.76-1.649,3.322-3.6,6.01-7.881,3.652-.707-2.042-.833-4.439-3.753-4.912a1.563,1.563,0,0,1-.992-2.736c1.865-2.275,2.26-4.8,2.334-7.641.054-2.093,2.3-2.826,3.817-3.914,1.455-1.039,2.727-2.282,2.539-4.217-.224-2.3-2.067-1.6-3.553-1.839-3.351-.544-2.289-3.151-1.464-4.754,2.124-4.126,2.433-6.923-3.127-8.286-2.366-.581-2.14-3.275-.518-4.622,3.5-2.906,3.261-5.708,1.326-9.478-1.762-3.435-.167-5.7,3.939-7.069,2.15.6,4.785.038,6.116,2.572-1.039,1.185-1.46,2.736-2.31,4.024C175.23,86.2,175.392,88,177.915,89.51c3.5,2.086,3.587,4.769,1.13,7.781a5.62,5.62,0,0,0-1.434,2.724c-.219,1.563.257,2.809,1.922,3.158,1.467.309,2.247-.655,2.67-1.9.617-1.816.28-3.81.966-5.616.6-1.594,1.688-2.7,3.48-2.588a2.467,2.467,0,0,1,2.372,3.309c-1.444,4.648,1.333,7.081,4.423,9.48a5.6,5.6,0,0,1,.551,2.148,6.994,6.994,0,0,1-1.271,3.3,2.032,2.032,0,0,1-2.1,1.126c-.98-.228-1.175-1.123-1.366-1.957-.393-1.722.535-4.917-3.028-3.441C183.463,108.18,181.838,110.322,183.98,113.473Z" transform="translate(89.676 12.501)" fill="#809866"/>
    <path id="Path_17493" data-name="Path 17493" d="M147.392,87.022l1.865-2.011c1.862-2.371,4.891-2.762,7.253-4.286l.318-.148q1.817-.461,3.631-.921c4.018.318,7.154-2.51,10.933-3.059,1.5,2.3,1.156,4.992,1.291,7.49.167,3.068-1.992,4.093-4.846,2.649a7.081,7.081,0,0,1-1.258-.89c-1.573-1.288-3.3-2.324-4.818-.158-1.305,1.856.2,3.144,1.417,4.389,4.347,4.457,4.323,5.112-.3,9.8A3.1,3.1,0,0,1,159,98.195a19.883,19.883,0,0,0-10.969-9.539A1.09,1.09,0,0,1,147.392,87.022Z" transform="translate(75.499 11.99)" fill="#839a69"/>
    <path id="Path_17494" data-name="Path 17494" d="M189.533,104.923c-4.321-1.538-7.569-3.614-5.178-9.076.521-1.192.687-3.019-1.406-3.12-1.674-.08-2.339,1.264-2.421,2.8-.075,1.382.03,2.776-.087,4.152-.148,1.768-.572,3.542-2.546,4.088a4.311,4.311,0,0,1-4.7-1.387c-1.465-1.717-1.284-3.5-.205-5.268a10.163,10.163,0,0,1,1.928-2.374c2.164-1.879,1.672-3.514-.271-5.127-4.721-3.918-4.672-5.473.328-10.629q.574.162.549.549c-.019.3-.076.443-.176.443-2.31,6.9.012,10.185,7.629,10.4,2.884.08,3.3,2.548,4.74,4.045C189.677,97.68,191.087,101.045,189.533,104.923Z" transform="translate(93.157 13.747)" fill="#a6bb85"/>
    <path id="Path_17495" data-name="Path 17495" d="M176.829,117.934c-1.389-.7-.921-2.8-2.894-3.308-3.377-.871-3.832-3.727-3.222-6.617.6-2.845,3.118-3.756,5.558-3.577,4.874.356,5.974-2.256,5.725-6.309,2.675.292,2.357,2.334,1.912,3.907a5.8,5.8,0,0,1-4.656,4.344c-1.345.249-2.871,0-4.053.547-1.559.72-3.071,2.03-2.169,4.092.93,2.126,2.536.335,3.68.5,2.868.419,5.838-5.741,8.445.071C184.8,117.181,182.3,119.083,176.829,117.934Z" transform="translate(92.655 27.878)" fill="#a6bb86"/>
    <path id="Path_17496" data-name="Path 17496" d="M187.393,83.239c-.123-.33-.249-.66-.372-.992-1.29-2.461-3.733-1.764-5.793-2.117a13.313,13.313,0,0,0-6.466-1.832c-2.482.193-4.877-.768-7.361-.532a5.466,5.466,0,0,1-1.959.276c-3.174,2.256-6.344,4.526-10.6,3.125,3.673-1.731,7.7-2.5,10.882-5.539,2.8-2.673,6.424.57,9.968-.231,5.722-1.29,15.281,6.876,15.963,13.184C189.863,86.682,189.8,83.92,187.393,83.239Z" transform="translate(81.113 10.479)" fill="#252e41"/>
    <path id="Path_17497" data-name="Path 17497" d="M177.453,101.535c-3.045-.558-2.211-2.5-1.464-4.3,1.015-2.446,2.946-4.2,5.555-3.685,3.342.659,1.481,4.074,2.461,6.113,2.315.023,1.264-2.578,2.578-3.3,1.507.7.462,2.362,1.251,3.335-1.2,1.4-2.15,3.368-4.5,2.59-1.533-.509-1.639-1.957-1.8-3.382-.113-.979.845-2.718-1.158-2.741-1.321-.016-2.056,1.2-2.437,2.364A18.209,18.209,0,0,0,177.453,101.535Z" transform="translate(96.203 24.438)" fill="#aabf89"/>
    <path id="Path_17498" data-name="Path 17498" d="M179.5,112.7c4.356-.04,7.7-1.415,8.326-6.348,1.258-.763,2.527-1.481,4.086-.959-.657.537-1.566.939-1.928,1.629-4.069,7.754-10.962,10.128-19.11,10.34-.617.016-1.208,1.067-1.809,1.637a1.762,1.762,0,0,1-2.176,0c-.223-2.788,1.495-3.727,3.855-4.059a2.322,2.322,0,0,1,1.443.626C175.742,117.464,177.616,115.072,179.5,112.7Z" transform="translate(89.986 33.113)" fill="#273143"/>
    <path id="Path_17499" data-name="Path 17499" d="M183.85,103.837c-1.809-.589-.624-2.3-1.25-3.334q-.05-1.069-.1-2.136-.91-5.253-1.816-10.51c2.449.056,2.64,2.169,2.741,3.666C183.708,95.614,185.867,99.673,183.85,103.837Z" transform="translate(100.187 20.301)" fill="#323c4a"/>
    <path id="Path_17500" data-name="Path 17500" d="M99.172,181.765q-.55-3.59-1.1-7.182c.452-7.95,3.525-11.023,11.256-11.306,1.112-.042,2.446.487,3.13-.979a.644.644,0,0,1,.179-1.027,2.88,2.88,0,0,0,1.7-2.425c1.09-4.865,4.295-5.925,8.564-4.719,4.05,1.144,7.118,1.019,10.656-2.353,5.032-4.8,14.845-2.082,18.009,4.156,1.067,2.107,1.9,3.638,5.009,2.59,2.485-.838,5.442-.282,8.19-.344q.78,1.491,1.556,2.981c2.053,3.057,1.21,5.89-.662,8.642-8.737,1.38-16.338,5.334-23.437,10.417a1.379,1.379,0,0,1-.706-1.875c1.5-2,2.922-4.067,4.373-6.113-1.495,1.785-2.616,3.843-4.062,5.664-1.761,2.868-1.8,6.8-5.306,8.583-3.355-1.152-2.977-3.8-2.465-6.4,1.145-5.805,4.429-10.38,8.433-14.571,1.962-2.053,4.543-3.666,5.1-6.892-3.793,3.313-6.919,7.239-10.2,11.027-1.043,1.206-1.849,3.751-3.754,2.663s-.959-3.426-.219-5.186c1.26-3,2.71-5.925,3.386-9.914-2.871,1.4-3.222,3.615-3.921,5.618-.77,2.2-.617,4.908-3.252,6.13-2.635-.158-3.374-2.736-5.136-4.008-1.238-1.126-2.188-2.611-4.434-3.547,1.413,5.093,4.533,8.5,7.185,12.137,2.515,3.443,4.22,7.109,4.175,11.425a4.467,4.467,0,0,1-2.529,4.21c-1.53.749-2.187-.252-2.586-1.547a19.111,19.111,0,0,0-3.316-8.993c-.984-1.589-2.037-3.766-4.7-2.675,1.024,3.6,4.7,4.962,6.561,7.841a2.713,2.713,0,0,1,.494,2.758c-2.218,2.553-4.6,1.712-6.989.313-4.495-2.631-7.443-6.638-9.945-11.075a20.674,20.674,0,0,0-3.391-5.1c1.533,3.262,2.555,6.674,3.746,10.027,2.117,5.963,7.291,8.435,12.653,10.728,5.724,2.447,6.162,5.185,1.783,9.546-2.979-1.095-1.8-5.793-5.459-6.306a10.809,10.809,0,0,1-9.612-6.869c-.836-1.922-2.644-2.572-4.415-3.134C101.909,184.11,100.124,183.618,99.172,181.765Z" transform="translate(39.205 65.672)" fill="#c5d28a"/>
    <path id="Path_17501" data-name="Path 17501" d="M139.827,219.6a9.746,9.746,0,0,1-2.207-6.029,22.075,22.075,0,0,1,.879-9.061,230.867,230.867,0,0,0,5.235-27.709c.222-1.742,1.118-3.231,1.483-4.9a2.735,2.735,0,0,1,1.086-1.324l1.6-.193c3.984,2.406,2.64,6.061,2.14,9.459-.21,1.436-1.78,2.531-1.182,4.227l-1.742,4.422c.462,8.374-2.593,16.128-4.382,24.092C142.2,215,142.657,218.049,139.827,219.6Z" transform="translate(68.265 81.212)" fill="#d95f67"/>
    <path id="Path_17502" data-name="Path 17502" d="M144.419,186.144c-1.312-2.844.876-5.494.435-8.369-.285-1.856-.356-3.687-1.39-5.317a30.158,30.158,0,0,1,14.013-4.895c2.433,2.7,5.847,1.9,8.868,2.489C157.465,173.281,148.488,176.367,144.419,186.144Z" transform="translate(72.712 79.133)" fill="#d13e40"/>
    <path id="Path_17503" data-name="Path 17503" d="M137.638,209.512l-1.67.063-.151-1.46c1.926-9.735,3.874-19.465,5.755-29.207.323-1.674.358-3.4.525-5.1q1.52-1.056,3.036-2.114c1.828,4.078.007,8.053-.579,11.976-1.229,8.249-3.368,16.338-5.159,24.486A1.468,1.468,0,0,1,137.638,209.512Z" transform="translate(67.067 82.178)" fill="#d95e67"/>
    <path id="Path_17504" data-name="Path 17504" d="M131.6,192.495c2.034-4.981,2.256-10.729,6.294-14.861,1.743,3.963-.384,7.635-1.081,11.331-1.064,5.649-2.6,11.221-4.112,16.783-1.849-4.069-.466-8.428-1.126-12.6Z" transform="translate(63.933 86.566)" fill="#d56265"/>
    <path id="Path_17505" data-name="Path 17505" d="M136.864,210.129c3.41-8.755,4.695-18.021,6.459-27.165.676-3.506,1.556-7.024,1.036-10.658a7.293,7.293,0,0,1,.294-.916,1.154,1.154,0,0,1,1.641-.344,267.2,267.2,0,0,1-8.249,42.173Q137.455,211.675,136.864,210.129Z" transform="translate(67.841 81.561)" fill="#c34146"/>
    <path id="Path_17506" data-name="Path 17506" d="M110.531,175.334c3.076.987,3.066,4.206,4.576,6.327a2.981,2.981,0,0,1,1.123.812c1.533,3.125,4.533,4.238,7.477,5.411a4.261,4.261,0,0,0,3.739-.6c1.945-.737,2.9-2.644,4.5-3.8a1.429,1.429,0,0,1,1.231.351c-.15,3.44-2.48,5.047-5.275,6.249-2.817,1.21-5.647,2.393-8.47,3.589-.5-2.07,1.962-2.021,2.592-3.775-5.221-1.194-8.119-4.634-9.247-9.777-.471-2.145-2.216-3.426-4.024-4.521A1.318,1.318,0,0,1,110.531,175.334Z" transform="translate(47.089 84.698)" fill="#353e4d"/>
    <path id="Path_17507" data-name="Path 17507" d="M132.218,207.048c.235-7.778,3.587-14.909,4.7-22.519a37.687,37.687,0,0,0,.492-5.593c.556-1.112.834-2.409,2.067-3.063-.937,11.039-3.808,21.655-7.058,32.186A2.881,2.881,0,0,1,132.218,207.048Z" transform="translate(64.412 85.266)" fill="#c64146"/>
    <path id="Path_17508" data-name="Path 17508" d="M141.339,164.558c2.392-2.5,1.79-5.473,1.354-8.425,3.05,2.121,1.782,9.012-2.115,11.253a6.02,6.02,0,0,1-2.412.833c-4.587.367-5.327,3.32-5.331,7.194,0,3.089,1.345,6.613-1.971,9.026-.188-.189-.375-.377-.565-.567-.652-2.117.346-4.215.059-6.328a36.008,36.008,0,0,1,.316-6.518C132.244,165.6,137.535,166.306,141.339,164.558Z" transform="translate(62.829 70.696)" fill="#2f3848"/>
    <path id="Path_17509" data-name="Path 17509" d="M133.436,188.688c-.016.217-.024.435-.026.65-1.444,4.359-.7,9.341-4.333,14.525.926-4.613,1.835-7.867,2.174-11.18.329-3.215.071-6.49.885-9.892Q132.788,185.741,133.436,188.688Z" transform="translate(62.093 90.373)" fill="#2f3a47"/>
    <path id="Path_17510" data-name="Path 17510" d="M123.884,185.21l-1.2-.03a3.291,3.291,0,0,1-1.253-2.2c-.17-3.789-.565-7.67,3.758-9.726a2.078,2.078,0,0,1,1.594.506C123.048,176.876,126.02,181.689,123.884,185.21Z" transform="translate(56.378 83.323)" fill="#555e64"/>
    <path id="Path_17511" data-name="Path 17511" d="M116.053,202.223c-4.776-4.33-5.016-13.144-.421-15.41C112.064,192.052,114.556,197.123,116.053,202.223Z" transform="translate(49.727 93.341)" fill="#36404c"/>
    <path id="Path_17512" data-name="Path 17512" d="M142.987,174.6l-1.643.344c1.069-2.776.137-6.115,2.312-8.9,1.45,2.873-.8,5.244-.236,7.736A3.18,3.18,0,0,0,142.987,174.6Z" transform="translate(71.148 78.008)" fill="#454b51"/>
    <path id="Path_17513" data-name="Path 17513" d="M125.183,175.014l-1.688-.066a2.609,2.609,0,0,1,.5-1.618c2.065-2.1,4.736-1.722,7.3-1.794,1.436.052,2.882.075,4.052,1.1a.9.9,0,0,0,.374.429C132.56,175.629,128.364,172.572,125.183,175.014Z" transform="translate(57.973 82.065)" fill="#232c40"/>
    <path id="Path_17514" data-name="Path 17514" d="M167.018,86.128c5.765,1.888,10.31,5.18,12.838,10.914a2.819,2.819,0,0,0,2.565,1.43c4.1.866,4.394,4.728,5.977,7.582a4.45,4.45,0,0,1-.417,3.747c-.638.5-1.436.514-1.755-.16-2.233-4.717-5.956-8.286-9.182-12.252a20.184,20.184,0,0,0-10.8-7.408c-5.9-1.764-11.7-1.3-17.454-2.147-3.182-.468-6.843,1.05-10.349.127l-4.013,3.061c-2.743.873-3.985,4.211-7.17,4.361-1.371,2.59-5.35,2.042-6.254,5.2-.574-2.324-.572-2.946.956-3.713,4.94-2.475,8.12-7.583,13.655-9.108,5.313-1.465,10.222-5.444,16.321-2.173,1.467.787,3.718.276,5.583.1.952-.09,2.475-.586,2.642-1.2.363-1.326-.765-2.148-2.1-2.334-2.626-.367-1.776-3-2.887-4.345,3.014.083,4.159,3.017,5.755,4.63A14.788,14.788,0,0,0,167.018,86.128Z" transform="translate(55.873 12.884)" fill="#242e40"/>
    <path id="Path_17515" data-name="Path 17515" d="M131.073,73.13c2.777-2.856,5.12-1.168,6.8,1.1,1.815,2.447,3.318,5.016,6.547,5.764-2.826.9-4.813.245-6.116-2.682C136.969,74.307,134.714,72.388,131.073,73.13Z" transform="translate(63.566 8.32)" fill="#1c273b"/>
    <path id="Path_17516" data-name="Path 17516" d="M109.2,157.9c-.059.341-.118.681-.179,1.025-2.97-.249-3.782-2.962-6.3-5.032C106.389,154.045,107.02,157.134,109.2,157.9Z" transform="translate(42.64 69.043)" fill="#282130"/>
    <path id="Path_17517" data-name="Path 17517" d="M117.98,180.584l-1.782.266c-2.758.469-5.3-.111-6.662-2.637-2.039-3.787-4.693-6.556-9-7.6a2.079,2.079,0,0,1-1.8-2.623c5.086,2.094,9.921,4.394,12.407,9.879C112.428,180.706,116.118,178.572,117.98,180.584Z" transform="translate(39.64 79.448)" fill="#323b4b"/>
    <path id="Path_17518" data-name="Path 17518" d="M107.864,194.061c-1.818-5.211-5.944-7.766-10.9-9.4C103.467,184.684,106.867,187.562,107.864,194.061Z" transform="translate(38.393 91.753)" fill="#333e4d"/>
    <path id="Path_17519" data-name="Path 17519" d="M103.448,184.555c-4.658-2.425-6.878-6.773-8.736-11.438,3.073,3.641,5.572,7.778,9.318,10.806C104.124,184.4,103.929,184.609,103.448,184.555Z" transform="translate(36.728 83.232)" fill="#323c4c"/>
    <path id="Path_17520" data-name="Path 17520" d="M100.32,179.334l10.234,5.644c-4.276-.424-7.679-2.459-10.814-5.011Q100.028,179.649,100.32,179.334Z" transform="translate(40.439 87.821)" fill="#333d4c"/>
    <path id="Path_17521" data-name="Path 17521" d="M88.073,137.678c-.37-6.243.956-12.261,2.049-18.309l1.3.125L89.072,138.8C88.457,138.679,88.4,138.061,88.073,137.678Z" transform="translate(31.781 43.56)" fill="#4e4252"/>
    <path id="Path_17522" data-name="Path 17522" d="M88.046,129.9q.5.561,1,1.123-.031,6.591-.063,13.177a7.994,7.994,0,0,1-.935.052Q88.048,137.08,88.046,129.9Z" transform="translate(31.808 51.335)" fill="#172136"/>
    <path id="Path_17523" data-name="Path 17523" d="M155.653,78.972c-1.686,2.666-4.872,2.8-7.253,4.286C149.445,79.507,152.9,79.836,155.653,78.972Z" transform="translate(76.356 13.743)" fill="#1d273b"/>
    <path id="Path_17524" data-name="Path 17524" d="M175.227,117.909c-1.309-1.915-4.2-.073-5.392-2.28,2.193.028,4.656-1.4,6.407,1.069C177.281,118.168,175.461,117.412,175.227,117.909Z" transform="translate(92.177 40.514)" fill="#101c32"/>
    <path id="Path_17525" data-name="Path 17525" d="M109.858,109.021c-.37,1.7-1.968,1.761-3.155,2.272-.709.308-1.33-.146-1.351-1.02-.038-1.644,1.476-1.783,2.456-2.286C108.673,107.543,109.447,108.1,109.858,109.021Z" transform="translate(44.582 35.045)" fill="#658245"/>
    <path id="Path_17526" data-name="Path 17526" d="M132.765,89.32c2.944-1.573,7.133,1.175,9.41-2.713,4.822,5.329,12.384-1.377,17.24,3.912.282.306,1.05.584,1.323.422,3.97-2.36,6.042.448,8.148,2.979,4.618,5.551,10.079,10.477,12.961,17.329a8.5,8.5,0,0,0,3.122-5.193c.574-3.169,2.635-4.587,5.654-4.726-.767-.806-2.087-.169-3.176-.607-2.4-.965-4.29-2.3-4.481-5.115a5.157,5.157,0,0,1,3.773-5.546c2.517-.89,4.371-1.3,2.237-4.8-1.867-3.057.44-6.309,5.419-9.108,2.826-.541,5.176-.043,6.4,2.923-3.826,1.291-4.109,3.923-2.124,6.8,2.564,3.718,2.357,6.627-1.589,9.064a2.479,2.479,0,0,0-1.451,2.529c.229,1.349,1.429,1.144,2.412,1.4,4.889,1.281,5.512,2.708,3.341,7.184a28.84,28.84,0,0,0-1.321,3.342,21.345,21.345,0,0,0-.483,2.47c2.432-.939,4.891-2.9,6.2.5,1.158,3-.01,5.479-2.654,6.984-2.593,1.479-5.254,2.322-3.7,6.436.914,2.425-2.3,3.541-3.334,5.5,3.075.754,6.718,1.083,4.53,5.864l-1.065-.137c-1.156-.358-2.2-.984-3.313-1.429-3.676-1.46-4.823-3.744-2.353-7.178,1.78-2.473,1.629-4.655-1.375-7.524,2.362,9.527-5.226,9.28-10.964,12.358a39.269,39.269,0,0,0,4-1.778c2.1-.965,4.071-.829,5.593,1.041,1.67,2.051,1.279,4.177-.191,6.155a9.49,9.49,0,0,1-3.829,3.37,2.247,2.247,0,0,1-2.532-1.039c-.428-1.742.89-2.8,2.044-4.877-3.158,3.012-7.211,1.338-9.78,3.989-2.845,2.154-3.57,6.318-7.264,7.662-.309-.021-.619-.033-.93-.042-1.975-.607-3.195,3.5-5.491.879,1.236-1.255,3.859-1.825,2.84-4.281-1.093-2.632-1.835-5.7-5.034-6.824-.638-.222-1.4-.1-2.034-.332-2.645-.992-5.009-2.406-5.976-5.258-.327-.966-.268-2.366.982-2.576,3.189-.534,6-4.609,9.646-1.137.716.681,1.437,1.356,2.312,2.181-2.049,1.279-6,.13-5.049,3.879.85,3.341,3.389,1.888,5.456,1.012h0c-.1,4.547,3.348,2.816,5.579,3.089,3.05.372,3.878-1.908,4.224-4.173.372-2.433.129-5.4-2.678-5.9-3.316-.584-4.262-2.1-3.24-5.95-1.361,1.05-2.261,1.394-2.315,1.839-.584,4.884-3.445,2.07-5.136,1.311-2.619-1.177-2.585-2.227-.249-4.663,2.12-2.213.384-5.678-2.482-7.316-2.067-1.178-3.009-2.129-2.209-4.775.873-2.882-.7-5.013-3.723-5.758-1.83-.452-3.8-.521-5.5-1.253-1.83-.791-4.218-2.089-3.544-4.384.763-2.6,2.861-.874,4.267-.2,1.636.786,2.633.073,3.579-1.052,1.954-2.324-.191-4.064-1.038-6.494-.355,4.368-1.981,5.463-6.158,4.463-2.868-.688-4.194,3.9-1.98,6.607,2.352,2.873,5.753,3.666,9.127,4.423,1.667.374,3.313.952,2.734,2.915-.6,2.025-2.623,1.4-3.984.982a17.578,17.578,0,0,1-4.034-2.256c-1.862-1.185-3.62-2.081-5.421.151-1.038,1.288-2.247,1.417-3.528.146-1.154-1.145-1.483-2.216-.332-3.586a4.978,4.978,0,0,0,.537-5.388c-1.3-3.182-3.243-4.822-5.974-1.41-1.288,1.611-2.673,2.788-4.02.918-1.643-2.275,1.378-2.032,2.279-2.9C132.675,93.14,134.832,91.934,132.765,89.32Z" transform="translate(61.546 11.526)" fill="#a8be84"/>
    <path id="Path_17527" data-name="Path 17527" d="M141.44,129.972a1.7,1.7,0,0,1-.407-.925c2.437-2.388.483-3.4-1.335-4.655-1.354-.93-3.464-2.174-2.063-4,1.184-1.542,2.253.612,3.219,1.333a2.839,2.839,0,0,0,4.144-.264,3.472,3.472,0,0,0,.9-4.17c-1.293-3.687-4.006-5.917-7.151-7.839-1.43-.874-3.685-1.6-3.148-3.546.532-1.931,2.95.391,3.45-.273,2.788-3.687,7.217.4,10.121-2.378a1.381,1.381,0,0,1,2.166.612,1.873,1.873,0,0,1-1.041,2.6c-2.772.754-5.652,1.269-4.8,5.187.89,4.081,3.563,6.574,7.5,7.769.49.149,1.053.071,1.53.243,2.154.772,3.987,2.306,3.09,4.578-1.137,2.878-3.4,1.1-5.164.315-.933-.415-1.679-1.34-2.63-1.6-1.639-.454-3.358-.8-4.575,1.128-1.114,1.771-.221,2.854.928,4.039.833.857,1.53,1.846,2.286,2.774C145.812,132.937,143.578,131.817,141.44,129.972Z" transform="translate(66.848 31.432)" fill="#a5bd7e"/>
    <path id="Path_17528" data-name="Path 17528" d="M165.249,122.846c.992-1.18,1.971-2.371,2.979-3.539,1.43-1.658,1.755-3.45.156-5.074-1.528-1.55-3.37-1.554-5.117-.2-.819.631-1.514,1.432-2.369,2-.942.622-2.112.744-2.623-.452-.478-1.121-.52-2.482,1.076-2.929,1.646-.461,3.381-.627,5-1.158,6.283-2.058,7.17-4.6,3.269-10.239,2.466.294,5.046-.243,6.155,2.211,1.015,2.251,2.439,4.67-.692,7.027-2.55,1.917-2.313,4.344,1.3,4.983,1.9.337,2.479,1.615,3.3,2.887-1.66.791-3.349,1.545-4.081,3.435q-1.593,1.069-3.188,2.134-.5-.023-1-.059C167.828,124.323,166.036,125.632,165.249,122.846Z" transform="translate(83.43 30.186)" fill="#819867"/>
    <path id="Path_17529" data-name="Path 17529" d="M151.427,119.152a3.4,3.4,0,0,0,4.081-2.3c.193-.516.384-1.561,1.163-.57.355.45.181,1.316.247,1.992-3.727,3.069-7.745,4.943-12.673,3.085C146.047,118.7,149.567,121.624,151.427,119.152Z" transform="translate(73.289 40.979)" fill="#283143"/>
    <path id="Path_17530" data-name="Path 17530" d="M156.769,131.282c-2.054-3.749-2.423-6.059-1.832-11.058,1.879,1.481,1.361,3.434,1.377,5.079C156.331,127.143,157.7,128.81,156.769,131.282Z" transform="translate(80.993 44.191)" fill="#2d3547"/>
    <path id="Path_17531" data-name="Path 17531" d="M156.928,114.736l-.188-1.827c2.534-.52,5.176-2,7.337.82a2.24,2.24,0,0,0,2.091,1.142c1.105,1.484,2.767.714,4.163,1.022-1,2.343-3.24,1.524-4.236.824C163.218,114.7,159.99,115.287,156.928,114.736Z" transform="translate(82.511 38.161)" fill="#212a3e"/>
    <path id="Path_17532" data-name="Path 17532" d="M138.813,212.03c3.607-10.1,5.668-20.555,7.3-31.114q.516-.138,1.032-.28c-.826,11.466-3.826,22.463-7.2,33.38Z" transform="translate(69.279 88.782)" fill="#c54045"/>
    <path id="Path_17533" data-name="Path 17533" d="M127.517,89.831c2.922-.581,3.282-5.372,7.171-4.361-1.444,2.051-5.027,3.822-1.87,6.749,2.482,2.3,5.536,3.163,7.629-.952a1.1,1.1,0,0,1,1.717-.506,2.472,2.472,0,0,1,.711,3.278c-2.585,3.624-2.287,6.68,1.232,9.412a1.31,1.31,0,0,1,.188,2.18,2.358,2.358,0,0,1-3.278.214c-2.4-1.491-3.082-4.05-4.053-6.431-1.06-2.605-2.724-4.634-5.774-4.2-2.91.415-3.8,2.652-3.678,5.374.085,1.948-.852,2.944-2.8,2.776-1.45-.125-3.294.713-4.154-1.161-.77-1.677.315-2.885,1.345-4.138,1.827-2.22,4.41-3.271,6.725-4.752.833-.532,1.862-1.3,1.535-2.466C129.8,89.557,128.467,90.021,127.517,89.831Z" transform="translate(55.611 18.436)" fill="#a4bd7d"/>
    <path id="Path_17534" data-name="Path 17534" d="M150.188,112.387c-.1-1.543,1.4-2.4,1.677-3.657.52-2.386,1.976-1.717,3.488-1.531,2.244.275,2.061,1.884,2.108,3.452.056,1.966-.888,2.753-2.817,2.788a8.6,8.6,0,0,1-4.455-1.052Z" transform="translate(77.672 34.409)" fill="#a8be84"/>
    <path id="Path_17535" data-name="Path 17535" d="M162.81,107.158c-2.359-2-2.633-5.5-5.237-7.328,2.1-3.217,4.384-6.226-1-8.877-2.331-1.147-3.165-3.742-1.015-6.13,2.049-2.279,4.138-1.936,6.269.082,1.032.977,1.856,2.92,3.763,1.924,2.044-1.069.4-2.724.348-4.131-.07-1.9-.071-3.8-.1-5.7l1.132-1.025c2.7,2.489,3.711,10.416,1.552,12.728-2.962,3.174-5.9.923-8.953-.278,2.878,2.442,4.978,4.964,3.846,8.984-.419,1.491,1.354,2.3,1.764,3.563C166.036,103.6,167.106,106.443,162.81,107.158Z" transform="translate(80.721 11.526)" fill="#a9be88"/>
    <path id="Path_17536" data-name="Path 17536" d="M161.756,107.449a8.429,8.429,0,0,0,1.745-1.808c1.881-3.753-3.787-5.477-3.036-7.151,1.653-3.685,1.342-5.741-1.994-7.736-1.382-.827-3.645-1.856-2.334-3.869,1.571-2.411,2.814.073,4.128.906,1.7,1.078,3.351,2.823,5.593,1.321,2.216-1.488,2.536-3.565,1.4-5.927-1.05-2.188.636-4.915-1.35-6.925,2.8-2,5.484,1.083,8.258.189a42.329,42.329,0,0,0-3.395,3.885c-1.5,2.174-3.033,4.4.422,6.452,2.9,1.722,1.354,2.937-.779,3.739-.951.356-2.056.3-3.009.655-2,.742-3.7,1.693-3.681,4.345.019,2.637,1.705,3.688,3.718,4.331,2.35.749,5.1.615,6.839,4.076-5.312-2.06-8.664-1.592-8.548,4.632.047,2.419-2.188,2.739-4.121,2.976Q161.687,109.494,161.756,107.449Z" transform="translate(81.775 11.235)" fill="#809866"/>
    <path id="Path_17537" data-name="Path 17537" d="M140.849,187.9c-.212.334-.426.666-.64,1-3.238,2.494-1.921,6.217-2.541,9.417-1.284,2.185-2.034,4.684-3.866,6.544-1.413.586-2.715,2.119-4.39.527-1.768-1.747-.322-4.012-1-6.233-2.339-.634-4.754,2.525-7.124.233q-.172-.568-.349-1.138c3.384-5.545,3.207-5.866-3.233-8.478-6.848-2.776-12.125-6.933-13.429-14.9-.37-2.254-2.042-4.274-2.957-6.467-.433-1.039-1.043-2.459.671-3.017,1.217-.395,1.842.631,2.353,1.536,1.771,3.143,3.436,6.346,5.286,9.44,3.558,5.955,9.012,8.871,13.521,7.368,1.175-.629,1.495.417,2.032,1.039,2.738,1.954,3.08-.4,3.08-2.025a16.323,16.323,0,0,0-3.082-9.593c-2.678-3.775-5.359-7.556-7.818-11.471-.815-1.3-2.581-3.207-.667-4.536,1.8-1.248,2.967.98,4.206,2.058.777.676,1.49,1.427,2.23,2.145.589,2.034,2.254,3.415,3.21,5.254.68,1.309.4-.747.97-.546,1.583-1.756,1.636-4.05,2.26-6.162s1.093-4.373,2.974-5.911c.952-.779,1.891-1.811,3.174-1.116,1.467.793.7,2.049.275,3.167-1.043,2.732-2.054,5.477-3.109,8.206-.607,1.569-1.874,2.974-1.032,5.258,3.892-4.691,7.669-9.2,11.386-13.757,1.1-1.352,2.047-3.243,4-1.316,1.689,1.665.487,3.155-.794,4.443-3.77,3.787-8.058,7.18-10.519,12.035-2.035,4.015-5.12,8.08-1.646,12.876.8,2.805-1.519,4.961-1.507,7.043,1.875-4.295,2.339-9.9,7.048-13.314,6.417-6.3,13.7-10.663,23.086-10.366-.85,2.14-2.864,2.136-4.641,2.392-2.437.349-3.735,2.051-5.04,3.815C148.342,177.552,142.554,180.99,140.849,187.9Z" transform="translate(41.259 68.115)" fill="#f2efc2"/>
    <path id="Path_17538" data-name="Path 17538" d="M119.09,177.184l-2.032-1.039-1.015-1.521c-.975-3.718-5.558-4.8-6.332-8.668-.2-.819-.831-1.884-.527-2.407.813-1.4,1.639-.12,2.452.33C116.879,166.776,118.362,171.766,119.09,177.184Z" transform="translate(47.35 75.699)" fill="#ebeabe"/>
    <path id="Path_17539" data-name="Path 17539" d="M126.728,167.98c-3.833,4.9-5.355,10.91-8.061,17.833-.516-5.141,1.752-8.174,2.52-11.562q2.555-4.343,5.112-8.689.832-.146.749.694Z" transform="translate(54.354 77.64)" fill="#3e4453"/>
    <path id="Path_17540" data-name="Path 17540" d="M123.026,169.642a31.693,31.693,0,0,1,8.089-9.629c-2.233,4.762-5.127,7.312-7.342,10.323A8.832,8.832,0,0,0,123.026,169.642Z" transform="translate(57.627 73.56)" fill="#394250"/>
    <path id="Path_17541" data-name="Path 17541" d="M110.179,164.692c2.164,2.85,5.911,4.543,6.332,8.668-2.482-2.482-5.086-4.856-7.4-7.483C107.424,163.974,109.536,164.85,110.179,164.692Z" transform="translate(46.883 76.963)" fill="#343e4e"/>
    <path id="Path_17542" data-name="Path 17542" d="M117.849,162.356l.381,2.506c-1.992-2.108-4.342-3.987-4.561-7.215C115.875,158.5,116.25,160.969,117.849,162.356Z" transform="translate(50.72 71.813)" fill="#3b4250"/>
    <path id="Path_17543" data-name="Path 17543" d="M112.608,180.768c1.542-.023,3.063.04,4.392-1.06,1.083-.9,2.054-2.805,3.826-1.272,1.349,1.166.914,2.75.478,4.307a29.073,29.073,0,0,0-.568,4.025C117.534,185.433,113.5,185.23,112.608,180.768Z" transform="translate(49.937 86.732)" fill="#c3d08a"/>
    <path id="Path_17544" data-name="Path 17544" d="M119.809,185.461c.6-2.59,1.036-5.273,3.866-6.544l.13,2.074A5.653,5.653,0,0,1,119.809,185.461Z" transform="translate(55.252 87.513)" fill="#c1ce8a"/>
    <path id="Path_17545" data-name="Path 17545" d="M124.139,179.1c-1.915-3.5.831-5.3,2.706-7.413,2.717-3.066,5.233-6.407,9.673-7.14q-.057,3.645-.115,7.291c-.954,2.595-2.894,4.38-4.971,6.052C128.919,177.8,126.412,177.75,124.139,179.1Z" transform="translate(57.969 76.909)" fill="#c4d18a"/>
    <path id="Path_17546" data-name="Path 17546" d="M128.059,174.8c.509-2.96,2.9-4.371,4.971-6.052.587,2.15-.5,4-1.055,5.953Z" transform="translate(61.342 80.006)" fill="#e9e6be"/>
    <path id="Path_17547" data-name="Path 17547" d="M157.624,113.518c.918-6.2,5.5-9.918,8.586-14.492,1.086-1.609,3.337-1.792,5.275-1.312,1.563.386,3.184,1.363,2.934,3.1-.33,2.289-2.067,1.523-3.636,1.1-2.124-.577-4.2-.311-5.518,1.736-1.424,2.209.707,2.977,1.837,4.125,1.82,1.846.217,2.781-1.1,3.48A22.567,22.567,0,0,1,157.624,113.518Z" transform="translate(83.164 27.405)" fill="#809866"/>
    <path id="Path_17548" data-name="Path 17548" d="M171.923,102.164c-2.513-.287-4.213-1.7-6.391-1.463-3.563.382-2.282-2.882-2.555-4.3-.45-2.355,1.74-1.988,3.207-1.6,2.529.68,4.66.574,4.517-2.685-.09-2.1,1.019-1.874,2.173-1.613,1.556.349,2.409,1.323,1.641,3.01C173.257,96.282,171.433,98.839,171.923,102.164Z" transform="translate(87.071 22.134)" fill="#809866"/>
    <path id="Path_17549" data-name="Path 17549" d="M171.258,82.168c2.261,1.846,2.984,3.687,1.017,5.409a23.829,23.829,0,0,0-4.161,4.46c-1.177,1.719-2.976,1.4-4.634.6-.907-.438-2.084-.888-1.762-2.178.447-1.8,2.107-2.185,3.617-2.331C168.806,87.789,170.878,86.046,171.258,82.168Z" transform="translate(86.146 16.102)" fill="#809866"/>
    <path id="Path_17550" data-name="Path 17550" d="M164.468,115.61c-2.282-1.729-5.082,1.166-7.337-.82a.943.943,0,0,1-.921-.276c.866-1.236,1.505-2.7,3.549-2.206a6.356,6.356,0,0,0,2.991-.057c1.837-.48,3.419-4.171,4.954-2.138C169.418,112.384,165.064,113.378,164.468,115.61Z" transform="translate(82.12 36.28)" fill="#809767"/>
  </g>
</svg>
