<svg xmlns="http://www.w3.org/2000/svg" width="56.098" height="87.13" viewBox="0 0 56.098 87.13">
  <g id="Group_95" data-name="Group 95" transform="translate(-359.907 -378.8)">
    <path id="Path_25172" data-name="Path 25172" d="M362.854,394.378a8.769,8.769,0,0,0-1.009,2.777c.078,17.3-.978,34.741,6.438,51.115,3.559,7.859,9.066,13.749,17.416,16.387a25.289,25.289,0,0,0,21.581-2.72c11.6-7.183,11.756-28.446-.26-34.782-12.65-6.671-19.4-17-23.023-30.148-.3-1.072-.746-2.1-1.125-3.151-2.1-.452-3.711,1.012-5.588,1.446-1.224.283-1.373,1.187-1.014,2.325.44,1.4,1.41,2.609,1.491,4.355a4.723,4.723,0,0,1-4.37-2.271c-1.852-2.541-3.829-2.678-6.318-1.077a4.345,4.345,0,0,1-2.754.861c-.7-1.43.518-2.389.658-3.554C365.194,394.137,364.5,393.626,362.854,394.378Z" fill="#483252"/>
    <path id="Path_25173" data-name="Path 25173" d="M362.854,394.378c1.2.093,1.906.377,1.154,1.826a10.409,10.409,0,0,0-1.169,3.486c-.132,1.145.48,1.978,1.846,1.25.433-.231.771-.637,1.2-.874,2.7-1.481,5.408-3.367,7.418.993a3.953,3.953,0,0,0,2.777,1.745c1.063.259,2.247.941,3.144-.093.981-1.131-.6-1.64-.894-2.482-.475-1.37-1.152-2.669-1.826-4.183a12.377,12.377,0,0,0,6.366-2.19c.22-.818.753-1.983-.478-2.159-3.44-.493-3.412-2.389-2.435-4.981a2.812,2.812,0,0,0-.506-2.639l-6.965,3.546c-.816-2.32-1.547-4.662-2.477-6.922-.445-1.083-1.044-2.538-2.715-1.6-1.468.825-2.113,1.967-1.147,3.707,1.2,2.154,2.211,4.407,3.381,6.772-2.33.839-4.461-.735-6.456.408-1.276.731-3.142,1.1-3.167,2.771C359.883,394.416,362.163,393.23,362.854,394.378Z" fill="#a3c43e"/>
  </g>
</svg>
