<svg xmlns="http://www.w3.org/2000/svg" width="382.925" height="263.495" viewBox="0 0 382.925 263.495">
  <g id="Group_52" data-name="Group 52" transform="translate(-72.143 -193.889)">
    <path id="Path_13412" data-name="Path 13412" d="M375.847,275.116c4.379,9.192,2.3,17.077-4.845,23.936-.079.22-.159.44-.235.662-3.354,3.294-7.509,5.372-11.557,7.612-1.969-.909-2.1,1.318-3.207,1.9-22.818,10.568-42.555,26.515-65.233,37.324a65.729,65.729,0,0,1-11.529,4.649c-3.68.962-7.657,2.344-10.778-.985-2.912-3.108-1.615-6.841-.6-10.383,1.7-5.443,4.083-10.62,6.252-15.88A338.333,338.333,0,0,1,293.9,289.469c4.632-5.987,9.661-11.689,13.266-18.42a1.329,1.329,0,0,1,1.578-.823c2.968-3.5,5.91-7.027,8.908-10.5a50.434,50.434,0,0,1,12.614-10.251c6.97-4.158,13.9-4.81,20.951-.306-.788,11.58,9.64,16.076,15.045,23.739.829,1.176,2.213,1.207,3.642.812A5.582,5.582,0,0,1,375.847,275.116Z" fill="#ee9c6e"/>
    <path id="Path_13413" data-name="Path 13413" d="M379.568,320.068c.523,1.56,1.535,2.93,1.511,4.7-.257,19.127.509,38.367-5.039,56.994-2.916,9.792-6.884,19.066-15.231,25.772a35.492,35.492,0,0,1-39.745,3.372c-.866-.49-1.738-.97-2.8-1.561-.4,1.672-.775,3.216-1.146,4.76-1.821-1.549-1.209-3.6-1.151-5.541.2-6.575-.961-12.807-4.715-18.366-1.23-1.619-2.581-3.167-3.162-5.182.274-9.4,3.7-17.643,11.945-22.188,15.38-8.479,24.923-21,29.478-37.71.549-2.015.88-4.3,2.981-5.547a1.318,1.318,0,0,1,.483-.093c2.918.538,6.5.456,8.424,2.4,2.412,2.436-2.448,5.037-1.276,8.3,2.67.2,4.314-1.585,5.631-3.377,2.158-2.936,4.326-3.778,7.473-1.437,1.1.819,2.5,1.715,3.952,1.157C379.135,324.652,373.733,320.4,379.568,320.068Z" fill="#483252"/>
    <path id="Path_13414" data-name="Path 13414" d="M74.953,298.766q.031-.395.039-.79c-1.315-2.292-1.44-4.867-1.76-7.391-.117-2.723,2.66-5.7-.7-8.155,0-2.079-.091-4.153.059-6.227a74.95,74.95,0,0,1,4.44-14.722c3.485-4.673,6.819-9.542,12.439-11.95,12.542-5.373,19.774.692,26.909,9.549a29.781,29.781,0,0,1,2.568,4.646c1.686,3.81,2.467,7.887,3.512,11.888q.056,6.879,0,13.752a69.248,69.248,0,0,1-4.5,15.15l-1.779,2.434c-1.91,2.246-3.777,4.538-6.354,6.088l-6.795,4.952c-1.6,6.146-.073,12.382-.519,18.566a55.314,55.314,0,0,0,.04,7.406c1.055,3.752-.183,7.681.882,11.434.1,4.251.02,8.5.043,12.753,1.28,14.541.648,29.168,2,43.7.213,4.912-.475,9.85.445,14.74q.2,5.734.029,11.473a8.437,8.437,0,0,1-16.851.587,60.86,60.86,0,0,1-.042-7.979c.673-9.809.447-19.661,1.451-29.451.017-4.234-.035-8.47.027-12.7,1.059-3.71-.1-7.586.834-11.3.3-1.938.017-3.9.2-5.84,1.308-1.691,2.214-3.207.951-5.606-1.214-2.305-.394-5.117-.522-7.711.72-6.831.484-13.679.51-20.518.114-5.364,1.29-10.666.991-16.052-.544-5.145-5.047-6.33-8.545-8.521l.063.053a24.913,24.913,0,0,1-6.05-6.052l.067.077A42.747,42.747,0,0,1,74.953,298.766Z" fill="#fff"/>
    <path id="Path_13415" data-name="Path 13415" d="M308.824,384.774q1.547,2.142,3.092,4.283c7.946,17.885,6.629,34.458-6.978,49.292-10.986,10.129-23.73,15.543-38.883,14.489-1.576-2.348-.3-4.865-.357-7.287-.136-6.155.127-12.32-.634-17.447-.549,6.48-3.228,13.493-4.986,20.716-.344,1.413-1.048,3.434-2.7,3.037-1.756-.422-1.238-2.5-.923-3.921,1.626-7.319,3.6-14.554,5.359-21.843.617-2.562,1.163-5.128-1.005-8.344-.978,4.535-1.806,8.25-2.869,11.9-.48,1.649-.376,3.785-2.666,4.386-2.091-1.722-1.267-3.9-.846-5.954.663-3.235,1.679-6.394,2.212-9.656.282-1.726.987-3.566-.838-5.361-1.531,1.335-1.232,3.269-1.725,4.86-2.287,7.384-2.6,15.3-5.993,22.391-1.332.608-2.522.634-3.352-.81,1.887-8.062,4.341-15.99,5.93-24.125.42-2.154,1.486-4.554-1.088-6.541-1.841,1.406-1.463,3.584-1.951,5.367-2.089,7.641-2.815,15.661-6.414,22.882a1.386,1.386,0,0,1-1.427-.058c-1.46-2.054-.55-4.161-.06-6.215,1.614-6.769,3.491-13.478,4.721-20.336.376-2.1,1.029-4.212-.147-6.98-1.921,8.589-3.952,16.577-5.962,24.571-.519,2.064-.68,4.286-2.2,6-.955.265-1.466-.279-1.871-1.022-.764-2.009-.165-3.954.333-5.879,1.5-5.8,2.7-11.682,4.118-17.5,1.469-6.015,2.591-12.006,1.25-18.193,2.108-5.538,7.061-7.926,11.977-9.733a95.263,95.263,0,0,0,12.8-5.355c9.259,5.015,20.165,6.759,28.2,14.107-2.593-5.946-5.485-8.45-12.668-11.276-2.223-.875-6.214-1.12-5.894-3.539.41-3.1,4.469-2.309,7.069-2.9a6.035,6.035,0,0,1,.995-.056c7-.736,13.338,1.179,19.294,4.745A16.673,16.673,0,0,1,308.824,384.774Z" fill="#d23c3f"/>
    <path id="Path_13416" data-name="Path 13416" d="M184.087,279.522A18.675,18.675,0,0,0,193,275.107c.676-1.378,2.045-1.711,3.307-2.21q.959-.372,1.948-.66a9.061,9.061,0,0,1,2.762-.311,8.357,8.357,0,0,1,2.081.362,17.172,17.172,0,0,1,8.379,5.011c.854.857,1.716,1.707,2.5,2.639,2.623,3.6,3.287,7.879,4.222,12.073a11.989,11.989,0,0,1,.124,1.582c.385,3.285-.693,6.43-.888,9.659-1.325,6.323-1.313,12.972-4.56,18.824-.337.109-.738.154-.892-.074-.589-.864-6.611-5.251-7.56-5.437a6.475,6.475,0,0,1-.006-4.441c.286-7.41.289-14.8-1.857-22.015,2.1,7.02,2.038,14.224,1.894,21.438-.717,1.937-.253,4-.657,5.972a3.044,3.044,0,0,1-1.038,1.664c-9.228,5.631-16.983,13.2-25.668,19.542-3.661,1.033-6.253,3.538-8.757,6.221-1.164,1.247-2.129,3.187-4.457,2.111-3.756-5.809-3.422-12.533-4.188-18.991-.326-2.756.22-5.6-.745-8.312a55.352,55.352,0,0,1-.027-12.267,217.013,217.013,0,0,1,3.714-21.476c.938-3.09.431-7.306,5.538-7.176l3.227.481c1.238,1.933.962,4.022.645,6.112-.346,1.025-.807,1.928-1.7,1.9,2.977-1.8,6.554-1.894,10.212-1.218,2.683,1.284,4.257-.619,6.1-2.005,1.417-1.068,2.884-2.089,3.916-3.007-1.164.55-2.193,2.346-4.153,2.3A3.185,3.185,0,0,1,184.087,279.522Z" fill="#d23c3f"/>
    <path id="Path_13417" data-name="Path 13417" d="M452.2,453.689l-.173,1.222c-5.274,2.848-7.706,2.366-11.078-2.194q.033-.384.034-.769c-.986-5.514-.26-11.071-.418-16.606,1.042-5.47-.012-11.02.624-16.507.725-6.491.123-13.005.337-19.5,1.132-5.459-.189-11.064.98-16.522.309-5.589-.6-11.213.484-16.778L439.3,360.07c-4.106-4.155-5.446-9.1-4.492-14.832a40.479,40.479,0,0,0,.281-5.875c.847-3.02.191-6.12.505-9.167.851-2.425-.174-5.217,1.467-7.487q-.012-2.7-.022-5.394c-.085-2.762-.573-5.568.9-8.157q.039-2.041.079-4.083a133.607,133.607,0,0,1,1.962-26.02q.039-2.163.077-4.328c-.132-5.147-.523-10.345,2.969-14.763l-.051.054c3.213-2,6.413-4.154,10.067-.836l.937,1.25c.836,1.738.488,3.6.489,5.4q.027,40.614.01,81.221c-3.429,10.623-2.778,21.506-2.031,32.4.321,7.1-.5,14.218.492,21.3.35,5.515-.466,11.066.488,16.564.366,7.1-.492,14.235.5,21.322.124,3.423.074,6.848.041,10.272C453.956,450.691,454.019,452.552,452.2,453.689Z" fill="#fff"/>
    <path id="Path_13418" data-name="Path 13418" d="M375.847,275.116c-2.286-.034-4.511-1.457-6.868.608-1.218,1.067-2.671-.679-3.652-1.762-4.411-4.869-8.715-9.837-13.185-14.65-2.992-3.222-2.068-6.635-.93-10.147,1.333-.881,3.028-1.335,2.856-3.583-.125-1.647-.084-3.512,2.726-2.6.863.28.99-.2.661-2.275-.366-2.318-1.77-4.909,1.94-6.069.963-.3.455-1.816.736-2.714.584-1.868-2.32-6.138,3.15-4.872.137.032.592-.477.546-.6-2.123-5.578,4.787-6.87,5.337-11.228.154-1.214.969-2.833,2.5-2.6,1.629.247,1.157,2.147,1.563,3.417,1.366-.365,1.421-1.648,2.009-2.494.8-1.15,1.938-2.272,3.244-1.9,1.806.508.893,2.1.724,3.376-.186,1.411-.761,2.954.868,4.079.468.323,1.04,1.384.885,1.585-2.439,3.175-1.768,7.8-4.152,10.533a10.124,10.124,0,0,0-2.769,6.788c-1.085,1.238-1.254,2.953-2.307,4.208,1.131-1.225,1.329-2.922,2.251-4.254,3.593,1.22,5.559.279,6.219-3.8.291-1.8.136-5.643,4.565-3.231,1.927,1.049,1.593-2.182,2.537-3.254,1.266-1.437,1.231-6.639,4.96-1.834.808,1.042,1.274-.4,1.731-.9,1-1.109,1.871-2.343,2.914-3.408,1.122-1.145,2.172-3.161,4.007-2.341,2.375,1.061.367,3.174.488,5.012,1.324.009,1.825-1.153,2.617-1.785,1.67-1.331,3.722-2.419,5.38-.843,1.458,1.387-.307,3.094-1.148,4.384-1.116,1.714-1.79,2.82-.5,5.138,1.481,2.658-1.744,3.323-3.52,4.342-1.5.86-4.839.374-2.454,3.912.63.934-.735,2.062-1.893,2.514-1.583.616-3.785,1.425-2.24,3.307,1.082,1.317,2.3-1.057,3.495-1.707.145-.079.261-.227.412-.279,1.353-.47,2.376-2.37,3.931-1.549,1.6.847-.246,2.739.622,4.13.958-.387,1.887-.731,2.79-1.134,1.139-.51,2.346-.8,3.176.326.894,1.214-.2,2.148-.837,3.067-1.07,1.534-4.12,2.288-1.944,5.106.149.193-.3,1.229-.466,1.229-4.649,0-6.26,5.3-10.87,5.909-4,.525-6.725,4.8-11.084,5.244,2.23,7.4-8.264,3.487-8.2,9.1A15.975,15.975,0,0,1,375.847,275.116Z" fill="#97c5ae"/>
    <path id="Path_13419" data-name="Path 13419" d="M268.012,205.254c1.6,1.062,2.344-.219,3.24-1.154,1.465-1.53,3.047-2.555,5.279-1.409.545.28,1.591.484,1.9.19,5.567-5.313,12.911,1.61,18.571-2.742,3.628,2.41,9,2.628,11.432,5.521,2.533,3.013,3.4,7.22,8.295,7.708.462.046,1.062.885,1.22,1.459,1.6,5.822,3.549,11.568,4.075,17.636.152,1.746-.777,3.185-1.423,4.706s-1.832,3.108-1.718,4.585c.563,7.356-3.592,11.78-8.893,15.788A9.636,9.636,0,0,0,306.1,264.1c-2.363-2.581-3.852-1.926-4.376,1.311-.238,1.473-.439,2.868-1.549,3.964a5.967,5.967,0,0,1-4.117,1.058c-2.275-1.543-4.42-.449-6.629.262-2.18.7-4.916,1.975-5.88-1.273-.982-3.307,1.477-4.752,4.326-5.467,1.277-.321,2.7-.182,3.773-1.13,1.63-1.436,2.9-2.949.694-4.936a4.264,4.264,0,0,1-.869-1.073,3.956,3.956,0,0,1,.175-3.338,3.849,3.849,0,0,1,3.328-2.575c1.838-.063,1.911,1.546,2.175,2.765.672,3.112,1.825,3.374,3.607.732.921-4.981,1.026-9.809-2.483-14a7.844,7.844,0,0,0-6.31-2.971c-6.037-.125-8.7-6.4-5.267-11.532,1.4-.527,2.094.424,2.977,1.538-5.216-5.3-14.537-9.208-21.186-7.847-4.063.832-7.432,4.114-11.613,5.224-1.808.614-3.622,1-5.447.042-2.306-3.785.633-6.11,2.539-8.612.883-1.159,2.422-1.714,3.592-2.641,2.14-1.248,4.279-2.461,5.365-4.906C263.888,206.536,265.772,205.6,268.012,205.254Z" fill="#809866"/>
    <path id="Path_13420" data-name="Path 13420" d="M218.858,422.307c-10.022,5.513-19.971,6.233-29.806-.459a6.979,6.979,0,0,1-2.074-2.211c-1.962-4.911-3.466-9.834-.241-14.833a8.238,8.238,0,0,1,1.93-2.306c2.32-1.64,5.05-2.408,7.622-3.512s4.519-2.709,4.953-5.664c1.012-3.675-.515-8.09,3.194-10.974,2.788-2.515,6.586-.911,9.626-2.377,2.615-1.981,1.572-4.849,1.6-7.334.042-4.113,1.5-6.713,5.638-8.117,4.994-1.693,5.919-4.08,4.88-10.077a4.654,4.654,0,0,1-1.719-3.745c1.843-8.47,6.077-10.042,12.81-4.4,3.143,2.636,5.625,5.5,10.235,2.606,1.761-1.105,3.382.8,4.348,2.417a14.841,14.841,0,0,1,1.823,11.5c-.719,2.949.152,4.9,3.4,5.31,1.741.566,3.677.478,5.256,1.581,2.053,3.94-.794,4.78-3.58,5.422s-5.443-.781-8.205-.755c-4.94-.1-9.036,2.533-13.44,4.175a2.815,2.815,0,0,1-2.115-.258c-1.2-1.882.177-3.712.1-5.463a53.023,53.023,0,0,0-.865,5.86,5.071,5.071,0,0,1-.519,1.253,11.8,11.8,0,0,1-3.025,2.574c-.491.422-.978.849-1.446,1.3a41.354,41.354,0,0,0-3.584,3.8,37.3,37.3,0,0,0-2.212,3.452,39.411,39.411,0,0,0-4.144,10.044c-.314,1.287-.182,3.192-2.432,3.032-.955-.774-1.008-1.994-1.319-2.892a33.734,33.734,0,0,1-.967,12.047c.3-1.747,1.222-4.324,1.03-7.1-.075-1.1.617-1.894,1.889-.941,1.726,3.5.182,7.367,1.252,10.936a10.756,10.756,0,0,1,.375,1.544C219.235,419.272,220.03,420.851,218.858,422.307Z" fill="#8db15e"/>
    <path id="Path_13421" data-name="Path 13421" d="M196.538,273.843,193,275.107a32.017,32.017,0,0,1-16.032-16.151c-.733-1.553-1.364-2.956-3.065-3.66a4.126,4.126,0,0,1-1.461-1.325c-.975-1.237-1.549-13.6-.679-14.886,2.874-4.261,6.67-7.749,7.937-13.281.533-2.327,5.129-5.479,7.029-5.664,4.716-.459,6.957-6.448,12.5-4.55,1.919.656,5.014-.681,6.98-1.994a11.054,11.054,0,0,1,6.551-1.694c1.17.678,1.987,2.39,3.77,1.27,3.261-.691,5.421,1.06,6.931,3.528a6.622,6.622,0,0,0,5.569,3.366,7.292,7.292,0,0,1,3.632,2.683,17.935,17.935,0,0,0,3.247,3.675c2.36,2.153,1.957,3.986-.928,5.186a7.688,7.688,0,0,1-4.873.452c-12.339-3.219-20.928,3.628-29.4,10.834a4.617,4.617,0,0,0-1.136,2.69,36.887,36.887,0,0,1-1.615,3.624c-1.138,3.055-.269,4.854,3.169,4.976a8.072,8.072,0,0,1,4.289,1.062c2.169,1.44,3.367,3.4.168,4.707-2.973,1.218-3.249,3.306-3.319,5.921-.065,2.423.6,5.023-1.263,7.143l-2.846.214c-3.547-5.45-4.82-11.672-6.5-17.073C191.935,261.9,196.83,267.245,196.538,273.843Z" fill="#a4bc7d"/>
    <path id="Path_13422" data-name="Path 13422" d="M257.008,369.038c-5.193-.2-6.134-1.1-4.67-6.327,1.086-3.88.241-7.183-1.23-10.554-1.183-2.71-3.257-3.63-5.344-1.262-2.544,2.887-4.066,1.423-5.954-.576a21.617,21.617,0,0,0-5.635-4.836c-5.114-2.631-6.7-2.034-8.117,3.451-.211.814-.27,1.629-1.03,2.149-7.606,3.026-10.739,2.258-15.009-3.921-1.729-2.5-3.778-3.524-6.814-2.694-3.486.954-7.241.955-10.177,3.633a5.112,5.112,0,0,1-4.766.98c-5.614-1.69-9.654-.008-12.3,5.163-2.826.946-3.7-2.65-5.828-3.029a17.054,17.054,0,0,1,5.049,4.462,2.227,2.227,0,0,1-1.957,1.307c-6.984-.243-10.458,3.612-11.834,9.982-1.347,1.178-2.8.445-4.254.282-4.787-.536-7.734,1.442-8.536,6.174-.853,5.032-1.766,10.069.8,15.067,1.256,2.446,1.344,5.293-2.082,6.575-3.223,1.206-2.4,3-.785,4.909,1.521,1.789,3.8,2.691,5.375,4.375.976,1.044,3.395,2.515.041,3.787-9.118-3.421-14.684-9.968-16.822-19.4a9.831,9.831,0,0,1,2.295-9.3c2.451-2.659,2.888-5.758,2.378-9.273-.974-6.72,2.048-10.443,8.81-10.944,2.53-.188,4.786.364,4.456-3.735-.254-3.168,2.829-2.952,4.821-2.2,2.406.9,3.8.817,4.224-1.973a2.794,2.794,0,0,1,.406-1.857c.579-.916,1.117-1.881,2.3-2.158,3.387-4.076,6.284-8.786,12.277-9.492a19.816,19.816,0,0,0,16.9-5,7.454,7.454,0,0,1,5.592-1.754,7.773,7.773,0,0,1,2.711.892,16.586,16.586,0,0,1,4.193,3.478c1.256,1.339,2.461,1.584,3.779.129,3.956-3.212,8.01-3.922,12.226-.5,2.067,1.679,4.3,1.422,6.615.62,2.048-.711,3.936-1.822,6.025-2.409,6.8-1.913,11.365,1.126,12.183,8.14.176,1.51.1,3.417,1.491,4.057,6.448,2.971,6.468,10.105,9.9,15.013C260.7,363.325,260.829,366.83,257.008,369.038Z" fill="#627f43"/>
    <path id="Path_13423" data-name="Path 13423" d="M151.947,408.135c2.1-2.32-.425-2.694-1.564-3.5-2.293-1.615-4.894-2.881-6.331-5.442-1.449-2.58-1.81-4.944,2.18-5.16,4.079-.221,3.327-3.179,2.175-4.851-3.623-5.262-1.8-10.8-1.193-16.128.724-6.392,5.352-8.245,13.691-6.2,2.018,1.61,2,4.025,2.5,6.238a2.8,2.8,0,0,0,2.057,2.553,12.1,12.1,0,0,1,7.33,6.369c1.408,2.642,4.028,2.636,6.373,3.308a6.948,6.948,0,0,1,4.217,3.983c1.474,3.946,3.425,7.063,7.415,9.384,4.119,2.4-1.663,2.947-1.772,4.811l-1.113,1.716c-3.41,4.093-3.268,9.3.4,14.814l.738,1.816A27.588,27.588,0,0,1,176.961,418,107.979,107.979,0,0,0,151.947,408.135Z" fill="#a3bc7d"/>
    <path id="Path_13424" data-name="Path 13424" d="M163.427,349.782q-.658.762-1.318,1.528c-9.136-.686-13.137-4.813-16.814-17.339a63.469,63.469,0,0,0-.761-10.62c-.017-3.983-.056-7.964.019-11.943.762-5.932.7-11.985,1.7-15.455a98.226,98.226,0,0,0-1.484,14.412c-.617,4.419-.151,8.856-.253,13.283.4,1.773.936,3.56-.526,5.142-4.615-11.46-5.644-23.519-4.65-35.587.9-10.935,6.42-15.245,17.567-15.261,3.75-.006,7.613-.7,11.259.893-3.2,1.166-3.718,3.96-4.146,6.812a79.514,79.514,0,0,0-4.522,21.869c-.009,4.072-.047,8.141.023,12.209C159.961,329.856,161.689,339.82,163.427,349.782Z" fill="#e17970"/>
    <path id="Path_13425" data-name="Path 13425" d="M231.826,223.058l-2.931-2.287c-2.488-.166-4.345-.809-5.642-3.475-1.282-2.636-3.465-5.186-7.194-3.123-4.566,4.269-2.314-1.345-3.295-2.272,3.749-3.527,5.586-8.361,10.234-11.7,3.705-2.662,8.917-.567,11.285-5.026.165-.31,1.613-.2,2.32.083,3.289,1.3,6.458.518,9.536-.563,1.292-.454,3.17-1.345,3.638-.365,2.177,4.566,9.753-.038,10.517,6.377.354,2.971,2.9,3.159,4.838,4.154-.951,4.238-3.722,7.116-7.114,9.532-2.389,2.227-5.029,4.172-6.338,7.409a2.609,2.609,0,0,0,.615,3.057,2.54,2.54,0,0,1-.894.966c-1.954,1.258-4.5,1.587-5.863,3.774a3.122,3.122,0,0,1-2.533,1.926C237.434,231.141,235.592,225.831,231.826,223.058Z" fill="#5e7253"/>
    <path id="Path_13426" data-name="Path 13426" d="M379.568,320.068c-2.85.336-1.968,1.681-1.109,3.385.795,1.577,1.827,3.639.447,5.134-1.673,1.811-2.717-.968-4.218-1.247a6.237,6.237,0,0,1-3.133-1.418c-1.892-1.863-2.744-1.187-3.936.806a10.474,10.474,0,0,1-7.076,5.1,2.911,2.911,0,0,1-2.828-.452c-1.063-1.051.055-1.687.493-2.513,1.079-2.037,2.043-4.135,3.292-6.7a13.731,13.731,0,0,1-8.68-2.659c-1.164-.393-1.757-1.793-.971-2.182,4.069-2.013,3.793-5.78,4.222-9.312.8-.671,1.232-2.164,2.751-1.235,2.548.214,4.72,1.44,7.453,2.9A18.042,18.042,0,0,1,371.054,299l-.052.056c5.282,1.708,5.614,2.46,3.178,7.191q-.453.881-.9,1.768c-2.845,5.711-2.845,5.707,3.3,6a7.535,7.535,0,0,1,2.441.267c1.809.743,4.242,1.342,4.367,3.547C383.524,320.068,380.462,318.572,379.568,320.068Z" fill="#a3c43e"/>
    <path id="Path_13427" data-name="Path 13427" d="M247.87,439.953c2.114-9.758,4.227-19.516,6.382-29.464,3.71,1.126,4.879,2.664,4.081,6.633-1.13,5.619-3.542,11.017-3.341,16.895.029.245.059.491.092.737-1.367,5.426-1.421,11.264-5,16-13.72-4.265-24.116-12.39-29.956-25.8.959-3.467.13-7.555,3.526-10.177a2.373,2.373,0,0,1,1.139.88c2.046,6.286,4.286,12.461,9.089,17.323,4.016,4.065,9.037,6.371,14.264,8.327.153.058-.164-.261-.233-.417A1.176,1.176,0,0,1,247.87,439.953Z" fill="#d85e66"/>
    <path id="Path_13428" data-name="Path 13428" d="M254.992,434.017c2.8-5.8,3-12.372,5.2-18.711,3.971,2.582,4.291,5.862,3.318,9.68a215.281,215.281,0,0,0-5.43,26.172l6.882-26.321c2.229,9.415,2.9,18.683,1.093,28-4.8.247-9.634.709-14.086-1.794-1.532-3.562.647-6.665,1.243-9.962a53.135,53.135,0,0,1,1.8-7.1Z" fill="#d95f67"/>
    <path id="Path_13429" data-name="Path 13429" d="M299.951,269.03c-.2-1.425,1.163-2.63.388-4.222-.688-1.413-.495-3.38,1.414-3.1,1.436.211,4.682-1.455,4.349,2.391-.054,2.444,4.142,3.049,2.644,6.122-3.358,7.346-8.68,13.3-13.72,19.451-2.367,2.407-4.946.777-7.459.4a3.047,3.047,0,0,1-1.719-1.282c-.179-.822,1.11-2.487-.91-2.29a25.314,25.314,0,0,1-4.246.051,3.637,3.637,0,0,1-1.347-.449c-1.449-1.11-2.365-2.466-2.029-4.4.462-1.4,1.463-2.5,2.883-2.265,3.041.5,5.37-.937,7.966-2.06,3.241-1.4,6.394-2.6,8.085-6.059C296.935,269.922,298.657,269.71,299.951,269.03Z" fill="#5e7254"/>
    <path id="Path_13430" data-name="Path 13430" d="M218.858,422.307q-.345-2.214-.691-4.428c1.085-10.573,3.795-20.79,6.786-30.945a12.941,12.941,0,0,1,3.9-3.947c1.7,2.165.588,4.547.23,6.7A227.437,227.437,0,0,1,221,422.337a5.609,5.609,0,0,1-1.034,1.7Z" fill="#d95f67"/>
    <path id="Path_13431" data-name="Path 13431" d="M171.091,286.222q.147-3.454.3-6.908c1.094-2.039.258-4.3.75-6.415,1.318-2.636,3.712-2,5.916-1.947a1.552,1.552,0,0,1,.97,1.651c1.834,3.484-.713,4.935-3.5,6.479,9.281.408,9.983,1.206,6.722,7.123a2.085,2.085,0,0,1-1.48.3C177.537,286.327,174.3,286.791,171.091,286.222Z" fill="#9db075"/>
    <path id="Path_13432" data-name="Path 13432" d="M453.956,348q.012-43.785.024-87.569c1.287,1.394.9,3.139.9,4.753q.048,41.382.036,82.762A.576.576,0,0,1,453.956,348Z" fill="#5a5a59"/>
    <path id="Path_13433" data-name="Path 13433" d="M89.828,430.86c.032,2.306.034,4.613.1,6.918.142,4.745,3.229,7.895,7.667,7.869,4.528-.026,7.478-3.022,7.6-7.92.093-3.624-.011-7.253-.028-10.88.556-.535.065-1.572.937-1.956,1.463,4.686,1.195,9.534.8,14.27-.387,4.669-4.689,7.966-9.347,7.985a9.416,9.416,0,0,1-9.449-8.474c-.289-3.242-.6-6.619.759-9.794C89.77,429.261,89.269,430.315,89.828,430.86Z" fill="#807e7e"/>
    <path id="Path_13434" data-name="Path 13434" d="M160.916,259.139c4.58-.421,7.658,2.68,11.168,4.766-.333,4.376-3.271,3.445-6,2.943-2.76-.185-5.613.982-8.278-.571.772-1.779-.741-2.342-1.7-3.2l-.057-2.118C157.3,259.371,159.876,261.3,160.916,259.139Z" fill="#a8bc85"/>
    <path id="Path_13435" data-name="Path 13435" d="M304.938,438.349a15.965,15.965,0,0,1,1.6-2.993c10.592-12.533,11.8-26.509,6.534-41.529-.541-1.543-1.491-3.008-1.158-4.771,4.583,5.807,5.611,12.553,5.245,19.685-.091,1.786-.032,3.579-.043,5.369C316.278,423.807,312.846,432.2,304.938,438.349Z" fill="#322337"/>
    <path id="Path_13436" data-name="Path 13436" d="M219.964,424.034c3.53-13.561,6.657-27.208,8.891-41.048l1.169-1.011a3.476,3.476,0,0,1,1.071,3.187c-1.448,9.685-3.076,19.336-6.159,28.671a2.851,2.851,0,0,1-.951,1.13c-2.225,2.966-1.021,7.256-3.857,9.985A1.879,1.879,0,0,1,219.964,424.034Z" fill="#c64046"/>
    <path id="Path_13437" data-name="Path 13437" d="M453.956,348a2.3,2.3,0,0,0,.963-.054c-3.458,9.537-1.336,19.471-2.083,29.2-.561.526-.086,1.544-.923,1.938C450.5,368.587,449.592,358.12,453.956,348Z" fill="#979695"/>
    <path id="Path_13438" data-name="Path 13438" d="M181.877,285.837a19.528,19.528,0,0,0,1.079-3.79c.146-1.752-.907-3.473-2.583-2.124-2.752,2.215-4.609.694-6.853-.682,1.915-2.166,6.494-2.159,5.506-6.636q2.53,3.456,5.061,6.916,1.051,1.8,2.1,3.594C185.507,285.216,184.923,287.478,181.877,285.837Z" fill="#668146"/>
    <path id="Path_13439" data-name="Path 13439" d="M105.073,412.005c-1.476-14.636-1.162-29.349-1.912-44.015q.384-.657.764,0c1.45,14.636,1.112,29.349,1.9,44.013C105.574,412.439,105.323,412.459,105.073,412.005Z" fill="#414040"/>
    <path id="Path_13440" data-name="Path 13440" d="M89.828,430.86q-.477-.99-.953-1.982a235.177,235.177,0,0,1,1.211-27.883c.244-.434.49-.455.736,0Q90.325,415.928,89.828,430.86Z" fill="#3f3e3e"/>
    <path id="Path_13441" data-name="Path 13441" d="M452.946,417.05c-1.571-5.335-.887-10.779-.782-16.194.56-.527.087-1.544.92-1.942,1.538,5.684.865,11.464.753,17.22A1.767,1.767,0,0,1,452.946,417.05Z" fill="#959494"/>
    <path id="Path_13442" data-name="Path 13442" d="M435.814,339.846c-.083,2.289.214,4.673-.324,6.849-1.309,5.286,1.7,9.162,3.805,13.374-3.242-1.17-4.41-4.107-4.919-6.946-.9-5.029-1.069-10.169.586-15.166C435.726,338.371,435.294,339.323,435.814,339.846Z" fill="#929090"/>
    <path id="Path_13443" data-name="Path 13443" d="M92.992,337.005q-.048,10.762-.095,21.525c-.7,1.668-.246,3.449-.507,5.16a.85.85,0,0,1-1.219.319l.984-26.992C92.427,336.541,92.706,336.56,92.992,337.005Z" fill="#444343"/>
    <path id="Path_13444" data-name="Path 13444" d="M441.838,418.871c.134,5.411.767,10.845-.788,16.173a1.8,1.8,0,0,1-.9-.92c-.119-5.41-.773-10.847.789-16.175A1.758,1.758,0,0,1,441.838,418.871Z" fill="#959494"/>
    <path id="Path_13445" data-name="Path 13445" d="M439.981,279.055l-1.962,26.02c-1.24-.473-1.037-1.564-.963-2.494q.84-10.564,1.766-21.123C438.9,280.538,438.679,279.412,439.981,279.055Z" fill="#545453"/>
    <path id="Path_13446" data-name="Path 13446" d="M452.2,453.689c1.957-4.844-.006-9.943.968-14.851.551-.513.1-1.5.892-1.9,1.553,4.638.89,9.415.731,14.133C454.751,452.254,454.559,454.321,452.2,453.689Z" fill="#979696"/>
    <path id="Path_13447" data-name="Path 13447" d="M442.826,382.9c.148,5.38.726,10.782-.8,16.079-.246.4-.535.457-.871.1-.1-5.381-.739-10.79.834-16.084Q442.345,382.4,442.826,382.9Z" fill="#8c8b8b"/>
    <path id="Path_13448" data-name="Path 13448" d="M102.17,343.914c-.225-7.152-.529-14.3-.611-21.457-.017-1.516-.15-3.362,1.479-4.467q.009,13,.019,26C102.732,344.318,102.438,344.276,102.17,343.914Z" fill="#3a3a3a"/>
    <path id="Path_13449" data-name="Path 13449" d="M443.027,259.964c-2.7,4.579-1.165,10.008-2.969,14.765A13.688,13.688,0,0,1,443.027,259.964Z" fill="#888786"/>
    <path id="Path_13450" data-name="Path 13450" d="M453.084,398.914l-.921,1.942q-.125-10.885-.25-21.77l.923-1.938Q452.959,388.032,453.084,398.914Z" fill="#5c5c5c"/>
    <path id="Path_13451" data-name="Path 13451" d="M92.992,337.005q-.418.015-.837.012.389-7.959.776-15.92c-.565-.991-.018-1.1.791-.992A65.235,65.235,0,0,1,92.992,337.005Z" fill="#50504f"/>
    <path id="Path_13452" data-name="Path 13452" d="M454.06,436.941q-.445.949-.892,1.9-.111-10.895-.222-21.788l.891-.916Q453.948,426.538,454.06,436.941Z" fill="#565656"/>
    <path id="Path_13453" data-name="Path 13453" d="M91.86,376.934c.124,3.722.579,7.467-.8,11.08q-.408.664-.9.061c-.156-3.727-.52-7.467.779-11.091C91.22,376.546,91.527,376.508,91.86,376.934Z" fill="#6f6e6e"/>
    <path id="Path_13454" data-name="Path 13454" d="M255.012,433.983c-.006,5.867-3.321,11.144-3.043,17.061l-1.885-.291C251.86,445.2,252.115,439.2,255.012,433.983Z" fill="#d23c3f"/>
    <path id="Path_13455" data-name="Path 13455" d="M102.17,343.914a2.145,2.145,0,0,1,.887.075c1.408,3.616.936,7.365.785,11.091q-.492.6-.889-.067C101.6,351.391,102.007,347.644,102.17,343.914Z" fill="#6f6f6f"/>
    <path id="Path_13456" data-name="Path 13456" d="M117.966,304.516l4.01-14.531q.354-.657.812-.066C122.265,295.143,121.238,300.2,117.966,304.516Z" fill="#6a6767"/>
    <path id="Path_13457" data-name="Path 13457" d="M178.055,270.952c-1.583,1.83-4.209.492-5.916,1.947l-1.293-2.8c1.44-3.728,3.777-2.077,6.018-1.005Z" fill="#658146"/>
    <path id="Path_13458" data-name="Path 13458" d="M441.159,399.084a5.674,5.674,0,0,0,.871-.1l-.192,19.89-.9-.922Z" fill="#575757"/>
    <path id="Path_13459" data-name="Path 13459" d="M77.034,261.481c-.65,5.039-2.728,9.68-4.052,14.531q-.324.654-.783.086C72.736,270.871,73.814,265.822,77.034,261.481Z" fill="#6e6c6b"/>
    <path id="Path_13460" data-name="Path 13460" d="M166.086,266.848c1.888-1.208,4.941-.042,6-2.943l3.054,3.02c-1.026,2.415-3.886.226-5.147,2.051Z" fill="#6c864c"/>
    <path id="Path_13461" data-name="Path 13461" d="M258.018,214.394c2.438-3.127,5.309-5.931,7.113-9.532l2.879.391c-1.949,1.184-3.838,2.414-4.46,4.835C262.819,212.939,260.057,213.209,258.018,214.394Z" fill="#1d283c"/>
    <path id="Path_13462" data-name="Path 13462" d="M440.153,434.124l.9.92q-.033,8.452-.067,16.9C438.719,446.1,440.472,440.064,440.153,434.124Z" fill="#555"/>
    <path id="Path_13463" data-name="Path 13463" d="M442.826,382.9a3.082,3.082,0,0,0-.833.1c.517-5.645-1.3-11.428,1-16.968Q442.908,374.466,442.826,382.9Z" fill="#535353"/>
    <path id="Path_13464" data-name="Path 13464" d="M143.989,328.79q.086-2.439.17-4.877c.277-.413.578-.411.9-.052,1.24,3.342,1.711,6.7.236,10.109Z" fill="#4a4556"/>
    <path id="Path_13465" data-name="Path 13465" d="M93.722,320.105l-.791.992c-.406-4.916-5.813-4.93-7.969-8.13C88.977,314,92.572,315.552,93.722,320.105Z" fill="#6a6867"/>
    <path id="Path_13466" data-name="Path 13466" d="M440.949,452.717c3.109,3.68,6.891,3.959,11.078,2.194C448.027,458.929,443.08,457.949,440.949,452.717Z" fill="#898786"/>
    <path id="Path_13467" data-name="Path 13467" d="M437.94,309.158c.039,2.757.467,5.556-.9,8.157C435.4,314.382,434.876,311.571,437.94,309.158Z" fill="#898989"/>
    <path id="Path_13468" data-name="Path 13468" d="M122.788,289.919l-.412-.04-.4.106q.015-7.486.03-14.974.441-.474.781.077Q122.787,282.5,122.788,289.919Z" fill="#3b3b3b"/>
    <path id="Path_13469" data-name="Path 13469" d="M122.787,275.088l-.4.036-.383-.113a41.333,41.333,0,0,1-3.056-11.285C121.959,266.93,122.066,271.113,122.787,275.088Z" fill="#6a6868"/>
    <path id="Path_13470" data-name="Path 13470" d="M105.073,412.005q.376.008.753,0,.143,6.442.284,12.885-.468.978-.937,1.956Z" fill="#3c3b3b"/>
    <path id="Path_13471" data-name="Path 13471" d="M90.154,388.075a4.781,4.781,0,0,0,.9-.061l-.234,12.98-.368,0-.368,0Q90.119,394.536,90.154,388.075Z" fill="#3a3a3a"/>
    <path id="Path_13472" data-name="Path 13472" d="M73.911,290.243q.54,3.867,1.081,7.733c-2.867-3.167-2.334-7.216-2.849-10.992a.9.9,0,0,1,1.164.09C73.849,288.065,73.2,289.284,73.911,290.243Z" fill="#444343"/>
    <path id="Path_13473" data-name="Path 13473" d="M437.058,322.709c-.242,2.444.584,5.014-.864,7.316a.594.594,0,0,1-1.037.053C435.261,327.485,433.965,324.531,437.058,322.709Z" fill="#888787"/>
    <path id="Path_13474" data-name="Path 13474" d="M91.86,376.934c-.31,0-.619.02-.927.05q.119-6.488.238-12.975.38.006.761,0c1.01,2.3,2.021,4.591.281,7Z" fill="#3d3c3c"/>
    <path id="Path_13475" data-name="Path 13475" d="M102.953,355.013a3.784,3.784,0,0,0,.889.067q.041,6.458.083,12.913-.383,0-.764,0Q103.056,361.5,102.953,355.013Z" fill="#393838"/>
    <path id="Path_13476" data-name="Path 13476" d="M453.043,259.182c-3.565-2.249-6.764-.075-10.067.836C446.633,256.217,449.781,255.956,453.043,259.182Z" fill="#9b9998"/>
    <path id="Path_13477" data-name="Path 13477" d="M160.916,259.139,162,262.473c-2.142-.73-3.907-1.924-5.948-1.513C156.9,258.285,159.047,259.088,160.916,259.139Z" fill="#668246"/>
    <path id="Path_13478" data-name="Path 13478" d="M169.991,268.976c.838-2.884,3.585-.981,5.147-2.051l1.726,2.172c-2.025.218-4.294-1.022-6.018,1Z" fill="#acc087"/>
    <path id="Path_13479" data-name="Path 13479" d="M74.953,298.766a25.6,25.6,0,0,1,4.089,8.279A9.8,9.8,0,0,1,74.953,298.766Z" fill="#636160"/>
    <path id="Path_13480" data-name="Path 13480" d="M78.975,306.968a19.87,19.87,0,0,1,6.05,6.052A8.247,8.247,0,0,1,78.975,306.968Z" fill="#757373"/>
    <path id="Path_13481" data-name="Path 13481" d="M72.894,286.986l-.376.008-.375-.01q.027-5.443.056-10.886a1.037,1.037,0,0,0,.783-.087l.2,6.988C74.085,284.4,74.192,285.745,72.894,286.986Z" fill="#343333"/>
    <path id="Path_13482" data-name="Path 13482" d="M156.106,263.078c1.336.044,3.079-.893,3.677,1.118.45,1.515-.815,1.853-1.976,2.081A3.331,3.331,0,0,1,156.106,263.078Z" fill="#658146"/>
    <path id="Path_13483" data-name="Path 13483" d="M109.833,313.038c1.873-2.285,3.69-4.628,6.354-6.088C115.126,310.083,113.179,312.29,109.833,313.038Z" fill="#757474"/>
    <path id="Path_13484" data-name="Path 13484" d="M435.157,330.078l1.037-.053q-.189,4.911-.38,9.821-.426-.943-.851-1.889Q435.059,334.018,435.157,330.078Z" fill="#575656"/>
    <path id="Path_13485" data-name="Path 13485" d="M268.834,340.213c-5.207,1.548-10.541.934-15.779.557-4.711-.34-6.74-3.751-6.975-8.223a102.427,102.427,0,0,0-.893-10.354c-1.732-11.2-9.583-19.677-21.259-22.339a2.382,2.382,0,0,1,.926-2.417c3.282-1.072,1.817-5.121,4.216-6.749,2.332.258,4.616,1.449,7.02.351a8.477,8.477,0,0,1,2.049-.1c4.339,1.39,7.953-.717,11.649-2.422a3.954,3.954,0,0,1,1.368-.146c3.06,2.41,5.042,2.189,5.618-2.142a4.8,4.8,0,0,1,2.581-3.958,9.437,9.437,0,0,1,7.083.541,9.328,9.328,0,0,0,5.211.627,3.265,3.265,0,0,1,1.4.307c1.71,1.9-.083,4.176.56,6.491,2.8-.7,3.765-4.005,6.588-4.232.214-.008.428-.014.642-.016,1.628.969,4.221-.346,5.184,2.192l.882.928c.574,2.209-1.1,3.36-2.333,4.58-7.218,7.159-11.4,15.339-9.351,25.869a11.055,11.055,0,0,1-.2,4.887Q271.927,332.328,268.834,340.213Z" fill="#d6deaa"/>
    <path id="Path_13486" data-name="Path 13486" d="M342.472,309.806c-6.026-.825-10.484-4.99-10.914-10.1A46.707,46.707,0,0,0,342.472,309.806Z" fill="#695c88"/>
    <path id="Path_13487" data-name="Path 13487" d="M306.925,302.914a11.677,11.677,0,0,1-9.375-11.308A30.845,30.845,0,0,0,306.925,302.914Z" fill="#625889"/>
    <path id="Path_13488" data-name="Path 13488" d="M330.561,272.261c-3.813-3.295-8.458-6.083-8.938-11.858C324.046,264.773,328.176,267.818,330.561,272.261Z" fill="#605889"/>
    <path id="Path_13489" data-name="Path 13489" d="M356.352,288.618c2.59,4.631,7,6.145,10.735,9.477C361.058,297.42,356.9,293.829,356.352,288.618Z" fill="#675a88"/>
    <path id="Path_13490" data-name="Path 13490" d="M313.639,327.181c-4.084-1.3-6.868-3.9-7.742-8.252C308.765,321.375,310.821,324.6,313.639,327.181Z" fill="#635989"/>
    <path id="Path_13491" data-name="Path 13491" d="M284.423,316.37c3.4,1.605,6.466,3.593,8.091,7.2A18.948,18.948,0,0,1,284.423,316.37Z" fill="#615889"/>
    <path id="Path_13492" data-name="Path 13492" d="M92.213,371q-.141-3.5-.281-7c.634-1.768-.191-3.793.964-5.472.395,2.861-.428,5.793,1.7,8.551C95.823,368.683,95.344,371.094,92.213,371Z" fill="#fff"/>
    <path id="Path_13493" data-name="Path 13493" d="M72.894,286.986,73.186,283c6.5,1.788.561,4.821.725,7.244Z" fill="#fff"/>
    <path id="Path_13494" data-name="Path 13494" d="M263.145,359.8c1.152-2.879,3.569-2.112,5.505-1.556,2.649.76.715,2.772.56,4.128-.928,8.12.742,9.8,8.884,6.86,8.9-3.211,17.33-3.858,25.714,1.071.54.317,1.043.7,2.254,1.514-8.777-.628-16.869-2.935-24.319,1.894-2.327.541-4.65,1.083-8.478,1.975,11.183,2.756,19.365,7.335,22.975,18.594l-3.368-2.628c-3.433-4.648-8.478-6.759-13.663-8.61-3.274-1.169-6.614-2.159-9.593-4.024C262.207,374.384,261.631,367.446,263.145,359.8Z" fill="#839c51"/>
    <path id="Path_13495" data-name="Path 13495" d="M240.875,390.865c3.292,13.241-3.172,25.138-5.182,37.649q-.351,2.184-.695,4.37c-3.538-.637-4.946-3.137-5.554-6.344,2.053-10.373,5.291-20.5,6.465-31.056C236.731,393.05,237.85,390.93,240.875,390.865Z" fill="#d95f67"/>
    <path id="Path_13496" data-name="Path 13496" d="M240.888,437.2c1.782-9.408,4.96-18.5,6.274-28.024.145-1.05.3-3.042,2.353-2.287,2.167.8,3.873,2.244,3.335,4.847-.97,4.688-1.872,9.418-3.3,13.974-1.409,4.488-1.183,9.527-4.359,13.437C243.206,439.713,241.637,439.361,240.888,437.2Z" fill="#d95f68"/>
    <path id="Path_13497" data-name="Path 13497" d="M235.94,433.858q3.274-14.447,6.545-28.893c.314-1.39.584-2.791.95-4.553,2.728,2.474,3.687,4.7,2.735,8.339-2.413,9.223-4.2,18.61-6.243,27.931C237.765,436.916,236.159,436.365,235.94,433.858Z" fill="#d95f67"/>
    <path id="Path_13498" data-name="Path 13498" d="M240.875,390.865A12.433,12.433,0,0,0,237,394.893a.82.82,0,0,1-1.238.094c-.911-1.908.556-3.286,1.072-4.881,4.377-9.623,12.866-13.316,22.393-15.514,2.175.179,5.737-3.673,6,2.064a22.054,22.054,0,0,1-10.85,5.517C248.911,383.38,244.548,386.679,240.875,390.865Z" fill="#ced388"/>
    <path id="Path_13499" data-name="Path 13499" d="M265.226,376.656c-1.333-4.787-4.252-1.117-6.465-1.213-1.665-.1-3.272.621-4.894.5-1.731-.13-3.772-.247-3.629-2.892,2.731-.856,5.143,1.28,7.83.832,2.224-.37,5.115-.1,3.769-3.908.422-3.39-1.043-7.024,1.307-10.168.188.587.662,1.259.519,1.751-2.716,9.3,3.62,16.849,11.813,19.335,4.911,1.49,9.763,3.173,13.878,6.341,1.481,1.14,3.555,2,3.518,4.424-6.048-5.111-13.237-7.953-20.642-10.345C269.439,380.41,267.577,378.18,265.226,376.656Z" fill="#2c2935"/>
    <path id="Path_13500" data-name="Path 13500" d="M235.94,433.858a8.128,8.128,0,0,0,3.987,2.824l.961.519a6.817,6.817,0,0,0,4.3,1.946c.711.893,1.718.787,2.686.806l2.506,1.431c-10.065,1.945-21.973-9.419-26.246-25.016.26-1.015.988-.9,1.742-.723,1.074.745,1.369,1.947,1.8,3.066.6,1.914,1.161,3.847,1.886,5.725a8.622,8.622,0,0,1,.511,2.551,11.5,11.5,0,0,0,4.924,5.9Z" fill="#352539"/>
    <path id="Path_13501" data-name="Path 13501" d="M238.072,291.943l-2.139-.009a6.511,6.511,0,0,1-3.252-2.21c-1.136-1.392-1.706-2.865-.763-4.588,1.029-1.882,2.685-2.247,4.679-2.066,2.136.194,3.645,2.422,6.243,1.795-.036-2.284-1.89-2.478-3.316-2.987a10.928,10.928,0,0,1-6.251-5.422c-2.27-4.321-1.752-6.167,2.64-8.9-3.367-.217-6.707-.277-9.952,1.734,2.7,2.287,5.984,3.808,7.383,7.334.8,2.025,2.309,3.863.618,5.987-1.584,1.99-3.6,2.932-6.912.735,2.339,2.724,5.573,4.163,2.185,7.111a2.851,2.851,0,0,1-1.393-.094,20.566,20.566,0,0,1-3.438-2.883c-2.117-1.993-3.23-4.39-1.873-7.175,1.445-2.963,4.061-2.269,7.221-1.363-1.6-2.858-4.017-3.985-5.965-5.551-5.21-4.19-5.062-6.678.787-9.476,1.3-.621,1.929-1.283,1.412-2.637-.559-1.463-1.414-2.722-3.232-2.609a2.351,2.351,0,0,0-2.344,2.121c-1.426,6.385-1.467,6.381-8.082,6.057-1.125-.055-2.7-.639-2.979.851-.319,1.722,1.146,2.632,2.691,3.051a6.328,6.328,0,0,0,2.946-.347c3.6-.74,5.673,1.149,7.059,4.154.989,2.143,1.166,4.228-.912,5.867-2.79,2.2-5.513,1.929-8.1-.406L211.2,277.97c1.707-1.966,4.375-.379,6.657-2.008-7.2.311-13.735-.682-13.141-9.517.411-6.131,5.982-4.134,9.947-4.386.307-2.106-.919-2.879-2.461-3.033-2.5-.25-7.336,4.91-7.823,7.469-.425,2.232,1.993,5.221-1.575,6.7l-1.795-.171c0-2.824.055-5.651-.033-8.472s.738-4.9,3.775-5.527c.792-.163,1.813-.138,1.79-1.253-.019-.908-.782-1.385-1.616-1.649a19.351,19.351,0,0,0-1.9-.587c-8.572-1.776-9.046-3.009-4.045-10.58.265-3.661,4.2-3.522,5.9-5.7,1.371-.258,2.77-.319,3.371,1.233.561,1.45-.358,2.546-1.362,3.463-1.716,1.567-3.989,2.394-5.575,4.142-.672.74-1.443,1.509-1.108,2.6a1.422,1.422,0,0,0,1.646.805c1.183-.124,1.622-1.005,1.9-2.009.133-.479.213-.974.37-1.445.743-2.239,2.178-3.743,4.618-3.908a6.025,6.025,0,0,1,5.463,2.852c1.534,2.111,1.767,5.067,4.486,6.736.083-1.948-1.419-3.16-1.6-4.811-.205-1.849.739-3.466,1.087-5.647-3.586,2.219-6.9,2.43-9.105-.868-1.857-2.772-.56-5.377,2.074-7.25,1.572-1.039,2.634-2.987,4.915-2.753,3.782,3.085-.434,4.642-1.21,6.737,1.392-1.326,3.088-2.684,5.153-1.4,4.029,2.509,3.1,6.523,2.157,11.05,5.055-2.508,8.809-.216,12.768,1.446-1.972-1.735-4.576-2.021-6.635-3.372-2.294-1.5-4.5-3.23-4.1-6.318.4-3.14,2.525-4.517,5.664-4.33a1.843,1.843,0,0,0,1.765-.682c.85-1.19.831-3.86,3.268-2.518,1.705.939,2.07,2.987,1.8,4.88a4.094,4.094,0,0,1-3.563,3.662c-.974.182-1.956-.275-3.4-.066,1.223,2.268,3.331,2.219,5.078,2.7,3.69,1.025,6.439,2.825,6.282,7.174a4.657,4.657,0,0,0,1.824,3.9c2.773,2.4,4.048,5.268,2.356,8.866a1.764,1.764,0,0,0,.69,2.55,1.8,1.8,0,0,0,2.581-.583c2.125-2.494,3.556-1.815,4.557,1.031.549,1.561,2.3,1.831,3.383,2.826a7,7,0,0,1,.947,9.11c-1.532,2.058-6.391,2.9-8.739,1.53a2.147,2.147,0,0,1-.831-3.356c1.118-1.076,2.535-.425,3.8-.661.863-.161,1.612-.5,1.679-1.509a1.593,1.593,0,0,0-.923-1.616c-.957-.453-1.544.109-1.979.891a6.2,6.2,0,0,1-2.258,2.584c-1.529,2.19-3.449,2.608-5.492.877-1.7-1.441-1.127-3.346,1.786-6.37-2.61-2.145-4.7-.406-6.634.931-1.576,1.088-.627,2.36.389,3.325,1.608,1.528,3.78,2.057,5.687,3.06,5.62,2.955,6.168,8.51,1.23,12.033C242.975,292.371,240.385,291.32,238.072,291.943Z" fill="#bfcf8f"/>
    <path id="Path_13502" data-name="Path 13502" d="M213.028,280.014c.952.271,1.889.624,2.858.8a5.1,5.1,0,0,0,5.622-2.28c1.2-2.052-.579-3.815-1.6-5.4-1.158-1.8-3.055-2.8-5.122-1.447-2.55,1.665-4.263.747-5.916-1.3-.931-1.15-2.379-2.148-1.493-3.843.955-1.827,2.617-1.54,4.358-1.185,6.676,1.363,7.031.993,6.768-5.583-.122-3.07,3.32-2.587,4.334-2.7,3.347-.369,4.448,2.766,5.028,5.46.528,2.448-.878,3.168-3.276,2.587a2.614,2.614,0,0,0-3.431,2.042c-.468,1.892.5,3.186,1.894,4.263,2.478,1.915,5.077,3.694,7.39,5.789.85.77,1.985,2.27.983,3.529-1.408,1.769-2.19-.308-3.139-.921-1.576-1.02-3.251-1.342-4.474.18-1.385,1.724-1.051,3.639.2,5.5,1.173,1.752,3.929,2.128,4.046,4.747-2.662,3.876-6.909,4.336-11.056,1.2C216.03,287.515,215.084,283.572,213.028,280.014Z" fill="#a6be7f"/>
    <path id="Path_13503" data-name="Path 13503" d="M200.2,331.917a13.056,13.056,0,0,0-7.969,3.505c-4.558,4.344-9.523,5.21-15.139,2.384a172.144,172.144,0,0,1,25.675-19.874C204.086,322.994,203.524,327.709,200.2,331.917Z" fill="#aa2f30"/>
    <path id="Path_13504" data-name="Path 13504" d="M212.168,321.528q-1.416,8.368-2.832,16.739c-3.757-.139-4.415-4.4-7.4-5.563-.213-5.438.234-10.75,3-15.617C212.029,313.389,212.029,313.389,212.168,321.528Z" fill="#a73132"/>
    <path id="Path_13505" data-name="Path 13505" d="M202.8,273.19c.434-2.8,1.4-5.512.386-8.465a2.611,2.611,0,0,1,2.328-3.637c1.377-.2,2.614-.485,3.327-1.812,2-3.728,4.327-1.869,6.518-.3,1.288.924,2.078,2.311,1.335,3.907-.751,1.614-2.187,1.035-3.469.711-2.749-.694-5.489-1.658-7.388,1.71-1.594,2.828-.014,4.746,1.633,6.639,2.047,2.353,4.188,4.507,7.524,1.73a2.119,2.119,0,0,1,3.423.557,4.655,4.655,0,0,1,.735,3.224c-.4,1.243-1.77.983-3,.775a40,40,0,0,0-4.956-.262A29.668,29.668,0,0,0,202.8,273.19Z" fill="#a6be7f"/>
    <path id="Path_13506" data-name="Path 13506" d="M224.993,297.635l-1.065,2.22c-2.692.636-5.981-.279-7.676,2.95q.377-4.842.751-9.682c2.117-.915,4.372-.288,6.556-.549,1.519-.181,3.609-.664,4.317,1.252C228.748,296.186,226.263,296.575,224.993,297.635Z" fill="#5e7256"/>
    <path id="Path_13507" data-name="Path 13507" d="M163.427,349.782a86.348,86.348,0,0,1-4.364-29.682q.364-.8,1.077-.283c1.639,7.209.679,14.757,2.86,21.893.572,1.871,1.208,3.723,1.813,5.585Q164.119,348.54,163.427,349.782Z" fill="#4a3a4c"/>
    <path id="Path_13508" data-name="Path 13508" d="M203.865,311.832a81.314,81.314,0,0,0-3.071-26.28c5.094,8.213,4.521,17.341,4.11,26.442A.638.638,0,0,1,203.865,311.832Z" fill="#2f2735"/>
    <path id="Path_13509" data-name="Path 13509" d="M196.538,273.843c-1.6-4.8-3.186-9.613-4.814-14.406-1.221-3.6-1.247-3.586,2.007-6.846-2.407,7.866,3.391,13.713,4.43,20.641Z" fill="#2d3545"/>
    <path id="Path_13510" data-name="Path 13510" d="M159.053,306.87c.475-7.35.632-14.775,4.966-21.223l-3.876,21.534Q159.377,307.8,159.053,306.87Z" fill="#4b3c4e"/>
    <path id="Path_13511" data-name="Path 13511" d="M203.865,311.832l1.039.161q.013,2.545.026,5.092-1.5,7.814-2.995,15.621c-.581-.264-1.162-.525-1.741-.788q1.287-6.994,2.569-13.986C203.293,315.929,202.528,313.69,203.865,311.832Z" fill="#413547"/>
    <path id="Path_13512" data-name="Path 13512" d="M181.877,285.837c2.3.457,3.18-1.334,4.314-2.723,2.567-1.282,4.5-3.7,8.794-4.883-4.161,3.716-7.221,6.548-10.4,9.237-1.179,1-2.5.529-3.594-.448a2.283,2.283,0,0,1,1.028-.933Z" fill="#493c4c"/>
    <path id="Path_13513" data-name="Path 13513" d="M224.993,297.635c.077-1.651,2.539-1.649,2.383-3.68-3.244-2.15-7.012.5-10.373-.832q0-.835-.005-1.671c3.762.3,7.645,1.731,11.056-1.2q.367-.054.737-.1.574.1.557.462c-.013.285-.067.427-.165.427C228.058,293.414,230.749,298.209,224.993,297.635Z" fill="#283244"/>
    <path id="Path_13514" data-name="Path 13514" d="M182.017,286.087l-1.028.933c-4.2-.061-8.416-.313-12.694,1.784.421-2.31,2.272-1.483,2.8-2.583A44.633,44.633,0,0,1,182.017,286.087Z" fill="#0f1b30"/>
    <path id="Path_13515" data-name="Path 13515" d="M159.053,306.87c.363.1.727.205,1.09.309q0,6.323,0,12.64-.538.138-1.077.28Q159.057,313.486,159.053,306.87Z" fill="#1a2237"/>
    <path id="Path_13516" data-name="Path 13516" d="M361.933,264.567c.295-1.6.221-2.188.477-2.434,7.537-7.257,15.107-14.48,23.173-21.2C378.8,249.417,370.6,256.463,361.933,264.567Z" fill="#54578d"/>
    <path id="Path_13517" data-name="Path 13517" d="M362,246.067a56.087,56.087,0,0,1,4.928-12.777l1.223.485-4.764,12.965Z" fill="#575c90"/>
    <path id="Path_13518" data-name="Path 13518" d="M398.612,251.543a13.767,13.767,0,0,1-8.511,3.628C392.865,252.29,395.729,251.858,398.612,251.543Z" fill="#585d90"/>
    <path id="Path_13519" data-name="Path 13519" d="M292.029,256.981c.319.01.639.018.958.025,1.439,4.694.375,6.54-4.3,6.938-2.488.212-4.745.64-5.49,3.332-.7,2.528.638,4.047,2.982,4.964,1.547.6,2.074,2.06,2.3,3.613-1.586,3.194-3.46,5.779-7.577,3.511-.679-1.962-.8-4.268-3.607-4.722a1.5,1.5,0,0,1-.955-2.63c1.793-2.187,2.172-4.612,2.244-7.346.053-2.012,2.209-2.717,3.671-3.763,1.4-1,2.621-2.194,2.441-4.055-.216-2.213-1.987-1.537-3.415-1.768-3.223-.523-2.2-3.03-1.408-4.57,2.042-3.968,2.34-6.656-3.007-7.966-2.274-.558-2.056-3.148-.5-4.443,3.363-2.795,3.135-5.489,1.275-9.113-1.7-3.3-.161-5.48,3.787-6.8,2.066.577,4.6.037,5.879,2.473-1,1.141-1.4,2.63-2.219,3.869-1.468,2.224-1.312,3.961,1.115,5.407,3.368,2.006,3.448,4.586,1.086,7.482a5.4,5.4,0,0,0-1.38,2.619c-.21,1.5.248,2.7,1.849,3.037,1.41.3,2.16-.631,2.567-1.828.593-1.746.268-3.662.928-5.4.582-1.532,1.624-2.6,3.346-2.488a2.372,2.372,0,0,1,2.281,3.183c-1.389,4.467,1.282,6.807,4.253,9.113a5.4,5.4,0,0,1,.531,2.066,6.748,6.748,0,0,1-1.223,3.174,1.954,1.954,0,0,1-2.022,1.082c-.943-.22-1.13-1.08-1.313-1.882-.378-1.657.515-4.728-2.912-3.308C291.533,251.892,289.971,253.951,292.029,256.981Z" fill="#809866"/>
    <path id="Path_13520" data-name="Path 13520" d="M243.221,231.058l1.794-1.933c1.789-2.28,4.7-2.657,6.973-4.121l.306-.143,3.491-.885c3.863.306,6.879-2.413,10.51-2.942,1.443,2.214,1.113,4.8,1.243,7.2.16,2.95-1.915,3.935-4.66,2.546a6.822,6.822,0,0,1-1.209-.855c-1.513-1.239-3.169-2.235-4.633-.152-1.254,1.785.195,3.023,1.362,4.219,4.18,4.284,4.156,4.914-.284,9.427a2.976,2.976,0,0,1-3.734-1.622,19.11,19.11,0,0,0-10.546-9.169A1.05,1.05,0,0,1,243.221,231.058Z" fill="#839a69"/>
    <path id="Path_13521" data-name="Path 13521" d="M300.715,249.958c-4.154-1.479-7.277-3.474-4.978-8.726.5-1.146.661-2.9-1.352-3-1.609-.078-2.249,1.215-2.328,2.688-.071,1.329.03,2.669-.082,3.992-.143,1.7-.55,3.408-2.449,3.932a4.146,4.146,0,0,1-4.519-1.335c-1.409-1.65-1.234-3.367-.2-5.065a9.77,9.77,0,0,1,1.853-2.283c2.08-1.8,1.607-3.378-.261-4.929-4.539-3.766-4.492-5.261.316-10.219q.551.156.527.529c-.018.284-.073.426-.168.426-2.221,6.638.012,9.793,7.334,9.995,2.772.076,3.171,2.45,4.558,3.888C300.854,242.995,302.21,246.23,300.715,249.958Z" fill="#a6bb85"/>
    <path id="Path_13522" data-name="Path 13522" d="M288.019,276.055c-1.336-.672-.885-2.692-2.782-3.181-3.247-.837-3.686-3.582-3.1-6.361.579-2.737,3-3.612,5.343-3.441,4.686.343,5.744-2.168,5.505-6.066,2.571.282,2.266,2.245,1.838,3.757a5.57,5.57,0,0,1-4.476,4.176c-1.294.24-2.761,0-3.9.526-1.5.693-2.954,1.952-2.087,3.934.894,2.045,2.439.324,3.539.484,2.757.4,5.613-5.52,8.119.068C295.682,275.33,293.282,277.159,288.019,276.055Z" fill="#a6bb86"/>
    <path id="Path_13523" data-name="Path 13523" d="M287.078,225.968c-.119-.318-.239-.635-.359-.954-1.239-2.366-3.588-1.7-5.568-2.035a12.8,12.8,0,0,0-6.216-1.762c-2.387.185-4.69-.738-7.078-.511a5.3,5.3,0,0,1-1.883.266c-3.052,2.169-6.1,4.352-10.188,3,3.531-1.664,7.4-2.4,10.462-5.326,2.69-2.57,6.176.547,9.584-.222,5.5-1.241,14.692,6.611,15.347,12.675C289.453,229.278,289.391,226.623,287.078,225.968Z" fill="#252e41"/>
    <path id="Path_13524" data-name="Path 13524" d="M292.029,256.981c-2.928-.536-2.125-2.4-1.407-4.133.976-2.351,2.832-4.038,5.341-3.543,3.213.634,1.423,3.916,2.366,5.877,2.226.022,1.215-2.478,2.479-3.173,1.448.676.445,2.271,1.2,3.206-1.15,1.349-2.067,3.239-4.327,2.49-1.473-.489-1.576-1.881-1.733-3.251-.108-.941.812-2.613-1.112-2.636-1.27-.014-1.977,1.157-2.344,2.272A17.663,17.663,0,0,0,292.029,256.981Z" fill="#aabf89"/>
    <path id="Path_13525" data-name="Path 13525" d="M288.019,276.055c4.188-.04,7.4-1.361,8-6.1,1.21-.734,2.43-1.424,3.928-.921-.63.515-1.5.9-1.853,1.564-3.912,7.455-10.538,9.737-18.373,9.942-.593.015-1.161,1.026-1.74,1.574a1.691,1.691,0,0,1-2.092,0c-.214-2.679,1.438-3.582,3.707-3.9a2.242,2.242,0,0,1,1.388.6C284.407,280.635,286.209,278.335,288.019,276.055Z" fill="#273143"/>
    <path id="Path_13526" data-name="Path 13526" d="M302.011,255.215c-1.74-.566-.6-2.212-1.2-3.205q-.048-1.027-.094-2.053-.873-5.052-1.746-10.106c2.355.054,2.538,2.087,2.636,3.525C301.874,247.31,303.949,251.211,302.011,255.215Z" fill="#323c4a"/>
    <path id="Path_13527" data-name="Path 13527" d="M161.967,373.761q-.531-3.451-1.062-6.9c.435-7.645,3.389-10.6,10.822-10.871,1.07-.039,2.351.468,3.009-.941a.62.62,0,0,1,.173-.988,2.769,2.769,0,0,0,1.634-2.33c1.048-4.678,4.13-5.7,8.234-4.538,3.894,1.1,6.842.98,10.244-2.263,4.839-4.612,14.273-2,17.315,4,1.027,2.025,1.828,3.5,4.816,2.49,2.39-.806,5.233-.271,7.875-.33l1.5,2.865c1.973,2.939,1.163,5.663-.638,8.309-8.4,1.327-15.708,5.128-22.532,10.015a1.325,1.325,0,0,1-.679-1.8c1.445-1.923,2.809-3.911,4.2-5.877-1.436,1.716-2.514,3.694-3.906,5.446-1.691,2.757-1.725,6.537-5.1,8.252-3.227-1.108-2.863-3.656-2.37-6.153,1.1-5.582,4.258-9.98,8.108-14.009,1.887-1.974,4.368-3.525,4.9-6.626-3.648,3.185-6.653,6.96-9.8,10.6-1,1.158-1.779,3.605-3.609,2.56s-.922-3.294-.21-4.988a40.325,40.325,0,0,0,3.255-9.532c-2.761,1.345-3.1,3.477-3.771,5.4-.739,2.118-.593,4.72-3.125,5.894-2.535-.151-3.245-2.629-4.94-3.853-1.189-1.082-2.1-2.509-4.263-3.41,1.359,4.9,4.359,8.174,6.909,11.668,2.418,3.312,4.058,6.835,4.015,10.985a4.3,4.3,0,0,1-2.432,4.048c-1.471.719-2.1-.243-2.488-1.488a18.357,18.357,0,0,0-3.188-8.646c-.945-1.527-1.959-3.621-4.517-2.572.985,3.46,4.518,4.77,6.309,7.538a2.61,2.61,0,0,1,.474,2.653c-2.132,2.455-4.42,1.645-6.718.3-4.322-2.53-7.156-6.382-9.563-10.649a19.925,19.925,0,0,0-3.26-4.9c1.473,3.137,2.456,6.417,3.6,9.641,2.035,5.733,7.01,8.109,12.166,10.314,5.5,2.352,5.923,4.985,1.714,9.177-2.865-1.053-1.732-5.569-5.25-6.062a10.39,10.39,0,0,1-9.239-6.605c-.805-1.848-2.543-2.473-4.246-3.013C164.6,376.015,162.883,375.542,161.967,373.761Z" fill="#c5d28a"/>
    <path id="Path_13528" data-name="Path 13528" d="M228.994,425.077a9.369,9.369,0,0,1-2.122-5.8,21.2,21.2,0,0,1,.845-8.712,222,222,0,0,0,5.034-26.639c.214-1.675,1.074-3.107,1.425-4.714a2.635,2.635,0,0,1,1.044-1.275l1.543-.185c3.83,2.313,2.538,5.828,2.058,9.094-.2,1.381-1.712,2.434-1.137,4.065l-1.675,4.25c.444,8.052-2.493,15.507-4.213,23.163C231.274,420.654,231.714,423.586,228.994,425.077Z" fill="#d95f67"/>
    <path id="Path_13529" data-name="Path 13529" d="M237.684,390.914c-1.262-2.734.841-5.283.417-8.047-.274-1.785-.342-3.544-1.337-5.112a28.99,28.99,0,0,1,13.473-4.705c2.339,2.6,5.621,1.823,8.526,2.392C250.227,378.546,241.6,381.514,237.684,390.914Z" fill="#d13e40"/>
    <path id="Path_13530" data-name="Path 13530" d="M225.737,416.308l-1.6.059q-.074-.7-.147-1.4c1.852-9.359,3.725-18.713,5.534-28.08.311-1.609.344-3.271.505-4.908l2.919-2.033c1.758,3.92.006,7.743-.556,11.514-1.183,7.932-3.239,15.708-4.96,23.544A1.413,1.413,0,0,1,225.737,416.308Z" fill="#d95e67"/>
    <path id="Path_13531" data-name="Path 13531" d="M216.916,404.166c1.955-4.789,2.168-10.316,6.051-14.288,1.676,3.809-.37,7.341-1.04,10.894-1.023,5.431-2.5,10.788-3.954,16.136-1.778-3.913-.448-8.1-1.083-12.119Z" fill="#d56265"/>
    <path id="Path_13532" data-name="Path 13532" d="M225.737,416.308c3.279-8.418,4.514-17.327,6.209-26.119.65-3.369,1.5-6.752,1-10.247a6.762,6.762,0,0,1,.282-.879,1.11,1.11,0,0,1,1.578-.332,256.936,256.936,0,0,1-7.931,40.547Q226.305,417.794,225.737,416.308Z" fill="#c34146"/>
    <path id="Path_13533" data-name="Path 13533" d="M180.467,385.87c2.957.95,2.948,4.045,4.4,6.084a2.867,2.867,0,0,1,1.08.779c1.474,3.006,4.358,4.074,7.189,5.2a4.087,4.087,0,0,0,3.593-.58c1.87-.707,2.791-2.542,4.324-3.648a1.369,1.369,0,0,1,1.183.336c-.144,3.308-2.384,4.854-5.071,6.008-2.71,1.162-5.43,2.3-8.144,3.45-.484-1.99,1.888-1.943,2.491-3.629-5.018-1.149-7.8-4.454-8.89-9.4-.453-2.063-2.13-3.294-3.868-4.347A1.266,1.266,0,0,1,180.467,385.87Z" fill="#353e4d"/>
    <path id="Path_13534" data-name="Path 13534" d="M217.973,416.908c.226-7.478,3.448-14.335,4.521-21.651a36.249,36.249,0,0,0,.473-5.379c.533-1.068.8-2.315,1.986-2.944-.9,10.615-3.662,20.82-6.787,30.946A2.818,2.818,0,0,1,217.973,416.908Z" fill="#c64146"/>
    <path id="Path_13535" data-name="Path 13535" d="M225.221,362.047c2.3-2.4,1.721-5.262,1.3-8.1,2.932,2.039,1.712,8.663-2.034,10.818a5.788,5.788,0,0,1-2.32.8c-4.409.353-5.122,3.192-5.126,6.917,0,2.97,1.294,6.358-1.9,8.679-.18-.182-.36-.364-.542-.545-.627-2.036.332-4.052.057-6.086a34.454,34.454,0,0,1,.3-6.265C216.476,363.05,221.563,363.729,225.221,362.047Z" fill="#2f3848"/>
    <path id="Path_13536" data-name="Path 13536" d="M216.916,404.166c-.017.208-.025.417-.025.625-1.39,4.191-.673,8.979-4.168,13.964.892-4.434,1.766-7.563,2.091-10.748.316-3.091.069-6.239.852-9.51Q216.291,401.33,216.916,404.166Z" fill="#2f3a47"/>
    <path id="Path_13537" data-name="Path 13537" d="M202.236,394.043l-1.158-.028a3.164,3.164,0,0,1-1.205-2.119c-.164-3.642-.542-7.374,3.613-9.351a2,2,0,0,1,1.533.486C201.433,386.03,204.29,390.657,202.236,394.043Z" fill="#555e64"/>
    <path id="Path_13538" data-name="Path 13538" d="M188.313,420.032c-4.593-4.163-4.824-12.637-.4-14.815C184.478,410.253,186.873,415.13,188.313,420.032Z" fill="#36404c"/>
    <path id="Path_13539" data-name="Path 13539" d="M234.8,378.731l-1.579.332c1.028-2.67.131-5.879,2.222-8.561,1.394,2.764-.765,5.042-.226,7.438A3.042,3.042,0,0,0,234.8,378.731Z" fill="#454b51"/>
    <path id="Path_13540" data-name="Path 13540" d="M205.019,383.031l-1.622-.064a2.493,2.493,0,0,1,.476-1.555c1.984-2.022,4.553-1.657,7.019-1.725,1.381.05,2.772.072,3.9,1.062a.865.865,0,0,0,.36.412C212.111,383.623,208.077,380.684,205.019,383.031Z" fill="#232c40"/>
    <path id="Path_13541" data-name="Path 13541" d="M243.221,231.058c5.544,1.815,9.913,4.98,12.344,10.493a2.713,2.713,0,0,0,2.466,1.376c3.944.832,4.225,4.545,5.747,7.289a4.279,4.279,0,0,1-.4,3.6c-.612.481-1.38.5-1.687-.153-2.148-4.536-5.728-7.966-8.829-11.78a19.4,19.4,0,0,0-10.385-7.122c-5.676-1.7-11.254-1.252-16.782-2.064-3.059-.449-6.578,1.009-9.949.123l-3.858,2.941c-2.638.84-3.833,4.05-6.894,4.193-1.319,2.49-5.144,1.964-6.013,5-.551-2.234-.55-2.832.919-3.568,4.749-2.381,7.807-7.292,13.129-8.758,5.109-1.408,9.827-5.234,15.69-2.088,1.412.757,3.575.265,5.369.1.915-.086,2.38-.563,2.541-1.152.348-1.275-.736-2.065-2.025-2.245-2.524-.353-1.708-2.883-2.776-4.178,2.9.081,4,2.9,5.534,4.453A14.205,14.205,0,0,0,243.221,231.058Z" fill="#242e40"/>
    <path id="Path_13542" data-name="Path 13542" d="M216.059,214.173c2.671-2.746,4.923-1.122,6.539,1.057,1.744,2.353,3.19,4.822,6.3,5.541-2.717.867-4.628.236-5.881-2.579C221.728,215.3,219.561,213.46,216.059,214.173Z" fill="#1c273b"/>
    <path id="Path_13543" data-name="Path 13543" d="M174.909,354.057c-.057.328-.114.656-.172.986-2.857-.239-3.636-2.847-6.054-4.837C172.208,350.351,172.816,353.321,174.909,354.057Z" fill="#282130"/>
    <path id="Path_13544" data-name="Path 13544" d="M180.467,385.87l-1.713.255c-2.653.451-5.1-.107-6.406-2.535-1.96-3.641-4.511-6.3-8.655-7.307a2,2,0,0,1-1.726-2.522c4.888,2.015,9.538,4.226,11.927,9.5C175.13,385.987,178.677,383.936,180.467,385.87Z" fill="#323b4b"/>
    <path id="Path_13545" data-name="Path 13545" d="M169.542,410.657c-1.748-5.009-5.715-7.466-10.476-9.036C165.315,401.642,168.584,404.41,169.542,410.657Z" fill="#333e4d"/>
    <path id="Path_13546" data-name="Path 13546" d="M163.7,393.327c-4.479-2.331-6.614-6.512-8.4-11,2.954,3.5,5.357,7.479,8.959,10.389Q164.391,393.4,163.7,393.327Z" fill="#323c4c"/>
    <path id="Path_13547" data-name="Path 13547" d="M164.256,392.718l9.839,5.426c-4.11-.407-7.384-2.365-10.4-4.818Q163.976,393.021,164.256,392.718Z" fill="#333d4c"/>
    <path id="Path_13548" data-name="Path 13548" d="M144.157,310.114c-.355-6,.92-11.788,1.97-17.6l1.251.121L145.119,311.2C144.526,311.077,144.47,310.481,144.157,310.114Z" fill="#4e4252"/>
    <path id="Path_13549" data-name="Path 13549" d="M144.157,310.114l.962,1.08-.06,12.668a7.732,7.732,0,0,1-.9.051Q144.158,317.013,144.157,310.114Z" fill="#172136"/>
    <path id="Path_13550" data-name="Path 13550" d="M251.988,225c-1.621,2.563-4.683,2.688-6.973,4.121C246.019,225.518,249.343,225.835,251.988,225Z" fill="#1d273b"/>
    <path id="Path_13551" data-name="Path 13551" d="M286.018,288.177c-1.258-1.841-4.043-.069-5.183-2.191,2.108.026,4.476-1.35,6.159,1.028C287.994,288.426,286.244,287.7,286.018,288.177Z" fill="#101c32"/>
    <path id="Path_13552" data-name="Path 13552" d="M177.41,274.374c-.355,1.633-1.891,1.693-3.032,2.185-.683.3-1.279-.141-1.3-.982-.037-1.58,1.419-1.713,2.362-2.2C176.271,272.955,177.014,273.494,177.41,274.374Z" fill="#658245"/>
    <path id="Path_13553" data-name="Path 13553" d="M215.744,232.822c2.83-1.513,6.858,1.128,9.047-2.609,4.636,5.124,11.907-1.324,16.576,3.761.271.295,1.009.561,1.271.406,3.817-2.269,5.809.431,7.834,2.865,4.44,5.337,9.691,10.073,12.461,16.66a8.169,8.169,0,0,0,3-4.993c.55-3.046,2.532-4.411,5.436-4.544-.737-.775-2.008-.162-3.054-.583-2.3-.927-4.124-2.21-4.308-4.919a4.959,4.959,0,0,1,3.628-5.332c2.419-.854,4.2-1.252,2.151-4.61-1.8-2.94.423-6.066,5.211-8.757,2.716-.519,4.976-.041,6.151,2.812-3.679,1.241-3.951,3.771-2.043,6.538,2.466,3.574,2.267,6.372-1.527,8.716a2.382,2.382,0,0,0-1.395,2.43c.22,1.3,1.374,1.1,2.319,1.347,4.7,1.231,5.3,2.6,3.211,6.907a28.328,28.328,0,0,0-1.269,3.213,20.377,20.377,0,0,0-.464,2.375c2.337-.9,4.7-2.79,5.964.481,1.113,2.885-.011,5.268-2.552,6.716-2.494,1.421-5.051,2.231-3.558,6.188.879,2.33-2.215,3.4-3.2,5.284,2.955.726,6.458,1.041,4.355,5.64l-1.025-.133c-1.112-.344-2.112-.946-3.186-1.373-3.534-1.4-4.636-3.6-2.262-6.9,1.711-2.379,1.565-4.476-1.322-7.234,2.271,9.159-5.026,8.922-10.542,11.88a37.691,37.691,0,0,0,3.843-1.708c2.017-.928,3.913-.8,5.377,1,1.605,1.972,1.229,4.017-.185,5.918a9.12,9.12,0,0,1-3.68,3.24,2.162,2.162,0,0,1-2.435-1c-.411-1.674.855-2.694,1.966-4.69-3.037,2.9-6.934,1.287-9.4,3.836-2.734,2.071-3.432,6.074-6.982,7.365q-.447-.027-.895-.038c-1.9-.585-3.072,3.362-5.279.844,1.188-1.207,3.711-1.754,2.73-4.116-1.05-2.529-1.763-5.482-4.839-6.56-.613-.214-1.348-.092-1.954-.32-2.544-.954-4.817-2.312-5.746-5.055-.315-.928-.258-2.274.944-2.475,3.067-.514,5.767-4.432,9.275-1.094.688.654,1.381,1.3,2.222,2.1-1.97,1.231-5.77.126-4.854,3.73.816,3.213,3.258,1.815,5.245.972l0,0c-.1,4.371,3.218,2.7,5.364,2.968,2.933.358,3.729-1.834,4.061-4.011.358-2.34.123-5.2-2.575-5.671-3.189-.561-4.1-2.017-3.116-5.719-1.307,1.008-2.174,1.339-2.225,1.767-.561,4.7-3.312,1.99-4.939,1.259-2.518-1.13-2.484-2.14-.238-4.483,2.039-2.127.37-5.46-2.387-7.033-1.987-1.134-2.893-2.048-2.123-4.592.838-2.77-.673-4.818-3.58-5.536-1.759-.434-3.657-.5-5.288-1.2-1.761-.761-4.056-2.009-3.408-4.215.733-2.5,2.75-.84,4.1-.191,1.573.756,2.531.072,3.44-1.009,1.879-2.235-.184-3.908-1-6.244-.342,4.2-1.9,5.252-5.92,4.291-2.759-.661-4.034,3.754-1.9,6.353,2.262,2.762,5.532,3.523,8.776,4.252,1.6.359,3.184.915,2.628,2.8-.574,1.948-2.522,1.344-3.831.944a16.841,16.841,0,0,1-3.877-2.168c-1.791-1.141-3.482-2-5.213.144-1,1.239-2.161,1.363-3.392.142-1.11-1.1-1.426-2.132-.319-3.449a4.788,4.788,0,0,0,.516-5.179c-1.25-3.061-3.118-4.636-5.743-1.355-1.24,1.548-2.57,2.679-3.867.882-1.577-2.188,1.326-1.955,2.191-2.788C215.657,236.495,217.731,235.335,215.744,232.822Z" fill="#a8be84"/>
    <path id="Path_13554" data-name="Path 13554" d="M229.183,291.044a1.63,1.63,0,0,1-.392-.889c2.344-2.3.465-3.273-1.282-4.475-1.3-.895-3.331-2.091-1.984-3.845,1.138-1.482,2.166.588,3.094,1.281a2.731,2.731,0,0,0,3.985-.253,3.338,3.338,0,0,0,.865-4.01c-1.244-3.544-3.852-5.688-6.875-7.536-1.376-.841-3.543-1.537-3.027-3.41.511-1.856,2.836.376,3.319-.262,2.679-3.544,6.938.386,9.73-2.286a1.326,1.326,0,0,1,2.081.588,1.8,1.8,0,0,1-1,2.5c-2.665.725-5.434,1.219-4.613,4.986.856,3.923,3.426,6.32,7.21,7.471.471.143,1.012.068,1.471.232,2.07.742,3.832,2.218,2.97,4.4-1.092,2.768-3.264,1.06-4.965.3-.9-.4-1.614-1.288-2.527-1.54-1.577-.436-3.228-.775-4.4,1.084-1.071,1.7-.213,2.744.893,3.884.8.824,1.47,1.773,2.2,2.666C233.385,293.895,231.238,292.818,229.183,291.044Z" fill="#a5bd7e"/>
    <path id="Path_13555" data-name="Path 13555" d="M268.016,282.995c.953-1.134,1.9-2.279,2.863-3.4,1.376-1.6,1.688-3.318.152-4.878a3.415,3.415,0,0,0-4.921-.2c-.786.607-1.455,1.376-2.278,1.92-.9.6-2.03.715-2.521-.434-.46-1.078-.5-2.386,1.035-2.816,1.582-.443,3.25-.6,4.806-1.113,6.04-1.978,6.893-4.426,3.143-9.845,2.372.283,4.85-.233,5.917,2.127.977,2.163,2.346,4.49-.665,6.755-2.45,1.844-2.224,4.177,1.247,4.791,1.829.324,2.383,1.553,3.17,2.776-1.6.76-3.22,1.486-3.924,3.3l-3.064,2.051c-.32-.015-.639-.033-.958-.057C270.495,284.417,268.772,285.674,268.016,282.995Z" fill="#819867"/>
    <path id="Path_13556" data-name="Path 13556" d="M244.976,289.82a3.268,3.268,0,0,0,3.924-2.209c.186-.5.369-1.5,1.118-.55.34.433.173,1.266.237,1.916-3.583,2.951-7.446,4.752-12.183,2.967C239.8,289.385,243.188,292.2,244.976,289.82Z" fill="#283143"/>
    <path id="Path_13557" data-name="Path 13557" d="M257.52,304.572c-1.975-3.6-2.33-5.827-1.762-10.631,1.807,1.422,1.308,3.3,1.323,4.881C257.1,300.593,258.414,302.2,257.52,304.572Z" fill="#2d3547"/>
    <path id="Path_13558" data-name="Path 13558" d="M259.131,282.865l-.179-1.755c2.437-.5,4.976-1.927,7.053.788a2.153,2.153,0,0,0,2.01,1.1c1.064,1.428,2.661.687,4,.983-.959,2.253-3.114,1.466-4.072.793C265.18,282.827,262.076,283.395,259.131,282.865Z" fill="#212a3e"/>
    <path id="Path_13559" data-name="Path 13559" d="M228.994,425.077c3.468-9.707,5.449-19.762,7.015-29.914q.5-.133.993-.27c-.795,11.025-3.678,21.6-6.927,32.094Z" fill="#c54045"/>
    <path id="Path_13560" data-name="Path 13560" d="M204.992,239.956c2.809-.558,3.156-5.165,6.894-4.193-1.388,1.973-4.833,3.676-1.8,6.49,2.386,2.212,5.323,3.04,7.334-.916a1.058,1.058,0,0,1,1.651-.486,2.377,2.377,0,0,1,.684,3.151c-2.486,3.484-2.2,6.422,1.184,9.05a1.258,1.258,0,0,1,.18,2.094,2.265,2.265,0,0,1-3.15.207c-2.308-1.434-2.964-3.894-3.9-6.183-1.021-2.505-2.619-4.456-5.553-4.037-2.8.4-3.65,2.552-3.535,5.168.082,1.873-.818,2.83-2.694,2.668-1.394-.12-3.167.685-3.994-1.116-.74-1.612.3-2.775,1.294-3.979,1.756-2.134,4.239-3.145,6.466-4.568.8-.512,1.79-1.247,1.474-2.372C207.185,239.693,205.906,240.138,204.992,239.956Z" fill="#a4bd7d"/>
    <path id="Path_13561" data-name="Path 13561" d="M248,277c-.1-1.483,1.349-2.306,1.612-3.515.5-2.294,1.9-1.651,3.356-1.472,2.156.264,1.981,1.811,2.025,3.318.055,1.891-.854,2.648-2.708,2.68A8.278,8.278,0,0,1,248,277Z" fill="#a8be84"/>
    <path id="Path_13562" data-name="Path 13562" d="M263.066,249.972c-2.267-1.927-2.531-5.287-5.035-7.045,2.021-3.093,4.215-5.986-.962-8.535-2.241-1.1-3.044-3.6-.976-5.9,1.97-2.189,3.977-1.861,6.027.08.992.939,1.785,2.808,3.618,1.849,1.964-1.027.385-2.618.335-3.973-.068-1.825-.069-3.654-.1-5.481l1.089-.987c2.6,2.394,3.567,10.015,1.492,12.239-2.848,3.051-5.671.887-8.607-.269,2.767,2.349,4.786,4.772,3.7,8.639-.4,1.432,1.3,2.213,1.7,3.425C266.168,246.555,267.2,249.284,263.066,249.972Z" fill="#a9be88"/>
    <path id="Path_13563" data-name="Path 13563" d="M263.066,249.972a8.111,8.111,0,0,0,1.678-1.738c1.807-3.609-3.642-5.267-2.92-6.876,1.59-3.542,1.29-5.519-1.916-7.437-1.328-.795-3.5-1.785-2.244-3.72,1.51-2.318,2.7.07,3.968.87,1.635,1.036,3.223,2.715,5.377,1.27,2.131-1.43,2.439-3.427,1.351-5.7-1.009-2.1.611-4.727-1.3-6.659,2.692-1.918,5.272,1.042,7.938.182a41.2,41.2,0,0,0-3.263,3.736c-1.443,2.091-2.916,4.23.407,6.2,2.791,1.657,1.3,2.825-.749,3.6-.914.343-1.977.289-2.893.63-1.921.714-3.559,1.628-3.54,4.177s1.641,3.547,3.575,4.165c2.259.721,4.907.591,6.575,3.918-5.106-1.98-8.33-1.531-8.217,4.455.044,2.326-2.1,2.633-3.962,2.86Q263,251.938,263.066,249.972Z" fill="#809866"/>
    <path id="Path_13564" data-name="Path 13564" d="M204.011,382.007l-.614.96c-3.113,2.4-1.848,5.978-2.445,9.055-1.234,2.1-1.955,4.5-3.715,6.292-1.36.563-2.611,2.036-4.221.505-1.7-1.678-.311-3.856-.963-5.992-2.25-.61-4.571,2.428-6.849.224q-.168-.546-.336-1.1c3.253-5.331,3.083-5.64-3.109-8.151-6.585-2.67-11.659-6.667-12.912-14.325-.354-2.167-1.962-4.109-2.841-6.218-.416-1-1-2.365.644-2.9,1.17-.38,1.772.606,2.263,1.478,1.7,3.021,3.3,6.1,5.082,9.076,3.421,5.724,8.664,8.528,13,7.082,1.131-.6,1.438.4,1.953,1,2.632,1.878,2.963-.389,2.961-1.946a15.694,15.694,0,0,0-2.962-9.224c-2.575-3.629-5.152-7.264-7.517-11.029-.783-1.248-2.481-3.084-.64-4.361,1.729-1.2,2.851.942,4.043,1.978.747.65,1.432,1.372,2.144,2.062.567,1.955,2.167,3.284,3.086,5.052.654,1.258.384-.719.933-.525,1.522-1.688,1.573-3.893,2.172-5.925s1.051-4.2,2.86-5.682c.915-.749,1.818-1.741,3.051-1.073,1.41.763.674,1.97.264,3.044-1,2.627-1.976,5.267-2.989,7.89-.584,1.51-1.8,2.858-.993,5.055,3.742-4.511,7.373-8.846,10.947-13.227,1.06-1.3,1.969-3.118,3.851-1.264,1.624,1.6.468,3.033-.765,4.271-3.624,3.641-7.746,6.9-10.112,11.57-1.958,3.86-4.924,7.769-1.584,12.38.773,2.7-1.459,4.769-1.449,6.771,1.8-4.129,2.251-9.513,6.776-12.8,6.17-6.059,13.178-10.252,22.2-9.966-.817,2.058-2.755,2.053-4.462,2.3-2.344.337-3.592,1.972-4.847,3.668C211.216,372.058,205.651,375.363,204.011,382.007Z" fill="#f2efc2"/>
    <path id="Path_13565" data-name="Path 13565" d="M188.947,379l-1.953-1q-.489-.73-.976-1.462c-.938-3.575-5.344-4.616-6.087-8.333-.2-.787-.8-1.812-.507-2.315.783-1.346,1.575-.115,2.358.318C186.822,368.99,188.248,373.787,188.947,379Z" fill="#ebeabe"/>
    <path id="Path_13566" data-name="Path 13566" d="M203.024,372.013c-3.684,4.709-5.148,10.49-7.75,17.146-.5-4.943,1.685-7.859,2.423-11.116q2.458-4.176,4.915-8.353.8-.143.72.666Z" fill="#3e4453"/>
    <path id="Path_13567" data-name="Path 13567" d="M202.612,369.69a30.455,30.455,0,0,1,7.778-9.258c-2.148,4.578-4.93,7.029-7.059,9.924A8.241,8.241,0,0,0,202.612,369.69Z" fill="#394250"/>
    <path id="Path_13568" data-name="Path 13568" d="M179.931,368.2c2.08,2.74,5.683,4.368,6.087,8.333-2.386-2.386-4.89-4.669-7.119-7.193C177.282,367.511,179.312,368.355,179.931,368.2Z" fill="#343e4e"/>
    <path id="Path_13569" data-name="Path 13569" d="M190.995,361l.366,2.41c-1.915-2.026-4.174-3.834-4.385-6.936C189.1,357.293,189.457,359.671,190.995,361Z" fill="#3b4250"/>
    <path id="Path_13570" data-name="Path 13570" d="M185.2,393.051c1.481-.023,2.944.039,4.221-1.019,1.041-.862,1.976-2.7,3.679-1.224,1.3,1.122.879,2.644.46,4.141a27.844,27.844,0,0,0-.547,3.87C189.939,397.536,186.061,397.34,185.2,393.051Z" fill="#c3d08a"/>
    <path id="Path_13571" data-name="Path 13571" d="M197.237,398.314c.574-2.49.995-5.071,3.715-6.293l.126,1.994A5.44,5.44,0,0,1,197.237,398.314Z" fill="#c1ce8a"/>
    <path id="Path_13572" data-name="Path 13572" d="M204.011,382.007c-1.842-3.364.8-5.094,2.6-7.127,2.613-2.948,5.032-6.161,9.3-6.866l-.111,7.01c-.917,2.5-2.782,4.212-4.778,5.82C208.607,380.754,206.2,380.7,204.011,382.007Z" fill="#c4d18a"/>
    <path id="Path_13573" data-name="Path 13573" d="M211.024,380.844c.488-2.846,2.79-4.2,4.778-5.819.566,2.067-.481,3.85-1.014,5.724Z" fill="#e9e6be"/>
    <path id="Path_13574" data-name="Path 13574" d="M260.429,271.354c.882-5.959,5.284-9.537,8.255-13.935,1.044-1.547,3.208-1.723,5.072-1.261,1.5.372,3.062,1.31,2.821,2.977-.317,2.2-1.987,1.464-3.5,1.054-2.043-.553-4.039-.3-5.307,1.671-1.367,2.124.681,2.863,1.768,3.965,1.748,1.774.208,2.674-1.058,3.346A21.721,21.721,0,0,1,260.429,271.354Z" fill="#809866"/>
    <path id="Path_13575" data-name="Path 13575" d="M277.933,255.37c-2.416-.277-4.05-1.632-6.144-1.408-3.426.367-2.194-2.77-2.456-4.137-.433-2.263,1.673-1.911,3.082-1.533,2.431.653,4.481.552,4.344-2.581-.088-2.017.978-1.8,2.089-1.552,1.495.336,2.316,1.273,1.578,2.9C279.216,249.713,277.463,252.172,277.933,255.37Z" fill="#809866"/>
    <path id="Path_13576" data-name="Path 13576" d="M276.4,230.344c2.173,1.776,2.868,3.545.977,5.2a22.883,22.883,0,0,0-4,4.287c-1.131,1.653-2.861,1.344-4.455.573-.871-.421-2-.854-1.694-2.094.43-1.725,2.026-2.1,3.478-2.24C274.047,235.75,276.039,234.072,276.4,230.344Z" fill="#809866"/>
    <path id="Path_13577" data-name="Path 13577" d="M266.005,281.9c-2.194-1.662-4.886,1.122-7.053-.789a.9.9,0,0,1-.886-.266c.832-1.188,1.447-2.6,3.412-2.121a6.083,6.083,0,0,0,2.876-.054c1.766-.462,3.288-4.012,4.763-2.056C270.764,278.8,266.579,279.752,266.005,281.9Z" fill="#809767"/>
  </g>
</svg>
